{
	"asset":{
		"generator":"Khronos glTF Blender I/O v4.4.56",
		"version":"2.0"
	},
	"extensionsUsed":[
		"KHR_materials_unlit"
	],
	"scene":0,
	"scenes":[
		{
			"name":"Scene",
			"nodes":[
				0
			]
		}
	],
	"nodes":[
		{
			"mesh":0,
			"name":"Food_Vegetables_Eggplant"
		}
	],
	"materials":[
		{
			"doubleSided":true,
			"extensions":{
				"KHR_materials_unlit":{}
			},
			"name":"Food_Vegetables",
			"pbrMetallicRoughness":{
				"baseColorTexture":{
					"index":0
				},
				"metallicFactor":0,
				"roughnessFactor":0.9
			}
		}
	],
	"meshes":[
		{
			"name":"Food_Vegetables_Eggplant",
			"primitives":[
				{
					"attributes":{
						"POSITION":0,
						"NORMAL":1,
						"TEXCOORD_0":2
					},
					"indices":3,
					"material":0
				}
			]
		}
	],
	"textures":[
		{
			"sampler":0,
			"source":0
		}
	],
	"images":[
		{
			"mimeType":"image/png",
			"name":"food_Vegetables",
			"uri":"food_Vegetables.png"
		}
	],
	"accessors":[
		{
			"bufferView":0,
			"componentType":5126,
			"count":193,
			"max":[
				0.08317315578460693,
				0.24736827611923218,
				0.08865229785442352
			],
			"min":[
				-0.08317381888628006,
				-0.011006452143192291,
				-0.08745431154966354
			],
			"type":"VEC3"
		},
		{
			"bufferView":1,
			"componentType":5126,
			"count":193,
			"type":"VEC3"
		},
		{
			"bufferView":2,
			"componentType":5126,
			"count":193,
			"type":"VEC2"
		},
		{
			"bufferView":3,
			"componentType":5123,
			"count":558,
			"type":"SCALAR"
		}
	],
	"bufferViews":[
		{
			"buffer":0,
			"byteLength":2316,
			"byteOffset":0,
			"target":34962
		},
		{
			"buffer":0,
			"byteLength":2316,
			"byteOffset":2316,
			"target":34962
		},
		{
			"buffer":0,
			"byteLength":1544,
			"byteOffset":4632,
			"target":34962
		},
		{
			"buffer":0,
			"byteLength":1116,
			"byteOffset":6176,
			"target":34963
		}
	],
	"samplers":[
		{
			"magFilter":9729,
			"minFilter":9987
		}
	],
	"buffers":[
		{
			"byteLength":7292,
			"uri":"Food_Vegetables_Eggplant.bin"
		}
	]
}
