# Blender 4.4.3
# www.blender.org
mtllib Food_Vegetables_Eggplant.mtl
o Food_Vegetables_Eggplant
v -0.000000 0.000000 -0.046748
v 0.027477 0.000000 -0.037820
v 0.044459 0.000000 -0.014446
v 0.044459 0.000000 0.014445
v -0.000000 0.031273 0.080288
v 0.027477 0.000000 0.037819
v 0.047192 0.031273 0.064954
v -0.000000 0.000000 0.046747
v 0.076359 0.031273 0.024810
v 0.076359 0.031273 -0.024811
v 0.047192 0.031273 -0.064955
v -0.000000 0.031273 -0.080289
v -0.000000 -0.011006 -0.000001
v -0.000000 0.116054 0.074448
v 0.043759 0.116054 0.060229
v 0.070804 0.116054 0.023005
v 0.070804 0.116054 -0.023006
v 0.043759 0.116054 -0.060230
v -0.000000 0.116054 -0.074449
v 0.083173 0.072207 0.027024
v 0.051404 0.072207 0.070751
v -0.000000 0.072207 0.087453
v -0.000000 0.172406 -0.061139
v 0.058145 0.172406 -0.018893
v -0.000000 0.072207 -0.087454
v 0.051404 0.072207 -0.070752
v 0.083173 0.072207 -0.027025
v 0.035936 0.172406 0.049461
v 0.050214 0.146387 -0.069129
v 0.078900 0.146387 0.025621
v -0.000000 0.146387 0.088652
v -0.000000 0.137733 0.071368
v 0.031406 0.161626 0.043226
v 0.063519 0.137733 0.020625
v 0.050816 0.161626 -0.016512
v 0.040425 0.137733 -0.055655
v -0.000000 0.161626 -0.053432
v -0.019331 0.216662 0.001516
v 0.000169 0.181275 -0.053411
v 0.050964 0.181278 -0.016261
v -0.004773 0.219939 0.018734
v 0.031328 0.181285 0.043529
v 0.009951 0.222360 0.001516
v 0.031602 0.186815 -0.043088
v 0.050859 0.186821 0.016824
v -0.019755 0.240292 0.014954
v -0.000170 0.186825 0.053653
v -0.028576 0.232688 0.001516
v -0.000000 0.193939 -0.017966
v 0.000124 0.193447 -0.037464
v 0.036158 0.193459 -0.011103
v 0.016878 0.194185 -0.008225
v 0.016878 0.194679 0.011257
v 0.022222 0.193479 0.031313
v 0.022423 0.198990 -0.030137
v 0.036081 0.199010 0.012369
v -0.000125 0.199022 0.038493
v -0.000000 0.200465 0.020999
v -0.027478 0.000000 -0.037820
v -0.044460 0.000000 -0.014446
v -0.044460 0.000000 0.014445
v -0.027478 0.000000 0.037819
v -0.047193 0.031273 0.064954
v -0.076359 0.031273 0.024810
v -0.076359 0.031273 -0.024811
v -0.047193 0.031273 -0.064955
v -0.043760 0.116054 0.060229
v -0.070805 0.116054 0.023005
v -0.070805 0.116054 -0.023006
v -0.043760 0.116054 -0.060230
v -0.083174 0.072207 0.027024
v -0.051404 0.072207 0.070751
v -0.058146 0.172406 -0.018893
v -0.051404 0.072207 -0.070752
v -0.083174 0.072207 -0.027025
v -0.035936 0.172406 0.049461
v -0.050215 0.146387 -0.069129
v -0.078901 0.146387 0.025621
v -0.031407 0.161626 0.043226
v -0.063520 0.137733 0.020625
v -0.050817 0.161626 -0.016512
v -0.040426 0.137733 -0.055655
v -0.050860 0.181278 -0.016582
v -0.031602 0.181285 0.043330
v -0.004607 0.219083 -0.015701
v -0.031329 0.186815 -0.043287
v -0.050964 0.186821 0.016502
v -0.010505 0.247368 0.001516
v -0.036081 0.193459 -0.011340
v -0.016878 0.194185 -0.008225
v -0.016878 0.194679 0.011257
v -0.022424 0.193479 0.031167
v -0.022223 0.198990 -0.030284
v -0.036158 0.199009 0.012132
v -0.019326 0.239764 -0.011922
vn 0.4843 -0.8606 -0.1574
vn 0.2993 -0.8606 -0.4120
vn 0.5243 -0.4522 -0.7216
vn 0.8483 -0.4522 -0.2756
vn 0.4843 -0.8606 0.1574
vn 0.8483 -0.4522 0.2756
vn -0.0000 -0.8606 -0.5092
vn -0.0000 -0.4522 -0.8919
vn 0.2993 -0.8606 0.4120
vn 0.5243 -0.4522 0.7216
vn -0.0000 -0.8606 0.5092
vn -0.0000 -0.4522 0.8919
vn -0.0000 -1.0000 -0.0000
vn 0.5869 0.0551 0.8078
vn 0.9496 0.0551 0.3085
vn 0.8950 0.3381 0.2908
vn 0.5676 0.3213 0.7580
vn 0.1124 -0.5810 0.8061
vn 0.4969 -0.8527 0.1612
vn 0.4969 -0.8527 0.1613
vn 0.7518 -0.5720 0.3279
vn -0.0000 -0.8676 0.4973
vn 0.5869 0.0551 -0.8078
vn -0.0000 0.0551 -0.9985
vn -0.0000 0.3229 -0.9464
vn 0.5550 0.3295 -0.7638
vn 0.9496 0.0551 -0.3085
vn 0.9000 0.3287 -0.2862
vn -0.0000 0.0551 0.9985
vn -0.0000 0.3180 0.9481
vn 0.8013 -0.5770 0.1579
vn 0.3004 -0.8594 -0.4137
vn 0.3004 -0.8594 -0.4136
vn -0.0000 0.3659 -0.9307
vn 0.5437 0.3796 -0.7485
vn 0.8726 0.3979 0.2833
vn 0.5717 0.3625 0.7360
vn -0.3980 -0.5769 -0.7133
vn 0.8844 0.3781 -0.2736
vn 0.5646 -0.5808 -0.5864
vn -0.0000 0.3552 0.9348
vn 0.3283 0.8828 0.3359
vn 0.3289 0.8798 0.3432
vn 0.3349 0.6876 0.6443
vn 0.3344 0.6766 0.6561
vn 0.6211 0.5714 0.5364
vn 0.5355 0.6638 0.5222
vn 0.5488 0.6507 0.5248
vn 0.0345 0.2641 0.9639
vn 0.8554 0.5178 -0.0151
vn 0.7568 0.6536 0.0048
vn -0.0409 0.1201 0.9919
vn 0.2034 0.8999 0.3858
vn 0.2371 0.8835 0.4039
vn 0.8158 0.5746 -0.0655
vn 0.7502 0.6539 -0.0981
vn 0.7333 0.6716 -0.1057
vn 0.1728 0.5998 -0.7813
vn 0.1257 0.6719 -0.7299
vn 0.1157 0.6862 -0.7182
vn 0.3307 0.6215 0.7102
vn 0.6927 0.5974 -0.4041
vn 0.6522 0.6813 -0.3324
vn 0.6585 0.6699 -0.3429
vn 0.8715 0.3131 0.3773
vn 0.8383 0.2983 -0.4564
vn -0.9728 -0.2316 -0.0027
vn -0.8724 -0.4888 0.0108
vn 0.0526 0.2655 -0.9627
vn 0.0355 0.2438 -0.9692
vn 0.3496 0.9239 -0.1555
vn 0.3076 0.9388 -0.1552
vn -0.8836 0.0110 0.4681
vn 0.0755 0.3045 0.9495
vn 0.4462 0.8904 -0.0900
vn 0.4329 0.8981 -0.0772
vn -0.2250 0.9672 0.1178
vn -0.0987 0.9854 -0.1388
vn -0.1788 0.9808 0.0777
vn -0.0676 0.9482 -0.3102
vn -0.0434 0.9223 -0.3840
vn 0.0710 0.9704 0.2307
vn 0.2882 0.9572 0.0273
vn -0.4843 -0.8606 -0.1574
vn -0.8483 -0.4522 -0.2756
vn -0.5243 -0.4522 -0.7216
vn -0.2993 -0.8606 -0.4120
vn -0.4843 -0.8606 0.1574
vn -0.8483 -0.4522 0.2756
vn -0.2993 -0.8606 0.4120
vn -0.5243 -0.4522 0.7216
vn -0.5869 0.0551 0.8078
vn -0.5676 0.3213 0.7580
vn -0.8950 0.3381 0.2908
vn -0.9496 0.0551 0.3085
vn -0.1124 -0.5810 0.8061
vn -0.4969 -0.8527 0.1613
vn -0.4969 -0.8527 0.1612
vn -0.7518 -0.5720 0.3279
vn -0.5869 0.0551 -0.8078
vn -0.5550 0.3295 -0.7638
vn -0.9000 0.3287 -0.2862
vn -0.9496 0.0551 -0.3085
vn -0.8013 -0.5770 0.1579
vn -0.3004 -0.8594 -0.4136
vn -0.3004 -0.8594 -0.4137
vn -0.5437 0.3796 -0.7485
vn -0.5717 0.3625 0.7360
vn -0.8726 0.3979 0.2833
vn 0.3980 -0.5769 -0.7133
vn -0.8844 0.3781 -0.2736
vn -0.5646 -0.5808 -0.5864
vn -0.3301 0.8831 0.3336
vn -0.3375 0.6765 0.6546
vn -0.3380 0.6868 0.6434
vn -0.3306 0.8805 0.3398
vn -0.6222 0.5724 0.5341
vn -0.5515 0.6504 0.5224
vn -0.5371 0.6646 0.5194
vn -0.0398 0.1212 -0.9918
vn -0.2394 0.8837 0.4022
vn -0.2072 0.8993 0.3853
vn -0.8162 0.5737 -0.0680
vn -0.7335 0.6709 -0.1088
vn -0.7494 0.6543 -0.1016
vn -0.1705 0.5988 -0.7825
vn -0.1127 0.6855 -0.7193
vn -0.1222 0.6721 -0.7303
vn -0.3333 0.6203 0.7100
vn -0.6907 0.5985 -0.4059
vn -0.6570 0.6698 -0.3461
vn -0.6501 0.6821 -0.3348
vn -0.8575 0.0185 -0.5142
vn -0.3490 0.9237 -0.1579
vn -0.3056 0.9391 -0.1574
vn -0.4322 0.8983 -0.0797
vn -0.4463 0.8900 -0.0935
vn 0.2228 0.9674 0.1203
vn 0.1003 0.9853 -0.1384
vn 0.1789 0.9807 0.0793
vn 0.0458 0.9220 -0.3844
vn 0.0701 0.9484 -0.3093
vn -0.0739 0.9705 0.2293
vn -0.2874 0.9575 0.0241
vn -0.6303 0.7759 -0.0253
vt 0.005433 0.337683
vt 0.005433 0.295702
vt 0.052504 0.292928
vt 0.052504 0.337164
vt 0.005433 0.382742
vt 0.052504 0.381620
vt 0.005433 0.253620
vt 0.052504 0.253620
vt 0.005433 0.427616
vt 0.052504 0.426032
vt 0.005433 0.471400
vt 0.052504 0.470216
vt 0.183548 0.427171
vt 0.189966 0.397926
vt 0.229762 0.423124
vt 0.093056 0.425044
vt 0.093056 0.380910
vt 0.136542 0.380531
vt 0.136542 0.424123
vt 0.277577 0.552442
vt 0.277655 0.539318
vt 0.339830 0.539083
vt 0.329816 0.552426
vt 0.223657 0.553241
vt 0.212226 0.537484
vt 0.225213 0.467963
vt 0.196597 0.455386
vt 0.093056 0.290441
vt 0.093056 0.253620
vt 0.136542 0.253620
vt 0.136542 0.293685
vt 0.093056 0.336461
vt 0.136542 0.337202
vt 0.093056 0.469331
vt 0.136542 0.468311
vt 0.342467 0.603205
vt 0.356573 0.598644
vt 0.377190 0.658004
vt 0.361141 0.652736
vt 0.250501 0.462439
vt 0.185890 0.253620
vt 0.156703 0.295853
vt 0.156632 0.380273
vt 0.181415 0.421399
vt 0.316627 0.681452
vt 0.325398 0.693547
vt 0.180283 0.338631
vt 0.268966 0.440102
vt 0.159178 0.467439
vt 0.276069 0.586860
vt 0.256310 0.598472
vt 0.247222 0.586059
vt 0.276861 0.566203
vt 0.304923 0.584372
vt 0.248579 0.489533
vt 0.269633 0.486706
vt 0.265531 0.516613
vt 0.248162 0.513647
vt 0.295118 0.597421
vt 0.329902 0.606883
vt 0.308975 0.670648
vt 0.322027 0.639595
vt 0.263795 0.459342
vt 0.282872 0.461342
vt 0.226671 0.495553
vt 0.231150 0.513691
vt 0.299289 0.470490
vt 0.289819 0.493621
vt 0.310481 0.612719
vt 0.229012 0.471558
vt 0.247067 0.469994
vt 0.306465 0.634326
vt 0.281898 0.606939
vt 0.292631 0.621252
vt 0.285198 0.638098
vt 0.296871 0.654007
vt 0.264677 0.609823
vt 0.005433 0.596409
vt 0.052504 0.601352
vt 0.052504 0.645232
vt 0.005433 0.632924
vt 0.005433 0.556221
vt 0.052504 0.557995
vt 0.052504 0.682568
vt 0.005433 0.682568
vt 0.005433 0.514227
vt 0.052504 0.514411
vt 0.211832 0.378734
vt 0.093056 0.513379
vt 0.136542 0.512959
vt 0.136542 0.557562
vt 0.093056 0.557829
vt 0.206137 0.604250
vt 0.189890 0.653899
vt 0.174096 0.659271
vt 0.193639 0.600246
vt 0.264527 0.389358
vt 0.240132 0.375809
vt 0.093056 0.649052
vt 0.136542 0.647396
vt 0.136542 0.682568
vt 0.093056 0.682568
vt 0.136542 0.602518
vt 0.093056 0.602768
vt 0.234224 0.681702
vt 0.275503 0.714841
vt 0.275524 0.731732
vt 0.225507 0.693693
vt 0.276100 0.414143
vt 0.160564 0.646463
vt 0.185890 0.682568
vt 0.184913 0.512389
vt 0.162277 0.557201
vt 0.185668 0.601655
vt 0.239245 0.613742
vt 0.219342 0.608124
vt 0.228107 0.640492
vt 0.283054 0.517635
vt 0.243515 0.635109
vt 0.241868 0.671072
vt 0.275512 0.673579
vt 0.212577 0.475198
vt 0.253400 0.654392
vt 0.194476 0.478147
vt 0.204383 0.500091
vt 0.275214 0.657148
vt 0.256583 0.625300
vt 0.266874 0.639950
vt 0.216147 0.520077
vt 0.247952 0.530585
vt 0.264694 0.533712
s 1
usemtl Food_Vegetables
f 3/1/1 2/2/2 11/3/3 10/4/4
f 4/5/5 3/1/1 10/4/4 9/6/6
f 2/2/2 1/7/7 12/8/8 11/3/3
f 6/9/9 4/5/5 9/6/6 7/10/10
f 8/11/11 6/9/9 7/10/10 5/12/12
f 6/13/9 8/14/11 13/15/13
f 21/16/14 20/17/15 16/18/16 15/19/17
f 28/20/18 33/21/18 34/22/19 30/23/20
f 28/20/21 31/24/22 32/25/22 33/21/21
f 3/26/1 4/27/5 13/15/13
f 26/28/23 25/29/24 19/30/25 18/31/26
f 20/17/15 27/32/27 17/33/28 16/18/16
f 22/34/29 21/16/14 15/19/17 14/35/30
f 24/36/31 35/37/31 36/38/32 29/39/33
f 27/32/27 26/28/23 18/31/26 17/33/28
f 10/4/4 11/3/3 26/28/23 27/32/27
f 5/12/12 7/10/10 21/16/14 22/34/29
f 9/6/6 10/4/4 27/32/27 20/17/15
f 11/3/3 12/8/8 25/29/24 26/28/23
f 7/10/10 9/6/6 20/17/15 21/16/14
f 2/40/2 3/26/1 13/15/13
f 18/31/26 19/30/25 37/41/34 36/42/35
f 15/19/17 16/18/16 34/43/36 33/44/37
f 23/45/38 29/39/33 36/38/32 37/46/38
f 4/27/5 6/13/9 13/15/13
f 16/18/16 17/33/28 35/47/39 34/43/36
f 24/36/40 30/23/20 34/22/19 35/37/40
f 1/48/7 2/40/2 13/15/13
f 17/33/28 18/31/26 36/42/35 35/47/39
f 14/35/30 15/19/17 33/44/37 32/49/41
f 54/50/42 57/51/43 47/52/44 42/53/45
f 28/20/46 30/23/46 45/54/47 42/53/48
f 41/55/49 43/56/50 88/57/51 46/58/52
f 42/53/48 45/54/47 56/59/53 54/50/54
f 30/23/55 24/36/55 40/60/56 45/54/57
f 29/39/58 23/45/58 39/61/59 44/62/60
f 31/24/61 28/20/61 42/53/45 47/52/44
f 24/36/62 29/39/62 44/62/63 40/60/64
f 53/63/65 52/64/66 43/56/50
f 38/65/67 41/55/49 46/58/52 48/66/68
f 52/64/66 49/67/69 85/68/70 43/56/50
f 51/69/71 56/59/72 45/54/57 40/60/56
f 91/70/73 58/71/74 41/55/49 38/65/67
f 40/60/64 44/62/63 55/72/75 51/69/76
f 53/73/77 54/50/54 56/59/53
f 52/74/78 53/73/78 56/59/72 51/69/71
f 49/75/79 52/74/79 55/72/80 50/76/81
f 52/74/82 51/69/76 55/72/75
f 53/73/83 58/77/83 57/51/43 54/50/42
f 50/76/81 55/72/80 44/62/60 39/61/59
f 60/78/84 65/79/85 66/80/86 59/81/87
f 61/82/88 64/83/89 65/79/85 60/78/84
f 59/81/87 66/80/86 12/84/8 1/85/7
f 62/86/90 63/87/91 64/83/89 61/82/88
f 8/11/11 5/12/12 63/87/91 62/86/90
f 62/88/90 13/15/13 8/14/11
f 72/89/92 67/90/93 68/91/94 71/92/95
f 76/93/96 78/94/97 80/95/98 79/96/96
f 76/93/99 79/96/99 32/25/22 31/24/22
f 60/97/84 13/15/13 61/98/88
f 74/99/100 70/100/101 19/101/25 25/102/24
f 71/92/95 68/91/94 69/103/102 75/104/103
f 22/34/29 14/35/30 67/90/93 72/89/92
f 73/105/104 77/106/105 82/107/106 81/108/104
f 75/104/103 69/103/102 70/100/101 74/99/100
f 65/79/85 75/104/103 74/99/100 66/80/86
f 5/12/12 22/34/29 72/89/92 63/87/91
f 64/83/89 71/92/95 75/104/103 65/79/85
f 66/80/86 74/99/100 25/102/24 12/84/8
f 63/87/91 72/89/92 71/92/95 64/83/89
f 59/109/87 13/15/13 60/97/84
f 70/100/101 82/110/107 37/111/34 19/101/25
f 67/90/93 79/112/108 80/113/109 68/91/94
f 23/45/110 37/46/110 82/107/106 77/106/105
f 61/98/88 13/15/13 62/88/90
f 68/91/94 80/113/109 81/114/111 69/103/102
f 73/105/112 81/108/112 80/95/98 78/94/97
f 1/48/7 13/15/13 59/109/87
f 69/103/102 81/114/111 82/110/107 70/100/101
f 14/35/30 32/49/41 79/112/108 67/90/93
f 92/115/113 84/116/114 47/52/115 57/51/116
f 76/93/117 84/116/118 87/117/119 78/94/117
f 43/56/50 85/68/70 95/118/120 88/57/51
f 84/116/118 92/115/121 94/119/122 87/117/119
f 78/94/123 87/117/124 83/120/125 73/105/123
f 77/106/126 86/121/127 39/61/128 23/45/126
f 31/24/129 47/52/115 84/116/114 76/93/129
f 73/105/130 83/120/131 86/121/132 77/106/130
f 90/122/133 91/70/73 38/65/67
f 58/71/74 53/63/65 43/56/50 41/55/49
f 89/123/134 83/120/125 87/117/124 94/119/135
f 49/124/69 90/122/133 38/65/67 85/125/70
f 83/120/131 89/123/136 93/126/137 86/121/132
f 91/127/138 94/119/122 92/115/121
f 90/128/139 89/123/134 94/119/135 91/127/139
f 49/75/140 50/76/141 93/126/142 90/128/140
f 90/128/143 93/126/137 89/123/136
f 91/127/144 92/115/113 57/51/116 58/77/144
f 50/76/141 39/61/128 86/121/127 93/126/142
f 85/125/70 38/65/67 48/66/68 95/129/120
f 48/130/145 46/58/145 88/57/145 95/131/145
