# Blender 4.4.3
# www.blender.org
mtllib Food_Vegetables_Onion.mtl
o Food_Vegetables_Onion
v -0.006712 0.119333 0.003901
v -0.006712 0.128757 0.004418
v -0.006712 0.119333 -0.005676
v -0.006712 0.128757 -0.005159
v 0.002864 0.119333 0.003901
v 0.002864 0.128757 0.004418
v 0.002864 0.119333 -0.005676
v 0.002864 0.128757 -0.005159
v -0.007835 0.147572 0.005363
v -0.007835 0.147572 -0.004213
v 0.001365 0.150228 0.005508
v 0.001365 0.150228 -0.004069
v -0.012211 0.167684 0.006153
v -0.012211 0.167684 -0.002711
v -0.003806 0.170359 0.006219
v -0.003806 0.170359 -0.002601
v -0.017840 0.181649 0.007881
v -0.017840 0.181649 0.001969
v -0.013068 0.185106 0.008035
v -0.013068 0.185106 0.002126
v -0.021913 0.189499 0.008579
v -0.021913 0.189499 0.005044
v -0.019050 0.191574 0.008659
v -0.019050 0.191574 0.005124
v 0.004622 0.120660 -0.007131
v 0.004461 0.128715 -0.008040
v -0.004856 0.120660 -0.006217
v -0.005013 0.128753 -0.007121
v 0.005602 0.120660 0.002594
v 0.005473 0.128819 0.001727
v -0.003860 0.120660 0.003529
v -0.003983 0.128867 0.002669
v 0.004067 0.145482 -0.010822
v -0.005396 0.145527 -0.009889
v 0.005090 0.148183 -0.001569
v -0.004356 0.148238 -0.000615
v 0.003019 0.164747 -0.017105
v -0.005710 0.164806 -0.016203
v 0.003973 0.167513 -0.008539
v -0.004740 0.167555 -0.007677
v 0.003206 0.178104 -0.024196
v -0.002649 0.178125 -0.023637
v 0.003772 0.181560 -0.019460
v -0.002081 0.181580 -0.018902
v 0.002919 0.185590 -0.029115
v -0.000603 0.185590 -0.028807
v 0.003249 0.187664 -0.026270
v -0.000274 0.187664 -0.025962
v 0.005529 0.117587 0.005822
v 0.006013 0.126787 0.005397
v 0.006780 0.117587 -0.001960
v 0.007260 0.126368 -0.002384
v -0.002474 0.117587 0.004586
v -0.002031 0.126501 0.004178
v -0.001243 0.117587 -0.003188
v -0.000806 0.126090 -0.003594
v 0.007818 0.143823 0.004773
v 0.009051 0.143409 -0.003002
v 0.000106 0.145707 0.003533
v 0.001317 0.145301 -0.004234
v 0.012491 0.159973 0.004220
v 0.013593 0.159604 -0.002961
v 0.005341 0.161936 0.003063
v 0.006474 0.161556 -0.004097
v 0.017731 0.171326 0.005135
v 0.018508 0.171064 0.000329
v 0.013711 0.174006 0.004424
v 0.014489 0.173744 -0.000380
v 0.021507 0.177711 0.005530
v 0.021997 0.177545 0.002645
v 0.019094 0.179319 0.005095
v 0.019585 0.179153 0.002210
v 0.000028 0.079763 -0.045149
v 0.011789 0.094274 -0.020307
v 0.022634 0.079763 -0.039092
v 0.029564 0.029435 -0.051095
v 0.022634 0.014453 -0.039092
v 0.009195 -0.000038 -0.009104
v 0.020398 0.094274 -0.011698
v 0.039183 0.079763 -0.022543
v 0.051187 0.029435 -0.029473
v 0.039183 0.014453 -0.022543
v 0.023550 0.094274 0.000063
v 0.045240 0.079763 0.000063
v 0.059101 0.029435 0.000063
v 0.045240 0.014453 0.000063
v 0.013450 -0.000038 0.000063
v 0.020398 0.094274 0.011824
v 0.039183 0.079763 0.022669
v 0.051187 0.029435 0.029599
v 0.039183 0.014453 0.022669
v 0.009195 -0.000038 0.009230
v 0.011789 0.094274 0.020433
v 0.022634 0.079763 0.039218
v 0.029564 0.029435 0.051222
v 0.022634 0.014453 0.039218
v 0.000028 0.094274 0.023585
v 0.000028 0.079763 0.045275
v 0.000028 0.029435 0.059136
v 0.000028 0.014453 0.045275
v 0.000028 -0.000038 0.013485
v -0.011733 0.094274 0.020433
v -0.022578 0.079763 0.039218
v -0.029508 0.029435 0.051222
v -0.022578 0.014453 0.039218
v -0.009139 -0.000038 0.009230
v 0.007570 0.106847 -0.013000
v -0.020342 0.094274 0.011824
v -0.039127 0.079763 0.022669
v -0.051130 0.029435 0.029599
v -0.039127 0.014453 0.022669
v 0.000000 -0.003062 0.000001
v -0.023494 0.094274 0.000063
v -0.045184 0.079763 0.000063
v -0.059045 0.029435 0.000063
v -0.045184 0.014453 0.000063
v -0.013394 -0.000038 0.000063
v -0.020342 0.094274 -0.011698
v -0.039127 0.079763 -0.022543
v -0.051130 0.029435 -0.029473
v -0.039127 0.014453 -0.022543
v -0.009139 -0.000038 -0.009104
v -0.011733 0.094274 -0.020307
v -0.022578 0.079763 -0.039092
v -0.029508 0.029435 -0.051095
v -0.022578 0.014453 -0.039092
v 0.000028 0.094274 -0.023459
v 0.000028 0.029435 -0.059010
v 0.000028 0.014453 -0.045149
v 0.000028 -0.000038 -0.013359
v 0.013091 0.106847 -0.007479
v 0.015112 0.106847 0.000063
v 0.013091 0.106847 0.007605
v 0.007570 0.106847 0.013126
v 0.000028 0.106847 0.015147
v -0.007514 0.106847 0.013126
v -0.013035 0.106847 0.007605
v -0.015056 0.106847 0.000063
v -0.013035 0.106847 -0.007479
v -0.007514 0.106847 -0.013000
v 0.000028 0.106847 -0.015021
v 0.006578 0.128190 -0.011282
v 0.011373 0.123559 -0.006487
v 0.011792 0.128161 -0.000400
v 0.011373 0.133685 0.006613
v 0.006420 0.128167 0.010109
v 0.000028 0.121205 0.013163
v -0.006005 0.128257 0.011001
v -0.011317 0.137278 0.006613
v -0.013072 0.128190 0.000063
v -0.011317 0.136320 -0.006487
v -0.006522 0.128190 -0.011282
v 0.000028 0.134746 -0.013037
v 0.014519 0.005033 -0.014428
v 0.021245 0.005033 0.000063
v 0.014519 0.005033 0.014554
v 0.000028 0.005033 0.021280
v -0.014463 0.005033 0.014554
v -0.021189 0.005033 0.000063
v -0.014463 0.005033 -0.014428
v 0.000028 0.005033 -0.021154
v 0.004504 0.128656 -0.007689
v 0.007781 0.125491 -0.004413
v 0.008067 0.128636 -0.000253
v 0.007781 0.132411 0.004539
v 0.004396 0.128640 0.006928
v 0.000028 0.123883 0.009015
v -0.004095 0.128702 0.007537
v -0.007724 0.134866 0.004539
v -0.008924 0.128656 0.000063
v -0.007724 0.134211 -0.004413
v -0.004448 0.128656 -0.007689
v 0.000028 0.133136 -0.008889
v 0.000000 0.123691 0.000001
v 0.030781 0.055944 -0.053203
v 0.053294 0.055944 -0.030690
v 0.061534 0.055944 0.000063
v 0.053294 0.055944 0.030816
v 0.030781 0.055944 0.053329
v 0.000028 0.055944 0.061569
v -0.030725 0.055944 0.053329
v -0.053238 0.055944 0.030816
v -0.061478 0.055944 0.000063
v -0.053238 0.055944 -0.030690
v -0.030725 0.055944 -0.053203
v 0.000028 0.055944 -0.061443
vn -0.7191 -0.0381 0.6938
vn -0.6990 -0.0591 0.7127
vn -0.7010 0.0173 -0.7130
vn -0.6944 0.0394 -0.7185
vn 0.7143 0.0608 -0.6972
vn 0.6944 0.0394 -0.7185
vn 0.7144 -0.0112 0.6996
vn 0.7191 -0.0381 0.6938
vn -0.6790 -0.1272 0.7230
vn 0.7174 0.0880 0.6911
vn 0.6982 0.2550 0.6690
vn -0.6510 -0.2580 0.7139
vn -0.6841 -0.0479 -0.7278
vn 0.7106 0.1556 -0.6862
vn 0.6237 0.3817 -0.6821
vn 0.4714 0.5999 -0.6464
vn 0.6015 0.3865 0.6991
vn -0.6743 -0.0628 -0.7358
vn -0.6033 -0.3553 0.7140
vn 0.0853 0.7839 0.6150
vn -0.7800 0.1666 0.6031
vn -0.7243 -0.0885 -0.6837
vn 0.0492 0.8863 -0.4605
vn -0.8448 0.2495 -0.4733
vn 0.6629 -0.0718 -0.7453
vn -0.7933 -0.0819 -0.6032
vn -0.7799 -0.1009 -0.6177
vn 0.6393 -0.0935 -0.7633
vn -0.6043 0.0733 0.7934
vn -0.6242 0.0948 0.7755
vn 0.7521 0.0820 0.6540
vn 0.7680 0.1017 0.6323
vn 0.6521 -0.1562 -0.7418
vn 0.6455 -0.2882 -0.7073
vn 0.7313 0.3532 0.5835
vn 0.7586 0.1929 0.6223
vn -0.7930 -0.1593 -0.5880
vn -0.6121 0.1909 0.7674
vn 0.7483 0.4711 0.4670
vn -0.6056 0.6175 0.5019
vn -0.6212 0.4085 0.6688
vn -0.8080 -0.1634 -0.5660
vn 0.6546 -0.3808 -0.6530
vn 0.5030 0.1401 -0.8529
vn 0.6028 0.7977 -0.0155
vn -0.7672 -0.1905 -0.6125
vn -0.4833 0.8739 0.0531
vn -0.5689 0.1932 -0.7994
vn 0.5628 0.0077 0.8266
vn 0.8081 -0.0714 -0.5847
vn 0.7994 -0.0881 -0.5943
vn 0.5809 -0.0131 0.8138
vn -0.6148 -0.0069 -0.7886
vn -0.5961 0.0149 -0.8028
vn -0.8041 0.0678 0.5906
vn -0.8104 0.0888 0.5791
vn 0.5546 -0.0793 0.8283
vn 0.5313 -0.2173 0.8188
vn -0.7618 0.3606 0.5382
vn -0.8033 0.1901 0.5644
vn 0.7756 -0.1588 -0.6109
vn -0.5987 0.1160 -0.7925
vn -0.6577 0.4851 0.5763
vn -0.3549 0.5583 -0.7499
vn -0.5046 0.3405 -0.7934
vn 0.7574 -0.1763 -0.6288
vn 0.4799 -0.3119 0.8200
vn 0.6924 0.2099 0.6903
vn -0.1664 0.8280 0.5355
vn 0.7930 -0.1988 -0.5759
vn 0.0388 0.8435 -0.5358
vn 0.9096 0.2039 -0.3620
vn -0.0000 -0.9067 -0.4218
vn -0.0000 -0.8144 -0.5803
vn 0.2939 -0.8103 -0.5070
vn 0.3045 -0.9025 -0.3045
vn -0.0000 0.2389 -0.9711
vn -0.0000 0.6954 -0.7186
vn 0.3593 0.6954 -0.6224
vn 0.4855 0.2389 -0.8410
vn -0.3449 0.7240 -0.5974
vn -0.5974 0.7240 -0.3449
vn -0.8133 0.3437 -0.4695
vn -0.4685 0.3414 -0.8149
vn -0.0005 -1.0000 -0.0011
vn -0.0000 -0.9034 -0.4287
vn 0.3058 -0.9017 -0.3057
vn -0.0000 -0.3884 -0.9215
vn 0.4607 -0.3884 -0.7980
vn -0.0000 0.7240 -0.6898
vn 0.3449 0.7240 -0.5974
vn -0.0000 0.3445 -0.9388
vn 0.4825 0.3486 -0.8036
vn 0.7980 -0.3884 -0.4607
vn 0.5070 -0.8103 -0.2939
vn 0.8410 0.2389 -0.4855
vn 0.9711 0.2389 -0.0000
vn 0.9215 -0.3884 -0.0000
vn 0.5974 0.7240 -0.3449
vn 0.6224 0.6954 -0.3593
vn 0.5803 -0.8144 -0.0000
vn 0.8410 0.2389 0.4855
vn 0.7980 -0.3884 0.4607
vn 0.6898 0.7240 -0.0000
vn 0.7186 0.6954 -0.0000
vn 0.4218 -0.9067 -0.0000
vn -0.0000 0.7240 0.6898
vn 0.3449 0.7240 0.5974
vn 0.4449 0.3624 0.8190
vn 0.0102 0.3687 0.9295
vn 0.4282 -0.9037 0.0001
vn 0.5070 -0.8103 0.2939
vn 0.3045 -0.9025 0.3045
vn 0.6224 0.6954 0.3593
vn 0.4855 0.2389 0.8410
vn 0.4607 -0.3884 0.7980
vn -0.3449 0.7240 0.5974
vn -0.4429 0.3543 0.8236
vn 0.3053 -0.9019 0.3054
vn 0.5974 0.7240 0.3449
vn 0.3593 0.6954 0.6224
vn -0.0000 0.2389 0.9711
vn -0.0000 -0.3884 0.9215
vn 0.8159 0.3615 -0.4512
vn 0.2939 -0.8103 0.5070
vn -0.0000 -0.9038 0.4281
vn -0.0000 -0.8144 0.5803
vn -0.4855 0.2389 0.8410
vn -0.4607 -0.3884 0.7980
vn -0.0000 0.6954 0.7186
vn -0.0000 -0.9067 0.4218
vn -0.6898 0.7240 -0.0000
vn -0.5974 0.7240 0.3449
vn -0.8059 0.3473 0.4794
vn -0.9403 0.3403 -0.0010
vn -0.8410 0.2389 0.4855
vn -0.7980 -0.3884 0.4607
vn -0.3593 0.6954 0.6224
vn -0.2939 -0.8103 0.5070
vn -0.3045 -0.9025 0.3045
vn -0.3055 -0.9018 0.3056
vn -0.5070 -0.8103 0.2939
vn -0.6224 0.6954 0.3593
vn -0.7186 0.6954 -0.0000
vn -0.9711 0.2389 -0.0000
vn -0.9215 -0.3884 -0.0000
vn 0.9326 0.3603 -0.0218
vn 0.8097 0.3621 0.4619
vn -0.4285 -0.9035 0.0001
vn -0.5803 -0.8144 -0.0000
vn -0.4218 -0.9067 -0.0000
vn -0.3059 -0.9016 -0.3059
vn -0.7980 -0.3884 -0.4607
vn -0.5070 -0.8103 -0.2939
vn -0.8410 0.2389 -0.4855
vn -0.4855 0.2389 -0.8410
vn -0.4607 -0.3884 -0.7980
vn -0.6224 0.6954 -0.3593
vn -0.3045 -0.9025 -0.3045
vn -0.3593 0.6954 -0.6224
vn -0.2939 -0.8103 -0.5070
vn -0.9971 0.0762 0.0003
vn -0.8633 0.0787 -0.4984
vn 0.8789 0.1201 -0.4616
vn 0.9930 0.1158 0.0212
vn -0.5478 0.0957 0.8311
vn -0.8477 0.0844 0.5237
vn 0.5385 0.1136 0.8349
vn 0.0188 0.1358 0.9906
vn -0.4998 0.0783 -0.8626
vn -0.0000 0.0811 -0.9967
vn 0.8735 0.1127 0.4735
vn 0.4327 0.0867 -0.8974
vn 0.6618 0.6050 0.4427
vn 0.6394 0.6346 0.4341
vn 0.6418 0.6315 0.4351
vn 0.6304 0.6351 -0.4463
vn 0.0760 0.7855 -0.6142
vn 0.0767 0.7894 -0.6091
vn 0.0766 0.7889 -0.6097
vn 0.6187 0.6600 0.4260
vn -0.0713 0.6351 0.7692
vn 0.0773 0.7927 -0.6046
vn 0.5987 0.7620 0.2468
vn 0.6415 0.7152 0.2776
vn 0.6019 0.7588 0.2491
vn -0.5485 0.7025 0.4535
vn -0.5321 0.7199 0.4456
vn -0.5308 0.7213 0.4450
vn -0.0665 0.5918 -0.8033
vn 0.5568 0.8017 0.2175
vn -0.6415 0.7152 0.2776
vn -0.5140 0.7382 0.4368
vn 0.8121 0.5810 0.0550
vn 0.7622 0.6472 -0.0162
vn 0.7182 0.6486 -0.2522
vn 0.6611 0.6457 0.3821
vn 0.3135 0.5538 0.7714
vn 0.6618 0.6457 0.3809
vn -0.4494 0.7047 -0.5491
vn -0.4597 0.7233 -0.5152
vn -0.6346 0.7230 -0.2731
vn 0.3357 0.6895 0.6418
vn 0.0003 0.6854 0.7282
vn 0.0613 0.7282 0.6826
vn -0.7392 0.6734 -0.0121
vn -0.7430 0.6692 -0.0067
vn 0.2857 0.5234 -0.8028
vn 0.6521 0.6250 -0.4291
vn 0.1584 0.7847 0.5994
vn -0.4414 0.6157 0.6528
vn -0.6265 0.7174 -0.3045
vn 0.8234 0.5551 -0.1178
vt 0.649282 0.119925
vt 0.649282 0.107265
vt 0.660568 0.107265
vt 0.660568 0.119925
vt 0.671274 0.107265
vt 0.671274 0.119925
vt 0.626958 0.119925
vt 0.626958 0.107265
vt 0.638109 0.107265
vt 0.638109 0.119925
vt 0.649282 0.081645
vt 0.638109 0.081645
vt 0.638109 0.054187
vt 0.649282 0.054187
vt 0.660568 0.081645
vt 0.671274 0.081645
vt 0.626958 0.081645
vt 0.626958 0.054187
vt 0.626958 0.031413
vt 0.638109 0.031413
vt 0.660568 0.054187
vt 0.671274 0.054187
vt 0.649282 0.031413
vt 0.638109 0.019501
vt 0.649282 0.019501
vt 0.660568 0.031413
vt 0.671274 0.031413
vt 0.638109 0.009344
vt 0.649282 0.009344
vt 0.660568 0.019501
vt 0.671274 0.019501
vt 0.626958 0.019501
vt 0.753287 0.195281
vt 0.753287 0.173356
vt 0.779794 0.173356
vt 0.779794 0.195281
vt 0.753287 0.131922
vt 0.753287 0.107062
vt 0.779794 0.107062
vt 0.779794 0.131922
vt 0.726780 0.079261
vt 0.700272 0.079261
vt 0.700272 0.057921
vt 0.726780 0.057921
vt 0.766541 0.218596
vt 0.753287 0.204821
vt 0.777556 0.204821
vt 0.753287 0.156782
vt 0.779794 0.156782
vt 0.753287 0.079261
vt 0.779794 0.079261
vt 0.753287 0.057921
vt 0.779794 0.057921
vt 0.806302 0.156782
vt 0.806302 0.173356
vt 0.806302 0.131922
vt 0.831873 0.131922
vt 0.831873 0.156782
vt 0.806302 0.079261
vt 0.806302 0.107062
vt 0.831873 0.173356
vt 0.859316 0.131922
vt 0.859316 0.156782
vt 0.831873 0.079261
vt 0.831873 0.107062
vt 0.806302 0.195281
vt 0.831873 0.195281
vt 0.912331 0.079261
vt 0.884787 0.079261
vt 0.884787 0.057921
vt 0.912331 0.057921
vt 0.819555 0.218596
vt 0.808540 0.204821
vt 0.832809 0.204821
vt 0.859316 0.173356
vt 0.859316 0.195281
vt 0.859316 0.107062
vt 0.884787 0.131922
vt 0.884787 0.156782
vt 0.938345 0.079261
vt 0.938345 0.057921
vt 0.846063 0.218596
vt 0.857078 0.204821
vt 0.859316 0.079261
vt 0.884787 0.107062
vt 0.912331 0.131922
vt 0.912331 0.156782
vt 0.806302 0.057921
vt 0.884787 0.173356
vt 0.899077 0.218596
vt 0.888062 0.204821
vt 0.912331 0.204821
vt 0.912331 0.173356
vt 0.938345 0.131922
vt 0.938345 0.156782
vt 0.912331 0.107062
vt 0.884787 0.195281
vt 0.912331 0.195281
vt 0.991853 0.079261
vt 0.965346 0.079261
vt 0.965346 0.057921
vt 0.991853 0.057921
vt 0.965346 0.131922
vt 0.965346 0.156782
vt 0.938345 0.107062
vt 0.938345 0.173356
vt 0.938345 0.195281
vt 0.673765 0.079261
vt 0.673765 0.057921
vt 0.925585 0.218596
vt 0.936600 0.204821
vt 0.965346 0.173356
vt 0.965346 0.107062
vt 0.991853 0.107062
vt 0.991853 0.131922
vt 0.991853 0.156782
vt 0.831873 0.057921
vt 0.859316 0.057921
vt 0.978600 0.218596
vt 0.967584 0.204821
vt 0.989615 0.204821
vt 0.991853 0.173356
vt 0.965346 0.195281
vt 0.991853 0.195281
vt 0.687018 0.218596
vt 0.676003 0.204821
vt 0.698034 0.204821
vt 0.673765 0.173356
vt 0.673765 0.156782
vt 0.700272 0.156782
vt 0.700272 0.173356
vt 0.700272 0.131922
vt 0.726780 0.131922
vt 0.726780 0.156782
vt 0.673765 0.107062
vt 0.700272 0.107062
vt 0.673765 0.195281
vt 0.700272 0.195281
vt 0.726780 0.107062
vt 0.726780 0.173356
vt 0.726780 0.195281
vt 0.740033 0.218596
vt 0.729018 0.204821
vt 0.673765 0.029607
vt 0.700272 0.029607
vt 0.806302 0.029607
vt 0.831873 0.029607
vt 0.938345 0.029607
vt 0.965346 0.029607
vt 0.884787 0.029607
vt 0.912331 0.029607
vt 0.726780 0.029607
vt 0.753287 0.029607
vt 0.859316 0.029607
vt 0.991853 0.029607
vt 0.779794 0.029607
vt 0.938345 0.019924
vt 0.965346 0.019924
vt 0.700272 0.019924
vt 0.726780 0.019924
vt 0.831873 0.019924
vt 0.859316 0.019924
vt 0.912331 0.019924
vt 0.673765 0.019924
vt 0.806302 0.019924
vt 0.753287 0.019924
vt 0.779794 0.019924
vt 0.884787 0.019924
vt 0.991853 0.019924
vt 0.938345 0.008696
vt 0.700272 0.008696
vt 0.831873 0.008696
vt 0.779794 0.008696
vt 0.912331 0.008696
vt 0.991853 0.008696
vt 0.806302 0.008696
vt 0.753287 0.008696
vt 0.884787 0.008696
vt 0.965346 0.008696
vt 0.726780 0.008696
vt 0.859316 0.008696
vt 0.673765 0.131922
s 1
usemtl Food_Vegetables
f 1/1/1 2/2/2 4/3/3 3/4/4
f 3/4/4 4/3/3 8/5/5 7/6/6
f 7/7/6 8/8/5 6/9/7 5/10/8
f 5/10/8 6/9/7 2/2/2 1/1/1
f 9/11/9 11/12/10 15/13/11 13/14/12
f 4/3/3 2/2/2 9/11/9 10/15/13
f 2/2/2 6/9/7 11/12/10 9/11/9
f 8/5/5 4/3/3 10/15/13 12/16/14
f 6/9/7 8/8/5 12/17/14 11/12/10
f 15/13/11 16/18/15 20/19/16 19/20/17
f 12/16/14 10/15/13 14/21/18 16/22/15
f 11/12/10 12/17/14 16/18/15 15/13/11
f 10/15/13 9/11/9 13/14/12 14/21/18
f 17/23/19 19/20/17 23/24/20 21/25/21
f 14/21/18 13/14/12 17/23/19 18/26/22
f 13/14/12 15/13/11 19/20/17 17/23/19
f 16/22/15 14/21/18 18/26/22 20/27/16
f 24/28/23 22/29/24 21/25/21 23/24/20
f 20/27/16 18/26/22 22/30/24 24/31/23
f 19/20/17 20/19/16 24/32/23 23/24/20
f 18/26/22 17/23/19 21/25/21 22/30/24
f 25/1/25 27/10/26 28/9/27 26/2/28
f 27/10/26 31/7/29 32/8/30 28/9/27
f 31/6/29 29/4/31 30/3/32 32/5/30
f 29/4/31 25/1/25 26/2/28 30/3/32
f 33/11/33 37/14/34 39/21/35 35/15/36
f 28/9/27 34/12/37 33/11/33 26/2/28
f 26/2/28 33/11/33 35/15/36 30/3/32
f 32/8/30 36/17/38 34/12/37 28/9/27
f 30/3/32 35/15/36 36/16/38 32/5/30
f 39/21/35 43/26/39 44/27/40 40/22/41
f 36/17/38 40/18/41 38/13/42 34/12/37
f 35/15/36 39/21/35 40/22/41 36/16/38
f 34/12/37 38/13/42 37/14/34 33/11/33
f 41/23/43 45/25/44 47/30/45 43/26/39
f 38/13/42 42/20/46 41/23/43 37/14/34
f 37/14/34 41/23/43 43/26/39 39/21/35
f 40/18/41 44/19/40 42/20/46 38/13/42
f 48/28/47 47/29/45 45/25/44 46/24/48
f 44/19/40 48/32/47 46/24/48 42/20/46
f 43/26/39 47/30/45 48/31/47 44/27/40
f 42/20/46 46/24/48 45/25/44 41/23/43
f 49/10/49 51/1/50 52/2/51 50/9/52
f 51/1/50 55/4/53 56/3/54 52/2/51
f 55/4/53 53/6/55 54/5/56 56/3/54
f 53/7/55 49/10/49 50/9/52 54/8/56
f 57/12/57 61/13/58 63/18/59 59/17/60
f 52/2/51 58/11/61 57/12/57 50/9/52
f 50/9/52 57/12/57 59/17/60 54/8/56
f 56/3/54 60/15/62 58/11/61 52/2/51
f 54/5/56 59/16/60 60/15/62 56/3/54
f 63/22/59 67/27/63 68/26/64 64/21/65
f 60/15/62 64/21/65 62/14/66 58/11/61
f 59/16/60 63/22/59 64/21/65 60/15/62
f 58/11/61 62/14/66 61/13/58 57/12/57
f 65/20/67 69/24/68 71/32/69 67/19/63
f 62/14/66 66/23/70 65/20/67 61/13/58
f 61/13/58 65/20/67 67/19/63 63/18/59
f 64/21/65 68/26/64 66/23/70 62/14/66
f 72/29/71 71/28/69 69/24/68 70/25/72
f 68/26/64 72/30/71 70/25/72 66/23/70
f 67/27/63 71/31/69 72/30/71 68/26/64
f 66/23/70 70/25/72 69/24/68 65/20/67
f 161/33/73 129/34/74 77/35/75 154/36/76
f 186/37/77 73/38/78 75/39/79 175/40/80
f 123/41/81 118/42/82 139/43/83 140/44/84
f 112/45/85 130/46/86 78/47/87
f 129/34/74 128/48/88 76/49/89 77/35/75
f 73/38/78 127/50/90 74/51/91 75/39/79
f 74/51/91 127/50/90 141/52/92 107/53/93
f 77/35/75 76/49/89 81/54/94 82/55/95
f 81/54/94 176/56/96 177/57/97 85/58/98
f 75/39/79 74/51/91 79/59/99 80/60/100
f 154/36/76 77/35/75 82/55/95
f 82/55/95 81/54/94 85/58/98 86/61/101
f 177/57/97 178/62/102 90/63/103 85/58/98
f 80/60/100 79/59/99 83/64/104 84/65/105
f 154/66/76 82/55/95 86/61/101 155/67/106
f 97/68/107 93/69/108 134/70/109 135/71/110
f 112/72/85 78/73/87 87/74/111
f 155/67/106 86/61/101 91/75/112 156/76/113
f 177/57/97 84/65/105 89/77/114 178/62/102
f 178/62/102 179/78/115 95/79/116 90/63/103
f 102/80/117 97/68/107 135/71/110 136/81/118
f 112/82/85 87/74/111 92/83/119
f 86/61/101 85/58/98 90/63/103 91/75/112
f 84/65/105 83/64/104 88/84/120 89/77/114
f 178/62/102 89/77/114 94/85/121 179/78/115
f 95/79/116 179/78/115 180/86/122 99/87/123
f 79/59/99 74/51/91 107/53/93 131/88/124
f 91/75/112 90/63/103 95/79/116 96/89/125
f 89/77/114 88/84/120 93/69/108 94/85/121
f 156/76/113 91/75/112 96/89/125
f 112/90/85 92/91/119 101/92/126
f 96/89/125 95/79/116 99/87/123 100/93/127
f 99/87/123 180/86/122 181/94/128 104/95/129
f 94/85/121 93/69/108 97/68/107 98/96/130
f 156/97/113 96/89/125 100/93/127 157/98/131
f 113/99/132 108/100/133 137/101/134 138/102/135
f 181/94/128 182/103/136 110/104/137 104/95/129
f 98/96/130 97/68/107 102/80/117 103/105/138
f 157/98/131 100/93/127 105/106/139 158/107/140
f 118/42/82 113/108/132 138/109/135 139/43/83
f 112/110/85 101/92/126 106/111/141
f 100/93/127 99/87/123 104/95/129 105/106/139
f 158/107/140 105/106/139 111/112/142
f 181/94/128 103/105/138 109/113/143 182/103/136
f 182/103/136 109/113/143 114/114/144 183/115/145
f 108/100/133 102/80/117 136/81/118 137/101/134
f 105/106/139 104/95/129 110/104/137 111/112/142
f 103/105/138 102/80/117 108/100/133 109/113/143
f 110/104/137 182/103/136 183/115/145 115/116/146
f 88/84/120 83/64/104 132/117/147 133/118/148
f 112/119/85 106/120/141 117/121/149
f 111/112/142 110/104/137 115/116/146 116/122/150
f 109/113/143 108/100/133 113/99/132 114/114/144
f 158/123/140 111/112/142 116/122/150 159/124/151
f 112/125/85 117/126/149 122/127/152
f 116/128/150 115/129/146 120/130/153 121/131/154
f 184/132/155 185/133/156 125/134/157 120/130/153
f 114/135/144 113/108/132 118/42/82 119/136/158
f 159/137/151 116/128/150 121/131/154 160/138/159
f 127/50/90 123/41/81 140/44/84 141/52/92
f 119/136/158 118/42/82 123/41/81 124/139/160
f 160/138/159 121/131/154 126/140/161
f 184/132/155 119/136/158 124/139/160 185/133/156
f 185/133/156 186/37/77 128/48/88 125/134/157
f 93/69/108 88/84/120 133/118/148 134/70/109
f 121/131/154 120/130/153 125/134/157 126/140/161
f 160/141/159 126/140/161 129/34/74 161/33/73
f 185/133/156 124/139/160 73/38/78 186/37/77
f 186/37/77 175/40/80 76/49/89 128/48/88
f 83/64/104 79/59/99 131/88/124 132/117/147
f 112/142/85 122/143/152 130/46/86
f 126/140/161 125/134/157 128/48/88 129/34/74
f 124/139/160 123/41/81 127/50/90 73/38/78
f 139/43/83 138/109/135 150/144/162 151/145/163
f 132/117/147 131/88/124 143/146/164 144/147/165
f 137/101/134 136/81/118 148/148/166 149/149/167
f 135/71/110 134/70/109 146/150/168 147/151/169
f 141/52/92 140/44/84 152/152/170 153/153/171
f 133/118/148 132/117/147 144/147/165 145/154/172
f 138/102/135 137/101/134 149/149/167 150/155/162
f 107/53/93 141/52/92 153/153/171 142/156/173
f 140/44/84 139/43/83 151/145/163 152/152/170
f 131/88/124 107/53/93 142/156/173 143/146/164
f 136/81/118 135/71/110 147/151/169 148/148/166
f 134/70/109 133/118/148 145/154/172 146/150/168
f 122/143/152 160/141/159 161/33/73 130/46/86
f 117/126/149 159/137/151 160/138/159 122/127/152
f 106/120/141 158/123/140 159/124/151 117/121/149
f 101/92/126 157/98/131 158/107/140 106/111/141
f 92/91/119 156/97/113 157/98/131 101/92/126
f 87/74/111 155/67/106 156/76/113 92/83/119
f 78/73/87 154/66/76 155/67/106 87/74/111
f 130/46/86 161/33/73 154/36/76 78/47/87
f 149/149/174 148/148/175 168/157/176 169/158/174
f 152/152/177 151/145/177 171/159/177 172/160/177
f 145/154/178 144/147/179 164/161/180 165/162/178
f 148/148/175 147/151/181 167/163/181 168/157/176
f 151/145/182 150/144/182 170/164/182 171/159/182
f 144/147/179 143/146/183 163/165/183 164/161/180
f 142/156/184 153/153/185 173/166/185 162/167/186
f 147/151/187 146/150/188 166/168/189 167/163/187
f 150/155/190 149/149/190 169/158/190 170/169/190
f 143/146/191 142/156/184 162/167/186 163/165/191
f 153/153/192 152/152/192 172/160/192 173/166/192
f 146/150/188 145/154/193 165/162/193 166/168/189
f 168/157/194 167/163/195 174/170/196
f 171/159/197 170/164/198 174/171/199
f 164/161/200 163/165/201 174/172/202
f 162/167/203 173/166/204 174/173/205
f 167/163/206 166/168/207 174/174/202
f 170/169/208 169/158/209 174/175/196
f 163/165/210 162/167/203 174/176/205
f 173/166/204 172/160/211 174/177/205
f 166/168/207 165/162/212 174/178/202
f 169/158/209 168/157/194 174/179/196
f 172/160/213 171/159/197 174/180/199
f 165/162/212 164/161/200 174/181/202
f 114/135/144 119/136/158 184/132/155 183/182/145
f 115/129/146 183/182/145 184/132/155 120/130/153
f 98/96/130 103/105/138 181/94/128 180/86/122
f 94/85/121 98/96/130 180/86/122 179/78/115
f 80/60/100 84/65/105 177/57/97 176/56/96
f 75/39/79 80/60/100 176/56/96 175/40/80
f 76/49/89 175/40/80 176/56/96 81/54/94
