# Blender 4.4.3
# www.blender.org
mtllib Food_Vegetables_Cucumber.mtl
o Food_Vegetables_Cucumber
v -0.000037 0.024654 -0.045039
v -0.000037 0.080593 -0.072405
v 0.029305 0.029814 -0.037079
v 0.030006 0.082648 -0.062891
v 0.047396 0.043324 -0.016239
v 0.048531 0.088027 -0.037982
v 0.047396 0.060024 0.009520
v 0.048531 0.094677 -0.007192
v 0.029305 0.073534 0.030360
v 0.030006 0.100056 0.017717
v -0.000037 0.078695 0.038320
v -0.000037 0.102111 0.027231
v -0.029239 0.073534 0.030360
v -0.029941 0.100056 0.017717
v -0.047330 0.060024 0.009520
v -0.048465 0.094677 -0.007192
v -0.047330 0.043324 -0.016239
v -0.048465 0.088027 -0.037982
v -0.029239 0.029814 -0.037079
v -0.029941 0.082648 -0.062891
v -0.000037 -0.004468 -0.004504
v 0.024320 0.000894 0.001286
v 0.039331 0.014933 0.016444
v 0.039331 0.032285 0.035180
v 0.024320 0.046324 0.050338
v -0.000037 0.051686 0.056127
v -0.024255 0.046324 0.050338
v -0.039265 0.032285 0.035180
v -0.039265 0.014933 0.016444
v -0.024255 0.000894 0.001286
v -0.000037 -0.004806 0.028825
v 0.011683 -0.002233 0.031603
v 0.018884 0.004501 0.038874
v 0.018884 0.012825 0.047861
v 0.011683 0.019559 0.055133
v -0.000037 0.022131 0.057910
v -0.011618 0.019559 0.055133
v -0.018818 0.012825 0.047861
v -0.018818 0.004501 0.038874
v -0.011618 -0.002233 0.031603
v -0.000037 0.005368 0.046827
v -0.006386 0.236694 -0.008279
v -0.012961 0.228022 -0.002841
v -0.000037 0.237503 -0.011474
v -0.000037 0.226148 0.006412
v 0.006451 0.236694 -0.008279
v 0.006451 0.234642 -0.000177
v -0.006386 0.234642 -0.000177
v -0.012961 0.229698 -0.011117
v -0.000037 0.233833 0.003019
v -0.007998 0.226666 0.003855
v 0.008063 0.226666 0.003855
v 0.013027 0.228022 -0.002841
v 0.013027 0.229698 -0.011117
v 0.008063 0.231053 -0.017812
v -0.000037 0.231571 -0.020370
v -0.007998 0.231053 -0.017812
v 0.019225 0.223009 -0.037108
v 0.031087 0.220579 -0.020975
v 0.019225 0.215145 0.015100
v -0.000037 0.214217 0.021263
v -0.031021 0.217575 -0.001033
v -0.031021 0.220579 -0.020975
v -0.000037 0.223937 -0.043271
v 0.031087 0.217575 -0.001033
v -0.019160 0.215145 0.015100
v -0.019160 0.223009 -0.037108
v -0.005075 0.249309 0.004229
v -0.000037 0.251686 0.003214
v 0.005140 0.249309 0.004229
v 0.005140 0.243283 0.006802
v -0.005075 0.243283 0.006802
v -0.000037 0.240906 0.007816
v -0.005075 0.252283 0.016764
v -0.000037 0.254761 0.016027
v 0.005140 0.252283 0.016764
v 0.005140 0.246003 0.018632
v -0.005075 0.246003 0.018632
v -0.000037 0.243525 0.019369
v 0.048146 0.137259 -0.039185
v 0.029768 0.140241 -0.064212
v -0.000037 0.141380 -0.073771
v 0.048146 0.133572 -0.008250
v 0.028966 0.131039 0.017428
v -0.000037 0.130435 0.026911
v -0.029703 0.131125 0.017388
v -0.048081 0.137259 -0.039185
v -0.048081 0.133572 -0.008250
v -0.029703 0.140241 -0.064212
v -0.045783 0.179372 -0.003071
v -0.045783 0.183110 -0.032601
v -0.000037 0.187289 -0.065615
v 0.028348 0.186134 -0.056490
v 0.045849 0.179372 -0.003071
v 0.027546 0.177332 0.021393
v -0.028283 0.176348 0.020819
v -0.028283 0.186134 -0.056490
v 0.045849 0.183110 -0.032601
v -0.000037 0.176177 0.030518
vn -0.0007 -0.6430 -0.7659
vn -0.0007 -0.2359 -0.9718
vn 0.5713 -0.1960 -0.7970
vn 0.5699 -0.5453 -0.6147
vn 0.9397 -0.0879 -0.3306
vn 0.9356 -0.2816 -0.2128
vn 0.9623 0.0557 0.2664
vn 0.9535 0.0638 0.2944
vn 0.6125 0.1791 0.7699
vn 0.5988 0.3665 0.7122
vn 0.0001 0.2255 0.9742
vn -0.0007 0.4891 0.8722
vn -0.6132 0.1756 0.7702
vn -0.5993 0.3663 0.7118
vn -0.9629 0.0535 0.2644
vn -0.9535 0.0638 0.2944
vn -0.9397 -0.0879 -0.3306
vn -0.9356 -0.2816 -0.2128
vn -0.0008 0.3353 0.9421
vn 0.5373 0.2050 0.8181
vn -0.5719 -0.1959 -0.7966
vn -0.5705 -0.5450 -0.6144
vn 0.8604 -0.1294 0.4930
vn 0.5143 -0.8296 -0.2173
vn -0.0008 -0.9423 -0.3348
vn 0.8458 -0.5248 0.0964
vn -0.5150 -0.8293 -0.2170
vn -0.8458 -0.5248 0.0964
vn -0.8604 -0.1294 0.4930
vn -0.5379 0.2047 0.8178
vn 0.3086 -0.9105 0.2751
vn -0.0007 -0.9784 0.2068
vn -0.5105 -0.7270 0.4592
vn -0.5234 -0.4892 0.6977
vn -0.0008 -0.2097 0.9778
vn 0.3292 -0.2884 0.8991
vn 0.5100 -0.7271 0.4596
vn -0.3092 -0.9103 0.2752
vn -0.3299 -0.2885 0.8989
vn 0.5229 -0.4896 0.6978
vn -0.0008 -0.7312 0.6822
vn -0.5943 -0.0151 0.8041
vn -0.5833 0.0959 0.8066
vn -0.9320 0.1656 0.3225
vn -0.9550 0.0144 0.2963
vn 0.0001 -0.0299 0.9996
vn -0.0032 0.0744 0.9972
vn 0.5880 -0.0141 0.8087
vn 0.5752 0.0980 0.8121
vn 0.9532 0.0154 0.3019
vn 0.9311 0.1627 0.3263
vn 0.9461 0.0447 -0.3208
vn 0.9279 0.2518 -0.2748
vn -0.5717 0.3208 -0.7552
vn -0.4488 0.7317 -0.5131
vn -0.0008 0.7558 -0.6548
vn -0.0007 0.3468 -0.9379
vn 0.5711 0.3209 -0.7556
vn 0.5791 0.0687 -0.8124
vn -0.0007 0.0778 -0.9970
vn -0.9279 0.2518 -0.2748
vn -0.5796 0.0687 -0.8120
vn -0.9461 0.0447 -0.3208
vn -0.4644 0.5207 0.7164
vn -0.7391 0.5863 0.3317
vn 0.7314 0.6676 -0.1391
vn 0.7390 0.5863 0.3318
vn -0.0040 0.4992 0.8665
vn -0.7314 0.6676 -0.1391
vn 0.4481 0.7317 -0.5135
vn 0.4625 0.5225 0.7163
vn 0.2775 0.9340 -0.2252
vn 0.4525 0.8918 0.0076
vn 0.2827 0.7941 0.5381
vn -0.0009 0.7769 0.6296
vn -0.4558 0.8383 0.2991
vn -0.4525 0.8918 0.0076
vn -0.0009 0.9497 -0.3130
vn 0.4558 0.8383 0.2991
vn -0.2836 0.7940 0.5377
vn -0.2783 0.9338 -0.2248
vn 0.7389 0.5895 0.3262
vn 0.7060 0.7043 -0.0746
vn 0.6603 0.6904 -0.2956
vn 0.8091 0.2552 0.5294
vn -0.7389 0.5895 0.3262
vn -0.4734 0.4462 0.7595
vn -0.8109 0.2553 0.5266
vn -0.0021 0.8579 -0.5139
vn -0.4169 0.7982 -0.4347
vn -0.6632 0.6882 -0.2941
vn -0.0033 0.8087 -0.5882
vn -0.7060 0.7043 -0.0746
vn 0.4708 0.4466 0.7608
vn 0.4143 0.7992 -0.4355
vn -0.0024 0.4545 0.8907
vn -0.0046 -0.0341 0.9994
vn 0.7977 0.5346 -0.2792
vn 0.9006 -0.3423 0.2677
vn -0.8009 0.5308 -0.2771
vn -0.0048 0.8809 -0.4733
vn -0.9027 -0.3388 0.2653
vn -0.0059 -0.8179 0.5753
vn -0.0000 0.2851 0.9585
vn -0.8428 -0.5247 0.1198
vn -0.8607 0.4953 -0.1182
vn 0.8579 0.4998 -0.1193
vn 0.8398 -0.5293 0.1209
vn -0.0054 -0.9749 0.2226
vn -0.0056 0.9727 -0.2321
vt 0.871403 0.916090
vt 0.871887 0.872046
vt 0.895099 0.872440
vt 0.894732 0.915677
vt 0.918857 0.873132
vt 0.918290 0.913044
vt 0.943503 0.873886
vt 0.942395 0.909207
vt 0.969380 0.874627
vt 0.967415 0.906227
vt 0.996384 0.875475
vt 0.993221 0.907256
vt 0.749939 0.905195
vt 0.747706 0.874676
vt 0.774629 0.873765
vt 0.775850 0.904611
vt 0.800451 0.873141
vt 0.800749 0.907926
vt 0.825021 0.872576
vt 0.824679 0.912151
vt 0.985289 0.942097
vt 0.964212 0.940134
vt 0.848713 0.872143
vt 0.848108 0.915222
vt 0.942290 0.943539
vt 0.895288 0.952974
vt 0.870667 0.953894
vt 0.919348 0.948856
vt 0.846099 0.952325
vt 0.822243 0.947617
vt 0.799543 0.941767
vt 0.777687 0.937921
vt 0.756366 0.940185
vt 0.897578 0.979374
vt 0.870045 0.981639
vt 0.818274 0.973553
vt 0.798347 0.968410
vt 0.970171 0.967301
vt 0.958374 0.968489
vt 0.922233 0.975142
vt 0.842642 0.978486
vt 0.783108 0.965314
vt 0.771585 0.966707
vt 0.942593 0.970681
vt 0.987882 0.972217
vt 0.991123 0.981761
vt 0.973415 0.982200
vt 0.969201 0.998742
vt 0.959884 0.992341
vt 0.988285 0.991655
vt 0.979851 0.966482
vt 0.955977 0.981121
vt 0.980062 0.998257
vt 0.773452 0.841543
vt 0.778136 0.795512
vt 0.801763 0.796883
vt 0.798986 0.838180
vt 0.747539 0.840607
vt 0.754960 0.788891
vt 0.971335 0.840490
vt 0.965629 0.793441
vt 0.989225 0.787442
vt 0.997741 0.839927
vt 0.945079 0.838358
vt 0.941694 0.796619
vt 0.920350 0.833951
vt 0.918273 0.795968
vt 0.848459 0.794652
vt 0.850478 0.760176
vt 0.871324 0.760071
vt 0.871698 0.794539
vt 0.894947 0.794746
vt 0.896116 0.830329
vt 0.871948 0.828854
vt 0.825167 0.795907
vt 0.847799 0.830157
vt 0.823631 0.833696
vt 0.793244 0.759047
vt 0.811082 0.760965
vt 0.912200 0.760886
vt 0.931218 0.760885
vt 0.777643 0.752187
vt 0.830240 0.760782
vt 0.892100 0.760272
vt 0.948890 0.758447
vt 0.964456 0.750400
vt 0.891975 0.740664
vt 0.911068 0.742022
vt 0.939321 0.742490
vt 0.946766 0.738753
vt 0.814316 0.742960
vt 0.830885 0.741913
vt 0.871181 0.739433
vt 0.927224 0.742995
vt 0.801880 0.742767
vt 0.850271 0.740590
vt 0.794107 0.739574
vt 0.733250 0.986989
vt 0.727534 0.982795
vt 0.733962 0.975192
vt 0.741384 0.981372
vt 0.727152 0.949596
vt 0.733611 0.945585
vt 0.734886 0.953662
vt 0.720291 0.970223
vt 0.720146 0.962673
vt 0.730762 0.960807
vt 0.730536 0.968257
vt 0.722552 0.955581
vt 0.738725 0.990249
vt 0.723020 0.977185
vt 0.744628 0.993575
vt 0.748581 0.985830
vt 0.750841 0.996503
vt 0.754873 0.990161
vt 0.749897 0.967321
vt 0.751727 0.973128
vt 0.746812 0.958911
vt 0.748310 0.963036
vt 0.744822 0.954006
vt 0.755100 0.978331
vt 0.759653 0.981581
vt 0.770251 0.966613
vt 0.771651 0.974141
vt 0.766822 0.975038
vt 0.765422 0.967511
vt 0.772856 0.970023
vt 0.753914 0.949582
vt 0.755987 0.954631
vt 0.759566 0.963571
vt 0.761784 0.967995
vt 0.764217 0.971629
vt 0.757799 0.959109
s 1
usemtl Food_Vegetables
f 1/1/1 2/2/2 4/3/3 3/4/4
f 3/4/4 4/3/3 6/5/5 5/6/6
f 5/6/6 6/5/5 8/7/7 7/8/8
f 7/8/8 8/7/7 10/9/9 9/10/10
f 9/10/10 10/9/9 12/11/11 11/12/12
f 11/13/12 12/14/11 14/15/13 13/16/14
f 13/16/14 14/15/13 16/17/15 15/18/16
f 15/18/16 16/17/15 18/19/17 17/20/18
f 9/10/10 11/12/12 26/21/19 25/22/20
f 17/20/18 18/19/17 20/23/21 19/24/22
f 19/24/22 20/23/21 2/2/2 1/1/1
f 7/8/8 9/10/10 25/22/20 24/25/23
f 1/1/1 3/4/4 22/26/24 21/27/25
f 5/6/6 7/8/8 24/25/23 23/28/26
f 3/4/4 5/6/6 23/28/26 22/26/24
f 19/24/22 1/1/1 21/27/25 30/29/27
f 17/20/18 19/24/22 30/29/27 29/30/28
f 15/18/16 17/20/18 29/30/28 28/31/29
f 13/16/14 15/18/16 28/31/29 27/32/30
f 11/13/12 13/16/14 27/32/30 26/33/19
f 21/27/25 22/26/24 32/34/31 31/35/32
f 28/31/29 29/30/28 39/36/33 38/37/34
f 25/22/20 26/21/19 36/38/35 35/39/36
f 22/26/24 23/28/26 33/40/37 32/34/31
f 29/30/28 30/29/27 40/41/38 39/36/33
f 26/33/19 27/32/30 37/42/39 36/43/35
f 23/28/26 24/25/23 34/44/40 33/40/37
f 30/29/27 21/27/25 31/35/32 40/41/38
f 27/32/30 28/31/29 38/37/34 37/42/39
f 24/25/23 25/22/20 35/39/36 34/44/40
f 38/45/34 39/46/33 41/47/41
f 35/39/36 36/38/35 41/47/41
f 32/48/31 33/49/37 41/47/41
f 39/46/33 40/50/38 41/47/41
f 36/38/35 37/51/39 41/47/41
f 33/49/37 34/52/40 41/47/41
f 40/50/38 31/53/32 41/47/41
f 37/51/39 38/45/34 41/47/41
f 34/52/40 35/39/36 41/47/41
f 31/53/32 32/48/31 41/47/41
f 86/54/42 96/55/43 90/56/44 88/57/45
f 85/58/46 99/59/47 96/55/43 86/54/42
f 84/60/48 95/61/49 99/62/47 85/63/46
f 83/64/50 94/65/51 95/61/49 84/60/48
f 80/66/52 98/67/53 94/65/51 83/64/50
f 97/68/54 67/69/55 64/70/56 92/71/57
f 93/72/58 98/67/53 80/66/52 81/73/59
f 82/74/60 92/71/57 93/72/58 81/73/59
f 91/75/61 97/68/54 89/76/62 87/77/63
f 88/57/45 90/56/44 91/75/61 87/77/63
f 96/55/43 66/78/64 62/79/65 90/56/44
f 98/67/53 59/80/66 65/81/67 94/65/51
f 99/59/47 61/82/68 66/78/64 96/55/43
f 63/83/69 67/69/55 97/68/54 91/75/61
f 58/84/70 59/80/66 98/67/53 93/72/58
f 60/85/71 61/86/68 99/62/47 95/61/49
f 90/56/44 62/79/65 63/83/69 91/75/61
f 92/71/57 64/70/56 58/84/70 93/72/58
f 94/65/51 65/81/67 60/85/71 95/61/49
f 59/80/66 58/84/70 55/87/72 54/88/73
f 61/86/68 60/85/71 52/89/74 45/90/75
f 63/83/69 62/79/65 43/91/76 49/92/77
f 58/84/70 64/70/56 56/93/78 55/87/72
f 60/85/71 65/81/67 53/94/79 52/89/74
f 62/79/65 66/78/64 51/95/80 43/91/76
f 64/70/56 67/69/55 57/96/81 56/93/78
f 65/81/67 59/80/66 54/88/73 53/94/79
f 66/78/64 61/82/68 45/97/75 51/95/80
f 67/69/55 63/83/69 49/92/77 57/96/81
f 53/98/82 54/99/83 46/100/84 47/101/85
f 43/102/86 51/103/87 48/104/88
f 56/105/89 57/106/90 42/107/91 44/108/92
f 49/109/93 43/102/86 48/104/88 42/107/91
f 52/110/94 53/98/82 47/101/85
f 55/111/95 56/105/89 44/108/92 46/100/84
f 45/112/96 52/110/94 47/101/85 50/113/97
f 54/99/83 55/111/95 46/100/84
f 51/114/87 45/112/96 50/113/97 48/115/88
f 57/106/90 49/109/93 42/107/91
f 47/101/85 46/100/84 70/116/98 71/117/99
f 44/108/92 42/107/91 68/118/100 69/119/101
f 42/107/91 48/104/88 72/120/102 68/118/100
f 50/113/97 47/101/85 71/117/99 73/121/103
f 46/100/84 44/108/92 69/119/101 70/116/98
f 48/115/88 50/113/97 73/121/103 72/122/102
f 76/123/104 74/124/104 78/125/104 77/126/104
f 75/127/104 74/124/104 76/123/104
f 68/118/100 72/120/102 78/128/105 74/129/106
f 71/117/99 70/116/98 76/130/107 77/131/108
f 73/121/103 71/117/99 77/131/108 79/132/109
f 69/119/101 68/118/100 74/129/106 75/133/110
f 77/126/104 78/125/104 79/132/104
f 72/122/102 73/121/103 79/132/109 78/125/105
f 70/116/98 69/119/101 75/133/110 76/130/107
f 20/23/21 18/19/17 87/77/63 89/76/62
f 2/2/2 20/23/21 89/76/62 82/74/60
f 6/5/5 4/3/3 81/73/59 80/66/52
f 8/7/7 6/5/5 80/66/52 83/64/50
f 4/3/3 2/2/2 82/74/60 81/73/59
f 10/9/9 8/7/7 83/64/50 84/60/48
f 12/11/11 10/9/9 84/60/48 85/63/46
f 14/15/13 12/14/11 85/58/46 86/54/42
f 16/17/15 14/15/13 86/54/42 88/57/45
f 18/19/17 16/17/15 88/57/45 87/77/63
f 89/76/62 97/68/54 92/71/57 82/74/60
