# Blender 4.4.3
# www.blender.org
mtllib Food_Vegetables_Pumpkin.mtl
o Food_Vegetables_Pumpkin
v 0.000001 0.176709 -0.038913
v -0.033699 0.176709 -0.019457
v -0.033699 0.176709 0.019456
v 0.000001 0.176709 0.038913
v 0.033700 0.176709 0.019456
v 0.033700 0.176709 -0.019457
v 0.001185 0.217006 -0.023917
v -0.019551 0.217053 -0.011973
v -0.019551 0.217053 0.011972
v 0.001185 0.217006 0.023916
v 0.021871 0.216958 0.011944
v 0.021871 0.216958 -0.011944
v 0.012965 0.253926 -0.020546
v -0.001205 0.263831 -0.010175
v -0.001205 0.263831 0.010175
v 0.012965 0.253926 0.020546
v 0.027091 0.243042 0.010251
v 0.027091 0.243042 -0.010252
v 0.047225 0.274812 -0.020021
v 0.044568 0.290379 -0.009867
v 0.044568 0.290379 0.009866
v 0.047225 0.274812 0.020020
v 0.049791 0.258505 0.010123
v 0.049791 0.258505 -0.010124
v 0.081165 0.266476 -0.017037
v 0.088846 0.277264 -0.008423
v 0.088846 0.277264 0.008423
v 0.081165 0.266476 0.017036
v 0.073140 0.255260 0.008596
v 0.073140 0.255260 -0.008596
v 0.099375 0.235737 -0.016773
v 0.113125 0.235099 -0.008330
v 0.113125 0.235099 0.008329
v 0.099375 0.235737 0.016772
v 0.085494 0.236425 0.008450
v 0.085494 0.236425 -0.008450
v 0.088375 0.212764 -0.015688
v 0.098438 0.203922 -0.007818
v 0.098438 0.203922 0.007817
v 0.088375 0.212764 0.015688
v 0.078281 0.221686 0.007874
v 0.078281 0.221686 -0.007874
v 0.063097 0.206818 -0.012680
v 0.062102 0.195871 -0.006338
v 0.062102 0.195871 0.006337
v 0.063097 0.206818 0.012680
v 0.064159 0.217816 0.006349
v 0.064159 0.217816 -0.006349
v 0.048907 0.217470 -0.012675
v 0.038995 0.212753 -0.006338
v 0.038995 0.212753 0.006337
v 0.048907 0.217470 0.012674
v 0.058846 0.222208 0.006340
v 0.058846 0.222208 -0.006341
v 0.052406 0.233800 -0.012675
v 0.043317 0.239954 -0.006338
v 0.043317 0.239954 0.006337
v 0.052406 0.233800 0.012674
v 0.061495 0.227645 0.006337
v 0.061495 0.227645 -0.006338
v 0.072069 0.236466 -0.010246
v 0.073545 0.245215 -0.005123
v 0.073545 0.245215 0.005122
v 0.072068 0.236466 0.010245
v 0.070592 0.227716 0.005122
v 0.070592 0.227716 -0.005123
v -0.045801 0.042172 -0.110576
v 0.000001 0.000182 0.086724
v 0.051552 0.097616 -0.124457
v -0.110575 0.042172 -0.045802
v -0.061323 0.000182 0.061323
v 0.124457 0.097616 -0.051552
v -0.110575 0.042172 0.045802
v -0.086723 0.000182 -0.000000
v 0.124457 0.097616 0.051551
v -0.045801 0.042172 0.110575
v -0.061323 0.000182 -0.061324
v 0.051552 0.097616 0.124456
v 0.045803 0.042172 0.110575
v 0.028979 0.000182 -0.069961
v 0.069961 0.000182 -0.028979
v -0.051551 0.097616 0.124456
v 0.110576 0.042172 0.045802
v 0.069961 0.000182 0.028978
v 0.028979 0.000182 0.069960
v -0.124456 0.097616 0.051551
v 0.110576 0.042172 -0.045802
v -0.028978 0.000182 0.069960
v -0.069960 0.000182 0.028978
v -0.124456 0.097616 -0.051552
v 0.045803 0.042172 -0.110576
v -0.069960 0.000182 -0.028979
v -0.028978 0.000182 -0.069961
v -0.051551 0.097616 -0.124457
v -0.022227 0.097616 -0.154278
v 0.022228 0.097616 -0.154278
v -0.082959 0.042172 -0.110888
v -0.110887 0.042172 -0.082960
v 0.093374 0.097616 -0.124808
v 0.124809 0.097616 -0.093374
v -0.137070 0.042172 -0.019749
v -0.137070 0.042172 0.019748
v 0.154278 0.097616 -0.022228
v 0.154278 0.097616 0.022227
v -0.110887 0.042172 0.082959
v -0.082959 0.042172 0.110887
v 0.124809 0.097616 0.093373
v 0.093374 0.097616 0.124808
v -0.019748 0.042172 0.137070
v 0.019749 0.042172 0.137070
v 0.022228 0.097616 0.154277
v -0.022227 0.097616 0.154277
v 0.082960 0.042172 0.110887
v 0.110888 0.042172 0.082959
v -0.093373 0.097616 0.124808
v -0.124807 0.097616 0.093373
v 0.137071 0.042172 0.019748
v 0.137071 0.042172 -0.019749
v -0.154277 0.097616 0.022227
v -0.154277 0.097616 -0.022228
v 0.110888 0.042172 -0.082960
v 0.082960 0.042172 -0.110888
v -0.124807 0.097616 -0.093374
v -0.093373 0.097616 -0.124808
v 0.019749 0.042172 -0.137071
v -0.019748 0.042172 -0.137071
v 0.061324 0.000182 0.061323
v 0.086725 0.000182 -0.000000
v 0.061324 0.000182 -0.061324
v 0.000001 0.000182 -0.086724
v 0.047599 0.155831 -0.114912
v 0.114912 0.155831 -0.047598
v 0.114912 0.155831 0.047598
v 0.047599 0.155831 0.114911
v -0.047597 0.155831 0.114911
v -0.114911 0.155831 0.047598
v -0.114911 0.155831 -0.047598
v -0.047597 0.155831 -0.114912
v -0.020522 0.155831 -0.142446
v 0.020523 0.155831 -0.142446
v 0.086213 0.155831 -0.115236
v 0.115237 0.155831 -0.086213
v 0.142446 0.155831 -0.020523
v 0.142446 0.155831 0.020522
v 0.115237 0.155831 0.086212
v 0.086213 0.155831 0.115236
v 0.020523 0.155831 0.142445
v -0.020522 0.155831 0.142445
v -0.086212 0.155831 0.115236
v -0.115235 0.155831 0.086212
v -0.142445 0.155831 0.020522
v -0.142445 0.155831 -0.020523
v -0.115235 0.155831 -0.086213
v -0.086212 0.155831 -0.115236
v 0.029752 0.184648 -0.071828
v 0.071828 0.184648 -0.029752
v 0.071828 0.184648 0.029752
v 0.029752 0.184648 0.071827
v -0.029710 0.184646 0.071727
v -0.071827 0.184648 0.029752
v -0.071827 0.184648 -0.029752
v -0.029751 0.184648 -0.071828
v 0.000001 0.191096 -0.078282
v 0.055354 0.191096 -0.055354
v 0.078282 0.191096 -0.000000
v 0.055354 0.191096 0.055353
v 0.000001 0.191096 0.078281
v -0.055353 0.191096 0.055353
v -0.078281 0.191096 -0.000000
v -0.055353 0.191096 -0.055354
v 0.015122 0.180160 -0.036508
v 0.036508 0.180160 -0.015122
v 0.036508 0.180160 0.015122
v 0.015122 0.180160 0.036507
v -0.015121 0.184888 0.036507
v -0.036507 0.180160 0.015122
v -0.036507 0.180160 -0.015122
v -0.015121 0.180160 -0.036508
v 0.000001 0.184888 -0.039697
v 0.028070 0.184888 -0.028070
v 0.039697 0.184888 -0.000000
v 0.028070 0.184888 0.028070
v 0.000001 0.184888 0.039696
v -0.028069 0.184888 0.028070
v -0.039696 0.184888 -0.000000
v -0.028069 0.184888 -0.028070
v 0.000001 0.177359 -0.000000
v 0.000001 0.000182 0.025522
v -0.017227 0.000182 0.017227
v -0.025522 0.000182 -0.000000
v -0.017227 0.000182 -0.017228
v 0.017228 0.000182 -0.017228
v 0.017228 0.000182 0.017227
v 0.025523 0.000182 -0.000000
v 0.000001 0.000182 -0.025523
v 0.000001 -0.004357 -0.000000
vn -0.8066 0.3689 0.4620
vn -0.8148 0.3581 0.4559
vn -0.8148 0.3581 -0.4559
vn -0.8066 0.3689 -0.4620
vn 0.8163 0.3283 -0.4752
vn 0.8538 0.1005 -0.5108
vn 0.8538 0.1005 0.5108
vn 0.8163 0.3283 0.4752
vn -0.0066 0.3489 0.9371
vn -0.0298 0.2447 0.9691
vn -0.0298 0.2447 -0.9691
vn -0.0066 0.3489 -0.9371
vn 0.7004 -0.4478 -0.5557
vn 0.7004 -0.4478 0.5557
vn -0.0694 0.1286 0.9893
vn -0.6768 0.5865 0.4449
vn -0.6768 0.5865 -0.4449
vn -0.0694 0.1286 -0.9893
vn 0.0289 0.1397 -0.9898
vn 0.2021 -0.8089 -0.5521
vn 0.2021 -0.8089 0.5521
vn 0.0289 0.1397 0.9898
vn -0.1021 0.8912 0.4420
vn -0.1021 0.8912 -0.4420
vn -0.4379 -0.7120 -0.5488
vn -0.4379 -0.7120 0.5488
vn 0.1331 0.1002 0.9860
vn 0.5633 0.7078 0.4262
vn 0.5633 0.7078 -0.4262
vn 0.1331 0.1002 -0.9860
vn -0.8084 -0.0766 0.5836
vn 0.1583 0.0077 0.9874
vn 0.8963 0.0292 0.4426
vn 0.8963 0.0292 -0.4426
vn -0.8084 -0.0766 -0.5836
vn 0.1583 0.0077 -0.9874
vn 0.0243 -0.1595 0.9869
vn 0.5569 -0.6991 0.4486
vn 0.5569 -0.6991 -0.4486
vn 0.0243 -0.1595 -0.9869
vn -0.5492 0.6110 -0.5702
vn -0.5492 0.6110 0.5702
vn -0.1864 -0.8826 0.4315
vn -0.1864 -0.8826 -0.4315
vn 0.1486 0.8083 -0.5697
vn 0.1486 0.8083 0.5697
vn -0.0868 -0.1533 0.9844
vn -0.0868 -0.1533 -0.9844
vn -0.8281 -0.3444 -0.4424
vn -0.1657 -0.0610 -0.9843
vn 0.7607 0.1797 -0.6237
vn 0.7607 0.1797 0.6237
vn -0.1657 -0.0610 0.9843
vn -0.8281 -0.3444 0.4424
vn 0.4736 -0.6501 -0.5941
vn 0.4736 -0.6501 0.5941
vn -0.0640 0.1704 0.9833
vn -0.6429 0.6231 0.4455
vn -0.6429 0.6231 -0.4455
vn -0.0640 0.1704 -0.9833
vn 0.0546 0.1398 -0.9887
vn 0.0920 -0.8839 -0.4586
vn 0.0920 -0.8839 0.4586
vn 0.0546 0.1398 0.9887
vn -0.1254 0.9111 0.3927
vn -0.1254 0.9111 -0.3927
vn 0.9861 -0.1664 -0.0000
vn 0.3914 -0.0468 -0.9190
vn 0.3281 -0.5263 -0.7845
vn 0.0425 -0.5482 -0.8352
vn -0.0084 -0.0434 -0.9990
vn 0.7005 -0.0434 0.7124
vn 0.6207 -0.5482 0.5605
vn 0.7867 -0.5263 0.3227
vn 0.9266 -0.0468 0.3731
vn 0.0084 -0.0434 -0.9990
vn -0.0425 -0.5482 -0.8352
vn -0.3281 -0.5263 -0.7845
vn -0.3914 -0.0468 -0.9190
vn 0.9190 -0.0468 0.3914
vn 0.7845 -0.5263 0.3281
vn 0.8352 -0.5482 0.0425
vn 0.9990 -0.0434 -0.0084
vn -0.0084 -0.0434 0.9990
vn 0.0425 -0.5482 0.8352
vn 0.3281 -0.5263 0.7845
vn 0.3914 -0.0468 0.9190
vn 0.9266 -0.0468 -0.3731
vn 0.7867 -0.5263 -0.3227
vn 0.6207 -0.5482 -0.5605
vn 0.7005 -0.0434 -0.7124
vn -0.3731 -0.0468 -0.9266
vn -0.3227 -0.5263 -0.7867
vn -0.5605 -0.5482 -0.6207
vn -0.7124 -0.0434 -0.7005
vn -0.8352 -0.5482 0.0425
vn -0.3475 -0.9368 0.0416
vn -0.2757 -0.9209 0.2757
vn -0.7845 -0.5263 0.3281
vn -0.9266 -0.0468 0.3731
vn -0.7867 -0.5263 0.3227
vn -0.6207 -0.5482 0.5605
vn -0.7005 -0.0434 0.7124
vn -0.9190 -0.0468 -0.3914
vn -0.7845 -0.5263 -0.3281
vn -0.8352 -0.5482 -0.0425
vn -0.9990 -0.0434 0.0084
vn -0.9990 -0.0434 -0.0084
vn -0.9190 -0.0468 0.3914
vn -0.3914 -0.0468 0.9190
vn -0.3281 -0.5263 0.7845
vn -0.0425 -0.5482 0.8352
vn 0.0084 -0.0434 0.9990
vn -0.7005 -0.0434 -0.7124
vn -0.6207 -0.5482 -0.5605
vn -0.7867 -0.5263 -0.3227
vn -0.9266 -0.0468 -0.3731
vn -0.7124 -0.0434 0.7005
vn -0.5605 -0.5482 0.6207
vn -0.3227 -0.5263 0.7867
vn -0.3731 -0.0468 0.9266
vn 0.9990 -0.0434 0.0084
vn 0.8352 -0.5482 -0.0425
vn 0.7845 -0.5263 -0.3281
vn 0.9190 -0.0468 -0.3914
vn 0.3731 -0.0468 0.9266
vn 0.3227 -0.5263 0.7867
vn 0.5605 -0.5482 0.6207
vn 0.7124 -0.0434 0.7005
vn 0.3731 -0.0468 -0.9266
vn 0.3227 -0.5263 -0.7867
vn 0.7124 -0.0434 -0.7005
vn 0.5605 -0.5482 -0.6207
vn 0.1937 -0.9496 -0.2464
vn -0.0000 -0.9209 -0.3899
vn -0.0000 -0.9209 0.3899
vn 0.1937 -0.9496 0.2464
vn 0.2757 -0.9209 -0.2757
vn 0.0416 -0.9368 -0.3475
vn 0.3899 -0.9209 -0.0000
vn 0.2464 -0.9496 -0.1937
vn 0.2757 -0.9209 0.2757
vn 0.3475 -0.9368 0.0416
vn -0.1937 -0.9496 -0.2464
vn 0.3475 -0.9368 -0.0416
vn -0.2757 -0.9209 -0.2757
vn 0.2464 -0.9496 0.1937
vn 0.0416 -0.9368 0.3475
vn -0.0416 -0.9368 -0.3475
vn -0.3899 -0.9209 -0.0000
vn -0.2464 -0.9496 0.1937
vn -0.0416 -0.9368 0.3475
vn -0.1937 -0.9496 0.2464
vn -0.3475 -0.9368 -0.0416
vn -0.2464 -0.9496 -0.1937
vn 0.0225 0.6064 -0.7948
vn 0.3212 0.5491 -0.7716
vn -0.7727 0.5491 0.3185
vn -0.7727 0.5491 -0.3185
vn 0.5779 0.6064 -0.5461
vn 0.7727 0.5491 -0.3185
vn 0.7716 0.5491 -0.3212
vn -0.7716 0.5491 -0.3212
vn -0.3212 0.5491 -0.7716
vn 0.7948 0.6064 0.0225
vn 0.7716 0.5491 0.3212
vn -0.5461 0.6064 -0.5779
vn -0.3185 0.5491 -0.7727
vn 0.7727 0.5491 0.3185
vn 0.7948 0.6064 -0.0225
vn 0.3212 0.5491 0.7716
vn 0.5779 0.6064 0.5461
vn 0.0225 0.6064 0.7948
vn -0.0225 0.6064 -0.7948
vn -0.5779 0.6064 0.5461
vn 0.3185 0.5491 -0.7727
vn -0.0219 0.6065 0.7948
vn -0.3210 0.5492 0.7716
vn 0.3185 0.5491 0.7727
vn -0.3186 0.5492 0.7726
vn -0.5465 0.6065 0.5775
vn -0.7948 0.6064 -0.0225
vn -0.5779 0.6064 -0.5461
vn -0.7716 0.5491 0.3212
vn -0.7948 0.6064 0.0225
vn 0.5461 0.6064 -0.5779
vn 0.5461 0.6064 0.5779
vn 0.1132 0.9871 0.1132
vn 0.3096 0.9458 -0.0978
vn 0.1132 0.9871 -0.1132
vn 0.3096 0.9458 0.0978
vn -0.0978 0.9458 0.3096
vn -0.1498 0.9458 0.2881
vn -0.1601 0.9871 -0.0000
vn 0.0194 0.9840 0.1769
vn -0.2502 0.9504 0.1848
vn -0.0000 0.9871 -0.1601
vn -0.1498 0.9458 -0.2881
vn 0.2881 0.9458 -0.1498
vn 0.2881 0.9458 0.1498
vn -0.1132 0.9871 -0.1132
vn 0.1498 0.9458 -0.2881
vn 0.1601 0.9871 -0.0000
vn -0.2881 0.9458 -0.1498
vn -0.1388 0.9840 0.1114
vn 0.1498 0.9458 0.2881
vn 0.0978 0.9458 -0.3096
vn 0.0463 0.9504 0.3076
vn -0.3096 0.9458 0.0978
vn -0.3096 0.9458 -0.0978
vn -0.0978 0.9458 -0.3096
vn -0.2274 0.9571 0.1796
vn -0.0000 0.9829 0.1844
vn -0.1844 0.9829 -0.0000
vn -0.1796 0.9571 0.2274
vn 0.1304 0.9829 0.1304
vn 0.2878 0.9571 -0.0338
vn 0.1345 0.9888 -0.0643
vn 0.0516 0.9829 -0.1766
vn -0.0338 0.9571 0.2878
vn -0.0338 0.9571 -0.2878
vn -0.2878 0.9571 -0.0338
vn -0.1304 0.9829 0.1304
vn 0.0338 0.9571 -0.2878
vn -0.1304 0.9829 -0.1304
vn 0.0338 0.9571 0.2878
vn -0.2878 0.9571 0.0338
vn 0.1796 0.9571 0.2274
vn 0.1844 0.9829 -0.0000
vn 0.0884 0.9829 -0.1614
vn -0.0496 0.9888 -0.1406
vn 0.1796 0.9571 -0.2274
vn 0.2274 0.9571 0.1796
vn 0.2274 0.9571 -0.1796
vn -0.1796 0.9571 -0.2274
vn 0.1528 0.9710 -0.1841
vn 0.1318 0.9825 0.1318
vn -0.0000 0.9825 0.1863
vn -0.1318 0.9825 -0.1318
vn -0.1317 0.9825 0.1318
vn 0.1863 0.9825 -0.0000
vn -0.1863 0.9825 -0.0000
vn 0.0222 0.9710 -0.2382
vn -0.0000 -1.0000 -0.0000
vn -0.1295 -0.9831 0.1295
vn -0.1751 -0.9846 -0.0000
vn -0.0000 -0.9846 0.1751
vn -0.0000 -0.9846 -0.1751
vn 0.1295 -0.9831 -0.1295
vn 0.1295 -0.9831 0.1295
vn -0.1295 -0.9831 -0.1295
vn 0.1751 -0.9846 -0.0000
vt 0.616008 0.276372
vt 0.656980 0.281261
vt 0.654152 0.315886
vt 0.613456 0.316670
vt 0.624667 0.391953
vt 0.665059 0.382951
vt 0.673994 0.411826
vt 0.636177 0.423701
vt 0.623631 0.239165
vt 0.664112 0.250826
vt 0.657482 0.351342
vt 0.616557 0.357380
vt 0.634725 0.209568
vt 0.672665 0.226456
vt 0.705291 0.373163
vt 0.710231 0.401905
vt 0.704304 0.256324
vt 0.701236 0.284803
vt 0.700364 0.314374
vt 0.701733 0.343663
vt 0.708764 0.230839
vt 0.755000 0.340714
vt 0.755400 0.366961
vt 0.753394 0.235268
vt 0.753798 0.261780
vt 0.754194 0.287808
vt 0.754582 0.313250
vt 0.755818 0.394393
vt 0.801323 0.362939
vt 0.801705 0.388463
vt 0.799817 0.262307
vt 0.800196 0.287658
vt 0.800564 0.312235
vt 0.800945 0.337665
vt 0.799443 0.237347
vt 0.845920 0.239642
vt 0.844788 0.263881
vt 0.845125 0.287478
vt 0.845428 0.311267
vt 0.846172 0.357519
vt 0.848018 0.381635
vt 0.845804 0.333429
vt 0.881602 0.265296
vt 0.879505 0.286356
vt 0.878977 0.310632
vt 0.879874 0.331036
vt 0.882318 0.351853
vt 0.883823 0.245767
vt 0.884890 0.374807
vt 0.913294 0.288370
vt 0.912690 0.309916
vt 0.916839 0.347272
vt 0.919908 0.369092
vt 0.916009 0.269118
vt 0.913707 0.327329
vt 0.918659 0.251540
vt 0.937266 0.309380
vt 0.937507 0.326085
vt 0.937783 0.345170
vt 0.936468 0.254085
vt 0.936723 0.271726
vt 0.936976 0.289302
vt 0.938076 0.365523
vt 0.955799 0.344878
vt 0.951037 0.366128
vt 0.957716 0.271550
vt 0.960454 0.288671
vt 0.961322 0.308882
vt 0.960967 0.324965
vt 0.955887 0.254297
vt 0.984404 0.329576
vt 0.968369 0.349291
vt 0.969492 0.248423
vt 0.981123 0.263268
vt 0.992635 0.281454
vt 0.995379 0.308177
vt 0.965240 0.365514
vt 0.990921 0.354559
vt 0.988418 0.370371
vt 0.975669 0.375812
vt 0.980797 0.344182
vt 0.334328 0.242993
vt 0.333550 0.185755
vt 0.373040 0.169851
vt 0.378546 0.242686
vt 0.386244 0.244028
vt 0.391533 0.173930
vt 0.430511 0.189211
vt 0.429777 0.244328
vt 0.247875 0.243561
vt 0.252344 0.170662
vt 0.292032 0.186013
vt 0.292110 0.243246
vt 0.471331 0.244625
vt 0.471506 0.189675
vt 0.510771 0.175023
vt 0.514845 0.244965
vt 0.270870 0.089154
vt 0.312275 0.108347
vt 0.410737 0.095361
vt 0.451740 0.114589
vt 0.493042 0.096152
vt 0.353419 0.088597
vt 0.368762 0.313803
vt 0.332585 0.298094
vt 0.468789 0.297437
vt 0.431444 0.297041
vt 0.504087 0.313028
vt 0.294582 0.298353
vt 0.258616 0.314547
vt 0.395907 0.312248
vt 0.431514 0.297681
vt 0.314029 0.365009
vt 0.352831 0.369103
vt 0.275284 0.369629
vt 0.487639 0.365758
vt 0.449638 0.361372
vt 0.411551 0.365238
vt 0.472069 0.407865
vt 0.449258 0.402684
vt 0.426627 0.407475
vt 0.314316 0.408149
vt 0.291019 0.413616
vt 0.337238 0.412994
vt 0.448855 0.459752
vt 0.314435 0.467769
vt 0.311667 0.018044
vt 0.452429 0.028919
vt 0.479031 0.016337
vt 0.426028 0.015785
vt 0.381584 0.023028
vt 0.405686 0.031915
vt 0.381088 0.055780
vt 0.357232 0.031190
vt 0.404944 0.080369
vt 0.380592 0.088531
vt 0.348336 0.055284
vt 0.413840 0.056275
vt 0.356489 0.079644
s 1
usemtl Food_Vegetables
f 3/1/1 9/2/2 8/3/3 2/4/4
f 6/5/5 12/6/6 11/7/7 5/8/8
f 4/9/9 10/10/10 9/2/2 3/1/1
f 2/4/4 8/3/3 7/11/11 1/12/12
f 1/12/12 7/11/11 12/6/6 6/5/5
f 5/13/8 11/14/7 10/10/10 4/9/9
f 12/6/6 18/15/13 17/16/14 11/7/7
f 10/10/10 16/17/15 15/18/16 9/2/2
f 8/3/3 14/19/17 13/20/18 7/11/11
f 7/11/11 13/20/18 18/15/13 12/6/6
f 11/14/7 17/21/14 16/17/15 10/10/10
f 9/2/2 15/18/16 14/19/17 8/3/3
f 13/20/18 19/22/19 24/23/20 18/15/13
f 17/21/14 23/24/21 22/25/22 16/17/15
f 15/18/16 21/26/23 20/27/24 14/19/17
f 18/15/13 24/23/20 23/28/21 17/16/14
f 16/17/15 22/25/22 21/26/23 15/18/16
f 14/19/17 20/27/24 19/22/19 13/20/18
f 24/23/20 30/29/25 29/30/26 23/28/21
f 22/25/22 28/31/27 27/32/28 21/26/23
f 20/27/24 26/33/29 25/34/30 19/22/19
f 19/22/19 25/34/30 30/29/25 24/23/20
f 23/24/21 29/35/26 28/31/27 22/25/22
f 21/26/23 27/32/28 26/33/29 20/27/24
f 29/35/26 35/36/31 34/37/32 28/31/27
f 27/32/28 33/38/33 32/39/34 26/33/29
f 30/29/25 36/40/35 35/41/31 29/30/26
f 28/31/27 34/37/32 33/38/33 27/32/28
f 26/33/29 32/39/34 31/42/36 25/34/30
f 25/34/30 31/42/36 36/40/35 30/29/25
f 34/37/32 40/43/37 39/44/38 33/38/33
f 32/39/34 38/45/39 37/46/40 31/42/36
f 31/42/36 37/46/40 42/47/41 36/40/35
f 35/36/31 41/48/42 40/43/37 34/37/32
f 33/38/33 39/44/38 38/45/39 32/39/34
f 36/40/35 42/47/41 41/49/42 35/41/31
f 39/44/38 45/50/43 44/51/44 38/45/39
f 42/47/41 48/52/45 47/53/46 41/49/42
f 40/43/37 46/54/47 45/50/43 39/44/38
f 38/45/39 44/51/44 43/55/48 37/46/40
f 37/46/40 43/55/48 48/52/45 42/47/41
f 41/48/42 47/56/46 46/54/47 40/43/37
f 44/51/44 50/57/49 49/58/50 43/55/48
f 43/55/48 49/58/50 54/59/51 48/52/45
f 47/56/46 53/60/52 52/61/53 46/54/47
f 45/50/43 51/62/54 50/57/49 44/51/44
f 48/52/45 54/59/51 53/63/52 47/53/46
f 46/54/47 52/61/53 51/62/54 45/50/43
f 54/59/51 60/64/55 59/65/56 53/63/52
f 52/61/53 58/66/57 57/67/58 51/62/54
f 50/57/49 56/68/59 55/69/60 49/58/50
f 49/58/50 55/69/60 60/64/55 54/59/51
f 53/60/52 59/70/56 58/66/57 52/61/53
f 51/62/54 57/67/58 56/68/59 50/57/49
f 55/69/60 61/71/61 66/72/62 60/64/55
f 59/70/56 65/73/63 64/74/64 58/66/57
f 57/67/58 63/75/65 62/76/66 56/68/59
f 60/64/55 66/72/62 65/77/63 59/65/56
f 58/66/57 64/74/64 63/75/65 57/67/58
f 56/68/59 62/76/66 61/71/61 55/69/60
f 62/78/67 63/79/67 64/80/67 61/81/67
f 65/77/67 66/72/67 61/81/67 64/80/67
f 99/82/68 122/83/69 91/84/70 69/85/71
f 75/86/72 83/87/73 117/88/74 104/89/75
f 94/90/76 67/91/77 97/92/78 124/93/79
f 107/82/80 114/83/81 83/84/82 75/85/83
f 78/90/84 79/91/85 113/92/86 108/93/87
f 103/94/88 118/95/89 87/96/90 72/97/91
f 95/94/92 126/95/93 67/96/94 94/97/95
f 73/91/96 89/98/97 71/99/98 105/92/99
f 119/94/100 102/95/101 73/96/102 86/97/103
f 123/82/104 98/83/105 70/84/106 90/85/107
f 86/90/108 73/91/96 105/92/99 116/93/109
f 115/82/110 106/83/111 76/84/112 82/85/113
f 90/86/114 70/87/115 101/88/116 120/89/117
f 82/86/118 76/87/119 109/88/120 112/89/121
f 72/90/122 87/91/123 121/92/124 100/93/125
f 111/94/126 110/95/127 79/96/128 78/97/129
f 95/94/92 96/89/130 125/88/131 126/95/93
f 123/82/104 124/93/79 97/92/78 98/83/105
f 105/92/99 106/83/111 115/82/110 116/93/109
f 103/94/88 104/89/75 117/88/74 118/95/89
f 101/88/116 102/95/101 119/94/100 120/89/117
f 107/82/80 108/93/87 113/92/86 114/83/81
f 121/92/124 122/83/69 99/82/68 100/93/125
f 109/88/120 110/95/127 111/94/126 112/89/121
f 69/86/132 91/87/133 125/88/131 96/89/130
f 91/87/133 80/100/134 130/101/135 125/88/131
f 110/95/127 68/101/136 85/102/137 79/96/128
f 122/83/69 129/99/138 80/103/139 91/84/70
f 118/95/89 128/101/140 81/102/141 87/96/90
f 114/83/81 127/99/142 84/103/143 83/84/82
f 126/95/93 130/101/135 93/102/144 67/96/94
f 109/88/120 68/101/136 110/95/127
f 87/91/123 81/98/145 129/99/138 121/92/124
f 97/92/78 77/99/146 98/83/105
f 83/87/73 84/100/147 128/101/140 117/88/74
f 117/88/74 128/101/140 118/95/89
f 79/91/85 85/98/148 127/99/142 113/92/86
f 113/92/86 127/99/142 114/83/81
f 67/91/77 93/98/149 77/99/146 97/92/78
f 102/95/101 74/101/150 89/102/151 73/96/102
f 105/92/99 71/99/98 106/83/111
f 106/83/111 71/99/98 88/103/152 76/84/112
f 101/88/116 74/101/150 102/95/101
f 76/87/119 88/100/153 68/101/136 109/88/120
f 121/92/124 129/99/138 122/83/69
f 125/88/131 130/101/135 126/95/93
f 98/83/105 77/99/146 92/103/154 70/84/106
f 70/87/115 92/100/155 74/101/150 101/88/116
f 69/85/71 131/104/156 141/105/157 99/82/68
f 119/94/100 151/106/158 152/107/159 120/89/117
f 72/97/91 132/108/160 143/106/161 103/94/88
f 99/82/68 141/105/157 142/109/162 100/93/125
f 123/82/104 153/105/163 154/109/164 124/93/79
f 75/85/83 133/104/165 145/105/166 107/82/80
f 94/97/95 138/108/167 139/106/168 95/94/92
f 103/94/88 143/106/161 144/107/169 104/89/75
f 100/93/125 142/109/162 132/110/170 72/90/122
f 107/82/80 145/105/166 146/109/171 108/93/87
f 104/89/75 144/107/169 133/111/172 75/86/72
f 108/93/87 146/109/171 134/110/173 78/90/84
f 124/93/79 154/109/164 138/110/174 94/90/76
f 86/97/103 136/108/175 151/106/158 119/94/100
f 95/94/92 139/106/168 140/112/176 96/89/130
f 82/85/113 135/104/177 149/105/178 115/82/110
f 111/94/126 147/106/179 148/107/180 112/89/121
f 112/89/121 148/107/180 135/111/181 82/86/118
f 90/85/107 137/104/182 153/105/163 123/82/104
f 120/89/117 152/107/159 137/111/183 90/86/114
f 116/93/109 150/109/184 136/110/185 86/90/108
f 96/89/130 140/112/176 131/111/186 69/86/132
f 115/82/110 149/105/178 150/109/184 116/93/109
f 78/97/129 134/108/187 147/106/179 111/94/126
f 145/105/166 166/113/188 146/109/171
f 133/104/165 157/114/189 166/113/188 145/105/166
f 142/109/162 164/113/190 156/115/191 132/110/170
f 141/105/157 164/113/190 142/109/162
f 146/109/171 166/113/188 158/115/192 134/110/173
f 136/108/175 160/116/193 169/117/194 151/106/158
f 147/106/179 167/117/195 148/107/180
f 148/107/180 167/117/195 159/118/196 135/111/181
f 139/106/168 163/117/197 140/112/176
f 152/107/159 169/117/194 161/118/198 137/111/183
f 140/112/176 163/117/197 155/118/199 131/111/186
f 134/108/187 158/116/200 167/117/195 147/106/179
f 153/105/163 170/113/201 154/109/164
f 132/108/160 156/116/202 165/117/203 143/106/161
f 138/108/167 162/116/204 163/117/197 139/106/168
f 149/105/178 168/113/205 150/109/184
f 144/107/169 165/117/203 157/118/206 133/111/172
f 154/109/164 170/113/201 162/115/207 138/110/174
f 143/106/161 165/117/203 144/107/169
f 135/104/177 159/114/208 168/113/205 149/105/178
f 137/104/182 161/114/209 170/113/201 153/105/163
f 151/106/158 169/117/194 152/107/159
f 150/109/184 168/113/205 160/115/210 136/110/185
f 131/104/156 155/114/211 164/113/190 141/105/157
f 162/116/204 178/119/212 179/120/213 163/117/197
f 165/117/203 181/120/214 173/121/215 157/118/206
f 170/113/201 186/122/216 178/123/217 162/115/207
f 159/114/208 175/124/218 184/122/219 168/113/205
f 161/114/209 177/124/220 186/122/216 170/113/201
f 168/113/205 184/122/219 176/123/221 160/115/210
f 155/114/211 171/124/222 180/122/223 164/113/190
f 157/114/189 173/124/224 182/122/225 166/113/188
f 164/113/190 180/122/223 172/123/226 156/115/191
f 166/113/188 182/122/225 174/123/227 158/115/192
f 160/116/193 176/119/228 185/120/229 169/117/194
f 167/117/195 183/120/230 175/121/231 159/118/196
f 169/117/194 185/120/229 177/121/232 161/118/198
f 163/117/197 179/120/213 171/121/233 155/118/199
f 158/116/200 174/119/234 183/120/230 167/117/195
f 156/116/202 172/119/235 181/120/214 165/117/203
f 175/121/231 183/120/230 187/125/236
f 186/122/216 177/124/220 187/126/237
f 171/121/233 179/120/213 187/125/238
f 182/122/225 173/124/224 187/126/239
f 180/122/223 171/124/222 187/126/240
f 172/123/226 180/122/223 187/126/240
f 174/123/227 182/122/225 187/126/239
f 185/120/229 176/119/228 187/125/241
f 177/121/232 185/120/229 187/125/241
f 183/120/230 174/119/234 187/125/236
f 181/120/214 172/119/235 187/125/242
f 178/123/217 186/122/216 187/126/237
f 173/121/215 181/120/214 187/125/242
f 176/123/221 184/122/219 187/126/243
f 179/120/213 178/119/212 187/125/238
f 184/122/219 175/124/218 187/126/243
f 80/103/139 129/99/138 192/127/244
f 85/102/137 68/101/136 188/128/244 193/129/244
f 74/101/150 92/100/155 191/130/244 190/128/244
f 68/101/136 88/100/153 189/130/244 188/128/244
f 81/102/141 128/101/140 194/128/244 192/129/244
f 93/102/144 130/101/135 195/128/244 191/129/244
f 127/99/142 85/98/148 193/127/244
f 77/99/146 93/98/149 191/127/244
f 130/101/135 80/100/134 192/130/244 195/128/244
f 84/103/143 127/99/142 193/127/244
f 88/103/152 71/99/98 189/127/244
f 89/102/151 74/101/150 190/128/244 189/129/244
f 128/101/140 84/100/147 193/130/244 194/128/244
f 71/99/98 89/98/97 189/127/244
f 129/99/138 81/98/145 192/127/244
f 92/103/154 77/99/146 191/127/244
f 189/131/245 190/132/246 196/133/244
f 188/134/247 189/131/245 196/133/244
f 195/135/248 192/136/249 196/133/244
f 193/137/250 188/134/247 196/133/244
f 190/132/246 191/138/251 196/133/244
f 191/138/251 195/135/248 196/133/244
f 192/136/249 194/139/252 196/133/244
f 194/139/252 193/137/250 196/133/244
