# Blender 4.4.3
# www.blender.org
mtllib Food_Vegetables_Pepper.mtl
o Food_Vegetables_Pepper
v 0.032166 0.047907 0.055712
v 0.000001 0.119320 0.044135
v 0.064332 0.047907 0.000000
v 0.026168 0.015382 0.045323
v 0.052335 0.015382 0.000000
v 0.014494 0.015382 0.062240
v 0.022068 0.119320 0.038222
v 0.018340 0.047907 0.074925
v 0.044136 0.119320 0.000000
v 0.000001 0.000097 0.029935
v 0.014305 0.007040 0.024775
v 0.025925 0.000097 0.014968
v 0.028609 0.007040 0.000000
v 0.000001 0.104415 0.012814
v 0.012815 0.104415 0.000000
v 0.000001 0.003569 0.000000
v 0.069677 0.047907 0.024352
v 0.057753 0.047907 0.048515
v 0.055508 0.015382 0.018965
v 0.046905 0.015382 0.037901
v 0.038223 0.119320 0.022067
v -0.032165 0.047907 0.055712
v -0.064330 0.047907 0.000000
v -0.026167 0.015382 0.045323
v -0.052334 0.015382 0.000000
v -0.014493 0.015382 0.062240
v -0.022067 0.119320 0.038222
v -0.018339 0.047907 0.074925
v -0.044134 0.119320 0.000000
v -0.014303 0.007040 0.024775
v -0.025924 0.000097 0.014968
v -0.028608 0.007040 0.000000
v -0.069675 0.047907 0.024352
v -0.057752 0.047907 0.048515
v -0.055506 0.015382 0.018965
v -0.046904 0.015382 0.037901
v -0.038221 0.119320 0.022067
v 0.012099 0.110338 0.077745
v 0.020183 0.085765 0.081665
v 0.035204 0.085765 0.060973
v 0.032983 0.110422 0.057127
v 0.070406 0.085765 0.000000
v 0.066004 0.110397 0.000000
v 0.076556 0.085765 0.026850
v 0.069059 0.110337 0.028679
v 0.061014 0.110336 0.044681
v 0.063204 0.085765 0.053507
v -0.012097 0.110338 0.077745
v -0.020182 0.085765 0.081665
v -0.032982 0.110422 0.057127
v -0.035202 0.085765 0.060973
v -0.066003 0.110397 0.000000
v -0.070405 0.085765 0.000000
v -0.069057 0.110337 0.028679
v -0.076554 0.085765 0.026850
v -0.063203 0.085765 0.053507
v -0.061012 0.110336 0.044681
v 0.008097 0.137621 0.000000
v -0.000565 0.133544 0.009573
v -0.012813 0.104415 0.000000
v -0.009227 0.129468 0.000000
v -0.018553 0.166289 0.000000
v -0.023918 0.153216 0.014131
v -0.023918 0.153216 0.000000
v -0.029282 0.140144 0.000000
v 0.032166 0.047907 -0.055712
v 0.000001 0.119320 -0.044135
v 0.026168 0.015382 -0.045323
v 0.014494 0.015382 -0.062240
v 0.022068 0.119320 -0.038222
v 0.018340 0.047907 -0.074925
v 0.000001 0.000097 -0.029935
v 0.014305 0.007040 -0.024775
v 0.025925 0.000097 -0.014968
v 0.069677 0.047907 -0.024352
v 0.057753 0.047907 -0.048515
v 0.055508 0.015382 -0.018965
v 0.046905 0.015382 -0.037901
v 0.038223 0.119320 -0.022067
v -0.032165 0.047907 -0.055712
v -0.026167 0.015382 -0.045323
v -0.014493 0.015382 -0.062240
v -0.022067 0.119320 -0.038222
v -0.018339 0.047907 -0.074925
v -0.014303 0.007040 -0.024775
v -0.025924 0.000097 -0.014968
v -0.069675 0.047907 -0.024352
v -0.057752 0.047907 -0.048515
v -0.055506 0.015382 -0.018965
v -0.046904 0.015382 -0.037901
v -0.038221 0.119320 -0.022067
v 0.012099 0.110338 -0.077745
v 0.020183 0.085765 -0.081665
v 0.035204 0.085765 -0.060973
v 0.032983 0.110422 -0.057127
v 0.076556 0.085765 -0.026850
v 0.069059 0.110337 -0.028679
v 0.061014 0.110336 -0.044681
v 0.063204 0.085765 -0.053507
v -0.012097 0.110338 -0.077745
v -0.020182 0.085765 -0.081665
v -0.032982 0.110422 -0.057127
v -0.035202 0.085765 -0.060973
v -0.069057 0.110337 -0.028679
v -0.076554 0.085765 -0.026850
v -0.063203 0.085765 -0.053507
v -0.061012 0.110336 -0.044681
v 0.000001 0.104415 -0.012814
v -0.000565 0.133544 -0.009573
v -0.023918 0.153216 -0.014131
vn 0.1260 -0.9894 0.0716
vn 0.4736 -0.6666 0.5757
vn 0.1673 -0.6926 0.7017
vn -0.0977 -0.9150 0.3913
vn 0.2726 -0.2645 0.9250
vn 0.6150 -0.2960 0.7308
vn 0.6369 0.0386 0.7700
vn 0.2990 0.0540 0.9527
vn 0.9447 -0.2606 -0.1988
vn 0.9501 -0.2879 0.1197
vn 0.7450 -0.6646 0.0576
vn 0.6962 -0.6898 -0.1988
vn 0.2662 0.6325 0.7274
vn 0.4800 0.7261 0.4923
vn 0.0545 0.9985 -0.0109
vn -0.0000 0.9994 -0.0346
vn -0.0375 0.9992 0.0165
vn -0.0047 1.0000 -0.0079
vn -0.3283 0.9138 -0.2392
vn -0.2869 0.9140 -0.2869
vn 0.4546 0.0259 0.8903
vn -0.4546 0.0259 0.8903
vn -0.4391 -0.2707 0.8567
vn 0.4391 -0.2707 0.8567
vn 0.9807 0.0410 -0.1913
vn 0.9912 0.0317 0.1284
vn 0.2882 -0.9147 -0.2832
vn -0.3726 -0.6491 0.6632
vn 0.3726 -0.6491 0.6632
vn -0.0000 0.9030 -0.4297
vn 0.0032 0.9992 -0.0405
vn -0.0998 -0.9933 -0.0576
vn 0.4093 -0.9097 0.0701
vn -0.0000 -0.9936 0.1132
vn -0.0000 -0.9933 -0.1152
vn 0.5330 0.6499 0.5417
vn 0.7475 0.6485 0.1436
vn -0.7823 0.0563 0.6204
vn -0.7913 -0.2340 0.5649
vn 0.2797 0.7025 0.6544
vn 0.6060 -0.7035 0.3712
vn 0.7913 -0.2340 0.5649
vn 0.7823 0.0563 0.6204
vn -0.1260 -0.9894 0.0716
vn 0.0977 -0.9150 0.3913
vn -0.1673 -0.6926 0.7017
vn -0.4736 -0.6666 0.5757
vn -0.6150 -0.2960 0.7308
vn -0.2726 -0.2645 0.9250
vn -0.9447 -0.2606 -0.1988
vn -0.6962 -0.6898 -0.1988
vn -0.7450 -0.6646 0.0576
vn -0.9501 -0.2879 0.1197
vn -0.2662 0.6325 0.7274
vn -0.0545 0.9985 -0.0109
vn -0.4800 0.7261 0.4923
vn 0.0375 0.9992 0.0165
vn 0.2869 0.9140 -0.2869
vn 0.3283 0.9138 -0.2392
vn 0.0047 1.0000 -0.0079
vn -0.2990 0.0540 0.9527
vn -0.6369 0.0386 0.7700
vn -0.9912 0.0317 0.1284
vn -0.2882 -0.9147 -0.2832
vn -0.0032 0.9992 -0.0405
vn 0.0998 -0.9933 -0.0576
vn -0.4093 -0.9097 0.0701
vn -0.7475 0.6485 0.1436
vn -0.5330 0.6499 0.5417
vn -0.2797 0.7025 0.6544
vn -0.6060 -0.7035 0.3712
vn 0.7172 0.6928 -0.0760
vn -0.9807 0.0410 -0.1913
vn -0.7172 0.6928 -0.0760
vn -0.0029 0.1278 0.9918
vn 0.6300 -0.7766 -0.0001
vn 0.5132 0.2440 0.8228
vn 0.2025 0.0862 0.9755
vn -0.1406 0.9901 -0.0000
vn 0.2189 0.0212 0.9755
vn -0.0249 -0.9997 -0.0000
vn -0.6405 -0.7680 0.0001
vn -0.9980 -0.0627 -0.0000
vn -0.9251 0.3797 -0.0000
vn 0.1260 -0.9894 -0.0716
vn -0.0977 -0.9150 -0.3913
vn 0.1673 -0.6926 -0.7017
vn 0.4736 -0.6666 -0.5757
vn 0.2726 -0.2645 -0.9250
vn 0.2990 0.0540 -0.9527
vn 0.6369 0.0386 -0.7700
vn 0.6150 -0.2960 -0.7308
vn 0.9447 -0.2606 0.1988
vn 0.6962 -0.6898 0.1988
vn 0.7450 -0.6646 -0.0576
vn 0.9501 -0.2879 -0.1197
vn 0.2662 0.6325 -0.7274
vn -0.0000 0.9994 0.0346
vn 0.0545 0.9985 0.0109
vn 0.4800 0.7261 -0.4923
vn -0.0375 0.9992 -0.0165
vn -0.2869 0.9140 0.2869
vn -0.3283 0.9138 0.2392
vn -0.0047 1.0000 0.0079
vn 0.4546 0.0259 -0.8903
vn 0.4391 -0.2707 -0.8567
vn -0.4391 -0.2707 -0.8567
vn -0.4546 0.0259 -0.8903
vn 0.9912 0.0317 -0.1284
vn 0.9807 0.0410 0.1913
vn 0.2882 -0.9147 0.2832
vn 0.3726 -0.6491 -0.6632
vn -0.3726 -0.6491 -0.6632
vn -0.0000 0.9030 0.4297
vn 0.0032 0.9992 0.0405
vn -0.0998 -0.9933 0.0576
vn 0.4093 -0.9097 -0.0701
vn -0.0000 -0.9933 0.1152
vn -0.0000 -0.9936 -0.1132
vn 0.7475 0.6485 -0.1436
vn 0.5330 0.6499 -0.5417
vn -0.7913 -0.2340 -0.5649
vn -0.7823 0.0563 -0.6204
vn 0.2797 0.7025 -0.6544
vn 0.6060 -0.7035 -0.3712
vn 0.7823 0.0563 -0.6204
vn 0.7913 -0.2340 -0.5649
vn -0.1260 -0.9894 -0.0716
vn -0.4736 -0.6666 -0.5757
vn -0.1673 -0.6926 -0.7017
vn 0.0977 -0.9150 -0.3913
vn -0.6150 -0.2960 -0.7308
vn -0.2726 -0.2645 -0.9250
vn -0.9447 -0.2606 0.1988
vn -0.9501 -0.2879 -0.1197
vn -0.7450 -0.6646 -0.0576
vn -0.6962 -0.6898 0.1988
vn -0.2662 0.6325 -0.7274
vn -0.4800 0.7261 -0.4923
vn -0.0545 0.9985 0.0109
vn 0.0375 0.9992 -0.0165
vn 0.0047 1.0000 0.0079
vn 0.3283 0.9138 0.2392
vn 0.2869 0.9140 0.2869
vn -0.6369 0.0386 -0.7700
vn -0.2990 0.0540 -0.9527
vn -0.9912 0.0317 -0.1284
vn -0.2882 -0.9147 0.2832
vn -0.0032 0.9992 0.0405
vn 0.0998 -0.9933 0.0576
vn -0.4093 -0.9097 -0.0701
vn -0.5330 0.6499 -0.5417
vn -0.7475 0.6485 -0.1436
vn -0.2797 0.7025 -0.6544
vn -0.6060 -0.7035 -0.3712
vn 0.7172 0.6928 0.0760
vn -0.9807 0.0410 0.1913
vn -0.7172 0.6928 0.0760
vn -0.0029 0.1278 -0.9918
vn 0.2025 0.0862 -0.9755
vn 0.2189 0.0212 -0.9755
vt 0.538451 0.296482
vt 0.529795 0.335527
vt 0.505908 0.324343
vt 0.518229 0.292123
vt 0.494976 0.369292
vt 0.526505 0.375351
vt 0.527343 0.415753
vt 0.495497 0.419124
vt 0.586343 0.368389
vt 0.556664 0.374426
vt 0.553274 0.333223
vt 0.574512 0.322857
vt 0.575996 0.196988
vt 0.604115 0.213381
vt 0.591417 0.244330
vt 0.563103 0.235191
vt 0.512784 0.478978
vt 0.540472 0.474688
vt 0.546677 0.519906
vt 0.524069 0.524012
vt 0.585781 0.174178
vt 0.545535 0.173337
vt 0.545690 0.132680
vt 0.586270 0.132942
vt 0.588742 0.419506
vt 0.556840 0.416035
vt 0.558881 0.291412
vt 0.549785 0.093935
vt 0.581899 0.093741
vt 0.558549 0.279368
vt 0.568229 0.481554
vt 0.537918 0.259206
vt 0.586907 0.045044
vt 0.565235 0.050493
vt 0.564766 0.010659
vt 0.533950 0.439268
vt 0.550512 0.440120
vt 0.517395 0.176361
vt 0.518047 0.126130
vt 0.502686 0.451136
vt 0.601986 0.079245
vt 0.614460 0.126420
vt 0.614460 0.178456
vt 0.553869 0.196326
vt 0.534494 0.238231
vt 0.525546 0.209731
vt 0.543566 0.045602
vt 0.529666 0.079871
vt 0.580477 0.452699
vt 0.627374 0.538001
vt 0.628945 0.548966
vt 0.603154 0.554019
vt 0.603217 0.542088
vt 0.577912 0.550644
vt 0.578499 0.539273
vt 0.603617 0.530134
vt 0.624902 0.527486
vt 0.582208 0.528319
vt 0.569560 0.544766
vt 0.561207 0.538887
s 1
usemtl Food_Vegetables
f 12/1/1 20/2/2 4/3/3 11/4/4
f 1/5/5 18/6/6 47/7/7 40/8/8
f 18/6/6 1/5/5 4/3/3 20/2/2
f 3/9/9 17/10/10 19/11/11 5/12/12
f 38/13/13 41/14/14 7/15/15 2/16/16
f 7/17/17 21/18/18 15/19/19 14/20/20
f 39/21/21 49/22/22 28/23/23 8/24/24
f 17/10/10 3/9/9 42/25/25 44/26/26
f 5/12/12 19/11/11 12/1/1 13/27/27
f 28/23/23 26/28/28 6/29/29 8/24/24
f 2/16/16 7/15/15 14/30/30
f 15/19/19 21/18/18 9/31/31
f 12/1/1 11/4/4 16/32/32
f 13/27/27 12/1/1 16/32/32
f 11/33/33 10/34/34 16/35/35
f 19/11/11 20/2/2 12/1/1
f 19/11/11 17/10/10 18/6/6 20/2/2
f 21/18/18 46/36/36 45/37/37
f 28/23/23 49/22/22 51/38/38 22/39/39
f 41/40/40 46/36/36 21/18/18 7/17/17
f 4/41/41 6/29/29 10/34/34 11/33/33
f 26/28/28 10/34/34 6/29/29
f 8/24/24 1/42/42 40/43/43 39/21/21
f 1/42/42 8/24/24 6/29/29 4/41/41
f 31/1/44 30/4/45 24/3/46 36/2/47
f 34/6/48 36/2/47 24/3/46 22/5/49
f 23/9/50 25/12/51 35/11/52 33/10/53
f 48/44/54 2/16/16 27/45/55 50/46/56
f 27/17/57 14/20/58 60/19/59 37/18/60
f 22/5/49 51/8/61 56/7/62 34/6/48
f 33/10/53 34/6/48 56/7/62 55/26/63
f 25/12/51 32/27/64 31/1/44 35/11/52
f 2/16/16 14/30/30 27/45/55
f 60/19/59 29/31/65 37/18/60
f 31/1/44 16/32/66 30/4/45
f 32/27/64 16/32/66 31/1/44
f 30/47/67 16/35/35 10/34/34
f 35/11/52 31/1/44 36/2/47
f 35/11/52 36/2/47 34/6/48 33/10/53
f 37/18/60 54/37/68 57/36/69
f 50/40/70 27/17/57 37/18/60 57/36/69
f 24/48/71 30/47/67 10/34/34 26/28/28
f 22/39/39 24/48/71 26/28/28 28/23/23
f 45/37/37 43/49/72 9/31/31 21/18/18
f 17/10/10 44/26/26 47/7/7 18/6/6
f 33/10/53 55/26/63 53/25/73 23/9/50
f 54/37/68 37/18/60 29/31/65 52/49/74
f 41/14/14 38/13/13 39/21/21 40/43/43
f 45/37/37 46/36/36 47/7/7 44/26/26
f 46/36/36 41/40/40 40/8/8 47/7/7
f 43/49/72 45/37/37 44/26/26 42/25/25
f 49/22/22 39/21/21 38/13/13 48/44/54
f 51/38/38 49/22/22 48/44/54 50/46/56
f 55/26/63 56/7/62 57/36/69 54/37/68
f 56/7/62 51/8/61 50/40/70 57/36/69
f 53/25/73 55/26/63 54/37/68 52/49/74
f 2/16/16 48/44/54 38/13/13
f 14/50/75 15/51/76 58/52/77 59/53/78
f 59/53/78 58/52/77 62/54/79 63/55/80
f 14/50/75 59/53/78 61/56/81 60/57/82
f 61/56/81 59/53/78 63/55/80 65/58/83
f 63/55/84 62/54/84 64/59/84
f 63/55/84 64/59/84 65/60/84
f 74/1/85 73/4/86 68/3/87 78/2/88
f 66/5/89 94/8/90 99/7/91 76/6/92
f 76/6/92 78/2/88 68/3/87 66/5/89
f 3/9/93 5/12/94 77/11/95 75/10/96
f 92/13/97 67/16/98 70/15/99 95/14/100
f 70/17/101 108/20/102 15/19/103 79/18/104
f 93/21/105 71/24/106 84/23/107 101/22/108
f 75/10/96 96/26/109 42/25/110 3/9/93
f 5/12/94 13/27/111 74/1/85 77/11/95
f 84/23/107 71/24/106 69/29/112 82/28/113
f 67/16/98 108/30/114 70/15/99
f 15/19/103 9/31/115 79/18/104
f 74/1/85 16/32/116 73/4/86
f 13/27/111 16/32/116 74/1/85
f 73/33/117 16/35/118 72/34/119
f 77/11/95 74/1/85 78/2/88
f 77/11/95 78/2/88 76/6/92 75/10/96
f 79/18/104 97/37/120 98/36/121
f 84/23/107 80/39/122 103/38/123 101/22/108
f 95/40/124 70/17/101 79/18/104 98/36/121
f 68/41/125 73/33/117 72/34/119 69/29/112
f 82/28/113 69/29/112 72/34/119
f 71/24/106 93/21/105 94/43/126 66/42/127
f 66/42/127 68/41/125 69/29/112 71/24/106
f 86/1/128 90/2/129 81/3/130 85/4/131
f 88/6/132 80/5/133 81/3/130 90/2/129
f 23/9/134 87/10/135 89/11/136 25/12/137
f 100/44/138 102/46/139 83/45/140 67/16/98
f 83/17/141 91/18/142 60/19/143 108/20/144
f 80/5/133 88/6/132 106/7/145 103/8/146
f 87/10/135 105/26/147 106/7/145 88/6/132
f 25/12/137 89/11/136 86/1/128 32/27/148
f 67/16/98 83/45/140 108/30/114
f 60/19/143 91/18/142 29/31/149
f 86/1/128 85/4/131 16/32/150
f 32/27/148 86/1/128 16/32/150
f 85/47/151 72/34/119 16/35/118
f 89/11/136 90/2/129 86/1/128
f 89/11/136 87/10/135 88/6/132 90/2/129
f 91/18/142 107/36/152 104/37/153
f 102/40/154 107/36/152 91/18/142 83/17/141
f 81/48/155 82/28/113 72/34/119 85/47/151
f 80/39/122 84/23/107 82/28/113 81/48/155
f 97/37/120 79/18/104 9/31/115 43/49/156
f 75/10/96 76/6/92 99/7/91 96/26/109
f 87/10/135 23/9/134 53/25/157 105/26/147
f 104/37/153 52/49/158 29/31/149 91/18/142
f 95/14/100 94/43/126 93/21/105 92/13/97
f 97/37/120 96/26/109 99/7/91 98/36/121
f 98/36/121 99/7/91 94/8/90 95/40/124
f 43/49/156 42/25/110 96/26/109 97/37/120
f 101/22/108 100/44/138 92/13/97 93/21/105
f 103/38/123 102/46/139 100/44/138 101/22/108
f 105/26/147 104/37/153 107/36/152 106/7/145
f 106/7/145 107/36/152 102/40/154 103/8/146
f 53/25/157 52/49/158 104/37/153 105/26/147
f 67/16/98 92/13/97 100/44/138
f 108/50/159 109/53/160 58/52/77 15/51/76
f 109/53/160 110/55/161 62/54/79 58/52/77
f 108/50/159 60/57/82 61/56/81 109/53/160
f 61/56/81 65/58/83 110/55/161 109/53/160
f 110/55/84 64/59/84 62/54/84
f 110/55/84 65/60/84 64/59/84
