# Blender 4.4.3
# www.blender.org
mtllib Food_Vegetables_Lettuce.mtl
o Food_Vegetables_Lettuce
v 0.099068 0.049426 0.000000
v 0.056218 0.049426 0.089718
v -0.000000 0.049426 0.085870
v 0.088887 0.049426 0.054459
v -0.000000 0.089913 0.096100
v 0.064602 0.122251 0.099487
v -0.000000 0.098097 0.082915
v 0.028080 0.122301 0.090714
v 0.029334 0.115812 0.104627
v 0.109235 0.109781 0.000000
v 0.104562 0.162817 0.000000
v 0.088083 0.165180 0.000000
v 0.081442 0.155903 0.028983
v 0.101569 0.150893 0.031321
v 0.068039 0.128124 0.050255
v 0.088806 0.120234 0.054855
v 0.059952 0.092292 0.053707
v 0.055320 0.128955 0.085475
v 0.036856 0.096089 0.073378
v 0.097229 0.114339 0.066158
v 0.062763 0.085918 0.100400
v 0.097299 0.085918 0.063193
v -0.000000 -0.005598 0.000000
v 0.105741 0.104641 0.028222
v 0.074811 0.113405 0.000000
v 0.071587 0.107013 0.024364
v 0.054907 0.127571 0.000000
v 0.037507 0.127571 0.046724
v -0.000000 0.127571 0.057966
v 0.052341 0.127571 0.020131
v 0.020659 0.145084 0.019431
v 0.029147 0.145084 0.000000
v -0.000000 0.145084 0.026539
v -0.000000 0.152671 0.000000
v 0.071289 0.022508 0.000000
v 0.045375 0.022322 0.061745
v -0.000000 0.022508 0.067904
v 0.066447 0.022353 0.042399
v 0.040792 0.000025 0.000000
v 0.036862 0.000025 0.036816
v -0.000000 -0.000076 0.040197
v -0.099068 0.049426 0.000000
v -0.056218 0.049426 0.089718
v -0.088888 0.049426 0.054459
v -0.064603 0.122251 0.099487
v -0.028080 0.122301 0.090714
v -0.029335 0.115812 0.104627
v -0.109235 0.109781 0.000000
v -0.104563 0.162817 0.000000
v -0.088084 0.165180 0.000000
v -0.081442 0.155903 0.028983
v -0.101570 0.150893 0.031321
v -0.068039 0.128124 0.050255
v -0.088806 0.120234 0.054855
v -0.059953 0.092292 0.053707
v -0.055320 0.128955 0.085475
v -0.036857 0.096089 0.073378
v -0.097229 0.114339 0.066158
v -0.062763 0.085918 0.100400
v -0.097299 0.085918 0.063193
v -0.105742 0.104641 0.028222
v -0.074811 0.113405 0.000000
v -0.071588 0.107013 0.024364
v -0.054907 0.127571 0.000000
v -0.037508 0.127571 0.046724
v -0.052341 0.127571 0.020131
v -0.020660 0.145084 0.019431
v -0.029147 0.145084 0.000000
v -0.071289 0.022508 0.000000
v -0.045375 0.022322 0.061745
v -0.066448 0.022353 0.042399
v -0.040792 0.000025 0.000000
v -0.036863 0.000025 0.036816
v 0.056218 0.049426 -0.089718
v -0.000000 0.049426 -0.085870
v 0.088887 0.049426 -0.054459
v -0.000000 0.089913 -0.096100
v 0.064602 0.122251 -0.099487
v -0.000000 0.098097 -0.082915
v 0.028080 0.122301 -0.090714
v 0.029334 0.115812 -0.104627
v 0.081442 0.155903 -0.028983
v 0.101569 0.150893 -0.031321
v 0.068039 0.128124 -0.050255
v 0.088806 0.120234 -0.054855
v 0.059952 0.092292 -0.053707
v 0.055320 0.128955 -0.085475
v 0.036856 0.096089 -0.073378
v 0.097229 0.114339 -0.066158
v 0.062763 0.085918 -0.100400
v 0.097299 0.085918 -0.063193
v 0.105741 0.104641 -0.028222
v 0.071587 0.107013 -0.024364
v 0.037507 0.127571 -0.046724
v -0.000000 0.127571 -0.057966
v 0.052341 0.127571 -0.020131
v 0.020659 0.145084 -0.019431
v -0.000000 0.145084 -0.026539
v 0.045375 0.022322 -0.061745
v -0.000000 0.022508 -0.067904
v 0.066447 0.022353 -0.042399
v 0.036862 0.000025 -0.036816
v -0.000000 -0.000076 -0.040196
v -0.056218 0.049426 -0.089718
v -0.088888 0.049426 -0.054459
v -0.064603 0.122251 -0.099487
v -0.028080 0.122301 -0.090714
v -0.029335 0.115812 -0.104627
v -0.081442 0.155903 -0.028983
v -0.101570 0.150893 -0.031321
v -0.068039 0.128124 -0.050255
v -0.088806 0.120234 -0.054855
v -0.059953 0.092292 -0.053707
v -0.055320 0.128955 -0.085475
v -0.036857 0.096089 -0.073378
v -0.097229 0.114339 -0.066158
v -0.062763 0.085918 -0.100400
v -0.097299 0.085918 -0.063193
v -0.105742 0.104641 -0.028222
v -0.071588 0.107013 -0.024364
v -0.037508 0.127571 -0.046724
v -0.052341 0.127571 -0.020131
v -0.020660 0.145084 -0.019431
v -0.045375 0.022322 -0.061745
v -0.066448 0.022353 -0.042399
v -0.036863 0.000025 -0.036816
vn -0.0525 0.3923 0.9183
vn -0.1664 0.1317 0.9772
vn -0.0452 0.4075 0.9121
vn -0.6674 0.6415 0.3783
vn -0.4216 0.7944 0.4372
vn -0.3890 0.8084 0.4418
vn 0.1347 0.9315 0.3378
vn 0.1688 0.9328 0.3185
vn 0.4916 0.8668 0.0835
vn 0.5224 0.8510 0.0528
vn 0.8784 -0.1705 0.4466
vn 0.8528 -0.0345 0.5211
vn 0.4137 -0.0896 0.9060
vn 0.3735 -0.2009 0.9056
vn -0.3490 0.5117 -0.7851
vn -0.2384 0.4790 -0.8448
vn -0.4141 0.5118 -0.7527
vn -0.4930 0.5333 -0.6874
vn 0.7867 -0.4899 0.3755
vn 0.3141 -0.4929 0.8114
vn -0.0000 -0.4683 0.8836
vn -0.0000 -0.2125 0.9772
vn 0.0117 -0.1272 0.9918
vn 0.9423 -0.3347 -0.0000
vn 0.9922 -0.0477 0.1152
vn 0.9756 -0.0679 0.2087
vn 0.6243 0.7789 -0.0590
vn 0.8541 0.0423 0.5184
vn 0.9643 0.0725 0.2548
vn 0.9751 0.2217 -0.0000
vn 0.1108 0.7880 0.6057
vn 0.1093 0.7835 0.6117
vn 0.5532 0.8330 -0.0000
vn -0.2351 0.9720 -0.0000
vn -0.1921 0.4958 -0.8469
vn -0.9433 0.3319 -0.0000
vn -0.9521 0.2133 -0.2193
vn -0.9613 0.2208 -0.1647
vn -0.9435 0.3314 -0.0000
vn -0.9346 0.2020 -0.2928
vn 0.3931 0.5902 0.7051
vn 0.6368 0.5507 0.5397
vn 0.4225 0.7243 0.5449
vn 0.1782 0.9166 0.3579
vn -0.0000 0.8956 0.4448
vn 0.0194 0.7606 0.6489
vn 0.5932 0.7567 0.2747
vn 0.4353 0.9003 -0.0000
vn 0.3984 0.9151 0.0616
vn 0.6602 0.6629 0.3531
vn 0.7931 0.6091 -0.0000
vn -0.0000 0.6447 0.7644
vn -0.0000 0.9848 0.1739
vn -0.0387 -0.7039 0.7093
vn 0.2971 -0.7028 0.6463
vn 0.6065 -0.7422 0.2852
vn 0.7285 -0.6850 -0.0000
vn 0.0760 -0.9971 -0.0000
vn 0.3606 -0.9315 0.0480
vn 0.3437 -0.9074 0.2419
vn -0.0000 -0.9888 0.1489
vn 0.0525 0.3923 0.9183
vn 0.0452 0.4075 0.9121
vn 0.1664 0.1317 0.9772
vn 0.6674 0.6415 0.3783
vn 0.3890 0.8084 0.4418
vn 0.4216 0.7944 0.4372
vn -0.1347 0.9315 0.3378
vn -0.5224 0.8510 0.0528
vn -0.4916 0.8668 0.0835
vn -0.1688 0.9328 0.3185
vn -0.8784 -0.1705 0.4466
vn -0.3735 -0.2009 0.9056
vn -0.4137 -0.0896 0.9060
vn -0.8528 -0.0345 0.5211
vn 0.3490 0.5117 -0.7851
vn 0.4141 0.5118 -0.7527
vn 0.2384 0.4790 -0.8448
vn 0.4930 0.5333 -0.6874
vn -0.7867 -0.4899 0.3755
vn -0.3141 -0.4929 0.8114
vn -0.0117 -0.1272 0.9918
vn -0.9351 -0.3488 0.0623
vn -0.9756 -0.0679 0.2087
vn -0.9896 -0.1435 -0.0000
vn -0.6243 0.7789 -0.0590
vn -0.8541 0.0423 0.5184
vn -0.9643 0.0725 0.2548
vn -0.9751 0.2217 -0.0000
vn -0.1093 0.7835 0.6117
vn -0.1108 0.7880 0.6057
vn -0.5532 0.8330 -0.0000
vn 0.2351 0.9720 -0.0000
vn 0.1921 0.4958 -0.8469
vn 0.9433 0.3319 -0.0000
vn 0.9435 0.3314 -0.0000
vn 0.9613 0.2208 -0.1647
vn 0.9521 0.2133 -0.2193
vn 0.9346 0.2020 -0.2928
vn -0.3931 0.5902 0.7051
vn -0.4225 0.7243 0.5449
vn -0.6368 0.5507 0.5397
vn -0.1783 0.9166 0.3579
vn -0.5932 0.7567 0.2747
vn -0.5591 0.8291 -0.0000
vn -0.5756 0.8071 0.1312
vn -0.6602 0.6629 0.3531
vn -0.7931 0.6091 -0.0000
vn -0.2971 -0.7028 0.6463
vn -0.6559 -0.7512 0.0741
vn -0.6065 -0.7422 0.2852
vn -0.3437 -0.9074 0.2419
vn -0.2946 -0.9556 -0.0000
vn -0.0525 0.3923 -0.9183
vn -0.0452 0.4075 -0.9121
vn -0.1664 0.1317 -0.9772
vn -0.6674 0.6415 -0.3783
vn -0.3890 0.8084 -0.4418
vn -0.4216 0.7944 -0.4372
vn 0.1347 0.9315 -0.3378
vn 0.5224 0.8510 -0.0528
vn 0.4916 0.8668 -0.0835
vn 0.1688 0.9328 -0.3185
vn 0.8784 -0.1705 -0.4466
vn 0.3735 -0.2009 -0.9056
vn 0.4137 -0.0896 -0.9060
vn 0.8528 -0.0345 -0.5211
vn -0.3490 0.5117 0.7851
vn -0.4141 0.5118 0.7527
vn -0.2384 0.4790 0.8448
vn -0.4930 0.5333 0.6874
vn 0.7867 -0.4899 -0.3755
vn 0.3141 -0.4929 -0.8114
vn -0.0000 -0.4683 -0.8836
vn -0.0000 -0.2125 -0.9772
vn 0.0117 -0.1272 -0.9918
vn 0.9756 -0.0679 -0.2087
vn 0.6243 0.7789 0.0590
vn 0.8541 0.0423 -0.5184
vn 0.9643 0.0725 -0.2548
vn 0.1093 0.7835 -0.6117
vn 0.1108 0.7880 -0.6057
vn -0.1921 0.4958 0.8469
vn -0.9613 0.2208 0.1647
vn -0.9521 0.2133 0.2193
vn -0.9346 0.2020 0.2928
vn 0.3931 0.5902 -0.7051
vn 0.4225 0.7243 -0.5449
vn 0.6368 0.5507 -0.5397
vn 0.0194 0.7606 -0.6489
vn -0.0000 0.8956 -0.4448
vn 0.1783 0.9166 -0.3579
vn 0.5932 0.7567 -0.2747
vn 0.6602 0.6629 -0.3531
vn -0.0000 0.6447 -0.7644
vn 0.2971 -0.7028 -0.6463
vn -0.0387 -0.7039 -0.7093
vn 0.6065 -0.7422 -0.2852
vn -0.0000 -0.9888 -0.1490
vn 0.3437 -0.9074 -0.2419
vn 0.0525 0.3923 -0.9183
vn 0.1664 0.1317 -0.9772
vn 0.0452 0.4075 -0.9121
vn 0.6674 0.6415 -0.3783
vn 0.4216 0.7944 -0.4372
vn 0.3890 0.8084 -0.4418
vn -0.1347 0.9315 -0.3378
vn -0.1688 0.9328 -0.3185
vn -0.4916 0.8668 -0.0835
vn -0.5224 0.8510 -0.0528
vn -0.8784 -0.1705 -0.4466
vn -0.8528 -0.0345 -0.5211
vn -0.4137 -0.0896 -0.9060
vn -0.3735 -0.2009 -0.9056
vn 0.3490 0.5117 0.7851
vn 0.2384 0.4790 0.8448
vn 0.4141 0.5118 0.7527
vn 0.4930 0.5333 0.6874
vn -0.7867 -0.4899 -0.3755
vn -0.3141 -0.4929 -0.8114
vn -0.0117 -0.1272 -0.9918
vn -0.9756 -0.0679 -0.2087
vn -0.6243 0.7789 0.0590
vn -0.8541 0.0423 -0.5184
vn -0.9643 0.0725 -0.2548
vn -0.1108 0.7880 -0.6057
vn -0.1093 0.7835 -0.6117
vn 0.1921 0.4958 0.8469
vn 0.9521 0.2133 0.2193
vn 0.9613 0.2208 0.1647
vn 0.9346 0.2020 0.2928
vn -0.3931 0.5902 -0.7051
vn -0.6368 0.5507 -0.5397
vn -0.4225 0.7243 -0.5449
vn -0.1783 0.9166 -0.3579
vn -0.5932 0.7567 -0.2747
vn -0.6602 0.6629 -0.3531
vn -0.2971 -0.7028 -0.6463
vn -0.6065 -0.7422 -0.2852
vn -0.3437 -0.9074 -0.2419
vt 0.344960 0.775047
vt 0.343223 0.736974
vt 0.374260 0.783735
vt 0.514971 0.750688
vt 0.514971 0.775892
vt 0.469681 0.765417
vt 0.462656 0.752690
vt 0.431540 0.758635
vt 0.435488 0.774089
vt 0.389559 0.795013
vt 0.406139 0.822797
vt 0.449844 0.801875
vt 0.447876 0.721201
vt 0.401592 0.725436
vt 0.426769 0.856180
vt 0.463810 0.832970
vt 0.514971 0.826842
vt 0.394455 0.898940
vt 0.352908 0.859583
vt 0.371606 0.835606
vt 0.336754 0.815799
vt 0.311679 0.838676
vt 0.323841 0.803581
vt 0.301391 0.826123
vt 0.285860 0.774030
vt 0.310864 0.759574
vt 0.674142 0.985904
vt 0.645127 0.992832
vt 0.651817 0.954304
vt 0.644049 0.921256
vt 0.662942 0.913166
vt 0.684036 0.939595
vt 0.624340 0.949791
vt 0.607429 0.941402
vt 0.624930 0.915399
vt 0.615876 0.975589
vt 0.595703 0.961996
vt 0.706326 0.967521
vt 0.646632 0.892732
vt 0.514971 0.862428
vt 0.473455 0.869737
vt 0.449880 0.884109
vt 0.429286 0.920419
vt 0.514971 0.942741
vt 0.467980 0.936900
vt 0.480873 0.902369
vt 0.514971 0.899755
vt 0.684983 0.775047
vt 0.655683 0.783735
vt 0.686719 0.736974
vt 0.567287 0.752690
vt 0.560262 0.765417
vt 0.598403 0.758635
vt 0.640384 0.795012
vt 0.594455 0.774089
vt 0.623804 0.822797
vt 0.580099 0.801875
vt 0.582067 0.721201
vt 0.628351 0.725436
vt 0.603174 0.856179
vt 0.566133 0.832970
vt 0.635488 0.898940
vt 0.658337 0.835606
vt 0.677035 0.859583
vt 0.693189 0.815799
vt 0.718264 0.838676
vt 0.706102 0.803581
vt 0.728552 0.826123
vt 0.744083 0.774030
vt 0.719079 0.759574
vt 0.731387 0.940214
vt 0.705522 0.911439
vt 0.744575 0.913457
vt 0.675019 0.896538
vt 0.707213 0.883645
vt 0.673546 0.876595
vt 0.702782 0.865295
vt 0.734245 0.881111
vt 0.725464 0.858426
vt 0.556488 0.869737
vt 0.600657 0.920419
vt 0.580063 0.884109
vt 0.549070 0.902369
vt 0.561962 0.936900
s 1
usemtl Food_Vegetables
f 15/1/1 17/2/2 16/3/3
f 7/4/4 5/5/4 9/6/5 8/7/6
f 18/8/7 6/9/8 20/10/9 16/3/10
f 8/7/6 9/6/5 6/9/8 18/8/7
f 22/11/11 20/10/12 6/9/13 21/12/14
f 19/13/15 8/7/16 18/8/17
f 17/14/18 19/13/15 18/8/17 16/3/18
f 4/15/19 22/11/11 21/12/14 2/16/20
f 3/17/21 2/16/20 21/12/14 5/5/22
f 6/9/13 9/6/23 5/5/22 21/12/14
f 1/18/24 10/19/25 24/20/26
f 4/15/19 1/18/24 24/20/26 22/11/11
f 24/20/27 16/3/10 20/10/9
f 22/11/11 24/20/26 20/10/12
f 16/3/28 24/20/26 14/21/29
f 10/19/25 11/22/30 14/21/29 24/20/26
f 15/1/1 16/3/3 14/21/31 13/23/32
f 11/22/33 12/24/34 13/23/32 14/21/31
f 8/7/16 19/13/15 7/4/35
f 25/25/36 26/26/37 13/23/38 12/24/39
f 26/26/37 17/2/40 15/1/40 13/23/38
f 19/27/41 17/28/42 28/29/43
f 28/29/43 31/30/44 33/31/45 29/32/46
f 30/33/47 27/34/48 32/35/49 31/30/44
f 26/36/50 25/37/51 27/34/48 30/33/47
f 17/28/42 26/36/50 30/33/47 28/29/43
f 7/38/52 19/27/41 28/29/43 29/32/46
f 30/33/47 31/30/44 28/29/43
f 33/31/45 31/30/44 34/39/53
f 31/30/44 32/35/49 34/39/53
f 2/16/20 3/17/21 37/40/54 36/41/55
f 1/18/24 4/15/19 38/42/56 35/43/57
f 4/15/19 2/16/20 36/41/55 38/42/56
f 23/44/58 39/45/59 40/46/60 41/47/61
f 35/43/57 38/42/56 40/46/60 39/45/59
f 38/42/56 36/41/55 40/46/60
f 36/41/55 37/40/54 41/47/61 40/46/60
f 53/48/62 54/49/63 55/50/64
f 7/4/65 46/51/66 47/52/67 5/5/65
f 56/53/68 54/49/69 58/54/70 45/55/71
f 46/51/66 56/53/68 45/55/71 47/52/67
f 60/56/72 59/57/73 45/55/74 58/54/75
f 57/58/76 56/53/77 46/51/78
f 55/59/79 54/49/79 56/53/77 57/58/76
f 44/60/80 43/61/81 59/57/73 60/56/72
f 3/17/21 5/5/22 59/57/73 43/61/81
f 45/55/74 59/57/73 5/5/22 47/52/82
f 42/62/83 61/63/84 48/64/85
f 44/60/80 60/56/72 61/63/84 42/62/83
f 61/63/86 58/54/70 54/49/69
f 60/56/72 58/54/75 61/63/84
f 54/49/87 52/65/88 61/63/84
f 48/64/85 61/63/84 52/65/88 49/66/89
f 53/48/62 51/67/90 52/65/91 54/49/63
f 49/66/92 52/65/91 51/67/90 50/68/93
f 46/51/78 7/4/94 57/58/76
f 62/69/95 50/68/96 51/67/97 63/70/98
f 63/70/98 51/67/97 53/48/99 55/50/99
f 57/71/100 65/72/101 55/73/102
f 65/72/101 29/32/46 33/31/45 67/74/103
f 66/75/104 67/74/103 68/76/105 64/77/106
f 63/78/107 66/75/104 64/77/106 62/79/108
f 55/73/102 65/72/101 66/75/104 63/78/107
f 7/38/52 29/32/46 65/72/101 57/71/100
f 66/75/104 65/72/101 67/74/103
f 33/31/45 34/39/53 67/74/103
f 67/74/103 34/39/53 68/76/105
f 43/61/81 70/80/109 37/40/54 3/17/21
f 42/62/83 69/81/110 71/82/111 44/60/80
f 44/60/80 71/82/111 70/80/109 43/61/81
f 23/44/58 41/47/61 73/83/112 72/84/113
f 69/81/110 72/84/113 73/83/112 71/82/111
f 71/82/111 73/83/112 70/80/109
f 70/80/109 73/83/112 41/47/61 37/40/54
f 84/1/114 85/3/115 86/2/116
f 79/4/117 80/7/118 81/6/119 77/5/117
f 87/8/120 85/3/121 89/10/122 78/9/123
f 80/7/118 87/8/120 78/9/123 81/6/119
f 91/11/124 90/12/125 78/9/126 89/10/127
f 88/13/128 87/8/129 80/7/130
f 86/14/131 85/3/131 87/8/129 88/13/128
f 76/15/132 74/16/133 90/12/125 91/11/124
f 75/17/134 77/5/135 90/12/125 74/16/133
f 78/9/126 90/12/125 77/5/135 81/6/136
f 1/18/24 92/20/137 10/19/25
f 76/15/132 91/11/124 92/20/137 1/18/24
f 92/20/138 89/10/122 85/3/121
f 91/11/124 89/10/127 92/20/137
f 85/3/139 83/21/140 92/20/137
f 10/19/25 92/20/137 83/21/140 11/22/30
f 84/1/114 82/23/141 83/21/142 85/3/115
f 11/22/33 83/21/142 82/23/141 12/24/34
f 80/7/130 79/4/143 88/13/128
f 25/25/36 12/24/39 82/23/144 93/26/145
f 93/26/145 82/23/144 84/1/146 86/2/146
f 88/27/147 94/29/148 86/28/149
f 94/29/148 95/32/150 98/31/151 97/30/152
f 96/33/153 97/30/152 32/35/49 27/34/48
f 93/36/154 96/33/153 27/34/48 25/37/51
f 86/28/149 94/29/148 96/33/153 93/36/154
f 79/38/155 95/32/150 94/29/148 88/27/147
f 96/33/153 94/29/148 97/30/152
f 98/31/151 34/39/53 97/30/152
f 97/30/152 34/39/53 32/35/49
f 74/16/133 99/41/156 100/40/157 75/17/134
f 1/18/24 35/43/57 101/42/158 76/15/132
f 76/15/132 101/42/158 99/41/156 74/16/133
f 23/44/58 103/47/159 102/46/160 39/45/59
f 35/43/57 39/45/59 102/46/160 101/42/158
f 101/42/158 102/46/160 99/41/156
f 99/41/156 102/46/160 103/47/159 100/40/157
f 111/48/161 113/50/162 112/49/163
f 79/4/164 77/5/164 108/52/165 107/51/166
f 114/53/167 106/55/168 116/54/169 112/49/170
f 107/51/166 108/52/165 106/55/168 114/53/167
f 118/56/171 116/54/172 106/55/173 117/57/174
f 115/58/175 107/51/176 114/53/177
f 113/59/178 115/58/175 114/53/177 112/49/178
f 105/60/179 118/56/171 117/57/174 104/61/180
f 75/17/134 104/61/180 117/57/174 77/5/135
f 106/55/173 108/52/181 77/5/135 117/57/174
f 42/62/83 48/64/85 119/63/182
f 105/60/179 42/62/83 119/63/182 118/56/171
f 119/63/183 112/49/170 116/54/169
f 118/56/171 119/63/182 116/54/172
f 112/49/184 119/63/182 110/65/185
f 48/64/85 49/66/89 110/65/185 119/63/182
f 111/48/161 112/49/163 110/65/186 109/67/187
f 49/66/92 50/68/93 109/67/187 110/65/186
f 107/51/176 115/58/175 79/4/188
f 62/69/95 120/70/189 109/67/190 50/68/96
f 120/70/189 113/50/191 111/48/191 109/67/190
f 115/71/192 113/73/193 121/72/194
f 121/72/194 123/74/195 98/31/151 95/32/150
f 122/75/196 64/77/106 68/76/105 123/74/195
f 120/78/197 62/79/108 64/77/106 122/75/196
f 113/73/193 120/78/197 122/75/196 121/72/194
f 79/38/155 115/71/192 121/72/194 95/32/150
f 122/75/196 123/74/195 121/72/194
f 98/31/151 123/74/195 34/39/53
f 123/74/195 68/76/105 34/39/53
f 104/61/180 75/17/134 100/40/157 124/80/198
f 42/62/83 105/60/179 125/82/199 69/81/110
f 105/60/179 104/61/180 124/80/198 125/82/199
f 23/44/58 72/84/113 126/83/200 103/47/159
f 69/81/110 125/82/199 126/83/200 72/84/113
f 125/82/199 124/80/198 126/83/200
f 124/80/198 100/40/157 103/47/159 126/83/200
