# Blender 4.4.3
# www.blender.org
mtllib Food_Vegetables_Potato.mtl
o Food_Vegetables_Potato
v 0.001426 0.149637 -0.058608
v 0.017144 0.169566 -0.028461
v 0.031489 0.148468 -0.045904
v 0.035163 0.115741 -0.053652
v 0.028563 0.035004 -0.040541
v 0.014998 0.007280 -0.022591
v 0.030908 0.166320 -0.002298
v 0.047669 0.146259 -0.018578
v 0.055698 0.114334 -0.019523
v 0.047948 0.033788 -0.012328
v 0.030371 0.005346 0.002939
v 0.047625 0.143909 0.014649
v 0.058651 0.109553 0.021134
v 0.050644 0.031363 0.020065
v 0.015012 0.164971 0.022800
v 0.031467 0.143061 0.041710
v 0.039089 0.109204 0.055085
v 0.034671 0.028888 0.049381
v 0.015967 0.001150 0.028761
v -0.014648 0.166868 0.021737
v 0.003148 0.143553 0.051408
v 0.003690 0.108475 0.067664
v 0.001629 0.026303 0.061878
v -0.013810 -0.001112 0.029053
v -0.026526 0.145404 0.040571
v -0.034046 0.107394 0.054072
v -0.033462 0.024990 0.052193
v -0.028412 0.170114 -0.004426
v -0.044790 0.147284 0.013260
v -0.057062 0.110803 0.018749
v -0.055404 0.027039 0.020764
v -0.029183 0.000823 0.003523
v 0.002352 -0.004183 0.001578
v -0.048027 0.149197 -0.021405
v -0.060055 0.111973 -0.025307
v -0.053997 0.029922 -0.017385
v 0.001352 0.177095 -0.002999
v -0.012516 0.171463 -0.029524
v -0.031181 0.150690 -0.048726
v -0.039178 0.113251 -0.059168
v -0.032404 0.032809 -0.046733
v -0.014779 0.005019 -0.022299
v 0.000163 0.114512 -0.070243
v -0.001135 0.034689 -0.054267
v 0.033934 0.076737 -0.052287
v 0.056378 0.074705 -0.016757
v 0.059594 0.073282 0.022542
v 0.039842 0.070676 0.058079
v 0.002930 0.069806 0.071689
v -0.036167 0.067956 0.060324
v -0.064990 0.068215 0.022074
v -0.065056 0.071204 -0.024132
v -0.040765 0.074152 -0.059820
v -0.001921 0.076161 -0.069717
vn 0.1042 -0.5105 -0.8535
vn 0.0887 -0.1705 -0.9814
vn 0.6495 -0.1567 -0.7440
vn 0.5849 -0.4510 -0.6742
vn 0.0724 0.5372 -0.8404
vn 0.3190 0.8688 -0.3786
vn 0.5987 0.4962 -0.6288
vn 0.3184 -0.7906 -0.5230
vn 0.0818 0.1427 -0.9864
vn 0.6604 0.1092 -0.7430
vn 0.8504 -0.4146 -0.3240
vn 0.6022 -0.7924 -0.0976
vn 0.9410 -0.1181 -0.3171
vn 0.9734 -0.0877 0.2115
vn 0.8853 -0.4310 0.1745
vn 0.8524 0.4700 -0.2291
vn 0.9492 0.1253 -0.2886
vn 0.0556 0.9947 0.0867
vn 0.5712 0.8182 0.0652
vn 0.0855 -0.9882 -0.1268
vn 0.9557 0.1756 0.2363
vn 0.6452 -0.0788 0.7600
vn 0.5878 -0.4836 0.6485
vn 0.8230 0.5110 0.2482
vn 0.6200 0.2335 0.7490
vn 0.0306 -0.0508 0.9982
vn 0.0477 -0.4852 0.8731
vn 0.2876 0.8368 0.4659
vn 0.5066 0.5796 0.6383
vn 0.3498 -0.8614 0.3683
vn -0.1870 -0.9035 0.3857
vn -0.5727 -0.0245 0.8194
vn -0.5150 -0.4892 0.7039
vn 0.0002 0.5779 0.8161
vn 0.0089 0.2607 0.9654
vn -0.2435 0.8414 0.4824
vn -0.9516 -0.0322 0.3056
vn -0.8416 -0.4807 0.2463
vn -0.5036 0.5456 0.6699
vn -0.5793 0.2615 0.7720
vn -0.4739 -0.8779 -0.0683
vn -0.9125 0.2519 0.3225
vn -0.9445 0.2173 -0.2466
vn -0.9520 -0.0869 -0.2936
vn -0.5147 0.8551 0.0619
vn -0.7990 0.5120 0.3153
vn -0.8051 -0.5074 -0.3072
vn -0.8258 0.5300 -0.1926
vn -0.4355 -0.5448 -0.7166
vn -0.2124 -0.8401 -0.4990
vn -0.5657 -0.1472 -0.8113
vn -0.4908 0.5760 -0.6537
vn -0.5871 0.1832 -0.7885
vn -0.2161 0.8968 -0.3861
vt 0.905373 0.514346
vt 0.905373 0.568072
vt 0.874869 0.568072
vt 0.874869 0.514346
vt 0.905373 0.657965
vt 0.874869 0.696095
vt 0.874869 0.657965
vt 0.905373 0.467317
vt 0.905373 0.611940
vt 0.874869 0.611940
vt 0.874869 0.467317
vt 0.844366 0.514347
vt 0.844366 0.467317
vt 0.844366 0.568072
vt 0.813862 0.568072
vt 0.813862 0.514346
vt 0.844366 0.657965
vt 0.844366 0.611940
vt 0.859618 0.734225
vt 0.844366 0.696095
vt 0.859618 0.429187
vt 0.813862 0.611940
vt 0.783358 0.568072
vt 0.783358 0.514346
vt 0.813862 0.696095
vt 0.813862 0.657965
vt 0.783358 0.611940
vt 0.752854 0.568072
vt 0.752854 0.514346
vt 0.783358 0.696095
vt 0.783358 0.657965
vt 0.813862 0.467317
vt 0.783358 0.467317
vt 0.798610 0.734225
vt 0.798610 0.429187
vt 0.752854 0.467317
vt 0.722926 0.569750
vt 0.722449 0.514635
vt 0.752854 0.657965
vt 0.752854 0.611940
vt 0.768106 0.734225
vt 0.752854 0.696095
vt 0.768106 0.429187
vt 0.691847 0.568072
vt 0.691847 0.514346
vt 0.722351 0.657965
vt 0.722438 0.612196
vt 0.722351 0.696095
vt 0.707099 0.429187
vt 0.722351 0.467317
vt 0.691847 0.467317
vt 0.691847 0.611940
vt 0.996885 0.568072
vt 0.996885 0.611940
vt 0.966381 0.611940
vt 0.966381 0.568072
vt 0.691847 0.696095
vt 0.691847 0.657965
vt 0.707099 0.734225
vt 0.996885 0.514346
vt 0.966381 0.514346
vt 0.996885 0.657965
vt 0.966381 0.696095
vt 0.966381 0.657965
vt 0.996885 0.467317
vt 0.966381 0.467317
vt 0.935877 0.514346
vt 0.935877 0.467317
vt 0.935877 0.568072
vt 0.935877 0.657965
vt 0.935877 0.611940
vt 0.951129 0.734225
vt 0.935877 0.696095
vt 0.951129 0.429187
vt 0.920625 0.734225
vt 0.905373 0.696095
vt 0.920625 0.429187
s 1
usemtl Food_Vegetables
f 44/1/1 54/2/2 45/3/3 5/4/4
f 1/5/5 2/6/6 3/7/7
f 6/8/8 44/1/1 5/4/4
f 43/9/9 1/5/5 3/7/7 4/10/10
f 6/11/8 5/4/4 10/12/11 11/13/12
f 46/14/13 47/15/14 14/16/15 10/12/11
f 4/10/10 3/7/7 8/17/16 9/18/17
f 2/6/6 37/19/18 7/20/19
f 33/21/20 6/11/8 11/13/12
f 3/7/7 2/6/6 7/20/19 8/17/16
f 46/14/13 9/18/17 13/22/21 47/15/14
f 47/15/14 48/23/22 18/24/23 14/16/15
f 8/17/16 7/25/19 12/26/24
f 11/13/12 10/12/11 14/16/15
f 9/18/17 8/17/16 12/26/24 13/22/21
f 47/15/14 13/22/21 17/27/25 48/23/22
f 18/24/23 48/23/22 49/28/26 23/29/27
f 12/26/24 7/25/19 15/30/28 16/31/29
f 11/32/12 14/16/15 18/24/23 19/33/30
f 13/22/21 12/26/24 16/31/29 17/27/25
f 7/25/19 37/34/18 15/30/28
f 33/35/20 11/32/12 19/33/30
f 19/33/30 18/24/23 23/29/27 24/36/31
f 23/29/27 49/28/26 50/37/32 27/38/33
f 17/27/25 16/31/29 21/39/34 22/40/35
f 15/30/28 37/41/18 20/42/36
f 33/43/20 19/33/30 24/36/31
f 16/31/29 15/30/28 20/42/36 21/39/34
f 50/37/32 51/44/37 31/45/38 27/38/33
f 22/40/35 21/39/34 25/46/39 26/47/40
f 21/39/34 20/48/36 25/46/39
f 24/36/31 23/29/27 27/38/33
f 33/49/20 24/50/31 32/51/41
f 50/37/32 26/47/40 30/52/42 51/44/37
f 51/53/37 30/54/42 35/55/43 52/56/44
f 25/46/39 20/48/36 28/57/45 29/58/46
f 24/50/31 27/38/33 31/45/38 32/51/41
f 26/47/40 25/46/39 29/58/46 30/52/42
f 20/48/36 37/59/18 28/57/45
f 31/60/38 51/53/37 52/56/44 36/61/47
f 29/62/46 28/63/45 34/64/48
f 32/65/41 31/60/38 36/61/47
f 30/54/42 29/62/46 34/64/48 35/55/43
f 32/66/41 36/61/47 41/67/49 42/68/50
f 53/69/51 54/2/2 44/1/1 41/67/49
f 35/55/43 34/64/48 39/70/52 40/71/53
f 28/63/45 37/72/18 38/73/54
f 33/74/20 32/66/41 42/68/50
f 34/64/48 28/63/45 38/73/54 39/70/52
f 40/71/53 39/70/52 1/5/5 43/9/9
f 38/73/54 37/75/18 2/76/6
f 33/77/20 42/68/50 6/8/8
f 53/69/51 40/71/53 43/9/9 54/2/2
f 54/2/2 43/9/9 4/10/10 45/3/3
f 39/70/52 38/73/54 2/76/6 1/5/5
f 42/68/50 41/67/49 44/1/1 6/8/8
f 35/55/43 40/71/53 53/69/51 52/56/44
f 36/61/47 52/56/44 53/69/51 41/67/49
f 22/40/35 26/47/40 50/37/32 49/28/26
f 17/27/25 22/40/35 49/28/26 48/23/22
f 4/10/10 9/18/17 46/14/13 45/3/3
f 5/4/4 45/3/3 46/14/13 10/12/11
