# Blender 4.4.3
# www.blender.org
mtllib Food_Vegetables_Broccoli.mtl
o Food_Vegetables_Broccoli
v 0.000044 0.000000 -0.024359
v 0.000044 0.018631 -0.024359
v 0.019644 0.000000 -0.013043
v 0.019644 0.018631 -0.013043
v 0.019644 0.000000 0.009589
v 0.019644 0.018631 0.009589
v 0.000044 0.000000 0.020905
v 0.000044 0.018631 0.020905
v 0.000044 0.044162 -0.024359
v 0.019644 0.044200 -0.013043
v 0.019644 0.044200 0.009589
v 0.000044 0.043063 0.018589
v 0.047900 0.055026 -0.001991
v 0.045704 0.051975 0.015736
v 0.033926 0.063318 -0.002370
v 0.031730 0.060267 0.015356
v 0.033057 0.051072 -0.045102
v 0.045186 0.047400 -0.030046
v 0.029755 0.064022 -0.036389
v 0.040038 0.061341 -0.023701
v 0.009862 0.043063 0.015237
v 0.000044 0.057624 0.054371
v 0.000044 0.069567 0.043106
v 0.012451 0.067634 0.040367
v 0.000044 0.000000 -0.001823
v 0.000044 0.084541 -0.024359
v 0.019644 0.084541 -0.013043
v 0.019644 0.084541 0.009589
v 0.000044 0.084541 0.018589
v 0.009862 0.084541 0.015237
v -0.019556 0.000000 -0.013043
v -0.019556 0.018631 -0.013043
v -0.019556 0.000000 0.009589
v -0.019556 0.018631 0.009589
v -0.019556 0.044200 -0.013043
v -0.019556 0.044200 0.009589
v -0.047812 0.055026 -0.001991
v -0.045616 0.051975 0.015736
v -0.033838 0.063318 -0.002370
v -0.031642 0.060267 0.015356
v -0.032969 0.051072 -0.045102
v -0.045098 0.047400 -0.030046
v -0.029667 0.064022 -0.036389
v -0.039950 0.061341 -0.023701
v -0.009774 0.043063 0.015237
v -0.012363 0.067634 0.040367
v -0.019556 0.084541 -0.013043
v -0.019556 0.084541 0.009589
v -0.009774 0.084541 0.015237
v -0.024771 0.072328 -0.075427
v -0.026908 0.053496 -0.061945
v -0.013294 0.042718 -0.046471
v 0.008096 0.046306 -0.038070
v -0.003830 0.067472 -0.088693
v 0.002708 0.046630 -0.080706
v 0.007648 0.037863 -0.059737
v 0.014445 0.082761 -0.080304
v 0.028553 0.068251 -0.068842
v 0.025923 0.053151 -0.051348
v -0.008136 0.088181 -0.079021
v 0.004798 0.097065 -0.061853
v 0.014911 0.088480 -0.042748
v 0.016276 0.067455 -0.032897
v -0.019439 0.090617 -0.058839
v -0.019366 0.079361 -0.038486
v -0.007961 0.061007 -0.029883
v 0.002084 0.094384 0.033326
v 0.002423 0.076772 0.019551
v 0.001435 0.054591 0.022217
v -0.000300 0.040835 0.039762
v 0.020565 0.089868 0.048424
v 0.028559 0.070385 0.040903
v 0.019916 0.050075 0.037315
v 0.011292 0.083972 0.070083
v 0.015446 0.062047 0.071534
v 0.010644 0.044179 0.058974
v 0.000617 0.097111 0.055473
v -0.012919 0.084845 0.068372
v -0.018794 0.063281 0.069113
v -0.013567 0.045052 0.057263
v -0.018610 0.091280 0.045655
v -0.026842 0.072381 0.036986
v -0.019258 0.051486 0.034546
v 0.027241 0.063821 -0.007098
v 0.032987 0.085640 -0.011003
v 0.049616 0.099567 -0.003664
v 0.067386 0.097443 0.010619
v 0.024677 0.063050 0.017627
v 0.029362 0.084550 0.023963
v 0.047052 0.098796 0.021061
v 0.043811 0.050179 0.026940
v 0.056421 0.066348 0.037133
v 0.066186 0.085925 0.030373
v 0.035744 0.046891 0.005763
v 0.058200 0.042995 0.007970
v 0.076769 0.056188 0.010307
v 0.080575 0.078741 0.011404
v 0.047959 0.051426 -0.013066
v 0.062287 0.068111 -0.019443
v 0.070334 0.087172 -0.009632
v 0.028469 0.105382 0.025169
v 0.018951 0.086448 0.022894
v 0.012905 0.074515 0.006300
v 0.013873 0.076576 -0.014892
v 0.014630 0.119629 0.013279
v -0.000621 0.106596 0.006079
v -0.000934 0.088762 -0.005590
v 0.025708 0.125869 -0.006066
v 0.015046 0.115420 -0.021279
v 0.010144 0.095002 -0.024935
v 0.035883 0.120228 0.011793
v 0.046394 0.115479 -0.006131
v 0.044300 0.100726 -0.021372
v 0.030830 0.084612 -0.025001
v 0.048100 0.102817 0.013173
v 0.046714 0.082820 0.005929
v 0.032537 0.071950 -0.005696
v 0.031222 0.055539 0.047802
v 0.041403 0.073533 0.059884
v 0.044096 0.097036 0.056172
v 0.037723 0.112280 0.038839
v 0.043178 0.056484 0.024725
v 0.058312 0.074870 0.027248
v 0.056052 0.097981 0.033095
v 0.026119 0.065313 0.007191
v 0.034187 0.087356 0.002451
v 0.038993 0.106810 0.015561
v 0.019516 0.053595 0.027003
v 0.003619 0.069825 0.019432
v 0.002368 0.093736 0.019762
v 0.016494 0.111322 0.027801
v 0.006773 0.063784 0.044531
v 0.006828 0.085193 0.055258
v 0.019648 0.105281 0.052901
v 0.049470 0.055820 -0.010568
v 0.064038 0.073703 -0.014675
v 0.066864 0.089102 -0.032104
v 0.056292 0.092997 -0.052646
v 0.052853 0.040897 -0.030899
v 0.068822 0.052598 -0.043426
v 0.070247 0.074179 -0.052434
v 0.031972 0.042453 -0.045357
v 0.039293 0.054800 -0.063874
v 0.049366 0.075736 -0.066893
v 0.031693 0.045928 -0.022189
v 0.015685 0.058339 -0.033963
v 0.016258 0.077265 -0.047760
v 0.033078 0.091621 -0.055498
v 0.026499 0.066599 -0.012462
v 0.031552 0.088948 -0.017353
v 0.043893 0.099882 -0.033998
v 0.025885 0.091757 -0.058198
v 0.019551 0.078549 -0.049407
v 0.016937 0.075190 -0.032862
v 0.019572 0.083647 -0.018254
v 0.042735 0.094022 -0.050766
v 0.043380 0.081752 -0.038897
v 0.033786 0.077454 -0.025430
v 0.042503 0.109588 -0.040669
v 0.043052 0.103765 -0.024618
v 0.033554 0.093020 -0.015333
v 0.032227 0.107078 -0.054085
v 0.025510 0.116943 -0.041862
v 0.019020 0.114166 -0.026304
v 0.016561 0.100375 -0.016525
v 0.015239 0.105923 -0.052695
v 0.004496 0.098582 -0.041624
v 0.006291 0.089355 -0.027359
v -0.028097 0.067449 -0.009870
v -0.036407 0.088711 -0.011665
v -0.053545 0.100281 -0.001829
v -0.069471 0.095383 0.013878
v -0.022984 0.065471 0.014387
v -0.029175 0.085914 0.022640
v -0.048431 0.098303 0.022429
v -0.039663 0.050060 0.024526
v -0.052763 0.064119 0.036978
v -0.065110 0.082893 0.032567
v -0.033483 0.048951 0.002505
v -0.055085 0.042514 0.006534
v -0.074574 0.053447 0.011534
v -0.080533 0.075346 0.014576
v -0.047937 0.053261 -0.014724
v -0.064465 0.068645 -0.018529
v -0.073385 0.086093 -0.006682
v -0.009291 0.109518 0.018741
v -0.010468 0.088279 0.020082
v -0.020035 0.072970 0.008751
v -0.032387 0.072558 -0.008614
v -0.001061 0.112939 -0.002623
v 0.001170 0.093117 -0.010132
v -0.011805 0.076390 -0.012614
v -0.018200 0.121525 -0.015601
v -0.023068 0.105258 -0.028486
v -0.028944 0.084976 -0.025592
v -0.017193 0.124246 0.005514
v -0.037022 0.123410 -0.002257
v -0.049686 0.107925 -0.009615
v -0.047766 0.086861 -0.012248
v -0.031516 0.115990 0.018968
v -0.041899 0.097431 0.020402
v -0.042260 0.079441 0.008977
v -0.037534 0.055034 0.043842
v -0.051703 0.072818 0.051349
v -0.052299 0.096531 0.048061
v -0.038972 0.112280 0.035905
v -0.038483 0.057328 0.017953
v -0.053046 0.076064 0.014736
v -0.053248 0.098825 0.022172
v -0.015477 0.066340 0.009834
v -0.020510 0.088808 0.003255
v -0.030242 0.107837 0.014054
v -0.018090 0.053595 0.029938
v -0.000309 0.069615 0.030706
v 0.000941 0.093439 0.032772
v -0.015074 0.111112 0.034925
v -0.013941 0.062627 0.051724
v -0.018338 0.083557 0.062495
v -0.028706 0.104124 0.055943
v -0.044977 0.050526 -0.013391
v -0.062686 0.065865 -0.013515
v -0.069393 0.083311 -0.027640
v -0.061169 0.092646 -0.047493
v -0.047178 0.039060 -0.036000
v -0.065799 0.049650 -0.045489
v -0.071594 0.071846 -0.050249
v -0.027985 0.046956 -0.050722
v -0.038655 0.060816 -0.066309
v -0.052400 0.079741 -0.064971
v -0.026640 0.046280 -0.027342
v -0.013921 0.063301 -0.037212
v -0.018766 0.083931 -0.047202
v -0.038337 0.096086 -0.051461
v -0.024423 0.065507 -0.014140
v -0.033618 0.087051 -0.014574
v -0.048838 0.098293 -0.028389
v -0.023696 0.092441 -0.058198
v -0.016740 0.079683 -0.049212
v -0.015099 0.076111 -0.032587
v -0.019733 0.083816 -0.018060
v -0.041220 0.092763 -0.052110
v -0.041524 0.080140 -0.040602
v -0.032623 0.076434 -0.026499
v -0.043391 0.107962 -0.041690
v -0.044594 0.101634 -0.025867
v -0.034794 0.091632 -0.016079
v -0.031891 0.106910 -0.054280
v -0.027208 0.117033 -0.041339
v -0.021708 0.114462 -0.025370
v -0.018611 0.100703 -0.015728
v -0.015036 0.107440 -0.051541
v -0.004493 0.100895 -0.039798
v -0.006439 0.091110 -0.025930
v 0.003728 0.123788 -0.001742
v 0.002273 0.103824 -0.010243
v -0.000383 0.083816 -0.002142
v -0.002684 0.075487 0.017816
v 0.021684 0.121790 0.013472
v 0.027668 0.100997 0.011273
v 0.017574 0.081818 0.013073
v 0.012821 0.122483 0.035355
v 0.015133 0.101977 0.042221
v 0.008711 0.082511 0.034956
v 0.003129 0.132016 0.018380
v -0.010613 0.124909 0.033666
v -0.018008 0.105409 0.039831
v -0.014724 0.084937 0.033266
v -0.016233 0.125717 0.010738
v -0.025956 0.106550 0.007407
v -0.020344 0.085745 0.010339
v 0.005807 0.109312 -0.041069
v -0.012770 0.107719 -0.038061
v -0.023897 0.107956 -0.022802
v -0.021055 0.109884 -0.004230
v 0.013668 0.094390 -0.029395
v -0.001653 0.086615 -0.021552
v -0.016036 0.093033 -0.011128
v 0.023095 0.103142 -0.013417
v 0.011678 0.098993 0.001045
v -0.006609 0.101785 0.004850
v 0.020953 0.111802 -0.030064
v 0.021060 0.123473 -0.015216
v 0.008800 0.127746 -0.001499
v -0.008644 0.122117 0.003051
v 0.010376 0.127287 -0.032306
v -0.006309 0.133140 -0.025668
v -0.019328 0.125931 -0.014039
v 0.013727 0.091163 -0.067302
v 0.010376 0.074165 -0.059763
v 0.000434 0.067821 -0.045002
v -0.010275 0.075847 -0.031664
v 0.021586 0.101726 -0.051561
v 0.021491 0.089103 -0.037502
v 0.008293 0.078383 -0.029261
v 0.007588 0.115464 -0.045524
v 0.001695 0.108532 -0.028965
v -0.005704 0.092122 -0.023224
v 0.008523 0.108858 -0.063202
v -0.008922 0.113392 -0.057534
v -0.021653 0.105601 -0.045950
v -0.022214 0.090050 -0.035234
v -0.005128 0.098373 -0.070994
v -0.016288 0.084362 -0.064984
v -0.018420 0.075031 -0.048693
vn -0.0000 -0.0000 -1.0000
vn -0.0000 -0.2609 -0.9654
vn 0.8300 -0.3712 -0.4164
vn 0.8660 -0.0000 -0.5000
vn 0.7750 -0.1964 0.6006
vn 0.8660 -0.0000 0.5000
vn -0.0000 -0.1303 0.9915
vn -0.0000 -0.0000 1.0000
vn 0.1516 0.9571 0.2468
vn -0.4024 0.5759 -0.7116
vn 0.7368 -0.3439 -0.5821
vn 0.7596 -0.5953 0.2620
vn 0.1216 0.4851 0.8659
vn 0.6720 0.0383 0.7396
vn 0.8006 0.4116 -0.4354
vn -0.0000 -0.7149 0.6992
vn 0.4851 -0.5439 0.6848
vn 0.2166 0.1740 0.9606
vn -0.6493 0.3238 0.6881
vn -0.0000 0.6662 -0.7458
vn -0.6612 0.7342 -0.1540
vn -0.1402 -0.3503 -0.9261
vn -0.0000 0.7005 -0.7136
vn -0.0000 -1.0000 -0.0000
vn 0.4135 -0.0000 0.9105
vn 0.8659 -0.0000 -0.5003
vn -0.8660 -0.0000 -0.5000
vn -0.8300 -0.3712 -0.4164
vn -0.8660 -0.0000 0.5000
vn -0.7750 -0.1964 0.6006
vn -0.7368 -0.3439 -0.5821
vn 0.4024 0.5759 -0.7116
vn -0.1516 0.9571 0.2468
vn -0.1216 0.4851 0.8659
vn -0.7596 -0.5953 0.2620
vn -0.8006 0.4116 -0.4354
vn -0.6720 0.0383 0.7396
vn -0.4851 -0.5439 0.6848
vn -0.2166 0.1740 0.9606
vn 0.6493 0.3238 0.6881
vn 0.6612 0.7342 -0.1540
vn 0.1402 -0.3503 -0.9261
vn -0.4135 -0.0000 0.9105
vn -0.8659 -0.0000 -0.5003
vn -0.5079 -0.7888 0.3460
vn -0.8848 -0.4524 -0.1119
vn 0.0898 -0.6783 -0.7292
vn 0.2401 -0.9623 -0.1279
vn -0.8503 0.0944 -0.5177
vn -0.2671 0.6890 -0.6738
vn -0.1023 -0.0791 -0.9916
vn 0.2671 -0.6890 0.6738
vn 0.8929 -0.4162 0.1718
vn 0.5505 0.4671 -0.6919
vn 0.9403 0.0331 -0.3388
vn 0.2059 0.9780 -0.0329
vn 0.5483 0.0948 0.8309
vn 0.4913 0.6988 0.5198
vn -0.6366 0.3988 0.6601
vn -0.3175 -0.1355 0.9385
vn -0.6598 0.7477 0.0748
vn 0.0494 -0.4124 -0.9097
vn 0.0775 0.2669 -0.9606
vn 0.9720 0.0483 -0.2298
vn 0.7360 -0.5802 -0.3487
vn 0.0696 0.8222 -0.5650
vn 0.0157 0.9631 0.2689
vn 0.7562 0.6544 -0.0041
vn -0.0157 -0.9631 -0.2689
vn 0.3916 -0.7992 0.4560
vn 0.4117 0.4353 0.8006
vn 0.5232 -0.2370 0.8186
vn -0.4878 0.4677 0.7370
vn -0.5080 -0.7668 0.3924
vn -0.6487 -0.1948 0.7357
vn -0.9241 0.1166 -0.3639
vn -0.7194 -0.5277 -0.4516
vn -0.6993 0.7068 -0.1070
vn -0.1377 0.8872 -0.4404
vn -0.6210 0.4503 -0.6416
vn -0.7421 0.4139 0.5272
vn -0.2307 0.8592 0.4567
vn -0.8156 -0.1959 -0.5445
vn -0.5288 -0.8448 -0.0812
vn -0.9086 -0.2238 0.3526
vn 0.5288 0.8448 0.0812
vn 0.4635 0.3922 0.7946
vn -0.2144 -0.6908 0.6905
vn 0.1623 -0.1945 0.9674
vn 0.3077 -0.9515 0.0022
vn 0.9856 0.1315 0.1063
vn 0.8424 -0.5341 0.0707
vn 0.3584 -0.1356 -0.9237
vn 0.6140 0.4374 -0.6570
vn -0.0639 -0.6456 -0.7610
vn -0.4167 -0.8318 0.3666
vn -0.2128 -0.4293 0.8777
vn -0.9156 0.2942 0.2739
vn -0.9561 -0.2765 -0.0968
vn 0.0899 0.1729 0.9808
vn 0.3952 0.7838 0.4791
vn -0.4495 0.7282 0.5174
vn -0.3952 -0.7838 -0.4791
vn -0.5243 -0.0333 -0.8509
vn -0.0177 0.9714 -0.2367
vn -0.3531 0.6111 -0.7084
vn 0.7886 0.5664 -0.2392
vn 0.2820 -0.4383 -0.8534
vn 0.6974 0.0835 -0.7118
vn 0.7841 -0.5595 0.2685
vn 0.3486 -0.9318 -0.1010
vn 0.8552 0.0729 0.5132
vn 0.5001 0.3704 0.7827
vn 0.4086 -0.3006 0.8618
vn 0.9490 -0.2579 -0.1813
vn 0.9149 0.4032 -0.0179
vn 0.1271 -0.8318 0.5402
vn -0.2910 -0.9378 -0.1892
vn 0.5419 -0.7991 -0.2604
vn 0.2910 0.9378 0.1892
vn 0.3231 0.7095 -0.6263
vn -0.0499 -0.4927 -0.8687
vn 0.1779 0.1412 -0.9739
vn -0.8305 -0.3362 -0.4441
vn -0.4575 0.8660 -0.2016
vn -0.8390 0.3451 -0.4206
vn -0.6965 0.0721 0.7139
vn -0.3481 0.6565 0.6692
vn -0.7211 -0.5458 0.4267
vn 0.7602 0.5991 0.2514
vn 0.6548 0.1385 0.7430
vn 0.8111 -0.5509 -0.1963
vn 0.8801 0.0699 -0.4695
vn 0.2451 -0.3865 0.8891
vn -0.4018 -0.7688 0.4975
vn 0.3651 -0.9157 0.1682
vn 0.4018 0.7688 -0.4975
vn 0.1397 0.1251 -0.9823
vn -0.3754 -0.8605 -0.3445
vn -0.1535 -0.4790 -0.8643
vn -0.9530 -0.2971 0.0595
vn -0.4379 0.6884 -0.5782
vn -0.9060 0.2549 -0.3379
vn -0.4064 0.6365 0.6555
vn -0.0544 0.9814 0.1843
vn -0.5695 -0.0042 0.8220
vn -0.4000 -0.9146 0.0592
vn -0.2844 -0.7533 -0.5930
vn 0.7831 -0.6098 -0.1222
vn 0.4194 -0.8044 0.4207
vn -0.0366 -0.2418 -0.9696
vn 0.2835 0.5248 -0.8026
vn 0.7828 -0.1316 -0.6082
vn -0.2835 -0.5248 0.8026
vn 0.4081 -0.0475 0.9117
vn 0.7715 0.6253 -0.1172
vn 0.7684 0.3764 0.5175
vn -0.0549 0.9830 -0.1752
vn -0.4183 0.3102 0.8537
vn -0.3082 0.8424 0.4420
vn -0.9589 0.1442 -0.2444
vn -0.9177 -0.2257 0.3269
vn -0.5543 0.4471 -0.7020
vn 0.0011 0.9218 -0.3876
vn 0.1867 0.8501 0.4925
vn 0.7454 0.4595 0.4829
vn 0.5037 0.5530 -0.6637
vn 0.7721 -0.0729 -0.6313
vn 0.9577 -0.1447 0.2489
vn 0.6014 -0.7760 -0.1901
vn -0.6014 0.7760 0.1901
vn -0.4185 0.2909 0.8604
vn -0.0430 -0.2690 0.9622
vn 0.3525 -0.7039 0.6167
vn -0.2071 -0.9777 -0.0361
vn -0.9781 0.0171 0.2076
vn -0.7720 -0.6257 0.1117
vn -0.7187 0.4070 -0.5637
vn -0.4341 -0.1177 -0.8931
vn 0.0523 -0.5877 -0.8074
vn 0.2199 -0.8738 0.4336
vn 0.5407 -0.7405 -0.3991
vn 0.9322 -0.1898 -0.3082
vn 0.5143 -0.3635 0.7768
vn 0.5696 0.3158 0.7588
vn 0.8904 0.4491 -0.0740
vn 0.2728 0.9280 0.2537
vn -0.2728 -0.9280 -0.2537
vn -0.1274 -0.4058 -0.9050
vn 0.0618 0.2462 -0.9672
vn 0.2223 0.7838 -0.5798
vn -0.5113 0.8573 -0.0597
vn -0.8610 -0.3324 -0.3849
vn -0.8940 0.3420 -0.2896
vn -0.6464 -0.6216 0.4425
vn -0.6144 -0.0349 0.7883
vn -0.2967 0.5681 0.7676
vn -0.7824 0.3529 0.5132
vn -0.8153 0.4325 -0.3850
vn -0.7835 -0.2197 -0.5812
vn -0.7406 -0.3234 0.5890
vn -0.3546 -0.8494 0.3910
vn -0.3875 -0.7698 -0.5073
vn 0.3337 -0.9378 -0.0954
vn -0.3337 0.9378 0.0954
vn -0.0171 0.7451 -0.6667
vn 0.2564 0.1876 -0.9482
vn 0.4107 -0.4571 -0.7889
vn 0.9369 -0.3435 -0.0648
vn 0.5091 0.8588 0.0575
vn 0.9420 0.3357 -0.0048
vn 0.0362 0.6163 0.7867
vn 0.3258 0.0198 0.9452
vn 0.4640 -0.5859 0.6644
vn -0.8324 0.3952 0.3884
vn -0.9105 -0.0114 -0.4134
vn -0.7152 -0.6472 -0.2637
vn -0.6135 -0.1175 0.7809
vn -0.1094 -0.5757 0.8103
vn -0.1875 -0.9822 0.0086
vn 0.5640 -0.7573 0.3291
vn -0.5640 0.7573 -0.3291
vn -0.2299 0.2686 -0.9354
vn 0.1715 -0.2825 -0.9438
vn 0.4931 -0.7022 -0.5135
vn 0.9919 -0.1226 -0.0344
vn 0.2689 0.8482 -0.4563
vn 0.8212 0.4727 -0.3196
vn -0.1036 0.9265 0.3618
vn 0.3361 0.5746 0.7463
vn 0.6194 -0.0444 0.7838
vn 0.4865 -0.8707 0.0715
vn -0.3657 -0.8550 0.3676
vn -0.7039 -0.6820 -0.1986
vn 0.4064 -0.7024 -0.5843
vn 0.1374 -0.2076 -0.9685
vn -0.7148 -0.1919 -0.6724
vn -0.2723 0.5173 -0.8113
vn 0.2723 -0.5173 0.8113
vn -0.4713 -0.1159 0.8743
vn -0.8414 0.2809 0.4616
vn -0.8204 0.5472 -0.1657
vn -0.0334 0.9883 -0.1486
vn 0.3157 0.3252 0.8914
vn 0.1839 0.8556 0.4838
vn 0.9076 -0.1413 0.3953
vn 0.9551 0.2479 -0.1626
vn 0.5585 0.5218 -0.6448
vn -0.0102 -0.6356 -0.7719
vn 0.0722 0.0025 -0.9974
vn 0.9659 -0.0969 -0.2402
vn 0.6758 -0.7120 -0.1907
vn 0.1210 0.6395 -0.7592
vn 0.1023 0.9947 0.0099
vn 0.8069 0.5632 -0.1780
vn -0.1023 -0.9947 -0.0099
vn 0.3372 -0.6855 0.6453
vn 0.4684 0.5896 0.6580
vn 0.5248 -0.0625 0.8490
vn -0.4269 0.6823 0.5935
vn -0.5580 -0.5928 0.5807
vn -0.6416 0.0583 0.7649
vn -0.9213 0.0985 -0.3762
vn -0.7727 -0.5620 -0.2952
vn -0.6416 0.7132 -0.2824
vn -0.9412 -0.1221 -0.3150
vn -0.5154 -0.1266 -0.8475
vn -0.0649 -0.9818 -0.1785
vn -0.5954 -0.7785 0.1985
vn 0.1499 -0.0722 -0.9861
vn 0.8512 0.0389 -0.5234
vn 0.4957 -0.7287 -0.4725
vn -0.8512 -0.0389 0.5234
vn -0.1807 -0.3935 0.9014
vn 0.9104 -0.3437 0.2304
vn 0.4753 -0.4802 0.7372
vn 0.8209 0.5507 0.1512
vn -0.2702 0.5009 0.8222
vn 0.3587 0.6850 0.6341
vn -0.2536 0.9036 -0.3453
vn -0.7402 0.6686 0.0705
vn 0.3509 0.7185 -0.6006
vn 0.1058 -0.9940 0.0260
vn 0.4558 -0.7367 -0.4995
vn 0.9060 -0.1316 0.4023
vn 0.4514 -0.5296 0.7182
vn 0.5939 -0.1369 -0.7928
vn 0.3807 0.6686 -0.6388
vn 0.9395 0.3275 -0.1007
vn -0.3807 -0.6686 0.6388
vn -0.1641 0.0745 0.9836
vn 0.3240 0.9316 0.1648
vn 0.1041 0.6554 0.7481
vn -0.4020 0.8405 -0.3633
vn -0.8901 -0.0166 0.4555
vn -0.8416 0.5367 0.0601
vn -0.6243 -0.3237 -0.7110
vn -0.7232 -0.6770 -0.1363
vn -0.2352 0.1801 -0.9551
vt 0.247892 0.287683
vt 0.247892 0.307554
vt 0.225962 0.307554
vt 0.225962 0.289301
vt 0.204031 0.307554
vt 0.204031 0.289301
vt 0.182101 0.307554
vt 0.182101 0.287683
vt 0.187409 0.008170
vt 0.201241 0.028008
vt 0.198929 0.052625
vt 0.183557 0.052821
vt 0.014257 0.031715
vt 0.029387 0.012848
vt 0.035005 0.052233
vt 0.020866 0.058037
vt 0.122724 0.055159
vt 0.101469 0.041116
vt 0.102693 0.007806
vt 0.122724 0.006558
vt 0.166241 0.011356
vt 0.166448 0.051802
vt 0.151196 0.030290
vt 0.151173 0.050072
vt 0.132238 0.030726
vt 0.132994 0.050664
vt 0.068536 0.016436
vt 0.086789 0.027618
vt 0.084041 0.054618
vt 0.068590 0.052101
vt 0.048427 0.003066
vt 0.053561 0.050763
vt 0.193086 0.331229
vt 0.204031 0.332330
vt 0.091849 0.039182
vt 0.090854 0.005048
vt 0.235800 0.269338
vt 0.213534 0.271231
vt 0.222890 0.251331
vt 0.204031 0.371421
vt 0.193086 0.371421
vt 0.225962 0.332330
vt 0.247892 0.332294
vt 0.247892 0.371421
vt 0.225962 0.371421
vt 0.183033 0.331229
vt 0.183033 0.371421
vt 0.079976 0.167793
vt 0.079976 0.195064
vt 0.058160 0.195064
vt 0.058160 0.167793
vt 0.079976 0.222335
vt 0.069068 0.249606
vt 0.058160 0.222335
vt 0.069068 0.140523
vt 0.047252 0.140523
vt 0.036343 0.167793
vt 0.036343 0.222335
vt 0.036343 0.195064
vt 0.047252 0.249606
vt 0.025435 0.249606
vt 0.014526 0.222335
vt 0.025435 0.140523
vt 0.014526 0.167793
vt 0.014526 0.195064
vt 0.123610 0.167793
vt 0.123610 0.195064
vt 0.101793 0.195064
vt 0.101793 0.167793
vt 0.123610 0.222335
vt 0.112701 0.249606
vt 0.101793 0.222335
vt 0.112701 0.140523
vt 0.090885 0.249606
vt 0.090885 0.140523
vt 0.191006 0.167135
vt 0.191006 0.194405
vt 0.169189 0.194405
vt 0.169189 0.167135
vt 0.191006 0.221676
vt 0.180097 0.248947
vt 0.169189 0.221676
vt 0.180097 0.139864
vt 0.158281 0.139864
vt 0.147372 0.167135
vt 0.147372 0.221676
vt 0.147372 0.194405
vt 0.158281 0.248947
vt 0.136464 0.248947
vt 0.125556 0.221676
vt 0.136464 0.139864
vt 0.125556 0.167135
vt 0.125556 0.194405
vt 0.234639 0.167135
vt 0.234639 0.194405
vt 0.212822 0.194405
vt 0.212822 0.167135
vt 0.234639 0.221676
vt 0.223731 0.248947
vt 0.212822 0.221676
vt 0.223731 0.139864
vt 0.201914 0.248947
vt 0.201914 0.139864
vt 0.069129 0.082572
vt 0.069129 0.109843
vt 0.047313 0.109843
vt 0.047313 0.082572
vt 0.069129 0.137114
vt 0.058221 0.164384
vt 0.047313 0.137114
vt 0.058221 0.055301
vt 0.036404 0.055301
vt 0.025496 0.082572
vt 0.025496 0.137114
vt 0.025496 0.109843
vt 0.036404 0.164384
vt 0.014588 0.164384
vt 0.003679 0.137114
vt 0.014588 0.055301
vt 0.003679 0.082572
vt 0.003679 0.109843
vt 0.112763 0.082572
vt 0.112763 0.109843
vt 0.090946 0.109843
vt 0.090946 0.082572
vt 0.112763 0.137114
vt 0.101854 0.164384
vt 0.090946 0.137114
vt 0.101854 0.055301
vt 0.080038 0.164384
vt 0.080038 0.055301
vt 0.136464 0.248947
vt 0.136464 0.139864
vt 0.180033 0.082632
vt 0.180033 0.109903
vt 0.158216 0.109903
vt 0.158216 0.082632
vt 0.180033 0.137173
vt 0.169125 0.164444
vt 0.158216 0.137173
vt 0.169125 0.055361
vt 0.147308 0.055361
vt 0.136400 0.082632
vt 0.136400 0.137173
vt 0.136400 0.109903
vt 0.147308 0.164444
vt 0.125491 0.164444
vt 0.114583 0.137173
vt 0.125491 0.055361
vt 0.114583 0.082632
vt 0.114583 0.109903
vt 0.223666 0.082632
vt 0.223666 0.109903
vt 0.201850 0.109903
vt 0.201850 0.082632
vt 0.223666 0.137173
vt 0.212758 0.164444
vt 0.201850 0.137173
vt 0.212758 0.055361
vt 0.190941 0.164444
vt 0.190941 0.055361
s 1
usemtl Food_Vegetables
f 1/1/1 2/2/2 4/3/3 3/4/4
f 3/4/4 4/3/3 6/5/5 5/6/6
f 5/6/6 6/5/5 8/7/7 7/8/8
f 4/9/3 10/10/9 15/11/10 13/12/11
f 10/13/9 4/14/3 18/15/12 20/16/13
f 8/17/7 21/18/14 24/19/15 22/20/16
f 6/21/5 4/9/3 13/12/11 14/22/17
f 11/23/18 6/21/5 14/22/17 16/24/19
f 10/25/9 11/23/18 16/24/19 15/26/10
f 9/27/20 10/28/9 20/29/13 19/30/21
f 2/31/2 9/27/20 19/30/21 17/32/22
f 4/14/3 2/31/2 17/32/22 18/15/12
f 21/33/14 8/7/7 6/5/5 11/34/18
f 21/18/14 12/35/23 23/36/23 24/19/15
f 1/1/24 3/4/24 25/37/24
f 25/37/24 5/38/24 7/39/24
f 5/38/24 25/37/24 3/4/24
f 21/33/14 11/34/18 28/40/6 30/41/25
f 10/42/26 9/43/1 26/44/1 27/45/4
f 12/46/8 21/33/14 30/41/25 29/47/8
f 11/34/18 10/42/26 27/45/4 28/40/6
f 1/1/1 31/4/27 32/3/28 2/2/2
f 31/4/27 33/6/29 34/5/30 32/3/28
f 33/6/29 7/8/8 8/7/7 34/5/30
f 32/9/28 37/12/31 39/11/32 35/10/33
f 35/13/33 44/16/34 42/15/35 32/14/28
f 8/17/7 22/20/16 46/19/36 45/18/37
f 34/21/30 38/22/38 37/12/31 32/9/28
f 36/23/39 40/24/40 38/22/38 34/21/30
f 35/25/33 39/26/32 40/24/40 36/23/39
f 9/27/20 43/30/41 44/29/34 35/28/33
f 2/31/2 41/32/42 43/30/41 9/27/20
f 32/14/28 42/15/35 41/32/42 2/31/2
f 45/33/37 36/34/39 34/5/30 8/7/7
f 45/18/37 46/19/36 23/36/23 12/35/23
f 1/1/24 25/37/24 31/4/24
f 25/37/24 7/39/24 33/38/24
f 33/38/24 31/4/24 25/37/24
f 45/33/37 49/41/43 48/40/29 36/34/39
f 35/42/44 47/45/27 26/44/1 9/43/1
f 12/46/8 29/47/8 49/41/43 45/33/37
f 36/34/39 48/40/29 47/45/27 35/42/44
f 52/48/45 51/49/46 55/50/47 56/51/48
f 50/52/49 60/53/50 54/54/51
f 53/55/52 52/48/45 56/51/48
f 51/49/46 50/52/49 54/54/51 55/50/47
f 53/56/52 56/51/48 59/57/53
f 55/50/47 54/54/51 57/58/54 58/59/55
f 56/51/48 55/50/47 58/59/55 59/57/53
f 54/54/51 60/60/50 57/58/54
f 57/58/54 60/61/50 61/62/56
f 53/63/52 59/57/53 63/64/57
f 58/59/55 57/58/54 61/62/56 62/65/58
f 59/57/53 58/59/55 62/65/58 63/64/57
f 63/66/57 62/67/58 65/68/59 66/69/60
f 61/70/56 60/71/50 64/72/61
f 53/73/52 63/66/57 66/69/60
f 62/67/58 61/70/56 64/72/61 65/68/59
f 66/69/60 65/68/59 51/49/46 52/48/45
f 64/72/61 60/74/50 50/52/49
f 53/75/52 66/69/60 52/48/45
f 65/68/59 64/72/61 50/52/49 51/49/46
f 69/48/62 68/49/63 72/50/64 73/51/65
f 67/52/66 77/53/67 71/54/68
f 70/55/69 69/48/62 73/51/65
f 68/49/63 67/52/66 71/54/68 72/50/64
f 70/56/69 73/51/65 76/57/70
f 72/50/64 71/54/68 74/58/71 75/59/72
f 73/51/65 72/50/64 75/59/72 76/57/70
f 71/54/68 77/60/67 74/58/71
f 74/58/71 77/61/67 78/62/73
f 70/63/69 76/57/70 80/64/74
f 75/59/72 74/58/71 78/62/73 79/65/75
f 76/57/70 75/59/72 79/65/75 80/64/74
f 80/66/74 79/67/75 82/68/76 83/69/77
f 78/70/73 77/71/67 81/72/78
f 70/73/69 80/66/74 83/69/77
f 79/67/75 78/70/73 81/72/78 82/68/76
f 83/69/77 82/68/76 68/49/63 69/48/62
f 81/72/78 77/74/67 67/52/66
f 70/75/69 83/69/77 69/48/62
f 82/68/76 81/72/78 67/52/66 68/49/63
f 86/76/79 85/77/80 89/78/81 90/79/82
f 84/80/83 94/81/84 88/82/85
f 87/83/86 86/76/79 90/79/82
f 85/77/80 84/80/83 88/82/85 89/78/81
f 87/84/86 90/79/82 93/85/87
f 89/78/81 88/82/85 91/86/88 92/87/89
f 90/79/82 89/78/81 92/87/89 93/85/87
f 88/82/85 94/88/84 91/86/88
f 91/86/88 94/89/84 95/90/90
f 87/91/86 93/85/87 97/92/91
f 92/87/89 91/86/88 95/90/90 96/93/92
f 93/85/87 92/87/89 96/93/92 97/92/91
f 97/94/91 96/95/92 99/96/93 100/97/94
f 95/98/90 94/99/84 98/100/95
f 87/101/86 97/94/91 100/97/94
f 96/95/92 95/98/90 98/100/95 99/96/93
f 100/97/94 99/96/93 85/77/80 86/76/79
f 98/100/95 94/102/84 84/80/83
f 87/103/86 100/97/94 86/76/79
f 99/96/93 98/100/95 84/80/83 85/77/80
f 103/104/96 102/105/97 106/106/98 107/107/99
f 101/108/100 111/109/101 105/110/102
f 104/111/103 103/104/96 107/107/99
f 102/105/97 101/108/100 105/110/102 106/106/98
f 104/112/103 107/107/99 110/113/104
f 106/106/98 105/110/102 108/114/105 109/115/106
f 107/107/99 106/106/98 109/115/106 110/113/104
f 105/110/102 111/116/101 108/114/105
f 108/114/105 111/117/101 112/118/107
f 104/119/103 110/113/104 114/120/108
f 109/115/106 108/114/105 112/118/107 113/121/109
f 110/113/104 109/115/106 113/121/109 114/120/108
f 114/122/108 113/123/109 116/124/110 117/125/111
f 112/126/107 111/127/101 115/128/112
f 104/129/103 114/122/108 117/125/111
f 113/123/109 112/126/107 115/128/112 116/124/110
f 117/125/111 116/124/110 102/105/97 103/104/96
f 115/128/112 111/130/101 101/108/100
f 104/131/103 117/125/111 103/104/96
f 116/124/110 115/128/112 101/108/100 102/105/97
f 120/76/113 119/77/114 123/78/115 124/79/116
f 118/80/117 128/81/118 122/82/119
f 121/83/120 120/76/113 124/79/116
f 119/77/114 118/80/117 122/82/119 123/78/115
f 121/84/120 124/79/116 127/85/121
f 123/78/115 122/82/119 125/86/122 126/87/123
f 124/79/116 123/78/115 126/87/123 127/85/121
f 122/82/119 128/88/118 125/86/122
f 125/86/122 128/132/118 129/90/124
f 121/133/120 127/85/121 131/92/125
f 126/87/123 125/86/122 129/90/124 130/93/126
f 127/85/121 126/87/123 130/93/126 131/92/125
f 131/94/125 130/95/126 133/96/127 134/97/128
f 129/98/124 128/99/118 132/100/129
f 121/101/120 131/94/125 134/97/128
f 130/95/126 129/98/124 132/100/129 133/96/127
f 134/97/128 133/96/127 119/77/114 120/76/113
f 132/100/129 128/102/118 118/80/117
f 121/103/120 134/97/128 120/76/113
f 133/96/127 132/100/129 118/80/117 119/77/114
f 137/76/130 136/77/131 140/78/132 141/79/133
f 135/80/134 145/81/135 139/82/136
f 138/83/137 137/76/130 141/79/133
f 136/77/131 135/80/134 139/82/136 140/78/132
f 138/84/137 141/79/133 144/85/138
f 140/78/132 139/82/136 142/86/139 143/87/140
f 141/79/133 140/78/132 143/87/140 144/85/138
f 139/82/136 145/88/135 142/86/139
f 142/86/139 145/89/135 146/90/141
f 138/91/137 144/85/138 148/92/142
f 143/87/140 142/86/139 146/90/141 147/93/143
f 144/85/138 143/87/140 147/93/143 148/92/142
f 148/94/142 147/95/143 150/96/144 151/97/145
f 146/98/141 145/99/135 149/100/146
f 138/101/137 148/94/142 151/97/145
f 147/95/143 146/98/141 149/100/146 150/96/144
f 151/97/145 150/96/144 136/77/131 137/76/130
f 149/100/146 145/102/135 135/80/134
f 138/103/137 151/97/145 137/76/130
f 150/96/144 149/100/146 135/80/134 136/77/131
f 154/104/147 153/105/148 157/106/149 158/107/150
f 152/108/151 162/109/152 156/110/153
f 155/111/154 154/104/147 158/107/150
f 153/105/148 152/108/151 156/110/153 157/106/149
f 155/112/154 158/107/150 161/113/155
f 157/106/149 156/110/153 159/114/156 160/115/157
f 158/107/150 157/106/149 160/115/157 161/113/155
f 156/110/153 162/116/152 159/114/156
f 159/114/156 162/117/152 163/118/158
f 155/119/154 161/113/155 165/120/159
f 160/115/157 159/114/156 163/118/158 164/121/160
f 161/113/155 160/115/157 164/121/160 165/120/159
f 165/122/159 164/123/160 167/124/161 168/125/162
f 163/126/158 162/127/152 166/128/163
f 155/129/154 165/122/159 168/125/162
f 164/123/160 163/126/158 166/128/163 167/124/161
f 168/125/162 167/124/161 153/105/148 154/104/147
f 166/128/163 162/130/152 152/108/151
f 155/131/154 168/125/162 154/104/147
f 167/124/161 166/128/163 152/108/151 153/105/148
f 171/76/164 175/79/165 174/78/166 170/77/167
f 169/80/168 173/82/169 179/81/170
f 172/83/171 175/79/165 171/76/164
f 170/77/167 174/78/166 173/82/169 169/80/168
f 172/84/171 178/85/172 175/79/165
f 174/78/166 177/87/173 176/86/174 173/82/169
f 175/79/165 178/85/172 177/87/173 174/78/166
f 173/82/169 176/86/174 179/88/170
f 176/86/174 180/90/175 179/89/170
f 172/91/171 182/92/176 178/85/172
f 177/87/173 181/93/177 180/90/175 176/86/174
f 178/85/172 182/92/176 181/93/177 177/87/173
f 182/94/176 185/97/178 184/96/179 181/95/177
f 180/98/175 183/100/180 179/99/170
f 172/101/171 185/97/178 182/94/176
f 181/95/177 184/96/179 183/100/180 180/98/175
f 185/97/178 171/76/164 170/77/167 184/96/179
f 183/100/180 169/80/168 179/102/170
f 172/103/171 171/76/164 185/97/178
f 184/96/179 170/77/167 169/80/168 183/100/180
f 188/104/181 192/107/182 191/106/183 187/105/184
f 186/108/185 190/110/186 196/109/187
f 189/111/188 192/107/182 188/104/181
f 187/105/184 191/106/183 190/110/186 186/108/185
f 189/112/188 195/113/189 192/107/182
f 191/106/183 194/115/190 193/114/191 190/110/186
f 192/107/182 195/113/189 194/115/190 191/106/183
f 190/110/186 193/114/191 196/116/187
f 193/114/191 197/118/192 196/117/187
f 189/119/188 199/120/193 195/113/189
f 194/115/190 198/121/194 197/118/192 193/114/191
f 195/113/189 199/120/193 198/121/194 194/115/190
f 199/122/193 202/125/195 201/124/196 198/123/194
f 197/126/192 200/128/197 196/127/187
f 189/129/188 202/125/195 199/122/193
f 198/123/194 201/124/196 200/128/197 197/126/192
f 202/125/195 188/104/181 187/105/184 201/124/196
f 200/128/197 186/108/185 196/130/187
f 189/131/188 188/104/181 202/125/195
f 201/124/196 187/105/184 186/108/185 200/128/197
f 205/76/198 209/79/199 208/78/200 204/77/201
f 203/80/202 207/82/203 213/81/204
f 206/83/205 209/79/199 205/76/198
f 204/77/201 208/78/200 207/82/203 203/80/202
f 206/84/205 212/85/206 209/79/199
f 208/78/200 211/87/207 210/86/208 207/82/203
f 209/79/199 212/85/206 211/87/207 208/78/200
f 207/82/203 210/86/208 213/88/204
f 210/86/208 214/90/209 213/132/204
f 206/133/205 216/92/210 212/85/206
f 211/87/207 215/93/211 214/90/209 210/86/208
f 212/85/206 216/92/210 215/93/211 211/87/207
f 216/94/210 219/97/212 218/96/213 215/95/211
f 214/98/209 217/100/214 213/99/204
f 206/101/205 219/97/212 216/94/210
f 215/95/211 218/96/213 217/100/214 214/98/209
f 219/97/212 205/76/198 204/77/201 218/96/213
f 217/100/214 203/80/202 213/102/204
f 206/103/205 205/76/198 219/97/212
f 218/96/213 204/77/201 203/80/202 217/100/214
f 222/76/215 226/79/216 225/78/217 221/77/218
f 220/80/219 224/82/220 230/81/221
f 223/83/222 226/79/216 222/76/215
f 221/77/218 225/78/217 224/82/220 220/80/219
f 223/84/222 229/85/223 226/79/216
f 225/78/217 228/87/224 227/86/225 224/82/220
f 226/79/216 229/85/223 228/87/224 225/78/217
f 224/82/220 227/86/225 230/88/221
f 227/86/225 231/90/226 230/89/221
f 223/91/222 233/92/227 229/85/223
f 228/87/224 232/93/228 231/90/226 227/86/225
f 229/85/223 233/92/227 232/93/228 228/87/224
f 233/94/227 236/97/229 235/96/230 232/95/228
f 231/98/226 234/100/231 230/99/221
f 223/101/222 236/97/229 233/94/227
f 232/95/228 235/96/230 234/100/231 231/98/226
f 236/97/229 222/76/215 221/77/218 235/96/230
f 234/100/231 220/80/219 230/102/221
f 223/103/222 222/76/215 236/97/229
f 235/96/230 221/77/218 220/80/219 234/100/231
f 239/104/232 243/107/233 242/106/234 238/105/235
f 237/108/236 241/110/237 247/109/238
f 240/111/239 243/107/233 239/104/232
f 238/105/235 242/106/234 241/110/237 237/108/236
f 240/112/239 246/113/240 243/107/233
f 242/106/234 245/115/241 244/114/242 241/110/237
f 243/107/233 246/113/240 245/115/241 242/106/234
f 241/110/237 244/114/242 247/116/238
f 244/114/242 248/118/243 247/117/238
f 240/119/239 250/120/244 246/113/240
f 245/115/241 249/121/245 248/118/243 244/114/242
f 246/113/240 250/120/244 249/121/245 245/115/241
f 250/122/244 253/125/246 252/124/247 249/123/245
f 248/126/243 251/128/248 247/127/238
f 240/129/239 253/125/246 250/122/244
f 249/123/245 252/124/247 251/128/248 248/126/243
f 253/125/246 239/104/232 238/105/235 252/124/247
f 251/128/248 237/108/236 247/130/238
f 240/131/239 239/104/232 253/125/246
f 252/124/247 238/105/235 237/108/236 251/128/248
f 256/104/249 255/105/250 259/106/251 260/107/252
f 254/108/253 264/109/254 258/110/255
f 257/111/256 256/104/249 260/107/252
f 255/105/250 254/108/253 258/110/255 259/106/251
f 257/112/256 260/107/252 263/113/257
f 259/106/251 258/110/255 261/114/258 262/115/259
f 260/107/252 259/106/251 262/115/259 263/113/257
f 258/110/255 264/116/254 261/114/258
f 261/114/258 264/117/254 265/118/260
f 257/119/256 263/113/257 267/120/261
f 262/115/259 261/114/258 265/118/260 266/121/262
f 263/113/257 262/115/259 266/121/262 267/120/261
f 267/122/261 266/123/262 269/124/263 270/125/264
f 265/126/260 264/127/254 268/128/265
f 257/129/256 267/122/261 270/125/264
f 266/123/262 265/126/260 268/128/265 269/124/263
f 270/125/264 269/124/263 255/105/250 256/104/249
f 268/128/265 264/130/254 254/108/253
f 257/131/256 270/125/264 256/104/249
f 269/124/263 268/128/265 254/108/253 255/105/250
f 273/134/266 272/135/267 276/136/268 277/137/269
f 271/138/270 281/139/271 275/140/272
f 274/141/273 273/134/266 277/137/269
f 272/135/267 271/138/270 275/140/272 276/136/268
f 274/142/273 277/137/269 280/143/274
f 276/136/268 275/140/272 278/144/275 279/145/276
f 277/137/269 276/136/268 279/145/276 280/143/274
f 275/140/272 281/146/271 278/144/275
f 278/144/275 281/147/271 282/148/277
f 274/149/273 280/143/274 284/150/278
f 279/145/276 278/144/275 282/148/277 283/151/279
f 280/143/274 279/145/276 283/151/279 284/150/278
f 284/152/278 283/153/279 286/154/280 287/155/281
f 282/156/277 281/157/271 285/158/282
f 274/159/273 284/152/278 287/155/281
f 283/153/279 282/156/277 285/158/282 286/154/280
f 287/155/281 286/154/280 272/135/267 273/134/266
f 285/158/282 281/160/271 271/138/270
f 274/161/273 287/155/281 273/134/266
f 286/154/280 285/158/282 271/138/270 272/135/267
f 290/104/283 289/105/284 293/106/285 294/107/286
f 288/108/287 298/109/288 292/110/289
f 291/111/290 290/104/283 294/107/286
f 289/105/284 288/108/287 292/110/289 293/106/285
f 291/112/290 294/107/286 297/113/291
f 293/106/285 292/110/289 295/114/292 296/115/293
f 294/107/286 293/106/285 296/115/293 297/113/291
f 292/110/289 298/116/288 295/114/292
f 295/114/292 298/117/288 299/118/294
f 291/119/290 297/113/291 301/120/295
f 296/115/293 295/114/292 299/118/294 300/121/296
f 297/113/291 296/115/293 300/121/296 301/120/295
f 301/122/295 300/123/296 303/124/297 304/125/298
f 299/126/294 298/127/288 302/128/299
f 291/129/290 301/122/295 304/125/298
f 300/123/296 299/126/294 302/128/299 303/124/297
f 304/125/298 303/124/297 289/105/284 290/104/283
f 302/128/299 298/130/288 288/108/287
f 291/131/290 304/125/298 290/104/283
f 303/124/297 302/128/299 288/108/287 289/105/284
