# Blender 4.4.3
# www.blender.org
mtllib Food_Vegetables_Carrot.mtl
o Food_Vegetables_Carrot
v 0.008969 0.145292 0.008900
v 0.016165 0.160498 0.008900
v 0.000305 0.147353 -0.000005
v 0.009023 0.165817 -0.000005
v 0.017634 0.143231 -0.000005
v 0.023308 0.155178 -0.000005
v 0.008969 0.145292 -0.008911
v 0.016165 0.160498 -0.008911
v 0.037993 0.186018 0.006765
v 0.032563 0.190062 -0.000005
v 0.043423 0.181974 -0.000005
v 0.037993 0.186018 -0.006776
v 0.063010 0.200610 0.003722
v 0.061648 0.204080 -0.000005
v 0.064371 0.197139 -0.000005
v 0.063010 0.200610 -0.003733
v 0.081328 0.207180 -0.002563
v 0.029219 0.193328 -0.009328
v 0.051699 0.216758 -0.013410
v 0.029948 0.192809 -0.017745
v 0.050601 0.216045 -0.021469
v 0.036847 0.175648 0.001437
v 0.068245 0.178148 0.009860
v 0.039640 0.170403 -0.004112
v 0.069533 0.172306 0.005009
v 0.029487 0.179144 -0.012751
v 0.049042 0.175562 0.006726
v 0.056155 0.210069 -0.015886
v 0.067775 0.183165 0.000620
v 0.029324 0.182837 -0.005387
v 0.067889 0.188383 0.006248
v 0.057642 0.212073 -0.008290
v 0.095141 0.223905 -0.025484
v 0.108590 0.191800 -0.005636
v 0.106255 0.196865 0.000465
v 0.094574 0.225173 -0.017082
v 0.061958 0.196606 -0.007141
v 0.050912 0.170464 0.000994
v 0.062966 0.200346 -0.000596
v 0.108572 0.208793 -0.020116
v 0.105929 0.211785 -0.012219
v 0.036673 0.204260 -0.010721
v 0.036832 0.203025 -0.018827
v 0.042624 0.190886 -0.001697
v 0.043383 0.187670 -0.008631
v 0.078178 0.228112 -0.025689
v 0.064813 0.222270 -0.022413
v 0.097836 0.182581 0.002198
v 0.083322 0.179409 0.003866
v 0.098927 0.189348 0.006836
v 0.083641 0.186037 0.009224
v 0.081581 0.229441 -0.017717
v 0.067314 0.223776 -0.013918
v 0.073939 0.200930 -0.008531
v 0.087877 0.205063 -0.011613
v 0.076084 0.205278 -0.001796
v 0.091302 0.209481 -0.005666
v -0.009246 0.145292 0.008900
v -0.016442 0.160498 0.008900
v -0.000581 0.147353 -0.000005
v -0.009299 0.165817 -0.000005
v -0.017910 0.143231 -0.000005
v -0.023584 0.155178 -0.000005
v -0.009246 0.145292 -0.008911
v -0.016442 0.160498 -0.008911
v -0.038269 0.186018 0.006765
v -0.032839 0.190062 -0.000005
v -0.043699 0.181974 -0.000005
v -0.038269 0.186018 -0.006776
v -0.063286 0.200610 0.003722
v -0.061924 0.204080 -0.000005
v -0.064647 0.197139 -0.000005
v -0.063286 0.200610 -0.003733
v -0.081604 0.207180 -0.002563
v -0.029495 0.193328 -0.009328
v -0.051975 0.216758 -0.013410
v -0.030224 0.192809 -0.017745
v -0.050877 0.216045 -0.021469
v -0.037123 0.175648 0.001437
v -0.068521 0.178148 0.009860
v -0.039916 0.170403 -0.004112
v -0.069809 0.172306 0.005009
v -0.029763 0.179144 -0.012751
v -0.049318 0.175562 0.006726
v -0.056431 0.210069 -0.015886
v -0.068051 0.183165 0.000620
v -0.029600 0.182837 -0.005387
v -0.068165 0.188383 0.006248
v -0.057918 0.212073 -0.008290
v -0.095417 0.223905 -0.025484
v -0.108866 0.191800 -0.005636
v -0.106531 0.196865 0.000465
v -0.094850 0.225173 -0.017082
v -0.062234 0.196606 -0.007141
v -0.051188 0.170464 0.000994
v -0.063242 0.200346 -0.000596
v -0.108848 0.208793 -0.020116
v -0.106205 0.211785 -0.012219
v -0.036949 0.204260 -0.010721
v -0.037108 0.203025 -0.018827
v -0.042900 0.190886 -0.001697
v -0.043659 0.187670 -0.008631
v -0.078454 0.228112 -0.025689
v -0.065089 0.222270 -0.022413
v -0.098112 0.182581 0.002198
v -0.083598 0.179409 0.003866
v -0.099204 0.189348 0.006836
v -0.083917 0.186037 0.009224
v -0.081857 0.229441 -0.017717
v -0.067590 0.223776 -0.013918
v -0.074215 0.200930 -0.008531
v -0.088153 0.205063 -0.011613
v -0.076360 0.205278 -0.001796
v -0.091578 0.209481 -0.005666
v 0.000118 0.146795 0.009895
v -0.000438 0.159412 0.011079
v -0.008643 0.146455 0.000740
v -0.009309 0.159226 0.002040
v 0.008803 0.146952 0.001175
v 0.008187 0.159199 0.002267
v -0.000006 0.146651 -0.007883
v -0.000719 0.159051 -0.006692
v 0.005432 0.214742 0.010244
v -0.001628 0.214777 0.003734
v 0.011731 0.213681 0.003271
v 0.004669 0.213739 -0.003215
v 0.017113 0.254307 0.003529
v 0.013521 0.255680 -0.000078
v 0.020050 0.252087 -0.000239
v 0.016456 0.253458 -0.003843
v 0.027285 0.275957 -0.005630
v -0.013540 0.201034 -0.007561
v -0.016999 0.248142 -0.014599
v -0.012673 0.199959 -0.020112
v -0.017668 0.244938 -0.026389
v 0.014521 0.192074 0.005427
v 0.044130 0.228445 0.013434
v 0.022912 0.188630 -0.003668
v 0.051787 0.222832 0.005511
v 0.002222 0.186102 -0.014000
v 0.027469 0.205239 0.011370
v -0.004942 0.245172 -0.019600
v 0.037791 0.231557 0.000344
v -0.001634 0.190890 -0.002780
v 0.032304 0.238080 0.009142
v -0.005339 0.250053 -0.008423
v 0.017190 0.300122 -0.037798
v 0.067796 0.283437 -0.013721
v 0.060136 0.287216 -0.003905
v 0.015683 0.302115 -0.025226
v 0.016507 0.238367 -0.008914
v 0.034765 0.200947 0.002152
v 0.013622 0.244417 0.000958
v 0.047368 0.299674 -0.033227
v 0.041900 0.301142 -0.020945
v -0.018061 0.219796 -0.009677
v -0.016943 0.217414 -0.021757
v 0.003484 0.213250 0.001401
v 0.007489 0.209592 -0.009239
v -0.004030 0.286188 -0.035338
v -0.010449 0.266256 -0.029215
v 0.068273 0.263135 -0.001654
v 0.057621 0.244563 0.002532
v 0.061942 0.272200 0.005708
v 0.050793 0.252694 0.011034
v -0.001760 0.292460 -0.023944
v -0.009174 0.271765 -0.016921
v 0.023482 0.255394 -0.012240
v 0.032317 0.274247 -0.018310
v 0.021100 0.263271 -0.002198
v 0.030995 0.283525 -0.009585
v -0.000138 0.098908 -0.052247
v -0.000138 0.131920 -0.052880
v 0.036803 0.098908 -0.036946
v 0.037250 0.131920 -0.037394
v 0.052104 0.098908 -0.000005
v 0.052737 0.131920 -0.000005
v 0.036803 0.098908 0.036935
v 0.037250 0.131920 0.037383
v -0.000138 0.098908 0.052237
v -0.000138 0.131920 0.052869
v -0.037079 0.098908 0.036935
v -0.037526 0.131920 0.037383
v -0.052380 0.098908 -0.000005
v -0.053013 0.131920 -0.000005
v -0.037079 0.098908 -0.036946
v -0.037526 0.131920 -0.037394
v -0.000446 0.079361 -0.052247
v 0.035786 0.086562 -0.036946
v 0.050794 0.089544 -0.000005
v 0.035786 0.086562 0.036935
v -0.000446 0.079361 0.052237
v -0.030941 0.070370 0.031739
v -0.044117 0.070030 0.000070
v -0.031047 0.070367 -0.031644
v 0.000611 0.071184 -0.044824
v 0.032314 0.072001 -0.031750
v 0.045490 0.072341 -0.000081
v 0.032421 0.072004 0.031633
v 0.000762 0.071188 0.044813
v -0.022070 0.032636 0.022835
v -0.031550 0.032636 0.000049
v -0.022147 0.032636 -0.022770
v 0.000632 0.032636 -0.032253
v 0.023443 0.032636 -0.022846
v 0.032924 0.032636 -0.000060
v 0.023520 0.032636 0.022759
v 0.000741 0.032636 0.032242
v -0.009675 0.000483 0.009979
v -0.013820 0.000483 0.000018
v -0.009709 0.000483 -0.009957
v 0.000249 0.000483 -0.014102
v 0.010221 0.000483 -0.009990
v 0.014365 0.000483 -0.000029
v 0.010254 0.000483 0.009946
v 0.000296 0.000483 0.014092
v -0.000138 0.145488 -0.035483
v 0.024948 0.145488 -0.025092
v 0.035339 0.145488 -0.000005
v 0.024948 0.145488 0.025081
v -0.000138 0.145488 0.035472
v -0.025224 0.145488 0.025081
v -0.035615 0.145488 -0.000005
v -0.025224 0.145488 -0.025092
v -0.000138 0.148455 -0.000005
v 0.000033 -0.007273 -0.000005
v 0.040819 0.080402 -0.000047
v 0.034146 0.079469 0.034352
v 0.000238 0.074729 0.048029
v 0.000172 0.074584 -0.047910
v 0.033028 0.074993 -0.032818
vn -0.0861 0.0401 0.9955
vn -0.0336 0.0539 0.9980
vn -0.8206 0.5715 -0.0000
vn -0.9041 0.4273 -0.0000
vn -0.0336 0.0539 -0.9980
vn -0.0861 0.0401 -0.9955
vn 0.8584 -0.5129 -0.0000
vn 0.9036 -0.4283 -0.0000
vn 0.0231 0.1238 -0.9920
vn 0.6934 -0.7206 -0.0000
vn 0.0231 0.1238 0.9920
vn 0.5553 -0.8313 0.0233
vn 0.1562 0.1206 0.9803
vn -0.6004 0.7997 -0.0000
vn 0.0482 0.0770 -0.9959
vn -0.2977 0.9544 0.0236
vn 0.9334 0.3355 -0.1273
vn -0.6373 0.6345 0.4373
vn 0.0547 0.9738 0.2206
vn -0.6676 0.7428 -0.0507
vn -0.7540 0.6524 -0.0773
vn 0.3125 -0.3520 -0.8823
vn 0.1728 -0.4160 -0.8928
vn 0.2301 -0.3324 -0.9146
vn -0.1609 -0.7389 0.6544
vn -0.0520 -0.7020 0.7102
vn 0.5459 -0.1113 0.8304
vn -0.2706 -0.2407 0.9321
vn -0.2422 0.6852 0.6869
vn -0.9450 -0.3131 0.0949
vn -0.5168 -0.7259 0.4539
vn -0.5931 -0.3090 0.7434
vn -0.8586 -0.0590 0.5093
vn 0.7683 0.5972 -0.2305
vn 0.9948 0.1014 0.0045
vn -0.0186 0.1919 0.9812
vn -0.0901 -0.5484 -0.8313
vn -0.0791 -0.5361 -0.8405
vn -0.1884 -0.5341 -0.8242
vn -0.1739 -0.5683 -0.8042
vn -0.9431 0.3214 -0.0856
vn -0.8554 0.3481 0.3835
vn 0.4194 -0.3139 -0.8518
vn 0.4261 -0.3292 -0.8426
vn 0.3515 -0.3726 -0.8589
vn 0.3404 -0.4153 -0.8436
vn 0.3019 -0.4857 -0.8203
vn 0.2029 -0.4864 -0.8499
vn 0.4329 -0.3451 -0.8328
vn -0.0750 -0.5547 -0.8287
vn -0.1591 -0.6014 -0.7830
vn 0.1231 0.5567 0.8216
vn 0.4419 -0.0347 0.8964
vn 0.6985 0.2394 0.6744
vn 0.6984 0.5616 0.4438
vn 0.1772 -0.4570 -0.8716
vn 0.0360 -0.5108 -0.8590
vn 0.0170 -0.5019 -0.8648
vn -0.1777 0.4569 0.8716
vn -0.0090 -0.1394 0.9902
vn -0.0312 0.5124 0.8582
vn 0.8855 0.4539 0.0995
vn 0.5381 0.8351 -0.1143
vn 0.4591 0.8175 0.3478
vn 0.0290 -0.5281 -0.8487
vn -0.7782 0.6254 0.0564
vn -0.3934 0.7934 0.4645
vn -0.6023 0.7981 0.0192
vn -0.2681 -0.6499 0.7112
vn -0.0273 -0.6457 0.7631
vn 0.9208 -0.0774 0.3823
vn 0.4771 -0.5362 0.6964
vn 0.0497 0.9401 0.3371
vn -0.3303 0.3839 0.8623
vn -0.1283 0.9870 -0.0967
vn 0.0861 0.0401 0.9955
vn 0.9041 0.4273 -0.0000
vn 0.8206 0.5715 -0.0000
vn 0.0336 0.0539 0.9980
vn 0.0861 0.0401 -0.9955
vn 0.0336 0.0539 -0.9980
vn -0.9036 -0.4283 -0.0000
vn -0.8584 -0.5129 -0.0000
vn -0.6934 -0.7206 -0.0000
vn -0.0231 0.1238 -0.9920
vn -0.0231 0.1238 0.9920
vn -0.1562 0.1206 0.9803
vn -0.5553 -0.8313 0.0233
vn 0.6004 0.7997 -0.0000
vn -0.0482 0.0770 -0.9959
vn -0.9334 0.3355 -0.1273
vn 0.2977 0.9544 0.0236
vn 0.6373 0.6345 0.4373
vn 0.7540 0.6524 -0.0773
vn 0.6676 0.7428 -0.0507
vn -0.0547 0.9738 0.2206
vn -0.3125 -0.3520 -0.8823
vn -0.2301 -0.3324 -0.9146
vn -0.1728 -0.4160 -0.8928
vn 0.1609 -0.7389 0.6544
vn 0.2706 -0.2407 0.9321
vn -0.5459 -0.1113 0.8304
vn 0.0520 -0.7020 0.7102
vn 0.2422 0.6852 0.6869
vn 0.9450 -0.3131 0.0949
vn 0.8586 -0.0590 0.5093
vn 0.5931 -0.3090 0.7434
vn 0.5168 -0.7259 0.4539
vn -0.7683 0.5972 -0.2305
vn -0.9948 0.1014 0.0045
vn 0.0186 0.1919 0.9812
vn 0.0901 -0.5484 -0.8313
vn 0.1739 -0.5683 -0.8042
vn 0.1884 -0.5341 -0.8242
vn 0.0791 -0.5361 -0.8405
vn 0.9431 0.3214 -0.0856
vn 0.8554 0.3481 0.3835
vn -0.3515 -0.3726 -0.8589
vn -0.4261 -0.3292 -0.8426
vn -0.4194 -0.3139 -0.8518
vn -0.3404 -0.4153 -0.8436
vn -0.2029 -0.4864 -0.8499
vn -0.3019 -0.4857 -0.8203
vn -0.4329 -0.3451 -0.8328
vn 0.0750 -0.5547 -0.8287
vn 0.1591 -0.6014 -0.7830
vn -0.1231 0.5567 0.8216
vn -0.6984 0.5616 0.4438
vn -0.6985 0.2394 0.6744
vn -0.4419 -0.0347 0.8964
vn -0.0170 -0.5019 -0.8648
vn -0.0360 -0.5108 -0.8590
vn -0.1772 -0.4571 -0.8716
vn 0.1777 0.4569 0.8716
vn 0.0312 0.5124 0.8582
vn 0.0090 -0.1394 0.9902
vn -0.8855 0.4539 0.0995
vn -0.4591 0.8175 0.3478
vn -0.5381 0.8351 -0.1143
vn -0.0290 -0.5281 -0.8487
vn 0.7782 0.6254 0.0564
vn 0.6023 0.7981 0.0192
vn 0.3934 0.7934 0.4645
vn 0.0273 -0.6457 0.7631
vn 0.2681 -0.6499 0.7112
vn -0.9208 -0.0774 0.3823
vn -0.4771 -0.5362 0.6964
vn -0.0497 0.9401 0.3371
vn 0.3303 0.3839 0.8623
vn 0.1283 0.9870 -0.0967
vn 0.0052 -0.0945 0.9955
vn -0.0257 -0.0381 0.9989
vn -0.9990 0.0399 0.0213
vn -0.9974 -0.0455 -0.0555
vn -0.0421 0.0814 -0.9958
vn 0.0123 0.0956 -0.9953
vn 0.9999 -0.0086 0.0059
vn 0.9976 0.0549 -0.0412
vn -0.0672 0.0439 -0.9968
vn 0.9897 -0.1430 -0.0092
vn 0.0048 0.0917 0.9958
vn 0.9678 -0.2506 -0.0224
vn 0.0915 0.2327 0.9682
vn -0.9703 0.2374 0.0471
vn -0.0825 -0.0191 -0.9964
vn -0.8843 0.4647 0.0452
vn 0.4200 0.8811 -0.2174
vn -0.8622 -0.0226 0.5061
vn -0.6568 0.7213 0.2198
vn -0.9998 0.0027 -0.0194
vn -0.9916 -0.1252 -0.0328
vn 0.3711 -0.0376 -0.9278
vn 0.3224 -0.1837 -0.9286
vn 0.2976 -0.0856 -0.9508
vn 0.4566 -0.5791 0.6754
vn 0.5129 -0.4695 0.7187
vn 0.5260 0.3726 0.7645
vn 0.0674 -0.3128 0.9474
vn -0.6062 0.3160 0.7299
vn -0.3960 -0.8948 0.2064
vn 0.1908 -0.8344 0.5171
vn -0.1164 -0.5963 0.7942
vn -0.4956 -0.6339 0.5938
vn 0.0937 0.9388 -0.3315
vn 0.6011 0.7925 -0.1027
vn -0.0611 0.1453 0.9875
vn 0.2483 -0.4644 -0.8501
vn 0.2457 -0.4482 -0.8595
vn 0.1723 -0.5263 -0.8326
vn 0.2092 -0.5384 -0.8163
vn -0.8695 -0.4939 -0.0017
vn -0.8001 -0.3700 0.4722
vn 0.4187 0.0674 -0.9056
vn 0.4355 0.0621 -0.8980
vn 0.4150 -0.0224 -0.9095
vn 0.4404 -0.0592 -0.8959
vn 0.4683 -0.1346 -0.8732
vn 0.3988 -0.2083 -0.8931
vn 0.4528 0.0567 -0.8898
vn 0.2633 -0.4575 -0.8493
vn 0.2456 -0.5495 -0.7986
vn -0.2331 0.4939 0.8377
vn 0.4029 0.3358 0.8514
vn 0.3630 0.7029 0.6117
vn 0.1131 0.9182 0.3795
vn 0.3576 -0.2079 -0.9104
vn 0.3029 -0.3474 -0.8875
vn 0.2830 -0.3553 -0.8909
vn -0.3578 0.2074 0.9105
vn 0.1820 -0.0521 0.9819
vn -0.3009 0.3520 0.8863
vn 0.3065 0.9519 -0.0009
vn -0.2421 0.9489 -0.2022
vn -0.2566 0.9169 0.3056
vn 0.3120 -0.3640 -0.8776
vn -0.9797 -0.1671 0.1106
vn -0.8171 0.2631 0.5129
vn -0.9964 0.0679 0.0514
vn 0.3417 -0.5830 0.7371
vn 0.5050 -0.4048 0.7623
vn 0.7265 0.6210 0.2942
vn 0.7615 0.0233 0.6478
vn -0.6361 0.6937 0.3379
vn -0.4086 0.0458 0.9116
vn -0.8243 0.5523 -0.1243
vn -0.0146 -0.0548 -0.9984
vn -0.0000 0.3927 -0.9197
vn 0.6503 0.3927 -0.6503
vn 0.7132 -0.0413 -0.6997
vn 0.9197 0.3927 -0.0000
vn 0.9981 -0.0622 -0.0000
vn 0.6503 0.3927 0.6503
vn 0.7132 -0.0413 0.6997
vn -0.0000 0.3927 0.9197
vn -0.0145 -0.0546 0.9984
vn -0.6503 0.3927 0.6503
vn -0.7153 -0.1160 0.6891
vn -0.9197 0.3927 -0.0000
vn -0.9895 -0.1447 0.0001
vn -0.0000 0.9063 0.4227
vn -0.2989 0.9063 0.2989
vn -0.6503 0.3927 -0.6503
vn -0.7152 -0.1161 -0.6892
vn -0.0980 -0.1015 0.9900
vn 0.6767 -0.0573 0.7340
vn -0.7025 -0.2673 -0.6596
vn -0.9553 -0.2958 0.0015
vn 0.9943 -0.1066 -0.0000
vn 0.6767 -0.0573 -0.7340
vn -0.7007 -0.2670 0.6616
vn -0.0981 -0.1021 -0.9899
vn 0.6798 -0.3048 0.6670
vn 0.0121 -0.3100 0.9507
vn 0.0048 -0.3941 0.9190
vn 0.6526 -0.3942 0.6470
vn 0.1074 -0.6050 0.7890
vn -0.2685 -0.6691 0.6930
vn 0.0671 -0.6165 0.7845
vn 0.8162 -0.5778 -0.0058
vn 0.6554 -0.5394 -0.5287
vn 0.6594 -0.5401 -0.5230
vn 0.8155 -0.5788 0.0020
vn 0.1071 -0.5908 -0.7997
vn 0.0727 -0.6017 -0.7954
vn -0.2721 -0.6658 -0.6947
vn 0.6360 -0.5741 0.5156
vn 0.6352 -0.5739 0.5170
vn 0.0343 -0.6283 -0.7772
vn 0.0539 -0.6237 -0.7798
vn -0.6494 -0.3940 -0.6504
vn 0.0018 -0.3941 -0.9191
vn -0.0024 -0.6788 -0.7343
vn -0.5236 -0.6744 -0.5206
vn -0.9191 -0.3939 0.0015
vn 0.6776 -0.3048 -0.6693
vn 0.9531 -0.3027 -0.0016
vn 0.9190 -0.3942 -0.0015
vn 0.6505 -0.3942 -0.6492
vn 0.0089 -0.3100 -0.9507
vn -0.6472 -0.3940 0.6526
vn 0.5151 -0.6830 -0.5179
vn -0.0078 -1.0000 -0.0000
vn 0.0001 -0.6788 0.7343
vn 0.5168 -0.6830 0.5161
vn 0.7288 -0.6847 -0.0012
vn -0.7400 -0.6726 0.0012
vn -0.5219 -0.6744 0.5223
vn -0.2989 0.9063 -0.2989
vn -0.0000 0.9063 -0.4227
vn 0.2989 0.9063 -0.2989
vn 0.4227 0.9063 -0.0000
vn 0.2989 0.9063 0.2989
vn -0.4227 0.9063 -0.0000
vn -0.0000 1.0000 -0.0000
vn 0.7393 -0.1435 -0.6579
vn 0.9755 0.2197 -0.0074
vn 0.9747 0.2226 -0.0182
vn 0.7550 -0.1201 -0.6446
vn 0.7467 -0.2065 0.6323
vn 0.0595 -0.6041 0.7947
vn 0.0690 -0.6011 0.7962
vn 0.7689 -0.1835 0.6125
vt 0.234276 0.883865
vt 0.234121 0.899747
vt 0.222753 0.899747
vt 0.221805 0.883865
vt 0.211361 0.899747
vt 0.209812 0.883865
vt 0.257766 0.883865
vt 0.257259 0.899747
vt 0.245686 0.899747
vt 0.246151 0.883865
vt 0.252383 0.930622
vt 0.243593 0.930622
vt 0.234925 0.930622
vt 0.241056 0.955597
vt 0.236339 0.955516
vt 0.226227 0.930622
vt 0.218087 0.930622
vt 0.227143 0.958168
vt 0.231691 0.956725
vt 0.237377 0.974188
vt 0.245608 0.957160
vt 0.264997 0.917293
vt 0.257693 0.934485
vt 0.249993 0.931782
vt 0.257616 0.913480
vt 0.473089 0.990346
vt 0.492446 0.986796
vt 0.489067 0.997381
vt 0.306449 0.911840
vt 0.315293 0.930125
vt 0.307709 0.932709
vt 0.299742 0.916394
vt 0.265185 0.941229
vt 0.280355 0.893996
vt 0.297908 0.899889
vt 0.292650 0.906174
vt 0.281465 0.902362
vt 0.255346 0.941023
vt 0.308776 0.941245
vt 0.299018 0.940995
vt 0.517746 0.971032
vt 0.518077 0.944583
vt 0.531607 0.953149
vt 0.538722 0.970818
vt 0.264820 0.901461
vt 0.271708 0.906533
vt 0.463421 0.984468
vt 0.458018 0.971031
vt 0.473562 0.971125
vt 0.473225 0.953269
vt 0.489289 0.946464
vt 0.492381 0.955172
vt 0.463549 0.959041
vt 0.518469 0.997002
vt 0.531529 0.989869
vt 0.282090 0.972297
vt 0.306424 0.972371
vt 0.299783 0.982163
vt 0.282116 0.989220
vt 0.492393 0.971190
vt 0.504063 0.971141
vt 0.504691 0.995725
vt 0.282217 0.941368
vt 0.305622 0.956896
vt 0.282153 0.955551
vt 0.281570 0.998141
vt 0.260056 0.989852
vt 0.265546 0.982739
vt 0.504382 0.946089
vt 0.258140 0.956753
vt 0.249220 0.955666
vt 0.313811 0.955434
vt 0.304607 0.989425
vt 0.314700 0.972353
vt 0.257448 0.972330
vt 0.281754 0.918777
vt 0.248648 0.972425
vt 0.206456 0.994492
vt 0.205667 0.983821
vt 0.217160 0.982669
vt 0.219307 0.993205
vt 0.228238 0.981559
vt 0.230839 0.992049
vt 0.183041 0.996839
vt 0.182855 0.986107
vt 0.194437 0.984946
vt 0.194734 0.995667
vt 0.182784 0.934927
vt 0.191558 0.934047
vt 0.200157 0.933186
vt 0.191065 0.896627
vt 0.195866 0.895873
vt 0.208860 0.932313
vt 0.217365 0.931461
vt 0.205287 0.893478
vt 0.200500 0.894480
vt 0.193153 0.872504
vt 0.186308 0.895647
vt 0.257652 0.847815
vt 0.268347 0.822990
vt 0.279880 0.827933
vt 0.268164 0.854940
vt 0.381736 0.974675
vt 0.376537 0.946435
vt 0.391986 0.951335
vt 0.196471 0.856197
vt 0.183515 0.829614
vt 0.195460 0.824992
vt 0.207033 0.848992
vt 0.257763 0.812848
vt 0.233510 0.882526
vt 0.208585 0.873170
vt 0.217316 0.864183
vt 0.233769 0.869493
vt 0.273145 0.813301
vt 0.192738 0.813009
vt 0.208213 0.813107
vt 0.353562 0.909493
vt 0.314959 0.909015
vt 0.327463 0.889265
vt 0.353265 0.878883
vt 0.256464 0.872672
vt 0.247946 0.863255
vt 0.373153 0.988789
vt 0.353530 0.996677
vt 0.353675 0.973995
vt 0.327605 0.974461
vt 0.317702 0.950994
vt 0.330414 0.946512
vt 0.336025 0.988593
vt 0.391467 0.908477
vt 0.381072 0.889404
vt 0.232841 0.767474
vt 0.197417 0.767216
vt 0.207152 0.753049
vt 0.232982 0.742741
vt 0.353776 0.946502
vt 0.353712 0.929465
vt 0.389585 0.928581
vt 0.232761 0.812603
vt 0.198479 0.789856
vt 0.232771 0.791910
vt 0.232721 0.729120
vt 0.264845 0.741252
vt 0.256946 0.752303
vt 0.317157 0.929001
vt 0.267671 0.789948
vt 0.280735 0.792390
vt 0.185344 0.792138
vt 0.198880 0.742114
vt 0.184187 0.767489
vt 0.268661 0.767425
vt 0.233234 0.845570
vt 0.281885 0.767356
vt 0.062302 0.924713
vt 0.031417 0.921956
vt 0.031021 0.882696
vt 0.061978 0.883703
vt 0.030392 0.842374
vt 0.060211 0.842815
vt 0.031270 0.802515
vt 0.061934 0.801799
vt 0.031050 0.763383
vt 0.062870 0.761195
vt 0.032365 0.725572
vt 0.066900 0.723695
vt 0.030586 0.689430
vt 0.069554 0.689430
vt 0.005783 0.766451
vt 0.005783 0.726080
vt 0.069554 0.995938
vt 0.030586 0.995938
vt 0.032626 0.959945
vt 0.066585 0.962177
vt 0.084781 0.758788
vt 0.078845 0.801710
vt 0.101522 0.964473
vt 0.102569 0.995938
vt 0.074066 0.842804
vt 0.079051 0.883973
vt 0.102116 0.721168
vt 0.084233 0.926794
vt 0.102569 0.689430
vt 0.104774 0.803186
vt 0.104840 0.761465
vt 0.142074 0.763750
vt 0.142569 0.803692
vt 0.095321 0.760398
vt 0.092186 0.842744
vt 0.096279 0.882933
vt 0.094992 0.925221
vt 0.091263 0.802598
vt 0.104246 0.924763
vt 0.141695 0.960126
vt 0.141994 0.922314
vt 0.180225 0.922507
vt 0.180225 0.959508
vt 0.144550 0.995938
vt 0.103849 0.882411
vt 0.106568 0.842880
vt 0.143149 0.843243
vt 0.142168 0.882609
vt 0.142227 0.725592
vt 0.144550 0.689430
vt 0.304816 0.885708
vt 0.291743 0.885260
vt 0.299037 0.869604
vt 0.180225 0.766451
vt 0.180225 0.803118
vt 0.180225 0.843228
vt 0.180225 0.883409
vt 0.180225 0.995938
vt 0.180225 0.726080
vt 0.180225 0.689430
vt 0.005783 0.959508
vt 0.005783 0.922507
vt 0.005783 0.883409
vt 0.005783 0.843228
vt 0.005783 0.803118
vt 0.005783 0.689430
vt 0.005783 0.995938
vt 0.454609 0.949715
vt 0.454745 0.974026
vt 0.425331 0.962034
vt 0.437650 0.991312
vt 0.413339 0.991448
vt 0.396052 0.974353
vt 0.395917 0.950042
vt 0.413012 0.932756
vt 0.437323 0.932620
vt 0.305847 0.854091
vt 0.314824 0.863656
vt 0.314390 0.876766
vt 0.283226 0.862652
vt 0.292754 0.853690
vt 0.282812 0.875716
s 1
usemtl Food_Vegetables
f 1/1/1 2/2/2 4/3/3 3/4/4
f 3/4/4 4/3/3 8/5/5 7/6/6
f 7/7/6 8/8/5 6/9/7 5/10/8
f 5/10/8 6/9/7 2/2/2 1/1/1
f 6/9/7 8/8/5 12/11/9 11/12/10
f 9/13/11 11/12/10 15/14/12 13/15/13
f 4/3/3 2/2/2 9/13/11 10/16/14
f 2/2/2 6/9/7 11/12/10 9/13/11
f 8/5/5 4/3/3 10/16/14 12/17/9
f 16/18/15 14/19/16 17/20/17
f 12/17/9 10/16/14 14/19/16 16/18/15
f 11/12/10 12/11/9 16/21/15 15/14/12
f 10/16/14 9/13/11 13/15/13 14/19/16
f 15/14/12 16/21/15 17/20/17
f 14/19/16 13/15/13 17/20/17
f 13/15/13 15/14/12 17/20/17
f 42/22/18 19/23/19 21/24/20 43/25/21
f 38/26/22 29/27/23 25/28/24
f 38/29/25 25/30/26 23/31/27 27/32/28
f 42/22/18 32/33/29 19/23/19
f 26/34/30 24/35/31 22/36/32 30/37/33
f 28/38/34 21/24/34 19/23/19 32/33/29
f 25/30/35 29/39/35 31/40/36 23/31/27
f 55/41/37 46/42/38 33/43/39 40/44/40
f 20/45/41 26/34/30 30/37/33 18/46/42
f 24/35/31 38/29/25 27/32/28 22/36/32
f 27/32/28 23/31/27 31/40/36
f 38/26/22 24/47/43 26/48/44 45/49/45
f 43/50/46 21/51/47 28/52/48
f 20/53/49 43/50/46 45/49/45 26/48/44
f 48/54/50 55/41/37 40/44/40 34/55/51
f 57/56/52 50/57/53 35/58/54 41/59/55
f 29/27/23 37/60/56 54/61/57 49/62/58
f 39/63/59 31/40/36 51/64/60 56/65/61
f 40/66/62 33/67/63 36/68/64 41/59/55
f 37/60/56 28/52/48 47/69/65 54/61/57
f 28/38/66 32/33/29 53/70/67 47/71/68
f 32/33/29 39/63/59 56/65/61 53/70/67
f 31/40/36 29/39/69 49/72/70 51/64/60
f 34/73/71 40/66/62 41/59/55 35/58/54
f 50/57/53 48/74/72 34/73/71 35/58/54
f 52/75/73 57/56/52 41/59/55 36/68/64
f 22/36/32 27/32/28 44/76/74 30/37/33
f 18/46/42 42/22/18 43/25/21 20/45/41
f 42/22/18 18/46/42 30/37/33 44/76/74
f 44/76/74 27/32/28 31/40/36 39/63/59
f 42/22/18 44/76/74 39/63/59 32/33/29
f 38/26/22 45/49/45 37/60/56 29/27/23
f 45/49/45 43/50/46 28/52/48 37/60/56
f 55/41/37 48/54/50 49/62/58 54/61/57
f 57/56/52 52/75/73 53/70/67 56/65/61
f 48/74/72 50/57/53 51/64/60 49/72/70
f 47/71/68 53/70/67 52/75/73 46/77/75
f 46/42/38 55/41/37 54/61/57 47/69/65
f 50/57/53 57/56/52 56/65/61 51/64/60
f 46/77/75 52/75/73 36/68/64 33/67/63
f 58/1/76 60/4/77 61/3/78 59/2/79
f 60/4/77 64/6/80 65/5/81 61/3/78
f 64/7/80 62/10/82 63/9/83 65/8/81
f 62/10/82 58/1/76 59/2/79 63/9/83
f 63/9/83 68/12/84 69/11/85 65/8/81
f 66/13/86 70/15/87 72/14/88 68/12/84
f 61/3/78 67/16/89 66/13/86 59/2/79
f 59/2/79 66/13/86 68/12/84 63/9/83
f 65/5/81 69/17/85 67/16/89 61/3/78
f 73/18/90 74/20/91 71/19/92
f 69/17/85 73/18/90 71/19/92 67/16/89
f 68/12/84 72/14/88 73/21/90 69/11/85
f 67/16/89 71/19/92 70/15/87 66/13/86
f 72/14/88 74/20/91 73/21/90
f 71/19/92 74/20/91 70/15/87
f 70/15/87 74/20/91 72/14/88
f 99/22/93 100/25/94 78/24/95 76/23/96
f 95/26/97 82/28/98 86/27/99
f 95/29/100 84/32/101 80/31/102 82/30/103
f 99/22/93 76/23/96 89/33/104
f 83/34/105 87/37/106 79/36/107 81/35/108
f 85/38/109 89/33/104 76/23/96 78/24/109
f 82/30/110 80/31/102 88/40/111 86/39/110
f 112/41/112 97/44/113 90/43/114 103/42/115
f 77/45/116 75/46/117 87/37/106 83/34/105
f 81/35/108 79/36/107 84/32/101 95/29/100
f 84/32/101 88/40/111 80/31/102
f 95/26/97 102/49/118 83/48/119 81/47/120
f 100/50/121 85/52/122 78/51/123
f 77/53/124 83/48/119 102/49/118 100/50/121
f 105/54/125 91/55/126 97/44/113 112/41/112
f 114/56/127 98/59/128 92/58/129 107/57/130
f 86/27/99 106/62/131 111/61/132 94/60/133
f 96/63/134 113/65/135 108/64/136 88/40/111
f 97/66/137 98/59/128 93/68/138 90/67/139
f 94/60/133 111/61/132 104/69/140 85/52/122
f 85/38/141 104/71/142 110/70/143 89/33/104
f 89/33/104 110/70/143 113/65/135 96/63/134
f 88/40/111 108/64/136 106/72/144 86/39/145
f 91/73/146 92/58/129 98/59/128 97/66/137
f 107/57/130 92/58/129 91/73/146 105/74/147
f 109/75/148 93/68/138 98/59/128 114/56/127
f 79/36/107 87/37/106 101/76/149 84/32/101
f 75/46/117 77/45/116 100/25/94 99/22/93
f 99/22/93 101/76/149 87/37/106 75/46/117
f 101/76/149 96/63/134 88/40/111 84/32/101
f 99/22/93 89/33/104 96/63/134 101/76/149
f 95/26/97 86/27/99 94/60/133 102/49/118
f 102/49/118 94/60/133 85/52/122 100/50/121
f 112/41/112 111/61/132 106/62/131 105/54/125
f 114/56/127 113/65/135 110/70/143 109/75/148
f 105/74/147 106/72/144 108/64/136 107/57/130
f 104/71/142 103/77/150 109/75/148 110/70/143
f 103/42/115 104/69/140 111/61/132 112/41/112
f 107/57/130 108/64/136 113/65/135 114/56/127
f 103/77/150 90/67/139 93/68/138 109/75/148
f 115/78/151 116/79/152 118/80/153 117/81/154
f 117/81/154 118/80/153 122/82/155 121/83/156
f 121/84/156 122/85/155 120/86/157 119/87/158
f 119/87/158 120/86/157 116/79/152 115/78/151
f 120/86/157 122/85/155 126/88/159 125/89/160
f 123/90/161 125/89/160 129/91/162 127/92/163
f 118/80/153 116/79/152 123/90/161 124/93/164
f 116/79/152 120/86/157 125/89/160 123/90/161
f 122/82/155 118/80/153 124/93/164 126/94/159
f 130/95/165 128/96/166 131/97/167
f 126/94/159 124/93/164 128/96/166 130/95/165
f 125/89/160 126/88/159 130/98/165 129/91/162
f 124/93/164 123/90/161 127/92/163 128/96/166
f 129/91/162 130/98/165 131/97/167
f 128/96/166 127/92/163 131/97/167
f 127/92/163 129/91/162 131/97/167
f 156/99/168 133/100/169 135/101/170 157/102/171
f 152/103/172 143/104/173 139/105/174
f 152/106/175 139/107/176 137/108/177 141/109/178
f 156/99/168 146/110/179 133/100/169
f 140/111/180 138/112/181 136/113/182 144/114/183
f 142/115/184 135/101/184 133/100/169 146/110/179
f 139/107/185 143/116/185 145/117/186 137/108/177
f 169/118/187 160/119/188 147/120/189 154/121/190
f 134/122/191 140/111/180 144/114/183 132/123/192
f 138/112/181 152/106/175 141/109/178 136/113/182
f 141/109/178 137/108/177 145/117/186
f 152/103/172 138/124/193 140/125/194 159/126/195
f 157/127/196 135/128/197 142/129/198
f 134/130/199 157/127/196 159/126/195 140/125/194
f 162/131/200 169/118/187 154/121/190 148/132/201
f 171/133/202 164/134/203 149/135/204 155/136/205
f 143/104/173 151/137/206 168/138/207 163/139/208
f 153/140/209 145/117/186 165/141/210 170/142/211
f 154/143/212 147/144/213 150/145/214 155/136/205
f 151/137/206 142/129/198 161/146/215 168/138/207
f 142/115/216 146/110/179 167/147/217 161/148/218
f 146/110/179 153/140/209 170/142/211 167/147/217
f 145/117/186 143/116/219 163/149/220 165/141/210
f 148/150/221 154/143/212 155/136/205 149/135/204
f 164/134/203 162/151/222 148/150/221 149/135/204
f 166/152/223 171/133/202 155/136/205 150/145/214
f 136/113/182 141/109/178 158/153/224 144/114/183
f 132/123/192 156/99/168 157/102/171 134/122/191
f 156/99/168 132/123/192 144/114/183 158/153/224
f 158/153/224 141/109/178 145/117/186 153/140/209
f 156/99/168 158/153/224 153/140/209 146/110/179
f 152/103/172 159/126/195 151/137/206 143/104/173
f 159/126/195 157/127/196 142/129/198 151/137/206
f 169/118/187 162/131/200 163/139/208 168/138/207
f 171/133/202 166/152/223 167/147/217 170/142/211
f 162/151/222 164/134/203 165/141/210 163/149/220
f 161/148/218 167/147/217 166/152/223 160/154/225
f 160/119/188 169/118/187 168/138/207 161/146/215
f 164/134/203 171/133/202 170/142/211 165/141/210
f 160/154/225 166/152/223 150/145/214 147/144/213
f 172/155/226 173/156/227 175/157/228 174/158/229
f 174/158/229 175/157/228 177/159/230 176/160/231
f 176/160/231 177/159/230 179/161/232 178/162/233
f 178/162/233 179/161/232 181/163/234 180/164/235
f 180/164/235 181/163/234 183/165/236 182/166/237
f 182/166/237 183/165/236 185/167/238 184/168/239
f 183/165/236 181/163/234 221/169/240 222/170/241
f 184/171/239 185/172/238 187/173/242 186/174/243
f 186/174/243 187/173/242 173/156/227 172/155/226
f 178/162/233 180/164/235 192/175/244 191/176/245
f 184/171/239 186/174/243 195/177/246 194/178/247
f 174/158/229 176/160/231 190/179/248 189/180/249
f 180/164/235 182/166/237 193/181/250 192/175/244
f 186/174/243 172/155/226 188/182/251 195/177/246
f 172/155/226 174/158/229 189/180/249 188/182/251
f 176/160/231 178/162/233 191/176/245 190/179/248
f 182/166/237 184/168/239 194/183/247 193/181/250
f 199/184/252 200/185/253 208/186/254 207/187/255
f 192/175/256 193/181/257 229/188/258
f 227/189/259 231/190/260 189/180/261 190/179/262
f 188/182/263 189/180/261 231/190/260 230/191/264
f 195/177/265 188/182/263 230/191/264
f 191/176/266 192/175/256 229/188/258 228/192/267
f 230/191/268 196/193/269 195/177/265
f 203/194/270 204/195/271 212/196/272 211/197/273
f 194/178/247 195/177/246 203/194/270 202/198/274
f 197/199/275 198/200/276 206/201/277 205/202/278
f 195/177/246 196/193/279 204/195/271 203/194/270
f 200/185/253 193/181/250 201/203/280 208/186/254
f 198/200/276 199/184/252 207/187/255 206/201/277
f 193/181/250 194/183/247 202/204/274 201/203/280
f 212/205/272 213/206/281 226/207/282
f 207/187/255 208/186/254 216/208/283 215/209/284
f 205/202/278 206/201/277 214/210/285 213/211/281
f 202/198/274 203/194/270 211/197/273 210/212/286
f 208/186/254 201/203/280 209/213/287 216/208/283
f 206/201/277 207/187/255 215/209/284 214/210/285
f 204/195/271 205/202/278 213/211/281 212/196/272
f 201/203/280 202/204/274 210/214/286 209/213/287
f 173/156/227 187/173/242 224/215/288 217/216/289
f 175/157/228 173/156/227 217/216/289 218/217/290
f 179/161/232 177/159/230 219/218/291 220/219/292
f 185/167/238 183/165/236 222/170/241 223/220/293
f 181/163/234 179/161/232 220/219/292 221/169/240
f 187/173/242 185/172/238 223/221/293 224/215/288
f 177/159/230 175/157/228 218/217/290 219/218/291
f 224/222/288 223/223/293 225/224/294
f 222/225/241 221/226/240 225/224/294
f 220/227/292 219/228/291 225/224/294
f 218/229/290 217/230/289 225/224/294
f 217/230/289 224/222/288 225/224/294
f 223/223/293 222/225/241 225/224/294
f 221/226/240 220/227/292 225/224/294
f 219/228/291 218/229/290 225/224/294
f 209/231/287 210/232/286 226/207/282
f 211/233/273 212/205/272 226/207/282
f 215/234/284 216/235/283 226/207/282
f 213/206/281 214/236/285 226/207/282
f 210/232/286 211/233/273 226/207/282
f 216/235/283 209/231/287 226/207/282
f 214/236/285 215/234/284 226/207/282
f 191/176/266 228/192/267 227/189/259 190/179/262
f 231/190/295 227/189/296 198/200/297 197/199/298
f 230/191/268 231/190/295 197/199/298 196/193/269
f 228/192/299 229/188/300 200/185/301 199/184/302
f 229/188/300 193/181/257 200/185/301
f 196/193/279 197/199/275 205/202/278 204/195/271
f 228/192/299 199/184/302 198/200/297 227/189/296
