# Blender 4.4.3
# www.blender.org
mtllib Food_Vegetables_Tomato.mtl
o Food_Vegetables_Tomato
v -0.000596 0.098298 0.008514
v -0.000947 0.114039 0.008597
v -0.009110 0.098298 0.000000
v -0.009085 0.111652 0.000051
v 0.007918 0.098298 0.000000
v 0.007314 0.116839 -0.000051
v -0.000596 0.098298 -0.008514
v -0.000825 0.114451 -0.008597
v -0.006201 0.125700 0.008889
v -0.013283 0.120442 0.000693
v 0.000794 0.131216 -0.000693
v -0.006287 0.125958 -0.008889
v -0.000001 0.089095 -0.044436
v 0.012024 0.100977 -0.020827
v 0.022217 0.089095 -0.038483
v 0.029028 0.071312 -0.050280
v 0.031420 0.050336 -0.054423
v 0.029028 0.029360 -0.050280
v 0.022217 0.011577 -0.038483
v 0.012024 0.000000 -0.020827
v 0.020826 0.100977 -0.012024
v 0.038482 0.089095 -0.022218
v 0.050279 0.071312 -0.029029
v 0.054422 0.050336 -0.031421
v 0.050279 0.029360 -0.029029
v 0.038482 0.011577 -0.022218
v 0.020826 0.000000 -0.012024
v 0.024048 0.100977 0.000000
v 0.044435 0.089095 0.000000
v 0.058058 0.071312 0.000000
v 0.062841 0.050336 0.000000
v 0.058058 0.029360 0.000000
v 0.044435 0.011577 0.000000
v 0.024048 0.000000 0.000000
v 0.020826 0.100977 0.012024
v 0.038482 0.089095 0.022218
v 0.050279 0.071312 0.029029
v 0.054422 0.050336 0.031421
v 0.050279 0.029360 0.029029
v 0.038482 0.011577 0.022218
v 0.020826 0.000000 0.012024
v 0.012024 0.100977 0.020827
v 0.022217 0.089095 0.038483
v 0.029028 0.071312 0.050280
v 0.031420 0.050336 0.054423
v 0.029028 0.029360 0.050280
v 0.022217 0.011577 0.038483
v 0.012024 0.000000 0.020827
v -0.000001 0.100977 0.024048
v -0.000001 0.089095 0.044436
v -0.000001 0.071312 0.058058
v -0.000001 0.050336 0.062842
v -0.000001 0.029360 0.058058
v -0.000001 0.011577 0.044436
v -0.000001 0.000000 0.024048
v -0.012025 0.100977 0.020827
v -0.022219 0.089095 0.038483
v -0.029030 0.071312 0.050280
v -0.031422 0.050336 0.054423
v -0.029030 0.029360 0.050280
v -0.022219 0.011577 0.038483
v -0.012025 0.000000 0.020827
v -0.000001 0.105150 0.000000
v -0.020827 0.100977 0.012024
v -0.038483 0.089095 0.022218
v -0.050281 0.071312 0.029029
v -0.054423 0.050336 0.031421
v -0.050281 0.029360 0.029029
v -0.038483 0.011577 0.022218
v -0.020827 0.000000 0.012024
v -0.000001 -0.004477 0.000000
v -0.024049 0.100977 0.000000
v -0.044437 0.089095 -0.000000
v -0.058059 0.071312 0.000000
v -0.062842 0.050336 0.000000
v -0.058059 0.029360 0.000000
v -0.044437 0.011577 -0.000000
v -0.024049 0.000000 0.000000
v -0.020827 0.100977 -0.012024
v -0.038483 0.089095 -0.022218
v -0.050281 0.071312 -0.029029
v -0.054423 0.050336 -0.031421
v -0.050281 0.029360 -0.029029
v -0.038483 0.011577 -0.022218
v -0.020827 0.000000 -0.012024
v -0.012025 0.100977 -0.020827
v -0.022219 0.089095 -0.038483
v -0.029030 0.071312 -0.050280
v -0.031422 0.050336 -0.054423
v -0.029030 0.029360 -0.050280
v -0.022219 0.011577 -0.038483
v -0.012025 0.000000 -0.020827
v -0.000001 0.100977 -0.024048
v -0.000001 0.071312 -0.058058
v -0.000001 0.050336 -0.062842
v -0.000001 0.029360 -0.058058
v -0.000001 0.011577 -0.044436
v -0.000001 0.000000 -0.024048
v -0.000001 0.110560 0.023366
v 0.012024 0.103109 0.038039
v 0.026335 0.103109 0.029134
v 0.027109 0.092284 0.046976
v -0.000001 0.103109 0.000000
v -0.000001 0.101957 0.023366
v 0.012024 0.096271 0.038039
v 0.018911 0.101957 0.011356
v 0.026335 0.096271 0.029134
v -0.000001 0.103616 0.000000
v 0.037272 0.103109 0.008428
v 0.052504 0.092284 0.000000
v 0.037272 0.096271 0.008428
v 0.018911 0.110560 0.011356
v -0.012026 0.103109 0.038039
v -0.018913 0.110560 0.011356
v -0.026336 0.103109 0.029134
v -0.027110 0.092284 0.046976
v -0.012026 0.096271 0.038039
v -0.018913 0.101957 0.011356
v -0.026336 0.096271 0.029134
v -0.052505 0.092284 0.000000
v -0.037274 0.096271 0.008428
v -0.037274 0.103109 0.008428
v -0.037274 0.096271 -0.008428
v -0.000001 0.110560 -0.023366
v 0.012024 0.103109 -0.038039
v 0.018911 0.110560 -0.011356
v 0.026335 0.103109 -0.029134
v 0.027109 0.092284 -0.046976
v -0.000001 0.101957 -0.023366
v 0.012024 0.096271 -0.038039
v 0.018911 0.101957 -0.011356
v 0.026335 0.096271 -0.029134
v 0.037272 0.103109 -0.008428
v 0.037272 0.096271 -0.008428
v -0.012026 0.103109 -0.038039
v -0.018913 0.110560 -0.011356
v -0.026336 0.103109 -0.029134
v -0.027110 0.092284 -0.046976
v -0.012026 0.096271 -0.038039
v -0.018913 0.101957 -0.011356
v -0.026336 0.096271 -0.029134
v -0.037274 0.103109 -0.008428
vn 0.0093 0.0059 0.9999
vn 0.0993 0.0108 0.9950
vn -0.9751 -0.2219 -0.0048
vn -0.9999 -0.0119 -0.0018
vn 0.0899 0.0063 -0.9959
vn 0.0064 0.0063 -1.0000
vn 0.9740 0.2268 0.0008
vn 0.9997 0.0236 0.0019
vn -0.6068 0.7947 0.0145
vn 0.9131 0.4058 -0.0395
vn 0.1171 0.0356 0.9925
vn -0.8986 -0.4368 0.0411
vn 0.0795 0.0190 -0.9967
vn -0.0000 -0.9302 -0.3670
vn -0.0000 -0.7379 -0.6749
vn 0.3375 -0.7379 -0.5845
vn 0.1835 -0.9302 -0.3178
vn -0.0000 -0.4120 -0.9112
vn -0.0000 -0.0000 -1.0000
vn 0.5000 -0.0000 -0.8660
vn 0.4556 -0.4120 -0.7891
vn -0.0000 0.4120 -0.9112
vn -0.0000 0.7346 -0.6785
vn 0.3393 0.7346 -0.5876
vn 0.4556 0.4120 -0.7891
vn -0.0000 0.9298 -0.3681
vn -0.0000 1.0000 -0.0000
vn 0.1841 0.9298 -0.3188
vn -0.0000 -1.0000 -0.0000
vn 0.3188 0.9298 -0.1841
vn 0.3178 -0.9302 -0.1835
vn 0.7891 -0.4120 -0.4556
vn 0.5845 -0.7379 -0.3375
vn 0.7891 0.4120 -0.4556
vn 0.8660 -0.0000 -0.5000
vn 0.5876 0.7346 -0.3393
vn 0.9112 -0.4120 -0.0000
vn 0.6749 -0.7379 -0.0000
vn 0.9112 0.4120 -0.0000
vn 1.0000 -0.0000 -0.0000
vn 0.3681 0.9298 -0.0000
vn 0.6785 0.7346 -0.0000
vn 0.3670 -0.9302 -0.0000
vn 0.5845 -0.7379 0.3375
vn 0.3178 -0.9302 0.1835
vn 0.8660 -0.0000 0.5000
vn 0.7891 -0.4120 0.4556
vn 0.5876 0.7346 0.3393
vn 0.7891 0.4120 0.4556
vn 0.3188 0.9298 0.1841
vn 0.5000 -0.0000 0.8660
vn 0.4556 -0.4120 0.7891
vn 0.3393 0.7346 0.5876
vn 0.4556 0.4120 0.7891
vn 0.1841 0.9298 0.3188
vn 0.1835 -0.9302 0.3178
vn 0.3375 -0.7379 0.5845
vn -0.0000 -0.9302 0.3670
vn -0.0000 -0.4120 0.9112
vn -0.0000 -0.7379 0.6749
vn -0.0000 0.4120 0.9112
vn -0.0000 -0.0000 1.0000
vn -0.0000 0.9298 0.3681
vn -0.0000 0.7346 0.6785
vn -0.4556 0.4120 0.7891
vn -0.5000 -0.0000 0.8660
vn -0.1841 0.9298 0.3188
vn -0.3393 0.7346 0.5876
vn -0.3375 -0.7379 0.5845
vn -0.1835 -0.9302 0.3178
vn -0.4556 -0.4120 0.7891
vn -0.5845 -0.7379 0.3375
vn -0.3178 -0.9302 0.1835
vn -0.8660 -0.0000 0.5000
vn -0.7891 -0.4120 0.4556
vn -0.5876 0.7346 0.3393
vn -0.7891 0.4120 0.4556
vn -0.3188 0.9298 0.1841
vn -0.6785 0.7346 -0.0000
vn -0.9112 0.4120 -0.0000
vn -0.3681 0.9298 -0.0000
vn -0.3670 -0.9302 -0.0000
vn -0.9112 -0.4120 -0.0000
vn -0.6749 -0.7379 -0.0000
vn -1.0000 -0.0000 -0.0000
vn -0.3178 -0.9302 -0.1835
vn -0.7891 -0.4120 -0.4556
vn -0.5845 -0.7379 -0.3375
vn -0.7891 0.4120 -0.4556
vn -0.8660 -0.0000 -0.5000
vn -0.3188 0.9298 -0.1841
vn -0.5876 0.7346 -0.3393
vn -0.1841 0.9298 -0.3188
vn -0.3393 0.7346 -0.5876
vn -0.3375 -0.7379 -0.5845
vn -0.1835 -0.9302 -0.3178
vn -0.5000 -0.0000 -0.8660
vn -0.4556 -0.4120 -0.7891
vn -0.4556 0.4120 -0.7891
vn 0.0381 0.9974 0.0617
vn 0.2308 0.9001 0.3696
vn 0.2308 0.8999 0.3701
vn 0.0258 0.9988 0.0422
vn 0.2795 0.8450 0.4560
vn -0.1894 0.9355 -0.2983
vn -0.1096 -0.9786 -0.1739
vn -0.1062 -0.9800 -0.1684
vn -0.1587 -0.9546 -0.2520
vn -0.1591 -0.9544 -0.2526
vn -0.1666 -0.9498 -0.2648
vn -0.0449 -0.9965 -0.0708
vn -0.6896 0.0001 0.7242
vn -0.6266 -0.0000 0.7793
vn -0.5097 -0.0000 0.8603
vn 0.9991 -0.0000 -0.0433
vn 0.9824 0.0002 -0.1866
vn 0.9636 0.0003 -0.2674
vn 0.9228 -0.0000 -0.3853
vn -0.7734 -0.0000 0.6339
vn -0.0874 -0.9962 -0.0000
vn -0.2093 -0.9779 -0.0000
vn 0.2763 0.0003 0.9611
vn 0.3562 0.0002 0.9344
vn 0.4842 -0.0000 0.8750
vn 0.1575 -0.0000 0.9875
vn -0.3050 -0.9523 -0.0000
vn -0.3167 -0.9485 -0.0000
vn -0.0381 0.9974 0.0617
vn -0.0258 0.9988 0.0422
vn -0.2308 0.8999 0.3701
vn -0.2308 0.9001 0.3696
vn -0.2795 0.8450 0.4560
vn 0.1894 0.9355 -0.2983
vn 0.1096 -0.9786 -0.1739
vn 0.1591 -0.9544 -0.2526
vn 0.1587 -0.9546 -0.2520
vn 0.1062 -0.9800 -0.1684
vn 0.1666 -0.9498 -0.2648
vn 0.0449 -0.9965 -0.0708
vn 0.6898 0.0001 0.7240
vn 0.5097 -0.0000 0.8603
vn 0.6266 -0.0000 0.7794
vn -0.9991 -0.0000 -0.0433
vn -0.9636 0.0003 -0.2674
vn -0.9824 0.0002 -0.1866
vn -0.9228 -0.0000 -0.3853
vn 0.7734 -0.0000 0.6339
vn 0.0874 -0.9962 -0.0000
vn 0.2093 -0.9779 -0.0000
vn -0.2763 0.0003 0.9611
vn -0.4842 -0.0000 0.8750
vn -0.3562 0.0002 0.9344
vn -0.1575 -0.0000 0.9875
vn 0.3050 -0.9523 -0.0000
vn 0.3167 -0.9485 -0.0000
vn 0.0381 0.9974 -0.0617
vn 0.0258 0.9988 -0.0422
vn 0.1941 0.9286 -0.3162
vn 0.1906 0.9321 -0.3079
vn 0.1793 0.9323 -0.3142
vn -0.1894 0.9355 0.2983
vn -0.1096 -0.9786 0.1739
vn -0.2006 -0.9274 0.3158
vn -0.1992 -0.9284 0.3137
vn -0.1062 -0.9800 0.1684
vn -0.2705 -0.8604 0.4320
vn -0.0449 -0.9965 0.0708
vn -0.6805 -0.0015 -0.7327
vn -0.5097 -0.0000 -0.8603
vn -0.6189 -0.0026 -0.7855
vn 0.9991 -0.0000 0.0433
vn 0.9668 -0.0002 0.2555
vn 0.9841 -0.0013 0.1774
vn 0.9228 -0.0000 0.3853
vn -0.7734 -0.0000 -0.6339
vn -0.3666 0.9304 -0.0000
vn 0.0634 0.9980 -0.0000
vn 0.2763 0.0003 -0.9611
vn 0.4842 -0.0000 -0.8750
vn 0.3562 0.0002 -0.9344
vn 0.1575 -0.0000 -0.9875
vn 0.4455 0.8953 -0.0002
vn 0.4455 0.8953 0.0002
vn 0.5456 0.8380 -0.0000
vn -0.0381 0.9974 -0.0617
vn -0.1906 0.9322 -0.3078
vn -0.1941 0.9286 -0.3162
vn -0.0258 0.9988 -0.0422
vn -0.1793 0.9323 -0.3142
vn 0.1894 0.9355 0.2983
vn 0.1096 -0.9786 0.1739
vn 0.1062 -0.9800 0.1684
vn 0.1993 -0.9284 0.3137
vn 0.2006 -0.9274 0.3159
vn 0.2705 -0.8604 0.4320
vn 0.0449 -0.9965 0.0708
vn 0.6805 -0.0015 -0.7327
vn 0.6189 -0.0026 -0.7855
vn 0.5097 -0.0000 -0.8603
vn -0.9991 -0.0000 0.0433
vn -0.9841 -0.0013 0.1774
vn -0.9668 -0.0002 0.2555
vn -0.9228 -0.0000 0.3853
vn 0.7734 -0.0000 -0.6339
vn 0.3666 0.9304 -0.0000
vn -0.0634 0.9980 -0.0000
vn -0.2763 0.0003 -0.9611
vn -0.3562 0.0002 -0.9344
vn -0.4842 -0.0000 -0.8750
vn -0.1575 -0.0000 -0.9875
vn -0.4455 0.8953 0.0002
vn -0.4455 0.8953 -0.0002
vn -0.5456 0.8380 -0.0000
vt 0.618278 0.562125
vt 0.618278 0.543933
vt 0.636051 0.543933
vt 0.636051 0.562125
vt 0.564196 0.562125
vt 0.564196 0.543933
vt 0.582061 0.543933
vt 0.582061 0.562125
vt 0.600870 0.543933
vt 0.600870 0.562125
vt 0.582061 0.526448
vt 0.564196 0.526448
vt 0.564196 0.510897
vt 0.582061 0.510897
vt 0.600870 0.526448
vt 0.618278 0.526448
vt 0.636051 0.526448
vt 0.610160 0.584879
vt 0.610160 0.603873
vt 0.584756 0.603873
vt 0.584756 0.584879
vt 0.610160 0.622868
vt 0.610160 0.641862
vt 0.584756 0.641862
vt 0.584756 0.622868
vt 0.610160 0.660856
vt 0.610160 0.679850
vt 0.584756 0.679850
vt 0.584756 0.660856
vt 0.610160 0.698844
vt 0.597458 0.717839
vt 0.584756 0.698844
vt 0.597458 0.565885
vt 0.572053 0.717839
vt 0.559351 0.698844
vt 0.572053 0.565885
vt 0.559351 0.584879
vt 0.559351 0.622868
vt 0.559351 0.603873
vt 0.559351 0.660856
vt 0.559351 0.641862
vt 0.559351 0.679850
vt 0.533946 0.622868
vt 0.533946 0.603873
vt 0.533946 0.660856
vt 0.533946 0.641862
vt 0.533946 0.698844
vt 0.533946 0.679850
vt 0.533946 0.584879
vt 0.546649 0.717839
vt 0.546649 0.565885
vt 0.508542 0.603873
vt 0.508542 0.584879
vt 0.508542 0.641862
vt 0.508542 0.622868
vt 0.508542 0.679850
vt 0.508542 0.660856
vt 0.521244 0.717839
vt 0.508542 0.698844
vt 0.521244 0.565885
vt 0.483137 0.641862
vt 0.483137 0.622868
vt 0.483137 0.679850
vt 0.483137 0.660856
vt 0.495839 0.717839
vt 0.483137 0.698844
vt 0.495839 0.565885
vt 0.483137 0.584879
vt 0.483137 0.603873
vt 0.470435 0.565885
vt 0.457733 0.584879
vt 0.457733 0.622868
vt 0.457733 0.603873
vt 0.457733 0.660856
vt 0.457733 0.641862
vt 0.457733 0.698844
vt 0.457733 0.679850
vt 0.470435 0.717839
vt 0.432328 0.660856
vt 0.432328 0.641862
vt 0.432328 0.698844
vt 0.432328 0.679850
vt 0.432328 0.603873
vt 0.432328 0.584879
vt 0.432328 0.622868
vt 0.445030 0.717839
vt 0.445030 0.565885
vt 0.406923 0.603873
vt 0.406923 0.584879
vt 0.406923 0.641862
vt 0.406923 0.622868
vt 0.406923 0.679850
vt 0.406923 0.660856
vt 0.419626 0.717839
vt 0.406923 0.698844
vt 0.419626 0.565885
vt 0.381519 0.679850
vt 0.381519 0.660856
vt 0.394221 0.717839
vt 0.381519 0.698844
vt 0.394221 0.565885
vt 0.381519 0.584879
vt 0.381519 0.622868
vt 0.381519 0.603873
vt 0.381519 0.641862
vt 0.673672 0.565885
vt 0.686374 0.584879
vt 0.660969 0.584879
vt 0.686374 0.603873
vt 0.686374 0.622868
vt 0.660969 0.622868
vt 0.660969 0.603873
vt 0.686374 0.641862
vt 0.686374 0.660856
vt 0.660969 0.660856
vt 0.660969 0.641862
vt 0.686374 0.679850
vt 0.686374 0.698844
vt 0.660969 0.698844
vt 0.660969 0.679850
vt 0.673672 0.717839
vt 0.635565 0.698844
vt 0.635565 0.679850
vt 0.635565 0.603873
vt 0.635565 0.584879
vt 0.635565 0.641862
vt 0.635565 0.622868
vt 0.635565 0.660856
vt 0.648267 0.717839
vt 0.648267 0.565885
vt 0.622863 0.717839
vt 0.622863 0.565885
vt 0.395940 0.532088
vt 0.379196 0.550253
vt 0.362424 0.542115
vt 0.367416 0.516441
vt 0.362034 0.565139
vt 0.395735 0.498213
vt 0.648104 0.474958
vt 0.637761 0.458712
vt 0.653641 0.451928
vt 0.661315 0.464218
vt 0.669344 0.451010
vt 0.628021 0.474987
vt 0.381444 0.556932
vt 0.355856 0.544617
vt 0.358217 0.523631
vt 0.395999 0.541885
vt 0.618236 0.458740
vt 0.336560 0.511406
vt 0.329803 0.518957
vt 0.304164 0.498722
vt 0.620729 0.442212
vt 0.635221 0.442191
vt 0.627956 0.428666
vt 0.424274 0.516101
vt 0.429562 0.541709
vt 0.412895 0.550044
vt 0.430227 0.564715
vt 0.661345 0.485661
vt 0.653706 0.497974
vt 0.637807 0.491234
vt 0.669412 0.498847
vt 0.410730 0.556747
vt 0.436153 0.544130
vt 0.433540 0.523199
vt 0.618282 0.491261
vt 0.455091 0.510808
vt 0.487305 0.497704
vt 0.461923 0.518276
vt 0.635313 0.507761
vt 0.620822 0.507782
vt 0.628086 0.521308
vt 0.395530 0.464338
vt 0.367195 0.480326
vt 0.361908 0.454718
vt 0.378574 0.446383
vt 0.361242 0.431711
vt 0.607938 0.475015
vt 0.594697 0.464312
vt 0.602336 0.452000
vt 0.586631 0.451126
vt 0.380739 0.439680
vt 0.355316 0.452296
vt 0.357929 0.473228
vt 0.395470 0.454541
vt 0.336378 0.485618
vt 0.329546 0.478150
vt 0.412273 0.446174
vt 0.429045 0.454311
vt 0.424053 0.479985
vt 0.429435 0.431287
vt 0.602401 0.498045
vt 0.594728 0.485755
vt 0.586698 0.498964
vt 0.410026 0.439494
vt 0.435613 0.451809
vt 0.433253 0.472795
vt 0.454910 0.485020
vt 0.461666 0.477470
s 1
usemtl Food_Vegetables
f 1/1/1 2/2/2 4/3/3 3/4/4
f 3/5/4 4/6/3 8/7/5 7/8/6
f 7/8/6 8/7/5 6/9/7 5/10/8
f 5/10/8 6/9/7 2/2/2 1/1/1
f 12/11/9 10/12/9 9/13/9 11/14/9
f 2/2/2 6/9/7 11/15/10 9/16/11
f 8/7/5 4/6/3 10/12/12 12/11/13
f 6/9/7 8/7/5 12/11/13 11/15/10
f 4/3/3 2/2/2 9/16/11 10/17/12
f 98/18/14 97/19/15 19/20/16 20/21/17
f 96/22/18 95/23/19 17/24/20 18/25/21
f 94/26/22 13/27/23 15/28/24 16/29/25
f 93/30/26 63/31/27 14/32/28
f 71/33/29 98/18/14 20/21/17
f 97/19/15 96/22/18 18/25/21 19/20/16
f 95/23/19 94/26/22 16/29/25 17/24/20
f 13/27/23 93/30/26 14/32/28 15/28/24
f 14/32/28 63/34/27 21/35/30
f 71/36/29 20/21/17 27/37/31
f 19/20/16 18/25/21 25/38/32 26/39/33
f 17/24/20 16/29/25 23/40/34 24/41/35
f 15/28/24 14/32/28 21/35/30 22/42/36
f 20/21/17 19/20/16 26/39/33 27/37/31
f 18/25/21 17/24/20 24/41/35 25/38/32
f 16/29/25 15/28/24 22/42/36 23/40/34
f 26/39/33 25/38/32 32/43/37 33/44/38
f 24/41/35 23/40/34 30/45/39 31/46/40
f 22/42/36 21/35/30 28/47/41 29/48/42
f 27/37/31 26/39/33 33/44/38 34/49/43
f 25/38/32 24/41/35 31/46/40 32/43/37
f 23/40/34 22/42/36 29/48/42 30/45/39
f 21/35/30 63/50/27 28/47/41
f 71/51/29 27/37/31 34/49/43
f 34/49/43 33/44/38 40/52/44 41/53/45
f 32/43/37 31/46/40 38/54/46 39/55/47
f 30/45/39 29/48/42 36/56/48 37/57/49
f 28/47/41 63/58/27 35/59/50
f 71/60/29 34/49/43 41/53/45
f 33/44/38 32/43/37 39/55/47 40/52/44
f 31/46/40 30/45/39 37/57/49 38/54/46
f 29/48/42 28/47/41 35/59/50 36/56/48
f 39/55/47 38/54/46 45/61/51 46/62/52
f 37/57/49 36/56/48 43/63/53 44/64/54
f 35/59/50 63/65/27 42/66/55
f 71/67/29 41/53/45 48/68/56
f 40/52/44 39/55/47 46/62/52 47/69/57
f 38/54/46 37/57/49 44/64/54 45/61/51
f 36/56/48 35/59/50 42/66/55 43/63/53
f 41/53/45 40/52/44 47/69/57 48/68/56
f 71/70/29 48/68/56 55/71/58
f 47/69/57 46/62/52 53/72/59 54/73/60
f 45/61/51 44/64/54 51/74/61 52/75/62
f 43/63/53 42/66/55 49/76/63 50/77/64
f 48/68/56 47/69/57 54/73/60 55/71/58
f 46/62/52 45/61/51 52/75/62 53/72/59
f 44/64/54 43/63/53 50/77/64 51/74/61
f 42/66/55 63/78/27 49/76/63
f 52/75/62 51/74/61 58/79/65 59/80/66
f 50/77/64 49/76/63 56/81/67 57/82/68
f 55/71/58 54/73/60 61/83/69 62/84/70
f 53/72/59 52/75/62 59/80/66 60/85/71
f 51/74/61 50/77/64 57/82/68 58/79/65
f 49/76/63 63/86/27 56/81/67
f 71/87/29 55/71/58 62/84/70
f 54/73/60 53/72/59 60/85/71 61/83/69
f 62/84/70 61/83/69 69/88/72 70/89/73
f 60/85/71 59/80/66 67/90/74 68/91/75
f 58/79/65 57/82/68 65/92/76 66/93/77
f 56/81/67 63/94/27 64/95/78
f 71/96/29 62/84/70 70/89/73
f 61/83/69 60/85/71 68/91/75 69/88/72
f 59/80/66 58/79/65 66/93/77 67/90/74
f 57/82/68 56/81/67 64/95/78 65/92/76
f 66/93/77 65/92/76 73/97/79 74/98/80
f 64/95/78 63/99/27 72/100/81
f 71/101/29 70/89/73 78/102/82
f 69/88/72 68/91/75 76/103/83 77/104/84
f 67/90/74 66/93/77 74/98/80 75/105/85
f 65/92/76 64/95/78 72/100/81 73/97/79
f 70/89/73 69/88/72 77/104/84 78/102/82
f 68/91/75 67/90/74 75/105/85 76/103/83
f 71/106/29 78/107/82 85/108/86
f 77/109/84 76/110/83 83/111/87 84/112/88
f 75/113/85 74/114/80 81/115/89 82/116/90
f 73/117/79 72/118/81 79/119/91 80/120/92
f 78/107/82 77/109/84 84/112/88 85/108/86
f 76/110/83 75/113/85 82/116/90 83/111/87
f 74/114/80 73/117/79 80/120/92 81/115/89
f 72/118/81 63/121/27 79/119/91
f 80/120/92 79/119/91 86/122/93 87/123/94
f 85/108/86 84/112/88 91/124/95 92/125/96
f 83/111/87 82/116/90 89/126/97 90/127/98
f 81/115/89 80/120/92 87/123/94 88/128/99
f 79/119/91 63/129/27 86/122/93
f 71/130/29 85/108/86 92/125/96
f 84/112/88 83/111/87 90/127/98 91/124/95
f 82/116/90 81/115/89 88/128/99 89/126/97
f 92/125/96 91/124/95 97/19/15 98/18/14
f 90/127/98 89/126/97 95/23/19 96/22/18
f 88/128/99 87/123/94 13/27/23 94/26/22
f 86/122/93 63/131/27 93/30/26
f 71/132/29 92/125/96 98/18/14
f 91/124/95 90/127/98 96/22/18 97/19/15
f 89/126/97 88/128/99 94/26/22 95/23/19
f 87/123/94 86/122/93 93/30/26 13/27/23
f 99/133/100 100/134/101 101/135/102 112/136/103
f 101/135/102 100/134/101 102/137/104
f 99/133/100 112/136/103 103/138/105
f 104/139/106 106/140/107 107/141/108 105/142/109
f 107/141/108 102/143/110 105/142/109
f 104/139/106 108/144/111 106/140/107
f 100/134/112 105/145/113 102/137/114
f 102/137/115 107/146/116 101/135/117
f 101/135/117 107/146/116 106/147/118 112/136/118
f 99/133/119 104/148/119 105/145/113 100/134/112
f 108/144/120 131/149/121 106/140/121
f 109/150/122 111/151/123 110/152/124
f 112/136/125 106/147/125 111/151/123 109/150/122
f 106/140/121 131/149/121 134/153/126 111/154/126
f 134/153/126 110/155/127 111/154/126
f 99/133/128 114/156/129 115/157/130 113/158/131
f 115/157/130 116/159/132 113/158/131
f 99/133/128 103/138/133 114/156/129
f 104/139/134 117/160/135 119/161/136 118/162/137
f 119/161/136 117/160/135 116/163/138
f 104/139/134 118/162/137 108/144/139
f 113/158/140 116/159/141 117/164/142
f 116/159/143 115/157/144 119/165/145
f 115/157/144 114/156/146 118/166/146 119/165/145
f 99/133/147 113/158/140 117/164/142 104/148/147
f 108/144/148 118/162/149 140/167/149
f 122/168/150 120/169/151 121/170/152
f 114/156/153 122/168/150 121/170/152 118/166/153
f 118/162/149 121/171/154 123/172/154 140/167/149
f 123/172/154 121/171/154 120/173/155
f 124/174/156 126/175/157 127/176/158 125/177/159
f 127/176/158 128/178/160 125/177/159
f 124/174/156 103/138/161 126/175/157
f 129/179/162 130/180/163 132/181/164 131/149/165
f 132/181/164 130/180/163 128/182/166
f 129/179/162 131/149/165 108/144/167
f 125/177/168 128/178/169 130/183/170
f 128/178/171 127/176/172 132/184/173
f 127/176/172 126/175/174 131/185/174 132/184/173
f 124/174/175 125/177/168 130/183/170 129/186/175
f 103/138/176 112/136/177 126/175/177
f 133/187/178 110/152/179 134/188/180
f 126/175/181 133/187/178 134/188/180 131/185/181
f 126/175/177 112/136/177 109/150/182 133/187/183
f 110/152/184 133/187/183 109/150/182
f 124/174/185 135/189/186 137/190/187 136/191/188
f 137/190/187 135/189/186 138/192/189
f 124/174/185 136/191/188 103/138/190
f 129/179/191 140/167/192 141/193/193 139/194/194
f 141/193/193 138/195/195 139/194/194
f 129/179/191 108/144/196 140/167/192
f 135/189/197 139/196/198 138/192/199
f 138/192/200 141/197/201 137/190/202
f 137/190/202 141/197/201 140/198/203 136/191/203
f 124/174/204 129/186/204 139/196/198 135/189/197
f 103/138/205 136/191/206 114/156/206
f 142/199/207 123/200/208 120/169/209
f 136/191/210 140/198/210 123/200/208 142/199/207
f 136/191/206 142/199/211 122/168/212 114/156/206
f 120/169/213 122/168/212 142/199/211
l 103 108
