{
	"asset":{
		"generator":"Khronos glTF Blender I/O v4.4.56",
		"version":"2.0"
	},
	"extensionsUsed":[
		"KHR_materials_unlit"
	],
	"scene":0,
	"scenes":[
		{
			"name":"Scene",
			"nodes":[
				0
			]
		}
	],
	"nodes":[
		{
			"mesh":0,
			"name":"FarmAnimals_Horse"
		}
	],
	"materials":[
		{
			"doubleSided":true,
			"extensions":{
				"KHR_materials_unlit":{}
			},
			"name":"FarmAnimals_Horse",
			"pbrMetallicRoughness":{
				"baseColorTexture":{
					"index":0
				},
				"metallicFactor":0,
				"roughnessFactor":0.9
			}
		}
	],
	"meshes":[
		{
			"name":"FarmAnimals_Horse",
			"primitives":[
				{
					"attributes":{
						"POSITION":0,
						"NORMAL":1,
						"TEXCOORD_0":2
					},
					"indices":3,
					"material":0
				}
			]
		}
	],
	"textures":[
		{
			"sampler":0,
			"source":0
		}
	],
	"images":[
		{
			"mimeType":"image/png",
			"name":"farmAnimals_Horse",
			"uri":"farmAnimals_Horse.png"
		}
	],
	"accessors":[
		{
			"bufferView":0,
			"componentType":5126,
			"count":1415,
			"max":[
				0.22968332469463348,
				1.3039917945861816,
				0.6199450492858887
			],
			"min":[
				-0.22968332469463348,
				0,
				-0.689943790435791
			],
			"type":"VEC3"
		},
		{
			"bufferView":1,
			"componentType":5126,
			"count":1415,
			"type":"VEC3"
		},
		{
			"bufferView":2,
			"componentType":5126,
			"count":1415,
			"type":"VEC2"
		},
		{
			"bufferView":3,
			"componentType":5123,
			"count":5670,
			"type":"SCALAR"
		}
	],
	"bufferViews":[
		{
			"buffer":0,
			"byteLength":16980,
			"byteOffset":0,
			"target":34962
		},
		{
			"buffer":0,
			"byteLength":16980,
			"byteOffset":16980,
			"target":34962
		},
		{
			"buffer":0,
			"byteLength":11320,
			"byteOffset":33960,
			"target":34962
		},
		{
			"buffer":0,
			"byteLength":11340,
			"byteOffset":45280,
			"target":34963
		}
	],
	"samplers":[
		{
			"magFilter":9729,
			"minFilter":9987
		}
	],
	"buffers":[
		{
			"byteLength":56620,
			"uri":"FarmAnimals_Horse.bin"
		}
	]
}
