# Blender 4.4.3
# www.blender.org
mtllib Forest_Bush.mtl
o Forest_Bush
v -0.082758 0.257796 0.012501
v -0.162000 0.230926 0.082408
v -0.014027 0.236116 0.092480
v -0.094524 0.213164 0.161567
v -0.145328 0.232365 0.022223
v -0.213991 0.145673 0.077063
v -0.077564 0.217960 0.123011
v -0.150084 0.132088 0.172114
v -0.124390 0.247171 -0.043185
v -0.211190 0.148595 -0.028126
v -0.112018 0.237967 0.078404
v -0.199509 0.141043 0.084795
v -0.115417 0.251540 -0.110402
v -0.193671 0.145180 -0.141432
v -0.150870 0.221761 0.003266
v -0.229479 0.124521 -0.032314
v -0.065773 0.206188 -0.153104
v -0.142178 0.136436 -0.219941
v -0.133788 0.211111 -0.058187
v -0.210281 0.134823 -0.128287
v -0.057857 0.255599 -0.041340
v -0.173386 0.260887 -0.047603
v -0.064504 0.228664 0.080565
v -0.180034 0.233952 0.074302
v -0.043932 0.236669 -0.060481
v -0.116650 0.227920 -0.152531
v -0.134426 0.246538 0.022821
v -0.209054 0.238813 -0.063738
v 0.007265 0.260365 -0.084798
v -0.033515 0.219502 -0.200189
v -0.101027 0.219923 -0.040918
v -0.141806 0.179060 -0.156308
v 0.008534 0.261966 -0.055932
v -0.064292 0.301671 -0.149226
v -0.083641 0.223683 0.017720
v -0.156468 0.263388 -0.075574
v 0.035205 0.248355 -0.001679
v 0.095158 0.264310 -0.107050
v -0.066408 0.259874 -0.064375
v -0.006456 0.275830 -0.169746
v 0.040653 0.221105 -0.072318
v 0.089897 0.221452 -0.184208
v -0.066566 0.218157 -0.124440
v -0.019982 0.190168 -0.234623
v 0.026354 0.226328 -0.155360
v -0.004471 0.132049 -0.270692
v -0.105439 0.205653 -0.117075
v -0.128762 0.112551 -0.234587
v 0.059805 0.197845 -0.127055
v 0.103615 0.161107 -0.222662
v -0.047213 0.178298 -0.179299
v 0.002689 0.142672 -0.271932
v 0.082732 0.253294 -0.041115
v 0.136384 0.231126 -0.134925
v -0.005882 0.197968 -0.095514
v 0.047771 0.175800 -0.189324
v 0.120983 0.216777 -0.049778
v 0.200925 0.162730 -0.143891
v 0.014932 0.190084 -0.152588
v 0.100912 0.137556 -0.240849
v 0.125961 0.231340 0.013867
v 0.237090 0.163764 -0.019894
v 0.090209 0.205255 -0.120894
v 0.203374 0.139165 -0.146983
v 0.104270 0.254327 0.077951
v 0.208213 0.148303 0.102292
v 0.123820 0.221275 -0.056223
v 0.229041 0.142010 -0.021379
v 0.079317 0.242252 0.127325
v 0.164454 0.137026 0.179325
v 0.132362 0.229828 0.022660
v 0.217594 0.138931 0.077387
v 0.067178 0.238205 0.042258
v 0.196032 0.228435 0.010812
v 0.029000 0.257799 -0.097823
v 0.157984 0.245574 -0.135002
v 0.001662 0.231989 0.066602
v 0.067051 0.263763 0.186311
v 0.115930 0.219950 -0.001227
v 0.190184 0.243773 0.116833
v -0.047634 0.238390 0.005170
v -0.089282 0.259043 0.116595
v 0.058768 0.235658 0.055552
v 0.013672 0.254145 0.168033
v -0.041957 0.223293 0.052065
v -0.077861 0.228785 0.192561
v 0.092434 0.222221 0.090310
v 0.056529 0.227713 0.230806
v 0.013899 0.229966 0.137905
v 0.047049 0.139900 0.232514
v 0.118594 0.216242 0.085963
v 0.147223 0.136915 0.174298
v -0.040460 0.233671 0.136107
v -0.067758 0.130372 0.222862
v 0.075086 0.219451 0.159148
v 0.040898 0.113860 0.246702
v -0.098771 0.232365 0.085269
v -0.147495 0.160185 0.166600
v 0.007310 0.221666 0.145907
v -0.050015 0.138474 0.223528
v 0.185587 0.182546 0.031824
v 0.137896 0.182546 0.117104
v 0.224861 0.066507 0.044984
v 0.167522 0.065794 0.145614
v 0.147465 0.182545 0.106415
v 0.067706 0.182545 0.162520
v 0.177032 0.066494 0.135228
v 0.082104 0.065798 0.201232
v 0.080971 0.182546 0.157072
v -0.015087 0.182546 0.173837
v 0.095177 0.066499 0.196014
v -0.018910 0.065803 0.214971
v -0.000772 0.182545 0.174732
v -0.094840 0.182546 0.148285
v -0.004866 0.066504 0.215969
v -0.115954 0.065793 0.183323
v -0.082262 0.182545 0.155156
v -0.154448 0.182545 0.089403
v -0.103690 0.066493 0.190211
v -0.188906 0.065796 0.111936
v -0.146200 0.182546 0.101139
v -0.183418 0.182546 0.011056
v -0.180932 0.066497 0.123541
v -0.224339 0.065801 0.016402
v -0.181073 0.182546 0.025212
v -0.176348 0.182546 -0.072325
v -0.222164 0.066502 0.030317
v -0.215462 0.065807 -0.085274
v -0.180528 0.182546 -0.058616
v -0.132503 0.182546 -0.143719
v -0.219672 0.066508 -0.071851
v -0.161976 0.065795 -0.172290
v -0.142110 0.182545 -0.133060
v -0.062234 0.182545 -0.188984
v -0.171522 0.066495 -0.161933
v -0.076444 0.065798 -0.227712
v -0.075512 0.182546 -0.183570
v 0.020591 0.182546 -0.200123
v -0.089529 0.066499 -0.222526
v 0.024609 0.065804 -0.241217
v 0.006281 0.182546 -0.201065
v 0.100238 0.182545 -0.174258
v 0.010571 0.066504 -0.242261
v 0.121541 0.065793 -0.209227
v 0.087682 0.182545 -0.181170
v 0.159711 0.182545 -0.115269
v 0.109299 0.066493 -0.216156
v 0.194323 0.065796 -0.137690
v 0.151493 0.182546 -0.127026
v 0.188512 0.182546 -0.036860
v 0.186378 0.066496 -0.149315
v 0.229536 0.065801 -0.042072
v 0.186203 0.182546 -0.051023
v 0.181262 0.182546 0.046520
v 0.227396 0.066502 -0.055994
v 0.220422 0.065807 0.059597
v 0.201551 0.104155 0.077787
v 0.128774 0.104248 0.164852
v 0.174887 -0.000000 0.068718
v 0.112471 -0.000000 0.141820
v 0.141896 0.104149 0.154583
v 0.038809 0.104258 0.201481
v 0.121891 -0.000000 0.134900
v 0.034226 -0.000000 0.173920
v 0.055087 0.104159 0.197956
v -0.058156 0.104258 0.196433
v 0.045712 -0.000000 0.171782
v -0.050242 -0.000000 0.169468
v -0.041970 0.104157 0.200372
v -0.143622 0.104236 0.149929
v -0.038969 -0.000000 0.172548
v -0.124443 -0.000000 0.128635
v -0.130642 0.104137 0.160350
v -0.198904 0.104250 0.069806
v -0.115571 -0.000000 0.136223
v -0.172847 -0.000000 0.059141
v -0.191867 0.104152 0.084907
v -0.214982 0.104256 -0.025907
v -0.168228 -0.000000 0.069877
v -0.186926 -0.000000 -0.024223
v -0.215185 0.104156 -0.009244
v -0.188811 0.104251 -0.119547
v -0.187402 -0.000000 -0.012543
v -0.163937 -0.000000 -0.105727
v -0.196380 0.104150 -0.104725
v -0.123266 0.104244 -0.191515
v -0.169533 -0.000000 -0.095478
v -0.106855 -0.000000 -0.168369
v -0.136423 0.104145 -0.181288
v -0.033246 0.104255 -0.227954
v -0.116299 -0.000000 -0.161478
v -0.028547 -0.000000 -0.200291
v -0.049532 0.104156 -0.224471
v 0.063715 0.104257 -0.222701
v -0.040038 -0.000000 -0.198181
v 0.055917 -0.000000 -0.195642
v 0.047545 0.104156 -0.226692
v 0.148995 0.104238 -0.175867
v 0.044656 -0.000000 -0.198759
v 0.129974 -0.000000 -0.154548
v 0.136050 0.104140 -0.186332
v 0.204104 0.104254 -0.095652
v 0.121125 -0.000000 -0.162165
v 0.178215 -0.000000 -0.084957
v 0.197106 0.104156 -0.110770
v 0.219978 0.104261 0.000100
v 0.173622 -0.000000 -0.095704
v 0.192101 -0.000000 -0.001560
v 0.220225 0.104161 -0.016565
v 0.193600 0.104256 0.093704
v 0.192606 -0.000000 -0.013240
v 0.168921 -0.000000 0.079902
v 0.084413 0.224906 0.032827
v -0.045982 0.228911 0.039178
v 0.077437 0.323977 -0.093355
v -0.052957 0.327982 -0.087004
v 0.014456 0.223759 -0.020522
v -0.078657 0.302269 -0.078525
v -0.037148 0.241938 0.093805
v -0.124582 0.316083 0.038262
v 0.012829 0.216140 0.092679
v 0.154658 0.258073 0.075397
v 0.027760 0.249213 -0.011605
v 0.137277 0.311214 -0.048953
v -0.028894 0.244953 -0.002620
v -0.059479 0.309468 0.087517
v 0.057979 0.217064 0.034578
v 0.027394 0.281579 0.124715
v -0.000000 0.069963 -0.181592
v 0.079358 0.210380 -0.079359
v 0.128404 0.162182 -0.128405
v 0.128404 0.069963 -0.128405
v 0.079358 -0.000000 -0.079359
v 0.112229 0.210380 -0.000001
v 0.181591 0.162182 -0.000001
v 0.181591 0.069963 -0.000001
v 0.112229 -0.000000 -0.000001
v 0.079358 0.210380 0.079357
v 0.128404 0.162182 0.128404
v 0.128404 0.069963 0.128404
v 0.079358 -0.000000 0.079357
v -0.000000 0.210380 0.112229
v -0.000000 0.162182 0.181590
v -0.000000 0.069963 0.181590
v -0.000000 -0.000000 0.112229
v -0.000000 -0.000000 -0.000001
v -0.000000 0.195024 -0.000001
v -0.079358 0.210380 0.079357
v -0.128405 0.162182 0.128403
v -0.128405 0.069963 0.128403
v -0.079358 -0.000000 0.079357
v -0.112230 0.210380 -0.000001
v -0.181591 0.162182 -0.000001
v -0.181591 0.069963 -0.000001
v -0.112230 -0.000000 -0.000001
v -0.079358 0.210380 -0.079359
v -0.128404 0.162182 -0.128405
v -0.128404 0.069963 -0.128405
v -0.079358 -0.000000 -0.079359
v -0.000000 0.210380 -0.112230
v -0.000000 0.162182 -0.181592
v -0.000000 -0.000000 -0.112230
vn -0.0528 0.9578 0.2826
vn -0.5317 0.7116 0.4592
vn -0.7340 0.6679 0.1230
vn -0.7710 0.6282 -0.1044
vn -0.4624 0.8139 -0.3518
vn 0.0329 0.9755 0.2173
vn 0.0150 0.9945 -0.1041
vn -0.4057 0.8972 -0.1743
vn -0.0420 0.9071 0.4189
vn 0.0146 0.9874 0.1578
vn -0.0809 0.9842 -0.1574
vn -0.2847 0.7781 -0.5599
vn 0.0038 0.9340 -0.3572
vn -0.3089 0.8708 -0.3824
vn 0.1518 0.9073 -0.3921
vn 0.4349 0.8555 -0.2810
vn 0.6646 0.7471 -0.0099
vn 0.6379 0.7128 0.2916
vn 0.1104 0.9891 0.0977
vn -0.0002 0.9738 -0.2276
vn 0.1008 0.9859 -0.1333
vn 0.0178 0.9992 -0.0345
vn 0.3636 0.7415 0.5638
vn -0.0688 0.6510 0.7559
vn -0.2246 0.7675 0.6004
vn 0.8223 0.3268 0.4658
vn 0.5406 0.3269 0.7752
vn 0.1573 0.3275 0.9317
vn -0.2627 0.3260 0.9081
vn -0.6390 0.3258 0.6968
vn -0.8752 0.3269 0.3566
vn -0.9437 0.3269 -0.0517
vn -0.8208 0.3262 -0.4689
vn -0.5389 0.3265 -0.7765
vn -0.1552 0.3272 -0.9321
vn 0.2660 0.3260 -0.9071
vn 0.6405 0.3261 -0.6952
vn 0.8758 0.3275 -0.3546
vn 0.9433 0.3275 0.0538
vn 0.7401 -0.2488 0.6248
vn 0.3978 -0.2472 0.8835
vn -0.0179 -0.2469 0.9689
vn -0.4360 -0.2502 0.8645
vn -0.7751 -0.2499 0.5803
vn -0.9493 -0.2479 0.1936
vn -0.9406 -0.2493 -0.2305
vn -0.7374 -0.2506 -0.6272
vn -0.3957 -0.2485 -0.8841
vn 0.0201 -0.2478 -0.9686
vn 0.4392 -0.2501 -0.8629
vn 0.7766 -0.2489 -0.5787
vn 0.9501 -0.2464 -0.1915
vn 0.9405 -0.2477 0.2327
vn 0.0541 0.7868 0.6148
vn 0.5876 0.7973 0.1376
vn -0.2954 0.8929 0.3399
vn 0.4358 0.7953 -0.4214
vn 0.9064 0.4223 -0.0000
vn 0.9362 -0.3514 -0.0000
vn 0.6620 -0.3514 -0.6620
vn 0.6410 0.4223 -0.6410
vn 0.2228 0.9490 -0.2228
vn -0.0000 0.4223 -0.9064
vn -0.0000 0.9490 -0.3151
vn 0.3254 -0.8878 -0.3254
vn -0.0000 -0.8878 -0.4602
vn -0.0000 -0.3514 -0.9362
vn -0.0000 -1.0000 -0.0000
vn 0.4602 -0.8878 -0.0000
vn 0.6410 0.4223 0.6410
vn 0.6620 -0.3514 0.6620
vn 0.3254 -0.8878 0.3254
vn -0.0000 1.0000 -0.0000
vn 0.3151 0.9490 -0.0000
vn -0.0000 0.4223 0.9064
vn -0.0000 -0.3514 0.9362
vn 0.2228 0.9490 0.2228
vn -0.6620 -0.3514 0.6620
vn -0.3254 -0.8878 0.3254
vn -0.0000 -0.8878 0.4602
vn -0.0000 0.9490 0.3151
vn -0.9362 -0.3514 -0.0000
vn -0.4602 -0.8878 -0.0000
vn -0.9064 0.4223 -0.0000
vn -0.6410 0.4223 0.6410
vn -0.2228 0.9490 0.2228
vn -0.3254 -0.8878 -0.3254
vn -0.3151 0.9490 -0.0000
vn -0.2228 0.9490 -0.2228
vn -0.6410 0.4223 -0.6410
vn -0.6620 -0.3514 -0.6620
vt 0.533969 0.535221
vt 0.533969 0.991798
vt 0.990686 0.991798
vt 0.990686 0.535221
vt 0.951042 0.469638
vt 0.951042 0.481563
vt 0.938665 0.481563
vt 0.938665 0.469638
vt 0.938665 0.462197
vt 0.925708 0.469638
vt 0.925708 0.462197
vt 0.938665 0.492454
vt 0.925708 0.492454
vt 0.925708 0.481563
vt 0.943338 0.503270
vt 0.960346 0.506805
vt 0.945902 0.516588
vt 0.951042 0.492202
vt 0.963030 0.469638
vt 0.963030 0.481563
vt 0.963030 0.491560
vt 0.959802 0.448825
vt 0.951042 0.462069
vt 0.944228 0.451823
vt 0.980680 0.469638
vt 0.980680 0.481563
vt 0.963030 0.462930
vt 0.886645 0.481563
vt 0.886645 0.492454
vt 0.869897 0.492454
vt 0.869897 0.481563
vt 0.972355 0.458394
vt 0.974420 0.496000
vt 0.977827 0.509366
vt 0.900295 0.481563
vt 0.900295 0.492454
vt 0.900295 0.469638
vt 0.886645 0.469638
vt 0.869897 0.469638
vt 0.975436 0.446538
vt 0.886645 0.462197
vt 0.869897 0.462197
vt 0.970640 0.521072
vt 0.957292 0.524055
vt 0.969105 0.436036
vt 0.946783 0.439794
vt 0.957160 0.433217
vt 0.900295 0.462197
vt 0.912678 0.462197
vt 0.912678 0.469638
vt 0.912678 0.481563
vt 0.912678 0.492454
s 0
usemtl Forest_Greens
f 1/1/1 2/2/1 4/3/1 3/4/1
f 5/1/2 6/2/2 8/3/2 7/4/2
f 9/1/3 10/2/3 12/3/3 11/4/3
f 13/1/4 14/2/4 16/3/4 15/4/4
f 17/1/5 18/2/5 20/3/5 19/4/5
f 21/1/6 22/2/6 24/3/6 23/4/6
f 25/1/7 26/2/7 28/3/7 27/4/7
f 29/1/8 30/2/8 32/3/8 31/4/8
f 33/1/9 34/2/9 36/3/9 35/4/9
f 37/1/10 38/2/10 40/3/10 39/4/10
f 41/1/11 42/2/11 44/3/11 43/4/11
f 45/1/12 46/2/12 48/3/12 47/4/12
f 49/1/13 50/2/13 52/3/13 51/4/13
f 53/1/14 54/2/14 56/3/14 55/4/14
f 57/1/15 58/2/15 60/3/15 59/4/15
f 61/1/16 62/2/16 64/3/16 63/4/16
f 65/1/17 66/2/17 68/3/17 67/4/17
f 69/1/18 70/2/18 72/3/18 71/4/18
f 73/1/19 74/2/19 76/3/19 75/4/19
f 77/1/20 78/2/20 80/3/20 79/4/20
f 81/1/21 82/2/21 84/3/21 83/4/21
f 85/1/22 86/2/22 88/3/22 87/4/22
f 89/1/23 90/2/23 92/3/23 91/4/23
f 93/1/24 94/2/24 96/3/24 95/4/24
f 97/1/25 98/2/25 100/3/25 99/4/25
f 103/3/26 101/4/26 102/1/26 104/2/26
f 107/3/27 105/4/27 106/1/27 108/2/27
f 111/3/28 109/4/28 110/1/28 112/2/28
f 115/3/29 113/4/29 114/1/29 116/2/29
f 119/3/30 117/4/30 118/1/30 120/2/30
f 123/3/31 121/4/31 122/1/31 124/2/31
f 127/3/32 125/4/32 126/1/32 128/2/32
f 131/3/33 129/4/33 130/1/33 132/2/33
f 135/3/34 133/4/34 134/1/34 136/2/34
f 139/3/35 137/4/35 138/1/35 140/2/35
f 143/3/36 141/4/36 142/1/36 144/2/36
f 147/3/37 145/4/37 146/1/37 148/2/37
f 151/3/38 149/4/38 150/1/38 152/2/38
f 155/3/39 153/4/39 154/1/39 156/2/39
f 159/3/40 157/4/40 158/1/40 160/2/40
f 163/3/41 161/4/41 162/1/41 164/2/41
f 167/3/42 165/4/42 166/1/42 168/2/42
f 171/3/43 169/4/43 170/1/43 172/2/43
f 175/3/44 173/4/44 174/1/44 176/2/44
f 179/3/45 177/4/45 178/1/45 180/2/45
f 183/3/46 181/4/46 182/1/46 184/2/46
f 187/3/47 185/4/47 186/1/47 188/2/47
f 191/3/48 189/4/48 190/1/48 192/2/48
f 195/3/49 193/4/49 194/1/49 196/2/49
f 199/3/50 197/4/50 198/1/50 200/2/50
f 203/3/51 201/4/51 202/1/51 204/2/51
f 207/3/52 205/4/52 206/1/52 208/2/52
f 211/3/53 209/4/53 210/1/53 212/2/53
f 213/1/54 215/2/54 216/3/54 214/4/54
f 217/1/55 218/2/55 220/3/55 219/4/55
f 221/1/56 222/2/56 224/3/56 223/4/56
f 225/1/57 226/2/57 228/3/57 227/4/57
s 1
f 235/5/58 236/6/59 232/7/60 231/8/61
f 230/9/62 231/8/61 261/10/63 260/11/64
f 232/7/60 233/12/65 262/13/66 229/14/67
f 233/15/65 246/16/68 262/17/66
f 237/18/69 246/16/68 233/15/65
f 236/6/59 237/18/69 233/12/65 232/7/60
f 239/19/70 240/20/71 236/6/59 235/5/58
f 240/20/71 241/21/72 237/18/69 236/6/59
f 247/22/73 234/23/74 230/24/62
f 234/23/74 235/5/58 231/8/61 230/9/62
f 243/25/75 244/26/76 240/20/71 239/19/70
f 247/22/73 238/27/77 234/23/74
f 250/28/78 251/29/79 245/30/80 244/31/76
f 238/27/77 239/19/70 235/5/58 234/23/74
f 241/21/72 246/16/68 237/18/69
f 242/32/81 243/25/75 239/19/70 238/27/77
f 244/26/76 245/33/80 241/21/72 240/20/71
f 245/33/80 246/16/68 241/21/72
f 251/34/79 246/16/68 245/33/80
f 247/22/73 242/32/81 238/27/77
f 254/35/82 255/36/83 251/29/79 250/28/78
f 253/37/84 254/35/82 250/28/78 249/38/85
f 249/38/85 250/28/78 244/31/76 243/39/75
f 247/22/73 248/40/86 242/32/81
f 248/41/86 249/38/85 243/39/75 242/42/81
f 255/43/83 246/16/68 251/34/79
f 259/44/87 246/16/68 255/43/83
f 247/22/73 252/45/88 248/40/86
f 247/22/73 260/46/64 256/47/89
f 252/48/88 253/37/84 249/38/85 248/41/86
f 256/49/89 257/50/90 253/37/84 252/48/88
f 257/50/90 258/51/91 254/35/82 253/37/84
f 258/51/91 259/52/87 255/36/83 254/35/82
f 247/22/73 230/24/62 260/46/64
f 247/22/73 256/47/89 252/45/88
f 229/14/67 258/51/91 257/50/90 261/10/63
f 231/8/61 232/7/60 229/14/67 261/10/63
f 262/17/66 246/16/68 259/44/87
f 260/11/64 261/10/63 257/50/90 256/49/89
f 229/14/67 262/13/66 259/52/87 258/51/91
