# Blender 4.4.3
# www.blender.org
mtllib Forest_Flowers.mtl
o Forest_Flowers
v -0.032604 0.272647 -0.036471
v -0.061006 0.245988 0.048011
v -0.026808 0.287311 -0.015655
v -0.045668 0.268741 0.042152
v 0.015640 0.264545 0.025844
v -0.017482 0.281170 0.019594
v -0.079855 0.213268 0.069387
v -0.014699 0.195826 0.080560
v -0.090908 0.193654 0.058069
v -0.010671 0.173224 0.074004
v -0.013961 0.215512 0.056030
v 0.004710 0.198049 0.077410
v 0.053481 0.207678 0.030474
v -0.007300 0.174576 0.069798
v 0.052829 0.186442 0.015144
v 0.060520 0.204794 0.010461
v 0.047696 0.232199 -0.050849
v 0.054311 0.180713 0.009160
v 0.037950 0.216315 -0.069276
v 0.030650 0.247100 -0.068633
v -0.033423 0.263913 -0.083372
v 0.033501 0.222804 -0.074828
v -0.043125 0.243880 -0.090676
v -0.035748 0.253355 -0.041096
v -0.057994 0.262766 -0.076302
v -0.107335 0.254932 -0.029627
v -0.055207 0.240720 -0.087624
v -0.118376 0.231127 -0.027582
v -0.072180 0.246724 -0.005706
v -0.115235 0.249721 -0.006586
v -0.103049 0.224903 0.055943
v -0.120130 0.229796 -0.021148
v -0.104356 0.198425 0.059191
v -0.023319 0.234303 0.006124
v -0.071008 0.266213 -0.000581
v -0.053530 0.282520 0.009050
v -0.122520 0.240590 0.029392
v -0.127470 0.213290 0.023067
v -0.091639 0.265708 -0.061164
v -0.097386 0.239073 -0.067505
v 0.017746 0.258885 -0.024698
v 0.007777 0.278323 -0.007258
v 0.003157 0.261810 -0.088034
v -0.000485 0.236022 -0.097231
v 0.018740 0.240677 -0.029001
v 0.027947 0.238418 0.023540
v 0.065063 0.219045 -0.021408
v 0.059729 0.194855 -0.034946
v 0.024845 0.220231 0.018258
v -0.051580 0.202105 0.089007
v -0.056150 0.176742 0.079678
v -0.061608 0.229320 0.038259
v -0.010420 0.232296 0.059344
v -0.011083 0.259754 0.050549
v 0.038708 0.200412 0.063522
v 0.032111 0.173572 0.050784
v -0.039982 0.000000 0.000342
v -0.039982 0.000000 -0.031295
v -0.008345 0.000000 0.000342
v -0.039982 0.108648 -0.003204
v -0.039982 0.197360 0.007870
v -0.008345 0.108648 -0.003204
v -0.039982 0.112378 -0.034394
v -0.039982 0.204820 -0.022874
v -0.008345 0.112378 -0.034394
v -0.008345 0.000000 -0.031295
v -0.008345 0.204820 -0.022874
v -0.008345 0.197360 0.007870
v -0.095271 0.168236 0.043975
v -0.178574 0.141758 0.048273
v -0.110691 0.179097 0.059714
v -0.167462 0.160579 0.063074
v -0.129104 0.147551 0.107074
v -0.136997 0.169026 0.080120
v -0.204305 0.113110 0.034732
v -0.187822 0.085019 0.090192
v -0.199074 0.097824 0.017385
v -0.180629 0.064025 0.086730
v -0.166631 0.104999 0.084928
v -0.177394 0.084007 0.105578
v -0.117947 0.088310 0.129748
v -0.175701 0.065032 0.088154
v -0.105147 0.070075 0.119207
v -0.098089 0.086052 0.127255
v -0.050978 0.118401 0.097748
v -0.099458 0.065022 0.117025
v -0.039169 0.106898 0.079415
v -0.042630 0.136466 0.079377
v -0.055644 0.164077 0.023308
v -0.036215 0.114083 0.074755
v -0.053293 0.147854 0.008579
v -0.092585 0.151363 0.035905
v -0.071472 0.166648 0.005348
v -0.130923 0.164118 -0.019060
v -0.060714 0.146759 -0.000907
v -0.137070 0.143899 -0.031963
v -0.137272 0.148639 0.018085
v -0.153704 0.158821 -0.017628
v -0.202109 0.128868 0.012311
v -0.143252 0.142458 -0.031163
v -0.205396 0.104427 0.007499
v -0.127851 0.127906 0.061149
v -0.141171 0.165992 0.024741
v -0.142401 0.177267 0.046167
v -0.187259 0.148772 -0.011363
v -0.183846 0.124962 -0.023113
v -0.097793 0.173892 -0.016259
v -0.094685 0.150833 -0.028554
v -0.085208 0.146017 0.088005
v -0.104043 0.164239 0.090168
v -0.037075 0.156268 0.051618
v -0.030693 0.133858 0.040123
v -0.081145 0.129410 0.083720
v -0.122229 0.121555 0.111520
v -0.069128 0.100958 0.121273
v -0.059723 0.080657 0.106969
v -0.118968 0.105744 0.103438
v -0.209736 0.096426 0.063897
v -0.203611 0.074577 0.051655
v -0.170506 0.127279 0.040817
v -0.168041 0.119598 0.092343
v -0.160814 0.145721 0.093527
v -0.151995 0.081492 0.128969
v -0.143777 0.058901 0.113424
v 0.023489 0.160403 0.039050
v -0.008281 0.124761 0.112392
v 0.030847 0.168913 0.060888
v 0.009589 0.144137 0.111002
v 0.066041 0.133816 0.094155
v 0.038011 0.155263 0.092068
v -0.031196 0.093965 0.126275
v 0.026345 0.065851 0.132209
v -0.044345 0.079995 0.112351
v 0.026646 0.045919 0.121860
v 0.030472 0.088225 0.113279
v 0.044742 0.065432 0.129397
v 0.092183 0.075376 0.087124
v 0.030047 0.047411 0.118180
v 0.088488 0.059062 0.069022
v 0.098560 0.075414 0.068019
v 0.091862 0.113820 0.016865
v 0.089056 0.054750 0.062409
v 0.080615 0.104369 -0.002934
v 0.078646 0.133356 0.003554
v 0.022064 0.161398 -0.005803
v 0.077586 0.112001 -0.006760
v 0.010044 0.146084 -0.016129
v 0.017627 0.144235 0.031222
v -0.001011 0.162865 0.000911
v -0.048696 0.154690 0.043289
v -0.001702 0.144526 -0.013706
v -0.062688 0.134403 0.040895
v -0.017729 0.137256 0.063208
v -0.057182 0.146865 0.063681
v -0.050691 0.110680 0.116455
v -0.064619 0.132260 0.046605
v -0.056089 0.086219 0.114505
v 0.025474 0.116124 0.070962
v -0.013672 0.153817 0.071567
v 0.004944 0.164095 0.083209
v -0.065903 0.132954 0.095251
v -0.074666 0.110112 0.084385
v -0.031983 0.167949 0.015979
v -0.041382 0.145838 0.005237
v 0.067864 0.137831 0.046475
v 0.061396 0.153773 0.066362
v 0.055733 0.154653 -0.011107
v 0.048463 0.133519 -0.024359
v 0.066004 0.121941 0.039077
v 0.073407 0.108591 0.086925
v 0.105476 0.093632 0.041242
v 0.096950 0.075030 0.024318
v 0.067766 0.093543 0.078698
v -0.007008 0.075727 0.141791
v -0.015071 0.055149 0.128512
v -0.011299 0.111542 0.100289
v 0.036330 0.102298 0.119421
v 0.040138 0.128998 0.116476
v 0.076852 0.064879 0.116469
v 0.066728 0.043916 0.099806
v 0.183994 0.114688 -0.034358
v 0.119034 0.171551 -0.048696
v 0.186800 0.138234 -0.027941
v 0.142165 0.176956 -0.037188
v 0.154820 0.158606 0.018313
v 0.166592 0.163257 -0.014699
v 0.080128 0.174068 -0.060788
v 0.069762 0.171342 0.002629
v 0.068167 0.156083 -0.070556
v 0.055224 0.154986 0.007691
v 0.097199 0.160957 -0.001278
v 0.075678 0.168864 0.020105
v 0.112108 0.133077 0.059204
v 0.058745 0.152067 0.010222
v 0.102148 0.110537 0.058792
v 0.120146 0.115174 0.063729
v 0.169200 0.079505 0.042325
v 0.100555 0.102879 0.060012
v 0.163753 0.057505 0.032621
v 0.187197 0.073187 0.023098
v 0.198878 0.072675 -0.039662
v 0.170967 0.056370 0.027262
v 0.184881 0.057660 -0.047679
v 0.170231 0.101852 -0.036044
v 0.191282 0.079102 -0.061586
v 0.156339 0.115568 -0.101408
v 0.179259 0.059230 -0.058270
v 0.134739 0.106357 -0.109261
v 0.143314 0.129119 -0.065264
v 0.140257 0.132074 -0.105650
v 0.092623 0.170002 -0.084937
v 0.130410 0.111003 -0.110037
v 0.069639 0.159975 -0.083361
v 0.134450 0.130178 -0.017374
v 0.156732 0.142556 -0.065372
v 0.167704 0.157258 -0.049523
v 0.115035 0.157108 -0.107488
v 0.095387 0.139148 -0.110314
v 0.181947 0.094474 -0.091398
v 0.162732 0.076861 -0.095026
v 0.174283 0.114980 0.015031
v 0.180358 0.138908 0.005977
v 0.204372 0.066011 -0.006006
v 0.187465 0.046390 -0.008081
v 0.161805 0.102710 0.017129
v 0.136583 0.143563 0.031875
v 0.147179 0.096056 0.063020
v 0.133364 0.073787 0.058732
v 0.124021 0.130725 0.030053
v 0.065807 0.183083 -0.031256
v 0.049177 0.163607 -0.034248
v 0.110132 0.155705 -0.048842
v 0.109617 0.171508 0.000857
v 0.135723 0.177630 -0.003270
v 0.088738 0.157029 0.049902
v 0.072245 0.134198 0.044773
v 0.074149 0.000000 -0.001621
v 0.135179 0.108772 -0.010019
v 0.044280 0.000000 -0.012049
v 0.106636 0.122405 -0.010554
v 0.084577 0.000000 -0.031489
v 0.135679 0.108579 -0.041651
v 0.054709 0.000000 -0.041918
v 0.107136 0.122212 -0.042186
v 0.093607 0.055589 -0.014595
v 0.063405 0.063852 -0.017109
v 0.064687 0.059033 -0.048350
v 0.094889 0.050770 -0.045836
v -0.001774 0.000000 0.042796
v 0.082898 0.031595 0.086808
v 0.026195 0.000000 -0.008513
v 0.120305 0.032814 0.018184
v 0.151284 0.006539 0.067646
v 0.030071 0.036073 0.073853
v 0.074328 0.037515 -0.007336
v -0.054751 0.000000 0.017450
v -0.106320 0.056953 0.097743
v -0.006214 0.000000 0.049994
v -0.041405 0.061568 0.141268
v -0.093492 0.055516 0.167595
v -0.088589 0.044195 0.046322
v -0.011787 0.049639 0.097817
v -0.084849 0.000000 0.000469
v -0.164244 0.042429 0.004605
v -0.085811 0.000000 0.040837
v -0.165992 0.045808 0.058691
v -0.207995 0.042602 0.040437
v -0.121638 0.032795 -0.006271
v -0.123694 0.036780 0.057717
v -0.069332 0.000000 -0.040415
v -0.137021 0.042429 -0.082115
v -0.093056 0.000000 -0.007740
v -0.169185 0.045808 -0.038597
v -0.193383 0.042602 -0.077481
v -0.095779 0.032795 -0.066862
v -0.133822 0.036780 -0.015370
v 0.003395 0.000000 -0.020145
v -0.022198 0.075012 -0.127717
v -0.045950 0.000000 -0.011934
v -0.088691 0.082999 -0.118812
v -0.078495 0.095508 -0.180643
v 0.003388 0.047531 -0.072348
v -0.075291 0.056947 -0.061787
v 0.013980 0.000000 0.010019
v 0.092401 0.093171 -0.052495
v -0.019883 0.000000 -0.026800
v 0.048950 0.104526 -0.100087
v 0.108051 0.130136 -0.112488
v 0.058098 0.051850 -0.014510
v 0.006673 0.065285 -0.070774
v 0.072287 0.000000 -0.024004
v 0.131638 0.042045 -0.090802
v 0.044536 0.000000 -0.053376
v 0.094981 0.045389 -0.130700
v 0.140799 0.042029 -0.151540
v 0.106410 0.032556 -0.049359
v 0.063030 0.036499 -0.096549
v -0.094024 0.000000 0.030463
v -0.094024 0.000000 -0.001173
v -0.062388 0.000000 0.030463
v -0.108369 0.043994 0.035208
v -0.131281 0.095839 0.052161
v -0.079016 0.055796 0.035208
v -0.109760 0.047455 0.004017
v -0.134064 0.102761 0.021416
v -0.080407 0.059257 0.004017
v -0.062387 0.000000 -0.001173
v -0.104711 0.114562 0.021416
v -0.101928 0.107640 0.052161
v 0.009824 0.000000 0.043517
v -0.020045 0.000000 0.033088
v 0.020252 0.000000 0.013649
v 0.009575 0.043994 0.058624
v 0.018027 0.095839 0.085844
v 0.019250 0.055796 0.030912
v -0.020331 0.047455 0.049656
v -0.011916 0.102760 0.078337
v -0.010655 0.059257 0.021944
v -0.009616 0.000000 0.003220
v -0.002240 0.114562 0.050624
v 0.027703 0.107640 0.058131
vn -0.0208 0.9519 -0.3056
vn 0.1573 0.9259 0.3434
vn 0.5679 0.8086 -0.1540
vn 0.6965 0.5914 0.4064
vn -0.3160 0.6724 0.6694
vn -0.4629 0.8793 0.1123
vn 0.2580 0.5276 0.8094
vn -0.0241 0.6292 0.7769
vn -0.1570 0.1738 0.9722
vn 0.6447 0.0946 0.7586
vn 0.1141 0.6128 0.7820
vn -0.2499 -0.2546 0.9342
vn 0.5441 -0.2589 0.7981
vn 0.9994 0.0040 0.0333
vn -0.8562 0.4360 -0.2771
vn -0.8844 0.1042 0.4549
vn -0.7760 0.3897 0.4960
vn 0.4243 0.6437 0.6369
vn 0.6667 0.1030 0.7381
vn 0.9440 0.3283 -0.0328
vn 0.5015 0.6904 0.5213
vn 0.6606 -0.4264 0.6179
vn 0.9880 -0.0841 -0.1299
vn 0.4960 0.3647 -0.7880
vn -0.7139 0.0872 0.6947
vn -0.0761 -0.3043 0.9495
vn -0.0554 0.0461 0.9974
vn 0.6799 0.7063 0.1971
vn 0.9461 0.3229 -0.0249
vn 0.5103 0.6333 -0.5819
vn 0.6362 0.7643 0.1050
vn 0.9619 -0.0798 -0.2615
vn 0.4837 0.3728 -0.7919
vn -0.3763 0.5789 -0.7234
vn 0.1344 -0.1813 0.9742
vn 0.7988 -0.2770 0.5340
vn 0.7790 0.0161 0.6268
vn 0.3022 0.9500 -0.0790
vn 0.3340 0.7168 -0.6121
vn -0.4609 0.7532 -0.4693
vn 0.1851 0.9797 -0.0775
vn 0.2965 0.3108 -0.9031
vn -0.5930 0.4360 -0.6769
vn -0.9524 0.3040 0.0235
vn 0.9569 0.0149 0.2900
vn 0.9100 0.1628 -0.3814
vn 0.8810 0.4231 -0.2117
vn -0.1549 0.9873 -0.0359
vn -0.4938 0.7552 -0.4310
vn -0.7736 0.5827 0.2490
vn -0.2242 0.9721 0.0682
vn -0.6896 0.3492 -0.6345
vn -0.9327 0.2821 0.2245
vn -0.5449 0.0944 0.8332
vn 0.8525 0.1817 -0.4901
vn 0.1748 0.3536 -0.9189
vn 0.2363 0.6384 -0.7326
vn -0.2763 0.8829 0.3798
vn -0.7396 0.5744 0.3508
vn -0.2847 0.2921 0.9130
vn -0.2223 0.8429 0.4900
vn -0.9461 0.1572 0.2831
vn -0.3639 -0.0421 0.9305
vn 0.4016 -0.1538 0.9028
vn 0.0490 0.4403 -0.8965
vn -0.7151 0.4238 -0.5558
vn -0.5591 0.7071 -0.4328
vn -0.5502 -0.4736 -0.6877
vn -0.2337 -0.6961 -0.6789
vn -0.5339 -0.7417 -0.4061
vn -0.5991 -0.5186 -0.6100
vn -0.7694 -0.6224 -0.1435
vn -0.4438 -0.8899 -0.1057
vn -0.7481 -0.6585 -0.0825
vn -0.2955 -0.9395 0.1733
vn -0.0544 -0.9977 -0.0407
vn -0.2130 -0.9633 0.1636
vn 0.1468 -0.9573 -0.2489
vn 0.2617 -0.9651 0.0127
vn 0.2206 -0.9722 0.0786
vn 0.3404 -0.8518 -0.3982
vn 0.0741 -0.8315 -0.5505
vn 0.3091 -0.8299 -0.4644
vn 0.0747 -0.5544 -0.8289
vn 0.0116 -0.5298 -0.8480
vn -0.1614 -0.9282 -0.3353
vn 0.3954 -0.8801 -0.2629
vn -0.4538 0.4782 0.7519
vn -0.6796 0.7334 0.0139
vn 0.1362 -0.9690 0.2062
vn -0.0783 0.8250 -0.5597
vn -0.4618 -0.8666 0.1892
vn 0.7020 0.6353 -0.3220
vn -0.8007 -0.5349 -0.2699
vn 0.8336 0.3710 0.4093
vn 0.1959 -0.5942 -0.7801
vn 0.2804 0.3034 0.9107
vn -0.4143 -0.3500 -0.8402
vn -0.6997 0.0233 0.7141
vn -0.7252 -0.0315 0.6879
vn -0.6905 0.0349 -0.7225
vn -0.7132 -0.0193 -0.7007
vn 0.6997 0.0233 0.7141
vn 0.7252 -0.0315 0.6879
vn 0.7314 -0.0845 0.6767
vn -0.7314 -0.0845 0.6767
vn -0.6800 0.0907 -0.7276
vn 0.6905 0.0349 -0.7225
vn 0.7132 -0.0193 -0.7007
vn 0.6800 0.0907 -0.7276
vn 0.2679 0.9624 0.0453
vn -0.2442 0.8494 0.4678
vn 0.3803 0.7022 0.6019
vn -0.0726 0.4185 0.9053
vn -0.7402 0.6591 0.1326
vn -0.2981 0.9359 -0.1878
vn -0.6235 0.4012 0.6710
vn -0.7138 0.5547 0.4275
vn -0.9470 0.1162 0.2996
vn -0.4134 -0.0888 0.9062
vn -0.6597 0.5131 0.5490
vn -0.9520 -0.2835 0.1155
vn -0.4919 -0.4202 0.7625
vn 0.3938 -0.1803 0.9013
vn -0.1123 0.6060 -0.7875
vn -0.7871 0.2239 -0.5747
vn -0.7783 0.4804 -0.4043
vn -0.3967 0.4995 0.7701
vn -0.3856 -0.0828 0.9189
vn 0.4302 0.1531 0.8897
vn -0.2594 0.5411 0.8000
vn -0.2793 -0.5901 0.7575
vn 0.5368 -0.2506 0.8057
vn 0.9240 0.3343 0.1857
vn -0.9320 0.1560 -0.3272
vn -0.8922 -0.3650 0.2661
vn -0.9267 -0.0296 0.3746
vn 0.1099 0.5519 0.8267
vn 0.4239 0.1468 0.8937
vn 0.7434 0.5773 0.3378
vn 0.1748 0.6244 0.7613
vn 0.6449 -0.2305 0.7287
vn 0.9223 0.3448 0.1747
vn 0.4954 0.6969 -0.5185
vn -0.8252 -0.2849 0.4878
vn -0.1447 -0.4617 0.8751
vn -0.2371 -0.1789 0.9549
vn 0.1998 0.8826 0.4257
vn 0.6960 0.6937 0.1856
vn 0.2295 0.8614 -0.4531
vn 0.1487 0.9328 0.3283
vn 0.9436 0.3274 -0.0500
vn 0.3614 0.5923 -0.7201
vn -0.4253 0.4686 -0.7743
vn 0.1433 -0.1836 0.9725
vn 0.7314 0.0268 0.6814
vn 0.5655 0.2726 0.7784
vn -0.0332 0.9984 0.0454
vn 0.1808 0.8662 -0.4659
vn -0.5536 0.6901 -0.4662
vn -0.1569 0.9873 0.0242
vn 0.2820 0.5211 -0.8055
vn -0.5990 0.4265 -0.6777
vn -0.9856 0.1205 -0.1182
vn 0.8055 0.0650 0.5891
vn 0.9063 0.3929 -0.1560
vn 0.7636 0.6448 0.0331
vn -0.4611 0.8828 0.0896
vn -0.6314 0.6672 -0.3953
vn -0.9476 0.2602 0.1854
vn -0.5380 0.8245 0.1753
vn -0.6577 0.3016 -0.6903
vn -0.9970 -0.0543 0.0554
vn -0.6472 -0.3004 0.7007
vn 0.8326 0.4987 -0.2409
vn 0.2000 0.5923 -0.7805
vn 0.1548 0.8310 -0.5342
vn 0.3894 -0.3057 -0.8689
vn 0.5156 -0.5818 -0.6290
vn 0.1413 -0.5952 -0.7910
vn 0.2983 -0.3475 -0.8890
vn -0.1964 -0.4580 -0.8670
vn -0.0926 -0.7823 -0.6159
vn -0.2426 -0.5024 -0.8299
vn -0.2823 -0.8815 -0.3785
vn 0.0138 -0.9641 -0.2651
vn -0.2385 -0.9190 -0.3140
vn 0.2877 -0.9434 -0.1650
vn 0.0995 -0.9941 0.0441
vn 0.0224 -0.9992 0.0336
vn 0.5050 -0.8624 -0.0342
vn 0.5300 -0.7813 -0.3297
vn 0.5517 -0.8297 -0.0851
vn 0.7823 -0.4863 -0.3893
vn 0.7729 -0.4491 -0.4483
vn 0.2352 -0.8516 -0.4685
vn 0.4058 -0.9116 0.0652
vn -0.8734 0.4869 0.0057
vn -0.3009 0.8407 -0.4502
vn -0.1289 -0.9916 0.0124
vn 0.4736 0.8700 -0.1368
vn -0.3672 -0.7813 -0.5047
vn 0.5894 0.5224 0.6163
vn -0.0953 -0.3558 -0.9297
vn -0.0170 0.1774 0.9840
vn 0.7895 -0.5514 -0.2695
vn -0.7058 0.1690 0.6880
vn 0.5851 -0.1963 -0.7868
vn 0.1425 0.9837 -0.1093
vn 0.3034 0.7996 0.5182
vn 0.6967 0.7173 0.0002
vn 0.7785 0.3745 0.5037
vn -0.2105 0.5682 0.7955
vn -0.3121 0.9035 0.2936
vn 0.3292 0.3052 0.8936
vn 0.0684 0.4566 0.8870
vn -0.1413 -0.0000 0.9900
vn 0.6393 -0.1670 0.7506
vn 0.2019 0.4168 0.8863
vn -0.3035 -0.3908 0.8690
vn 0.4808 -0.4995 0.7206
vn 0.9856 -0.1686 0.0156
vn -0.7674 0.6184 -0.1693
vn -0.8619 0.1566 0.4822
vn -0.7082 0.4061 0.5774
vn 0.5152 0.4242 0.7447
vn 0.6628 -0.1584 0.7319
vn 0.9858 0.1669 0.0164
vn 0.6009 0.4795 0.6395
vn 0.5707 -0.6447 0.5086
vn 0.9622 -0.2192 -0.1617
vn 0.5622 0.4272 -0.7082
vn -0.7004 0.0641 0.7108
vn -0.1407 -0.4707 0.8710
vn -0.0628 -0.1453 0.9874
vn 0.7846 0.5300 0.3218
vn 0.9869 0.1598 0.0231
vn 0.6176 0.6430 -0.4530
vn 0.7526 0.6116 0.2439
vn 0.9393 -0.1845 -0.2893
vn 0.5514 0.4378 -0.7101
vn -0.2634 0.7658 -0.5866
vn 0.0870 -0.3918 0.9159
vn 0.7331 -0.5066 0.4537
vn 0.7608 -0.2388 0.6034
vn 0.4571 0.8830 0.1066
vn 0.4581 0.7589 -0.4628
vn -0.3219 0.8975 -0.3014
vn 0.3465 0.9308 0.1160
vn 0.3583 0.4311 -0.8281
vn -0.5016 0.6545 -0.5657
vn -0.8889 0.4469 0.1006
vn 0.9414 -0.2022 0.2700
vn 0.9303 0.0823 -0.3575
vn 0.9423 0.3046 -0.1388
vn 0.0118 0.9863 0.1644
vn -0.3546 0.8973 -0.2629
vn -0.6699 0.6414 0.3739
vn -0.0606 0.9624 0.2647
vn -0.6240 -0.3182 -0.7137
vn -0.8298 -0.5427 0.1303
vn -0.5348 0.0154 0.8449
vn 0.8785 0.1318 -0.4592
vn 0.2456 0.4958 -0.8330
vn 0.3506 0.7234 -0.5947
vn -0.1317 0.8227 0.5530
vn -0.6393 0.6075 0.4714
vn -0.2467 0.1472 0.9579
vn -0.0869 0.7531 0.6521
vn -0.9112 0.2523 0.3256
vn -0.3806 -0.1659 0.9097
vn 0.3561 -0.3953 0.8467
vn 0.1356 0.5959 -0.7915
vn -0.6259 0.6389 -0.4473
vn -0.4269 0.8621 -0.2731
vn -0.6103 -0.2289 -0.7584
vn -0.3353 -0.4980 -0.7997
vn -0.6432 -0.5467 -0.5362
vn -0.6672 -0.2797 -0.6904
vn -0.8598 -0.4448 -0.2509
vn -0.5837 -0.7647 -0.2730
vn -0.8457 -0.4953 -0.1988
vn -0.4502 -0.8928 -0.0123
vn -0.2188 -0.9464 -0.2378
vn -0.3726 -0.9276 -0.0279
vn -0.0103 -0.8993 -0.4373
vn 0.2004 -0.7997 -0.5660
vn -0.0564 -0.7055 -0.7064
vn 0.1743 -0.7601 -0.6260
vn -0.0053 -0.3825 -0.9240
vn -0.0632 -0.3444 -0.9367
vn -0.3080 -0.8027 -0.5107
vn 0.2478 -0.8631 -0.4401
vn -0.3799 0.3871 0.8401
vn -0.5485 0.8183 0.1720
vn -0.0300 -0.9995 0.0064
vn 0.0688 0.9214 -0.3825
vn -0.6023 -0.7980 0.0209
vn 0.8028 0.5613 -0.2014
vn -0.8740 -0.3299 -0.3568
vn 0.8770 0.1383 0.4601
vn 0.1068 -0.4507 -0.8863
vn 0.3124 0.0648 0.9477
vn -0.4533 -0.1016 -0.8856
vn 0.9628 0.2249 -0.1500
vn 0.6426 0.7587 0.1070
vn 0.8501 0.2494 0.4639
vn 0.4036 0.6124 0.6798
vn 0.1945 0.9350 -0.2964
vn 0.6280 0.5707 -0.5291
vn 0.0843 0.9497 0.3016
vn 0.1464 0.9892 0.0091
vn -0.3594 0.9316 -0.0543
vn -0.2041 0.6638 0.7195
vn 0.1499 0.9776 0.1479
vn -0.7199 0.6854 -0.1091
vn -0.5404 0.5228 0.6593
vn 0.1319 -0.0243 0.9910
vn 0.3865 0.0318 -0.9218
vn -0.2663 0.4922 -0.8288
vn -0.0272 0.6672 -0.7444
vn 0.2938 0.8518 0.4337
vn -0.1835 0.6494 0.7380
vn 0.4339 0.0875 0.8967
vn 0.4025 0.7723 0.4915
vn -0.5767 0.2762 0.7688
vn 0.1364 -0.2087 0.9684
vn 0.7768 -0.5172 0.3592
vn -0.3758 0.6799 -0.6297
vn -0.7448 0.6637 0.0693
vn -0.4663 0.8825 0.0616
vn 0.6038 0.4924 0.6269
vn 0.4256 0.0915 0.9003
vn 0.9055 -0.2041 0.3721
vn 0.6930 0.4453 0.5670
vn 0.2019 -0.3180 0.9263
vn 0.7839 -0.5158 0.3457
vn 0.8009 -0.3045 -0.5155
vn -0.6215 0.7360 0.2683
vn -0.3872 0.2729 0.8807
vn -0.1859 0.5033 0.8439
vn 0.8949 0.4006 0.1967
vn 0.9663 -0.1777 0.1862
vn 0.8108 0.0071 -0.5853
vn 0.9025 0.4234 0.0783
vn 0.7592 -0.6326 0.1534
vn 0.6242 -0.3257 -0.7101
vn 0.1097 0.2277 -0.9675
vn 0.0070 0.2039 0.9790
vn 0.4615 -0.2942 0.8369
vn 0.5950 -0.0141 0.8036
vn 0.8389 0.4817 -0.2533
vn 0.7886 0.0429 -0.6134
vn 0.2613 0.5536 -0.7907
vn 0.7640 0.5672 -0.3077
vn 0.5148 -0.3283 -0.7919
vn -0.0064 0.3879 -0.9217
vn -0.4142 0.7931 -0.4466
vn 0.5236 -0.3746 0.7652
vn 0.7860 -0.6176 0.0270
vn 0.9452 -0.3157 0.0827
vn 0.5247 0.7918 -0.3127
vn 0.2084 0.6349 -0.7440
vn -0.2474 0.9482 -0.1991
vn 0.4434 0.8630 -0.2422
vn -0.1443 0.3752 -0.9157
vn -0.5531 0.7970 -0.2428
vn -0.5236 0.6741 0.5210
vn 0.8306 -0.5472 -0.1029
vn 0.5357 -0.2213 -0.8149
vn 0.7390 0.0203 -0.6734
vn -0.1413 -0.8017 -0.5808
vn -0.2899 -0.9250 -0.2455
vn -0.5085 -0.6978 -0.5045
vn -0.2256 -0.7553 -0.6153
vn -0.5719 -0.3986 -0.7170
vn -0.7720 -0.5206 -0.3647
vn -0.6300 -0.3659 -0.6850
vn -0.9320 -0.3147 -0.1797
vn -0.8400 -0.5412 0.0382
vn -0.9355 -0.3396 -0.0970
vn -0.6724 -0.7104 0.2079
vn -0.7929 -0.4961 0.3538
vn -0.8378 -0.4410 0.3219
vn -0.4797 -0.7953 0.3708
vn -0.4250 -0.9010 0.0873
vn -0.4325 -0.8392 0.3298
vn -0.0493 -0.9984 0.0273
vn -0.0278 -0.9988 -0.0397
vn -0.6491 -0.7527 -0.1099
vn -0.5633 -0.6966 0.4442
vn -0.0325 0.9143 -0.4038
vn 0.5210 0.4237 -0.7410
vn -0.9110 -0.3252 0.2536
vn 0.9728 -0.0548 -0.2252
vn -0.9018 -0.2546 -0.3491
vn 0.8053 0.0094 0.5928
vn -0.4386 -0.4606 -0.7717
vn 0.2338 0.4948 0.8370
vn -0.0900 -0.9835 0.1568
vn -0.1545 0.9210 0.3577
vn 0.0601 -0.8769 -0.4770
vn 0.5334 -0.2456 0.8094
vn 0.5370 -0.4666 0.7028
vn -0.5882 0.3443 0.7318
vn -0.7570 0.3733 0.5363
vn -0.5050 0.4215 -0.7532
vn -0.5897 0.2214 -0.7767
vn 0.6616 -0.4360 -0.6101
vn 0.6488 -0.3181 -0.6913
vn 0.8251 -0.3004 -0.4785
vn 0.4025 0.0440 0.9144
vn -0.6263 0.0217 -0.7793
vn -0.8112 0.2877 0.5091
vn -0.2810 0.9496 -0.1392
vn 0.1758 0.9779 0.1132
vn 0.2057 0.9700 0.1293
vn -0.2263 0.9680 -0.1086
vn 0.3908 0.8916 0.2289
vn -0.5752 0.7589 -0.3053
vn 0.2509 0.8572 -0.4498
vn 0.0235 0.9899 -0.1399
vn 0.0064 0.9934 -0.1147
vn 0.2216 0.8840 -0.4115
vn -0.0963 0.9946 0.0381
vn 0.3902 0.6754 -0.6258
vn 0.4801 0.8767 -0.0306
vn 0.1277 0.9901 -0.0577
vn 0.0950 0.9937 -0.0590
vn 0.4221 0.9058 -0.0361
vn -0.0483 0.9968 -0.0638
vn 0.6811 0.7322 -0.0083
vn 0.4125 0.8767 0.2476
vn 0.1378 0.9901 0.0251
vn 0.1117 0.9937 0.0055
vn 0.3679 0.9058 0.2101
vn -0.0035 0.9968 -0.0800
vn 0.5652 0.7322 0.3801
vn 0.1587 0.8147 0.5578
vn 0.1558 0.9314 0.3290
vn 0.1535 0.9403 0.3037
vn 0.1597 0.8429 0.5139
vn 0.1452 0.9648 0.2191
vn 0.1528 0.7122 0.6851
vn -0.4458 0.7097 0.5454
vn -0.3309 0.8039 0.4941
vn -0.3251 0.8089 0.4899
vn -0.4333 0.7206 0.5413
vn -0.2731 0.8492 0.4520
vn -0.5165 0.6426 0.5660
vn -0.2897 0.8984 0.3299
vn -0.0378 0.9923 0.1178
vn -0.0149 0.9952 0.0971
vn -0.2459 0.9235 0.2943
vn 0.0784 0.9969 0.0116
vn -0.4389 0.7789 0.4479
vn -0.6130 -0.2724 0.7416
vn -0.6253 -0.3810 0.6811
vn -0.6788 -0.1128 -0.7256
vn -0.6011 -0.1207 -0.7900
vn 0.7724 0.1746 0.6107
vn 0.7411 0.1389 0.6569
vn 0.7086 0.0832 0.7007
vn -0.5661 -0.4707 0.6768
vn -0.7348 -0.1133 -0.6687
vn 0.6112 0.3657 -0.7019
vn 0.7098 0.2766 -0.6478
vn 0.5762 0.4653 -0.6719
vn 0.4981 -0.2724 0.8232
vn 0.4369 -0.3810 0.8148
vn -0.9088 -0.1128 0.4017
vn -0.9440 -0.1207 0.3071
vn 0.8312 0.1746 -0.5279
vn 0.8645 0.1389 -0.4831
vn 0.8951 0.0832 -0.4380
vn 0.4523 -0.4707 0.7575
vn -0.8736 -0.1133 0.4733
vn -0.4612 0.3657 -0.8084
vn -0.3776 0.2766 -0.8837
vn -0.4444 0.4653 -0.7655
vt 0.251985 0.832841
vt 0.304348 0.862218
vt 0.251985 0.893161
vt 0.304348 0.925777
vt 0.361631 0.828060
vt 0.304348 0.799119
vt 0.361631 0.894320
vt 0.187821 0.225534
vt 0.294409 0.274099
vt 0.294409 0.339332
vt 0.187821 0.339332
vt 0.323571 0.274514
vt 0.323571 0.339332
vt 0.187821 0.367400
vt 0.294409 0.367400
vt 0.187821 0.195689
vt 0.294409 0.195689
vt 0.294409 0.225534
vt 0.323182 0.473947
vt 0.356765 0.462904
vt 0.349568 0.492785
vt 0.325312 0.498272
vt 0.336804 0.529348
vt 0.368659 0.515035
vt 0.359375 0.542240
vt 0.396549 0.543941
vt 0.399527 0.505312
vt 0.416213 0.528839
vt 0.405892 0.477059
vt 0.435708 0.472157
vt 0.437592 0.497984
vt 0.421075 0.440062
vt 0.386161 0.458054
vt 0.398248 0.428334
vt 0.362530 0.428334
vt 0.340684 0.442414
vt 0.377758 0.485193
vt 0.433075 0.464255
vt 0.323571 0.225534
vt 0.414834 0.803001
vt 0.304348 0.743340
vt 0.424439 0.520918
vt 0.202026 0.805155
vt 0.372351 0.543837
vt 0.202026 0.930803
vt 0.324508 0.506024
vt 0.304348 0.984888
vt 0.387532 0.429687
vt 0.414834 0.923996
vt 0.334598 0.451989
vt 0.187528 0.736492
vt 0.187528 0.643000
vt 0.213637 0.642698
vt 0.213637 0.736492
vt 0.269512 0.736492
vt 0.269512 0.643000
vt 0.302935 0.642372
vt 0.302935 0.736492
vt 0.269512 0.565061
vt 0.302935 0.565061
vt 0.187528 0.565061
vt 0.213637 0.565061
vt 0.243403 0.642698
vt 0.243403 0.736492
vt 0.243403 0.565061
vt 0.361189 0.635336
vt 0.417663 0.664827
vt 0.361189 0.695889
vt 0.417663 0.728632
vt 0.471258 0.630537
vt 0.417663 0.601484
vt 0.471258 0.697052
vt 0.188302 0.406379
vt 0.288341 0.455192
vt 0.288341 0.520759
vt 0.188302 0.520759
vt 0.317652 0.455609
vt 0.317652 0.520759
vt 0.188302 0.548970
vt 0.288341 0.548970
vt 0.188302 0.376381
vt 0.288341 0.376381
vt 0.288341 0.406379
vt 0.333975 0.344434
vt 0.367947 0.333263
vt 0.360666 0.363491
vt 0.336129 0.369042
vt 0.347754 0.400479
vt 0.379979 0.386000
vt 0.370587 0.413520
vt 0.408193 0.415241
vt 0.411205 0.376164
vt 0.428086 0.399964
vt 0.417645 0.347583
vt 0.447807 0.342624
vt 0.449713 0.368750
vt 0.433004 0.310156
vt 0.397685 0.328357
vt 0.409912 0.298291
vt 0.373779 0.298291
vt 0.351680 0.312534
vt 0.389184 0.355811
vt 0.445144 0.334629
vt 0.317652 0.406379
vt 0.524666 0.605382
vt 0.417663 0.545489
vt 0.436407 0.391951
vt 0.311037 0.607543
vt 0.383714 0.415136
vt 0.311037 0.733677
vt 0.335316 0.376884
vt 0.417663 0.790316
vt 0.399072 0.299660
vt 0.524666 0.726844
vt 0.345522 0.322221
vt 0.515572 0.867297
vt 0.510801 0.932337
vt 0.452805 0.932337
vt 0.446352 0.867297
vt 0.482467 0.987782
vt 0.504489 0.782225
vt 0.455872 0.782225
s 1
usemtl Forest_Greens
f 3/1/1 6/2/2 42/3/3
f 42/3/3 6/2/2 5/4/4
f 4/5/5 6/2/2 36/6/6
f 54/7/7 6/2/2 4/5/5
f 36/6/6 6/2/2 3/1/1
f 5/4/4 6/2/2 54/7/7
f 2/8/8 50/9/9 8/10/10 53/11/11
f 50/9/9 51/12/12 10/13/13 8/10/10
f 11/14/14 53/11/14 8/10/10 10/15/13
f 2/8/15 52/16/15 9/17/16 7/18/17
f 53/8/18 55/9/19 13/10/20 46/11/21
f 55/9/19 56/12/22 15/13/23 13/10/20
f 49/14/24 46/11/24 13/10/20 15/15/23
f 53/8/25 11/16/25 14/17/26 12/18/27
f 46/8/28 47/9/29 17/10/30 41/11/31
f 47/9/29 48/12/32 19/13/33 17/10/30
f 45/14/34 41/11/34 17/10/30 19/15/33
f 46/8/35 49/16/35 18/17/36 16/18/37
f 41/8/38 43/9/39 21/10/40 1/11/41
f 43/9/39 44/12/42 23/13/43 21/10/40
f 24/14/44 1/11/44 21/10/40 23/15/43
f 41/8/45 45/16/45 22/17/46 20/18/47
f 1/8/48 39/9/49 26/10/50 35/11/51
f 39/9/49 40/12/52 28/13/53 26/10/50
f 29/14/54 35/11/54 26/10/50 28/15/53
f 1/8/55 24/16/55 27/17/56 25/18/57
f 35/8/58 37/9/59 31/10/60 2/11/61
f 37/9/59 38/12/62 33/13/63 31/10/60
f 52/14/64 2/11/64 31/10/60 33/15/63
f 35/8/65 29/16/65 32/17/66 30/18/67
f 56/19/68 11/20/69 49/21/70 15/22/71
f 48/23/72 49/21/70 45/24/73 19/25/74
f 44/26/75 45/24/73 24/27/76 23/28/77
f 24/27/76 29/29/78 28/30/79 40/31/80
f 38/32/81 29/29/78 52/33/82 33/34/83
f 51/35/84 52/33/82 11/20/69 10/36/85
f 52/33/82 34/37/86 11/20/69
f 24/27/76 34/37/86 29/29/78
f 49/21/70 34/37/86 45/24/73
f 29/29/78 34/37/86 52/33/82
f 45/24/73 34/37/86 24/27/76
f 11/20/69 34/37/86 49/21/70
f 32/38/87 29/29/78 38/32/81
f 30/18/67 32/39/66 38/12/62 37/9/59
f 35/8/58 30/18/67 37/9/59
f 2/40/88 4/5/5 36/6/6 35/41/89
f 24/27/76 40/31/80 27/42/90
f 25/18/57 27/39/56 40/12/52 39/9/49
f 1/8/48 25/18/57 39/9/49
f 35/41/89 36/6/6 3/1/1 1/43/91
f 22/44/92 45/24/73 44/26/75
f 20/18/47 22/39/46 44/12/42 43/9/39
f 41/8/38 20/18/47 43/9/39
f 1/43/91 3/1/1 42/3/3 41/45/93
f 18/46/94 49/21/70 48/23/72
f 16/18/37 18/39/36 48/12/32 47/9/29
f 46/8/28 16/18/37 47/9/29
f 41/45/93 42/3/3 5/4/4 46/47/95
f 9/48/96 52/33/82 51/35/84
f 7/18/17 9/39/16 51/12/12 50/9/9
f 2/8/8 7/18/17 50/9/9
f 53/49/97 54/7/7 4/5/5 2/40/88
f 14/50/98 11/20/69 56/19/68
f 12/18/27 14/39/26 56/12/22 55/9/19
f 53/8/18 12/18/27 55/9/19
f 46/47/95 5/4/4 54/7/7 53/49/97
f 57/51/99 60/52/100 63/53/101 58/54/102
f 59/55/103 62/56/104 60/57/100 57/58/99
f 62/56/104 68/59/105 61/60/106 60/57/100
f 60/52/100 61/61/106 64/62/107 63/53/101
f 58/54/102 63/53/101 65/63/108 66/64/109
f 63/53/101 64/62/107 67/65/110 65/63/108
f 66/64/109 65/63/108 62/56/104 59/55/103
f 65/63/108 67/65/110 68/59/105 62/56/104
f 71/66/111 74/67/112 110/68/113
f 110/68/113 74/67/112 73/69/114
f 72/70/115 74/67/112 104/71/116
f 122/72/117 74/67/112 72/70/115
f 104/71/116 74/67/112 71/66/111
f 73/69/114 74/67/112 122/72/117
f 70/73/118 118/74/119 76/75/120 121/76/121
f 118/74/119 119/77/122 78/78/123 76/75/120
f 79/79/124 121/76/124 76/75/120 78/80/123
f 70/73/125 120/81/125 77/82/126 75/83/127
f 121/73/128 123/74/129 81/75/130 114/76/131
f 123/74/129 124/77/132 83/78/133 81/75/130
f 117/79/134 114/76/134 81/75/130 83/80/133
f 121/73/135 79/81/135 82/82/136 80/83/137
f 114/73/138 115/74/139 85/75/140 109/76/141
f 115/74/139 116/77/142 87/78/143 85/75/140
f 113/79/144 109/76/144 85/75/140 87/80/143
f 114/73/145 117/81/145 86/82/146 84/83/147
f 109/73/148 111/74/149 89/75/150 69/76/151
f 111/74/149 112/77/152 91/78/153 89/75/150
f 92/79/154 69/76/154 89/75/150 91/80/153
f 109/73/155 113/81/155 90/82/156 88/83/157
f 69/73/158 107/74/159 94/75/160 103/76/161
f 107/74/159 108/77/162 96/78/163 94/75/160
f 97/79/164 103/76/164 94/75/160 96/80/163
f 69/73/165 92/81/165 95/82/166 93/83/167
f 103/73/168 105/74/169 99/75/170 70/76/171
f 105/74/169 106/77/172 101/78/173 99/75/170
f 120/79/174 70/76/174 99/75/170 101/80/173
f 103/73/175 97/81/175 100/82/176 98/83/177
f 124/84/178 79/85/179 117/86/180 83/87/181
f 116/88/182 117/86/180 113/89/183 87/90/184
f 112/91/185 113/89/183 92/92/186 91/93/187
f 92/92/186 97/94/188 96/95/189 108/96/190
f 106/97/191 97/94/188 120/98/192 101/99/193
f 119/100/194 120/98/192 79/85/179 78/101/195
f 120/98/192 102/102/196 79/85/179
f 92/92/186 102/102/196 97/94/188
f 117/86/180 102/102/196 113/89/183
f 97/94/188 102/102/196 120/98/192
f 113/89/183 102/102/196 92/92/186
f 79/85/179 102/102/196 117/86/180
f 100/103/197 97/94/188 106/97/191
f 98/83/177 100/104/176 106/77/172 105/74/169
f 103/73/168 98/83/177 105/74/169
f 70/105/198 72/70/115 104/71/116 103/106/199
f 92/92/186 108/96/190 95/107/200
f 93/83/167 95/104/166 108/77/162 107/74/159
f 69/73/158 93/83/167 107/74/159
f 103/106/199 104/71/116 71/66/111 69/108/201
f 90/109/202 113/89/183 112/91/185
f 88/83/157 90/104/156 112/77/152 111/74/149
f 109/73/148 88/83/157 111/74/149
f 69/108/201 71/66/111 110/68/113 109/110/203
f 86/111/204 117/86/180 116/88/182
f 84/83/147 86/104/146 116/77/142 115/74/139
f 114/73/138 84/83/147 115/74/139
f 109/110/203 110/68/113 73/69/114 114/112/205
f 77/113/206 120/98/192 119/100/194
f 75/83/127 77/104/126 119/77/122 118/74/119
f 70/73/118 75/83/127 118/74/119
f 121/114/207 122/72/117 72/70/115 70/105/198
f 82/115/208 79/85/179 124/84/178
f 80/83/137 82/104/136 124/77/132 123/74/129
f 121/73/128 80/83/137 123/74/129
f 114/112/205 73/69/114 122/72/117 121/114/207
f 127/66/209 130/67/210 166/68/211
f 166/68/211 130/67/210 129/69/212
f 128/70/213 130/67/210 160/71/214
f 178/72/215 130/67/210 128/70/213
f 160/71/214 130/67/210 127/66/209
f 129/69/212 130/67/210 178/72/215
f 126/73/216 174/74/217 132/75/218 177/76/219
f 174/74/217 175/77/220 134/78/221 132/75/218
f 135/79/222 177/76/222 132/75/218 134/80/221
f 126/73/223 176/81/223 133/82/224 131/83/225
f 177/73/226 179/74/227 137/75/228 170/76/229
f 179/74/227 180/77/230 139/78/231 137/75/228
f 173/79/232 170/76/232 137/75/228 139/80/231
f 177/73/233 135/81/233 138/82/234 136/83/235
f 170/73/236 171/74/237 141/75/238 165/76/239
f 171/74/237 172/77/240 143/78/241 141/75/238
f 169/79/242 165/76/242 141/75/238 143/80/241
f 170/73/243 173/81/243 142/82/244 140/83/245
f 165/73/246 167/74/247 145/75/248 125/76/249
f 167/74/247 168/77/250 147/78/251 145/75/248
f 148/79/252 125/76/252 145/75/248 147/80/251
f 165/73/253 169/81/253 146/82/254 144/83/255
f 125/73/256 163/74/257 150/75/258 159/76/259
f 163/74/257 164/77/260 152/78/261 150/75/258
f 153/79/262 159/76/262 150/75/258 152/80/261
f 125/73/263 148/81/263 151/82/264 149/83/265
f 159/73/266 161/74/267 155/75/268 126/76/269
f 161/74/267 162/77/270 157/78/271 155/75/268
f 176/79/272 126/76/272 155/75/268 157/80/271
f 159/73/273 153/81/273 156/82/274 154/83/275
f 180/84/276 135/85/277 173/86/278 139/87/279
f 172/88/280 173/86/278 169/89/281 143/90/282
f 168/91/283 169/89/281 148/92/284 147/93/285
f 148/92/284 153/94/286 152/95/261 164/96/260
f 162/97/287 153/94/286 176/98/288 157/99/289
f 175/100/290 176/98/288 135/85/277 134/101/291
f 176/98/288 158/102/292 135/85/277
f 148/92/284 158/102/292 153/94/286
f 173/86/278 158/102/292 169/89/281
f 153/94/286 158/102/292 176/98/288
f 169/89/281 158/102/292 148/92/284
f 135/85/277 158/102/292 173/86/278
f 156/103/293 153/94/286 162/97/287
f 154/83/275 156/104/274 162/77/270 161/74/267
f 159/73/266 154/83/275 161/74/267
f 126/105/294 128/70/213 160/71/214 159/106/295
f 148/92/284 164/96/260 151/107/296
f 149/83/265 151/104/264 164/77/260 163/74/257
f 125/73/256 149/83/265 163/74/257
f 159/106/295 160/71/214 127/66/209 125/108/297
f 146/109/298 169/89/281 168/91/283
f 144/83/255 146/104/254 168/77/250 167/74/247
f 165/73/246 144/83/255 167/74/247
f 125/108/297 127/66/209 166/68/211 165/110/299
f 142/111/300 173/86/278 172/88/280
f 140/83/245 142/104/244 172/77/240 171/74/237
f 170/73/236 140/83/245 171/74/237
f 165/110/299 166/68/211 129/69/212 170/112/301
f 133/113/302 176/98/288 175/100/290
f 131/83/225 133/104/224 175/77/220 174/74/217
f 126/73/216 131/83/225 174/74/217
f 177/114/303 178/72/215 128/70/213 126/105/294
f 138/115/304 135/85/277 180/84/276
f 136/83/235 138/104/234 180/77/230 179/74/227
f 177/73/226 136/83/235 179/74/227
f 170/112/301 129/69/212 178/72/215 177/114/303
f 183/66/305 186/67/306 222/68/307
f 222/68/307 186/67/306 185/69/308
f 184/70/309 186/67/306 216/71/310
f 234/72/311 186/67/306 184/70/309
f 216/71/310 186/67/306 183/66/305
f 185/69/308 186/67/306 234/72/311
f 182/73/312 230/74/313 188/75/314 233/76/315
f 230/74/313 231/77/316 190/78/317 188/75/314
f 191/79/318 233/76/318 188/75/314 190/80/317
f 182/73/319 232/81/319 189/82/320 187/83/321
f 233/73/322 235/74/323 193/75/324 226/76/325
f 235/74/323 236/77/326 195/78/327 193/75/324
f 229/79/328 226/76/328 193/75/324 195/80/327
f 233/73/329 191/81/329 194/82/330 192/83/331
f 226/73/332 227/74/333 197/75/334 221/76/335
f 227/74/333 228/77/336 199/78/337 197/75/334
f 225/79/338 221/76/338 197/75/334 199/80/337
f 226/73/339 229/81/339 198/82/340 196/83/341
f 221/73/342 223/74/343 201/75/344 181/76/345
f 223/74/343 224/77/346 203/78/347 201/75/344
f 204/79/348 181/76/348 201/75/344 203/80/347
f 221/73/349 225/81/349 202/82/350 200/83/351
f 181/73/352 219/74/353 206/75/354 215/76/355
f 219/74/353 220/77/356 208/78/357 206/75/354
f 209/79/358 215/76/358 206/75/354 208/80/357
f 181/73/359 204/81/359 207/82/360 205/83/361
f 215/73/362 217/74/363 211/75/364 182/76/365
f 217/74/363 218/77/366 213/78/367 211/75/364
f 232/79/368 182/76/368 211/75/364 213/80/367
f 215/73/369 209/81/369 212/82/370 210/83/371
f 236/84/372 191/85/373 229/86/374 195/87/375
f 228/88/376 229/86/374 225/89/377 199/90/378
f 224/91/379 225/89/377 204/92/380 203/93/381
f 204/92/380 209/94/382 208/95/383 220/96/384
f 218/97/385 209/94/382 232/98/386 213/99/387
f 231/100/388 232/98/386 191/85/373 190/101/389
f 232/98/386 214/102/390 191/85/373
f 204/92/380 214/102/390 209/94/382
f 229/86/374 214/102/390 225/89/377
f 209/94/382 214/102/390 232/98/386
f 225/89/377 214/102/390 204/92/380
f 191/85/373 214/102/390 229/86/374
f 212/103/391 209/94/382 218/97/385
f 210/83/371 212/104/370 218/77/366 217/74/363
f 215/73/362 210/83/371 217/74/363
f 182/105/392 184/70/309 216/71/310 215/106/393
f 204/92/380 220/96/384 207/107/394
f 205/83/361 207/104/360 220/77/356 219/74/353
f 181/73/352 205/83/361 219/74/353
f 215/106/393 216/71/310 183/66/305 181/108/395
f 202/109/396 225/89/377 224/91/379
f 200/83/351 202/104/350 224/77/346 223/74/343
f 221/73/342 200/83/351 223/74/343
f 181/108/395 183/66/305 222/68/307 221/110/397
f 198/111/398 229/86/374 228/88/376
f 196/83/341 198/104/340 228/77/336 227/74/333
f 226/73/332 196/83/341 227/74/333
f 221/110/397 222/68/307 185/69/308 226/112/399
f 189/113/400 232/98/386 231/100/388
f 187/83/321 189/104/320 231/77/316 230/74/313
f 182/73/312 187/83/321 230/74/313
f 233/114/401 234/72/311 184/70/309 182/105/392
f 194/115/402 191/85/373 236/84/372
f 192/83/331 194/104/330 236/77/326 235/74/323
f 233/73/322 192/83/331 235/74/323
f 226/112/399 185/69/308 234/72/311 233/114/401
f 245/52/403 238/61/404 240/62/405 246/53/406
f 246/53/406 240/62/405 244/65/407 247/63/408
f 247/63/408 244/65/407 242/59/409 248/56/410
f 248/56/410 242/59/409 238/60/404 245/57/403
f 241/55/411 248/56/410 245/57/403 237/58/412
f 243/64/413 247/63/408 248/56/410 241/55/411
f 239/54/414 246/53/406 247/63/408 243/64/413
f 237/51/412 245/52/403 246/53/406 239/54/414
f 254/116/415 250/117/416 252/118/417 255/119/418
f 252/118/417 250/117/416 253/120/419
f 249/121/420 254/116/415 255/119/418 251/122/420
f 261/116/421 257/117/422 259/118/423 262/119/424
f 259/118/423 257/117/422 260/120/425
f 256/121/426 261/116/421 262/119/424 258/122/426
f 268/116/427 264/117/428 266/118/429 269/119/430
f 266/118/429 264/117/428 267/120/431
f 263/121/432 268/116/427 269/119/430 265/122/432
f 275/116/433 271/117/434 273/118/435 276/119/436
f 273/118/435 271/117/434 274/120/437
f 270/121/438 275/116/433 276/119/436 272/122/438
f 282/116/439 278/117/440 280/118/441 283/119/442
f 280/118/441 278/117/440 281/120/443
f 277/121/444 282/116/439 283/119/442 279/122/444
f 289/116/445 285/117/446 287/118/447 290/119/448
f 287/118/447 285/117/446 288/120/449
f 284/121/450 289/116/445 290/119/448 286/122/450
f 296/116/451 292/117/452 294/118/453 297/119/454
f 294/118/453 292/117/452 295/120/455
f 291/121/456 296/116/451 297/119/454 293/122/456
f 298/51/457 301/52/458 304/53/459 299/54/460
f 300/55/461 303/56/462 301/57/458 298/58/457
f 303/56/462 309/59/463 302/60/464 301/57/458
f 301/52/458 302/61/464 305/62/465 304/53/459
f 299/54/460 304/53/459 306/63/466 307/64/467
f 304/53/459 305/62/465 308/65/468 306/63/466
f 307/64/467 306/63/466 303/56/462 300/55/461
f 306/63/466 308/65/468 309/59/463 303/56/462
f 310/51/469 313/52/470 316/53/471 311/54/472
f 312/55/473 315/56/474 313/57/470 310/58/469
f 315/56/474 321/59/475 314/60/476 313/57/470
f 313/52/470 314/61/476 317/62/477 316/53/471
f 311/54/472 316/53/471 318/63/478 319/64/479
f 316/53/471 317/62/477 320/65/480 318/63/478
f 319/64/479 318/63/478 315/56/474 312/55/473
f 318/63/478 320/65/480 321/59/475 315/56/474
