# Blender 4.4.3
# www.blender.org
mtllib Forest_Grass_03.mtl
o Forest_Grass_03
v -0.024086 0.192360 -0.005685
v 0.004694 0.197963 -0.010378
v -0.031988 0.249914 -0.006987
v 0.022788 0.137541 -0.010036
v -0.020787 0.131628 0.000946
v -0.019298 0.000021 0.004817
v 0.025039 0.000021 0.000898
v -0.067026 0.163811 -0.056730
v -0.073938 0.199291 -0.070640
v -0.047038 0.175614 -0.057323
v 0.007895 0.000021 -0.023053
v -0.032360 0.000021 -0.010928
v -0.047495 0.067532 -0.026182
v -0.005113 0.078863 -0.033567
v -0.080973 0.111102 0.044715
v -0.068727 0.072143 0.013681
v -0.048203 0.083193 0.035882
v -0.038518 0.000021 -0.005093
v -0.020185 0.000021 0.017471
v -0.040262 0.100190 0.104028
v -0.029495 0.055975 0.043985
v -0.001778 0.061689 0.055278
v 0.013661 0.000021 0.023542
v -0.021988 0.000021 0.018142
v 0.034747 0.000021 0.000290
v 0.024947 0.036389 0.046794
v 0.016286 0.000021 0.024691
v 0.044683 0.032912 0.028072
v 0.052492 0.057648 0.073048
v 0.023274 0.066714 -0.046506
v 0.010921 0.000021 -0.027114
v 0.051615 0.117974 -0.074856
v 0.045146 0.064531 -0.023271
v 0.036203 0.000021 0.000867
vn 0.1526 0.0433 0.9873
vn 0.1763 0.0687 0.9819
vn 0.1790 0.0716 0.9812
vn 0.1789 0.0725 0.9812
vn 0.1800 0.0736 0.9809
vn 0.1632 0.0565 0.9850
vn -0.0688 0.3039 0.9502
vn -0.1681 0.3313 0.9284
vn -0.0546 0.2997 0.9525
vn 0.1148 0.2408 0.9638
vn 0.1979 0.2067 0.9582
vn 0.1092 0.2430 0.9639
vn 0.5084 0.5381 -0.6723
vn 0.5532 0.4955 -0.6697
vn 0.3717 0.6471 -0.6657
vn 0.6420 0.3977 -0.6555
vn -0.1869 -0.4611 0.8674
vn -0.1325 -0.6528 0.7458
vn -0.1420 -0.6238 0.7686
vn -0.0708 -0.8092 0.5832
vn 0.4160 -0.7553 0.5064
vn 0.5919 -0.5696 0.5702
vn 0.4904 -0.6869 0.5364
vn 0.2567 -0.8650 0.4312
vn -0.6884 0.3266 0.6477
vn -0.6433 0.4393 0.6271
vn -0.6196 0.4883 0.6145
vn -0.5439 0.6159 0.5699
vt 0.129757 0.975223
vt 0.144737 0.811360
vt 0.114551 0.811360
vt 0.153039 0.544243
vt 0.105751 0.544243
vt 0.155665 0.021427
vt 0.102956 0.021427
vt 0.083506 0.420769
vt 0.027153 0.420846
vt 0.053177 0.758430
vt 0.088829 0.022710
vt 0.021934 0.022710
s 1
usemtl Forest_Greens
f 3/1/1 1/2/2 2/3/3
f 2/3/3 1/2/2 5/4/4 4/5/5
f 5/4/4 6/6/6 7/7/6 4/5/5
f 10/3/7 9/1/8 8/2/9
f 13/4/10 12/6/11 11/7/11 14/5/12
f 8/2/9 13/4/10 14/5/12 10/3/7
f 17/8/13 16/9/14 15/10/15
f 19/11/16 18/12/16 16/9/14 17/8/13
f 24/11/17 23/12/17 22/9/18 21/8/19
f 20/10/20 21/8/19 22/9/18
f 26/8/21 27/11/22 25/12/22 28/9/23
f 28/9/23 29/10/24 26/8/21
f 31/12/25 34/11/25 33/8/26 30/9/27
f 32/10/28 30/9/27 33/8/26
