# Blender 4.4.3
# www.blender.org
mtllib Forest_Grass_04.mtl
o Forest_Grass_04
v 0.003814 0.069462 -0.030487
v -0.020356 0.109980 -0.076388
v 0.007845 0.000021 -0.002826
v -0.025744 0.069334 -0.053034
v -0.024621 0.000021 -0.020757
v 0.034086 0.000021 0.002573
v 0.002271 0.000021 0.002579
v 0.061877 0.048207 -0.003985
v 0.029604 0.036142 -0.003727
v 0.043971 0.023383 -0.005005
v -0.022562 0.000021 -0.015118
v -0.012270 0.052545 0.038722
v -0.001985 0.000021 0.010799
v -0.034754 0.052834 0.019027
v -0.029400 0.079610 0.063542
v 0.004208 0.065738 0.039670
v 0.030239 0.068215 0.017019
v 0.023682 0.117508 0.054616
v 0.028036 0.000021 0.004390
v -0.004469 0.000021 0.029041
v -0.045986 0.075673 0.039192
v -0.008565 0.000021 0.036277
v -0.067226 0.092891 0.029228
v -0.031494 0.000021 0.014692
v -0.059349 0.059278 0.023024
v -0.046824 0.033342 -0.024200
v -0.074600 0.059367 -0.018850
v -0.052233 0.000021 0.006019
v -0.062025 0.030772 0.002471
v -0.027237 0.000021 -0.020551
v 0.000880 0.000021 -0.047406
v 0.032193 0.000021 -0.009712
v 0.040755 0.050246 -0.026168
v 0.023904 0.050523 -0.052779
v 0.043666 0.088956 -0.058525
vn -0.5248 0.3688 0.7672
vn -0.5301 0.4111 0.7416
vn -0.5177 0.3230 0.7922
vn -0.5357 0.4730 0.6996
vn -0.0576 -0.0734 -0.9956
vn -0.0586 -0.0787 -0.9952
vn -0.0319 0.0640 -0.9974
vn -0.0772 -0.1806 -0.9805
vn -0.5416 -0.6337 0.5523
vn -0.5805 -0.5794 0.5721
vn -0.6363 -0.4879 0.5976
vn -0.4474 -0.7416 0.4999
vn 0.6254 -0.2972 0.7215
vn 0.6255 -0.2855 0.7261
vn 0.6172 -0.4236 0.6630
vn 0.6226 -0.1827 0.7609
vn -0.5955 -0.3485 0.7238
vn -0.5895 -0.3113 0.7454
vn -0.5920 -0.3260 0.7371
vn -0.5832 -0.2776 0.7634
vn -0.7238 -0.3954 -0.5655
vn -0.7022 -0.4922 -0.5144
vn -0.7034 -0.4881 -0.5168
vn -0.6589 -0.6139 -0.4347
vn -0.7472 0.3559 0.5612
vn -0.7495 0.3940 0.5320
vn -0.7498 0.4032 0.5247
vn -0.7493 0.4570 0.4793
vt 0.027153 0.420846
vt 0.083506 0.420769
vt 0.088829 0.022710
vt 0.021934 0.022710
vt 0.053177 0.758430
s 1
usemtl Forest_Greens
f 1/1/1 4/2/2 5/3/3 3/4/3
f 4/2/2 1/1/1 2/5/4
f 10/1/5 9/2/6 8/5/7
f 6/4/8 7/3/8 9/2/6 10/1/5
f 12/2/9 14/1/10 11/4/11 13/3/11
f 14/1/10 12/2/9 15/5/12
f 16/1/13 17/2/14 18/5/15
f 17/2/14 16/1/13 20/4/16 19/3/16
f 24/4/17 22/3/17 21/2/18 25/1/19
f 23/5/20 25/1/19 21/2/18
f 28/3/21 29/2/22 26/1/23 30/4/21
f 29/2/22 27/5/24 26/1/23
f 32/4/25 33/1/26 34/2/27 31/3/25
f 33/1/26 35/5/28 34/2/27
