# Blender 4.4.3
# www.blender.org
mtllib Forest_Grass_05.mtl
o Forest_Grass_05
v -0.013665 0.051201 0.019962
v 0.006519 0.054893 0.018882
v -0.020421 0.100127 0.019568
v 0.013362 0.000021 0.010599
v -0.009656 0.000021 0.013196
v -0.003820 0.000021 -0.021646
v 0.023382 0.000021 0.011098
v 0.031106 0.042658 -0.003197
v 0.016180 0.050523 -0.026314
v 0.038220 0.080048 -0.031305
v -0.018081 0.034217 -0.016072
v -0.037996 0.056021 -0.008217
v -0.018303 0.000021 0.010544
v -0.026798 0.031492 0.008765
v -0.000466 0.000021 -0.015648
vn 0.0741 -0.0610 0.9954
vn 0.0756 -0.0660 0.9949
vn 0.0507 0.0150 0.9986
vn 0.0951 -0.1303 0.9869
vn -0.7279 0.3381 0.5965
vn -0.6941 0.4062 0.5943
vn -0.6682 0.4521 0.5908
vn -0.6046 0.5489 0.5772
vn -0.8255 -0.3433 -0.4479
vn -0.8037 -0.4378 -0.4031
vn -0.8022 -0.4428 -0.4005
vn -0.7535 -0.5704 -0.3270
vt 0.027153 0.420846
vt 0.083506 0.420769
vt 0.053177 0.758430
vt 0.021934 0.022710
vt 0.088829 0.022710
s 1
usemtl Forest_Greens
f 1/1/1 2/2/2 3/3/3
f 2/2/2 1/1/1 5/4/4 4/5/4
f 7/4/5 8/1/6 9/2/7 6/5/5
f 8/1/6 10/3/8 9/2/7
f 13/5/9 14/2/10 11/1/11 15/4/9
f 14/2/10 12/3/12 11/1/11
