# Blender 4.4.3
# www.blender.org
mtllib Forest_Fern.mtl
o Forest_Fern
v -0.019694 0.120600 0.277921
v 0.002936 0.129870 0.244501
v -0.056556 0.122684 0.270419
v -0.069435 0.133982 0.223761
v -0.038802 0.113824 0.290538
v -0.005356 0.134771 0.217597
v 0.017567 0.131282 0.219121
v 0.031297 0.126232 0.194351
v 0.015899 0.130806 0.165922
v 0.038455 0.127786 0.175079
v 0.045099 0.122566 0.157004
v 0.022104 0.121657 0.130562
v 0.048374 0.116813 0.129870
v -0.050020 0.137179 0.207139
v -0.077882 0.138050 0.200851
v -0.085365 0.132455 0.163172
v -0.084832 0.132436 0.151422
v -0.089119 0.123066 0.126272
v -0.062855 0.116888 0.113914
v -0.087365 0.116716 0.115679
v -0.082130 0.104237 0.091000
v -0.056535 0.083389 0.071665
v -0.076544 0.079245 0.072092
v -0.056650 0.039299 0.053733
v -0.036967 0.123000 0.273182
v -0.032922 0.135075 0.240108
v -0.014247 0.127000 0.117611
v -0.009525 0.113952 0.086301
v -0.028673 0.140657 0.209382
v -0.020340 0.136789 0.155559
v -0.056482 0.132390 0.152969
v 0.050904 0.077338 0.081997
v 0.052454 0.103437 0.105151
v -0.058572 0.107213 0.089790
v 0.033443 0.000000 0.036549
v -0.032032 0.000000 0.035306
v -0.005911 0.090356 0.065575
v 0.002193 0.000000 0.029003
v -0.001287 0.052236 0.045374
v 0.043413 0.046379 0.058918
v -0.021404 0.108311 0.275218
v 0.000945 0.117027 0.243269
v -0.055082 0.110166 0.268340
v -0.068078 0.120993 0.223252
v -0.039031 0.103855 0.286506
v -0.008403 0.121687 0.217950
v 0.012917 0.118729 0.220059
v 0.026780 0.113088 0.195512
v 0.012113 0.117842 0.169266
v 0.033757 0.115771 0.178256
v 0.040594 0.109507 0.160542
v 0.017706 0.108916 0.136923
v 0.044585 0.105530 0.136537
v -0.048723 0.123830 0.208546
v -0.076511 0.125218 0.203678
v -0.083846 0.118861 0.166256
v -0.083549 0.120516 0.157101
v -0.087822 0.109909 0.132612
v -0.061301 0.104169 0.121435
v -0.084750 0.105082 0.122645
v -0.079367 0.092235 0.099432
v -0.054432 0.075909 0.082604
v -0.074331 0.072933 0.083335
v -0.054318 0.033398 0.064955
v -0.037348 0.112142 0.270248
v -0.033256 0.121719 0.238512
v -0.015776 0.115358 0.123830
v -0.011181 0.104857 0.093557
v -0.029316 0.127301 0.209959
v -0.021153 0.123935 0.159691
v -0.055155 0.119226 0.158372
v 0.045445 0.069407 0.091615
v 0.047708 0.091726 0.113173
v -0.056441 0.096387 0.098580
v 0.027958 0.000000 0.048237
v -0.029995 0.000000 0.047175
v -0.007818 0.084484 0.075168
v 0.000490 0.000000 0.041285
v -0.003204 0.047127 0.056492
v 0.037891 0.039754 0.069908
v -0.176665 0.371718 -0.128807
v -0.168224 0.349693 -0.087405
v -0.143193 0.377466 -0.156380
v -0.098863 0.357492 -0.138137
v -0.170354 0.382078 -0.153600
v -0.139214 0.338605 -0.076940
v -0.160934 0.321100 -0.061683
v -0.151739 0.294542 -0.036721
v -0.113567 0.289314 -0.029571
v -0.142831 0.275098 -0.020326
v -0.131769 0.256317 -0.004249
v -0.086376 0.246027 -0.003153
v -0.106773 0.224474 0.016915
v -0.098468 0.345083 -0.109515
v -0.077082 0.338146 -0.133633
v -0.042113 0.308317 -0.119931
v -0.034080 0.295017 -0.113521
v -0.009581 0.266794 -0.103212
v -0.012587 0.246207 -0.067696
v -0.001847 0.243316 -0.094889
v 0.019246 0.210244 -0.074698
v 0.021633 0.162146 -0.041449
v 0.031788 0.158338 -0.064415
v 0.036827 0.092211 -0.042226
v -0.158246 0.378342 -0.139551
v -0.137695 0.361194 -0.114895
v -0.047434 0.251743 -0.024114
v -0.021269 0.205256 -0.001060
v -0.115059 0.344349 -0.091017
v -0.078183 0.298703 -0.053283
v -0.051359 0.300380 -0.085392
v -0.064338 0.137049 0.041915
v -0.087120 0.186056 0.033853
v 0.007465 0.210030 -0.049396
v -0.008064 0.000000 0.034498
v 0.037762 0.000000 -0.019377
v -0.005861 0.156049 0.009052
v 0.019945 0.000000 0.013832
v 0.008779 0.092609 0.015828
v -0.037577 0.085093 0.042349
v -0.175699 0.356620 -0.133009
v -0.167319 0.335500 -0.092694
v -0.145105 0.361948 -0.158197
v -0.101076 0.342791 -0.140960
v -0.170841 0.364275 -0.156205
v -0.138775 0.326253 -0.083849
v -0.159660 0.309719 -0.070256
v -0.150515 0.283598 -0.045339
v -0.114259 0.278877 -0.038223
v -0.143594 0.264725 -0.030382
v -0.132214 0.246876 -0.013931
v -0.088531 0.237191 -0.012646
v -0.110965 0.215609 0.006265
v -0.102145 0.332167 -0.113311
v -0.082326 0.325619 -0.138366
v -0.047168 0.296345 -0.124628
v -0.041684 0.284243 -0.119773
v -0.016422 0.257136 -0.109015
v -0.020274 0.236963 -0.072767
v -0.010951 0.233316 -0.099883
v 0.009969 0.203263 -0.079629
v 0.009609 0.159014 -0.047890
v 0.018923 0.155255 -0.071583
v 0.024218 0.090740 -0.048558
v -0.159666 0.361185 -0.142929
v -0.137645 0.347391 -0.118150
v -0.053357 0.242495 -0.031316
v -0.029579 0.199109 -0.009340
v -0.116961 0.331814 -0.096034
v -0.082215 0.287922 -0.059733
v -0.057332 0.289558 -0.090366
v -0.069636 0.132690 0.029340
v -0.090464 0.180183 0.022964
v -0.002758 0.203742 -0.054704
v -0.016381 0.000000 0.021187
v 0.024328 0.000000 -0.026416
v -0.016511 0.153591 0.000353
v 0.009125 0.000000 0.004348
v -0.002031 0.092178 0.006709
v -0.043716 0.082896 0.029644
v 0.135709 0.337601 -0.227976
v 0.096830 0.319847 -0.219631
v 0.160061 0.343482 -0.191728
v 0.140794 0.328277 -0.143652
v 0.159854 0.346708 -0.221571
v 0.085872 0.311523 -0.190446
v 0.073208 0.296409 -0.211250
v 0.050853 0.272851 -0.203213
v 0.043175 0.268953 -0.167129
v 0.035747 0.256712 -0.193871
v 0.021171 0.239420 -0.184167
v 0.020142 0.230177 -0.141286
v 0.003696 0.210731 -0.162839
v 0.114359 0.318122 -0.145390
v 0.136113 0.313614 -0.118133
v 0.122896 0.287291 -0.082436
v 0.118249 0.276363 -0.074189
v 0.109289 0.250505 -0.049464
v 0.078340 0.230979 -0.057990
v 0.103820 0.229559 -0.041347
v 0.085658 0.198533 -0.023496
v 0.057888 0.153338 -0.026867
v 0.078978 0.150812 -0.012133
v 0.061593 0.088696 -0.006082
v 0.144632 0.344682 -0.208079
v 0.119851 0.331144 -0.185531
v 0.037227 0.236498 -0.099493
v 0.017335 0.194105 -0.075439
v 0.097356 0.317852 -0.163912
v 0.062616 0.279040 -0.128154
v 0.092486 0.279811 -0.097606
v -0.016639 0.129353 -0.118917
v -0.010738 0.175270 -0.145076
v 0.062397 0.198099 -0.039971
v -0.003370 0.000000 -0.049927
v 0.045385 0.000000 -0.001157
v 0.010035 0.148676 -0.057793
v 0.014285 0.000000 -0.019939
v 0.006393 0.089816 -0.038175
v -0.015382 0.081418 -0.087163
v 0.140372 0.321987 -0.227057
v 0.102712 0.305589 -0.219000
v 0.162461 0.327451 -0.193842
v 0.144479 0.313557 -0.146257
v 0.162969 0.327084 -0.223688
v 0.094410 0.298630 -0.190968
v 0.083063 0.284667 -0.210386
v 0.059812 0.261304 -0.202385
v 0.053266 0.257738 -0.168634
v 0.046815 0.246233 -0.194508
v 0.031472 0.229133 -0.185116
v 0.030988 0.220376 -0.144193
v 0.015181 0.201772 -0.166366
v 0.120185 0.304689 -0.150278
v 0.142745 0.300860 -0.123787
v 0.128369 0.274848 -0.088033
v 0.126106 0.265541 -0.081572
v 0.116194 0.239994 -0.057126
v 0.085201 0.220768 -0.066728
v 0.110240 0.219423 -0.050246
v 0.092146 0.190376 -0.034019
v 0.065569 0.149289 -0.037915
v 0.087312 0.147479 -0.024194
v 0.069050 0.086173 -0.017627
v 0.149055 0.325811 -0.210926
v 0.125298 0.316805 -0.186789
v 0.046819 0.225513 -0.105744
v 0.027756 0.186234 -0.083170
v 0.104622 0.304311 -0.166971
v 0.071809 0.266108 -0.133516
v 0.099330 0.268204 -0.104658
v -0.003181 0.124644 -0.122977
v 0.001171 0.168412 -0.148589
v 0.069583 0.190452 -0.050748
v 0.010292 0.000000 -0.055938
v 0.053457 0.000000 -0.013223
v 0.020626 0.144276 -0.066416
v 0.024577 0.000000 -0.029800
v 0.016994 0.087540 -0.047661
v -0.001768 0.078728 -0.092199
v 0.279071 0.257267 0.010330
v 0.229573 0.258080 0.001203
v 0.291225 0.244311 0.049778
v 0.241136 0.235729 0.082926
v 0.304989 0.249725 0.021723
v 0.202638 0.249168 0.017886
v 0.195549 0.246757 -0.013059
v 0.166153 0.230866 -0.026758
v 0.138214 0.222270 -0.002296
v 0.144880 0.219343 -0.036813
v 0.124834 0.204992 -0.043871
v 0.095176 0.189898 -0.013325
v 0.092634 0.178673 -0.049788
v 0.211057 0.237573 0.067950
v 0.212691 0.228352 0.094698
v 0.171312 0.207585 0.108384
v 0.154728 0.201695 0.105925
v 0.124536 0.180028 0.111233
v 0.096480 0.169936 0.082144
v 0.103632 0.167429 0.104317
v 0.069528 0.142537 0.097549
v 0.037129 0.108538 0.062870
v 0.040500 0.106900 0.082094
v 0.017865 0.054047 0.055754
v 0.283795 0.252815 0.030741
v 0.241327 0.252190 0.040687
v 0.086346 0.187408 0.028357
v 0.045129 0.152563 0.013561
v 0.202814 0.246603 0.045191
v 0.137966 0.219726 0.040402
v 0.149477 0.208567 0.080426
v 0.046545 0.100573 -0.062580
v 0.066990 0.145347 -0.059532
v 0.060779 0.145840 0.071241
v 0.014455 0.000000 -0.039065
v 0.000869 0.000000 0.030872
v 0.022751 0.112620 0.001059
v -0.001952 0.000000 -0.006625
v 0.005409 0.058964 -0.010984
v 0.030199 0.053604 -0.058802
v 0.278560 0.242470 0.007690
v 0.231481 0.243176 -0.000893
v 0.289741 0.230752 0.043517
v 0.242475 0.221694 0.077204
v 0.301070 0.236630 0.018014
v 0.207749 0.234809 0.017777
v 0.201646 0.232986 -0.011006
v 0.171667 0.217207 -0.023591
v 0.145934 0.209324 0.000640
v 0.153144 0.207076 -0.033455
v 0.131927 0.192922 -0.038957
v 0.104518 0.178533 -0.008628
v 0.103165 0.168472 -0.046796
v 0.216101 0.224119 0.062798
v 0.219258 0.215477 0.089321
v 0.178323 0.193984 0.103976
v 0.164609 0.190259 0.101860
v 0.134585 0.167988 0.108540
v 0.107194 0.158436 0.080002
v 0.114122 0.156600 0.100346
v 0.081816 0.132224 0.095486
v 0.052420 0.102840 0.062158
v 0.055794 0.102684 0.080265
v 0.033612 0.049757 0.056103
v 0.281700 0.239301 0.026652
v 0.243267 0.237450 0.037758
v 0.098103 0.176275 0.029905
v 0.060119 0.144078 0.017303
v 0.208141 0.232468 0.043033
v 0.146765 0.207007 0.040072
v 0.158125 0.196191 0.076854
v 0.059326 0.094843 -0.055767
v 0.077385 0.137019 -0.052832
v 0.074033 0.136643 0.070559
v 0.028792 0.000000 -0.031400
v 0.016574 0.000000 0.029514
v 0.040449 0.107614 0.006026
v 0.013887 0.000000 -0.003631
v 0.024713 0.056805 -0.005470
v 0.043364 0.050286 -0.050722
v -0.277362 0.286642 0.045614
v -0.238817 0.272997 0.067872
v -0.274001 0.292972 0.002302
v -0.226200 0.282753 -0.018105
v -0.293746 0.292193 0.024841
v -0.210749 0.266700 0.054518
v -0.211777 0.253839 0.080806
v -0.187607 0.232431 0.092220
v -0.158212 0.229433 0.070451
v -0.167029 0.219650 0.097473
v -0.148708 0.203615 0.101420
v -0.120021 0.195420 0.070669
v -0.116417 0.178695 0.100377
v -0.205351 0.273877 0.001928
v -0.203752 0.272277 -0.030895
v -0.169264 0.248829 -0.046351
v -0.157893 0.240185 -0.047166
v -0.133761 0.216640 -0.057259
v -0.113419 0.197653 -0.029125
v -0.121073 0.198547 -0.056759
v -0.092542 0.169456 -0.055632
v -0.067583 0.127336 -0.030673
v -0.073474 0.126623 -0.054149
v -0.051581 0.068066 -0.037234
v -0.272707 0.292194 0.024869
v -0.235870 0.284386 0.026161
v -0.104902 0.202517 0.028138
v -0.066231 0.165179 0.028012
v -0.202339 0.273735 0.027098
v -0.148877 0.239374 0.028010
v -0.154404 0.240736 -0.014465
v -0.066700 0.103940 0.092007
v -0.089508 0.146519 0.099867
v -0.083096 0.168550 -0.028270
v -0.027541 0.000000 0.055894
v -0.029156 0.000000 -0.015962
v -0.046652 0.123910 0.026820
v -0.017141 0.000000 0.020905
v -0.028092 0.069902 0.025331
v -0.044861 0.060288 0.076584
v -0.279820 0.272026 0.041766
v -0.242830 0.258771 0.063745
v -0.276824 0.277825 0.002203
v -0.230559 0.267990 -0.018267
v -0.294497 0.277058 0.022610
v -0.217782 0.253556 0.049978
v -0.219044 0.241756 0.074424
v -0.194344 0.220347 0.085583
v -0.167456 0.217738 0.065488
v -0.176411 0.208741 0.091540
v -0.157642 0.192706 0.095277
v -0.131005 0.184945 0.066152
v -0.128470 0.169271 0.096267
v -0.212952 0.260060 0.002532
v -0.212449 0.259177 -0.029979
v -0.177367 0.235729 -0.045729
v -0.168948 0.228909 -0.045736
v -0.144270 0.205364 -0.056046
v -0.124839 0.186623 -0.026683
v -0.132053 0.187876 -0.053653
v -0.105153 0.160235 -0.052073
v -0.082460 0.122309 -0.026526
v -0.087969 0.122780 -0.049919
v -0.066582 0.064470 -0.032798
v -0.275836 0.277131 0.023277
v -0.241424 0.269727 0.024511
v -0.120232 0.191404 0.026943
v -0.087988 0.156613 0.026871
v -0.210967 0.260000 0.025465
v -0.160691 0.227028 0.026687
v -0.164540 0.228477 -0.013066
v -0.081092 0.098752 0.087192
v -0.102534 0.138547 0.095051
v -0.098784 0.159914 -0.024932
v -0.042830 0.000000 0.052607
v -0.044223 0.000000 -0.010990
v -0.066991 0.118435 0.026433
v -0.034779 0.000000 0.021784
v -0.047336 0.066431 0.025588
v -0.059898 0.056991 0.072397
v 0.276023 0.120600 0.090927
v 0.251567 0.129870 0.059272
v 0.257862 0.122684 0.123988
v 0.210340 0.133982 0.122370
v 0.282035 0.113824 0.113002
v 0.223778 0.134771 0.059198
v 0.232123 0.131282 0.037703
v 0.213082 0.126232 0.017153
v 0.181524 0.130806 0.023310
v 0.197033 0.127786 0.004581
v 0.180797 0.122566 -0.007582
v 0.145837 0.121657 0.005119
v 0.152234 0.116813 -0.020637
v 0.200479 0.137179 0.098851
v 0.186202 0.138050 0.123649
v 0.148582 0.132455 0.119578
v 0.137744 0.132436 0.115556
v 0.110238 0.123066 0.110936
v 0.102874 0.116887 0.080084
v 0.098002 0.116716 0.104399
v 0.072630 0.104237 0.089891
v 0.056852 0.083389 0.056559
v 0.051850 0.079245 0.076146
v 0.033961 0.039299 0.047481
v 0.266208 0.123000 0.106091
v 0.236460 0.135075 0.092338
v 0.121913 0.127000 0.035337
v 0.089087 0.113952 0.018742
v 0.208979 0.140657 0.079089
v 0.161100 0.136789 0.055016
v 0.147657 0.132390 0.088840
v 0.100330 0.077338 -0.041719
v 0.126823 0.103437 -0.033760
v 0.077490 0.107213 0.066490
v 0.043018 0.000000 -0.043739
v 0.017097 0.000000 0.014617
v 0.066502 0.090356 0.006582
v 0.024872 0.000000 -0.017385
v 0.043703 0.052235 -0.007085
v 0.071897 0.046379 -0.044091
v 0.273019 0.108311 0.091747
v 0.249861 0.117027 0.060799
v 0.256470 0.110166 0.121929
v 0.210324 0.120993 0.120907
v 0.278269 0.103855 0.111998
v 0.223512 0.121687 0.062145
v 0.231849 0.118729 0.042376
v 0.212913 0.113088 0.021800
v 0.182987 0.117842 0.027575
v 0.198801 0.115771 0.009923
v 0.182657 0.109507 -0.002341
v 0.149481 0.108916 0.010159
v 0.157060 0.105530 -0.015483
v 0.202507 0.123830 0.097953
v 0.189539 0.125217 0.123114
v 0.152059 0.118861 0.119014
v 0.143453 0.120516 0.115815
v 0.116230 0.109909 0.111182
v 0.109488 0.104168 0.079824
v 0.105033 0.105082 0.103569
v 0.080905 0.092235 0.089219
v 0.067639 0.075909 0.057272
v 0.063222 0.072933 0.077123
v 0.045329 0.033398 0.048311
v 0.263622 0.112142 0.105514
v 0.235221 0.121719 0.092096
v 0.126202 0.115358 0.037478
v 0.094564 0.104857 0.021447
v 0.209701 0.127301 0.079788
v 0.163877 0.123935 0.056431
v 0.152147 0.119226 0.088464
v 0.107328 0.069407 -0.034265
v 0.132264 0.091726 -0.027599
v 0.085718 0.096387 0.066192
v 0.051892 0.000000 -0.035918
v 0.028807 0.000000 0.015615
v 0.074589 0.084483 0.010493
v 0.035472 0.000000 -0.012969
v 0.053280 0.047127 -0.002763
v 0.080177 0.039754 -0.036268
v -0.049266 0.120600 -0.325814
v -0.058298 0.129870 -0.283823
v -0.011161 0.122684 -0.327825
v 0.017635 0.133982 -0.278813
v -0.037627 0.113824 -0.345680
v -0.042322 0.134771 -0.257147
v -0.063193 0.131282 -0.251235
v -0.070760 0.126232 -0.222172
v -0.050718 0.130806 -0.195959
v -0.073246 0.127786 -0.198681
v -0.076864 0.122566 -0.177506
v -0.049712 0.121657 -0.150196
v -0.073877 0.116813 -0.143913
v 0.003605 0.137179 -0.255866
v 0.034045 0.138050 -0.250665
v 0.048993 0.132455 -0.209556
v 0.051135 0.132436 -0.193813
v 0.061779 0.123066 -0.164204
v 0.037804 0.116888 -0.142952
v 0.061901 0.116716 -0.149393
v 0.059947 0.104237 -0.122100
v 0.036773 0.083389 -0.095394
v 0.056452 0.079245 -0.099628
v 0.038610 0.039299 -0.074056
v -0.031871 0.123000 -0.326324
v -0.022253 0.135075 -0.287750
v -0.011034 0.127000 -0.140812
v -0.011349 0.113952 -0.104587
v -0.017345 0.140657 -0.253128
v -0.013625 0.136789 -0.191753
v 0.022049 0.132390 -0.195317
v -0.070310 0.077338 -0.092592
v -0.074666 0.103437 -0.117363
v 0.036763 0.107213 -0.115930
v -0.047071 0.000000 -0.044623
v 0.016515 0.000000 -0.046277
v -0.012590 0.090356 -0.081262
v -0.016017 0.000000 -0.036892
v -0.014931 0.052235 -0.057273
v -0.060131 0.046379 -0.068729
v -0.046986 0.108311 -0.323759
v -0.056397 0.117027 -0.283440
v -0.012251 0.110166 -0.325640
v 0.016117 0.120993 -0.278503
v -0.034746 0.103855 -0.340716
v -0.040203 0.121687 -0.259198
v -0.059466 0.118729 -0.253948
v -0.067080 0.113088 -0.225134
v -0.047945 0.117842 -0.200321
v -0.069454 0.115771 -0.203229
v -0.073210 0.109507 -0.182574
v -0.048132 0.108916 -0.157670
v -0.071293 0.105530 -0.150521
v 0.001269 0.123830 -0.258290
v 0.031641 0.125218 -0.254304
v 0.046615 0.118861 -0.214026
v 0.048498 0.120516 -0.199838
v 0.057948 0.109909 -0.171055
v 0.033265 0.104168 -0.151167
v 0.058138 0.105082 -0.155411
v 0.055858 0.092235 -0.129345
v 0.032914 0.075909 -0.106142
v 0.052427 0.072933 -0.110521
v 0.034427 0.033398 -0.084998
v -0.029932 0.112142 -0.322904
v -0.022587 0.121719 -0.287510
v -0.012366 0.115358 -0.148035
v -0.010836 0.104857 -0.113260
v -0.017781 0.127301 -0.255308
v -0.013942 0.123935 -0.196386
v 0.019420 0.119226 -0.200840
v -0.066611 0.069407 -0.102367
v -0.071383 0.091726 -0.125154
v 0.033163 0.096387 -0.124214
v -0.043811 0.000000 -0.056881
v 0.012418 0.000000 -0.058139
v -0.012060 0.084484 -0.092862
v -0.015851 0.000000 -0.053849
v -0.014729 0.047127 -0.071268
v -0.056692 0.039754 -0.080011
v -0.260077 0.125501 0.129837
v -0.217631 0.135687 0.129120
v -0.273143 0.127639 0.094380
v -0.238148 0.139775 0.056205
v -0.282411 0.117676 0.121566
v -0.198318 0.140633 0.106230
v -0.186260 0.139134 0.126325
v -0.157591 0.134170 0.124147
v -0.141402 0.137526 0.094507
v -0.135857 0.137087 0.118826
v -0.115936 0.131373 0.113961
v -0.102005 0.128997 0.077326
v -0.084796 0.125948 0.099416
v -0.213052 0.142981 0.062477
v -0.220953 0.146103 0.035175
v -0.192530 0.140324 0.007978
v -0.181298 0.141414 0.001527
v -0.159326 0.131789 -0.016831
v -0.130064 0.124394 -0.003870
v -0.144229 0.126528 -0.022727
v -0.115815 0.111840 -0.032662
v -0.079297 0.088652 -0.022734
v -0.091283 0.084853 -0.038210
v -0.057353 0.042622 -0.031690
v -0.265414 0.127210 0.112449
v -0.232657 0.140885 0.095831
v -0.108871 0.134097 0.037589
v -0.071681 0.120379 0.024173
v -0.203129 0.146720 0.081424
v -0.151892 0.143321 0.057517
v -0.169132 0.138925 0.026104
v -0.033321 0.082893 0.074907
v -0.057005 0.111247 0.088685
v -0.100779 0.114342 -0.014727
v -0.000458 0.000000 0.036831
v -0.020866 0.000000 -0.020802
v -0.047081 0.094729 0.016473
v -0.001021 0.000000 0.005478
v -0.021616 0.054536 0.010401
v -0.012798 0.049747 0.056521
v -0.259541 0.113067 0.127785
v -0.218713 0.122583 0.127523
v -0.271501 0.114957 0.095452
v -0.238065 0.126545 0.057836
v -0.279188 0.108469 0.119756
v -0.201513 0.127107 0.105261
v -0.190727 0.126237 0.124105
v -0.162385 0.120460 0.121840
v -0.146828 0.124086 0.094063
v -0.142146 0.124961 0.117480
v -0.122550 0.117784 0.112897
v -0.108952 0.115752 0.077909
v -0.092733 0.114753 0.100294
v -0.214857 0.129181 0.065776
v -0.223772 0.133094 0.039069
v -0.195778 0.126249 0.011784
v -0.186237 0.129544 0.006464
v -0.164646 0.118154 -0.011501
v -0.134936 0.111149 0.002432
v -0.149108 0.114892 -0.016319
v -0.121036 0.100498 -0.025078
v -0.086976 0.082051 -0.014354
v -0.099713 0.079455 -0.029851
v -0.065564 0.037650 -0.023020
v -0.263453 0.116928 0.111576
v -0.232771 0.126879 0.096410
v -0.112768 0.122087 0.043303
v -0.076334 0.111997 0.029441
v -0.205148 0.132787 0.083325
v -0.155466 0.130001 0.061449
v -0.173051 0.125272 0.031011
v -0.043736 0.075756 0.075919
v -0.065514 0.100183 0.089572
v -0.105827 0.103936 -0.006551
v -0.012307 0.000000 0.038846
v -0.029473 0.000000 -0.012122
v -0.054494 0.089777 0.022480
v -0.011439 0.000000 0.011331
v -0.030553 0.050405 0.016486
v -0.024112 0.044002 0.058113
vn 0.0497 0.9240 0.3791
vn 0.1125 0.9613 0.2515
vn 0.1134 0.9618 0.2493
vn 0.0413 0.9187 0.3928
vn -0.0053 0.8843 0.4669
vn -0.0790 0.8847 0.4593
vn -0.1013 0.9202 0.3781
vn -0.1111 0.9338 0.3402
vn -0.1213 0.9672 0.2232
vn -0.1206 0.9724 0.1995
vn 0.2175 0.9759 -0.0155
vn 0.2103 0.9692 -0.1283
vn 0.1821 0.9812 0.0641
vn 0.0085 0.9935 -0.1136
vn -0.0930 0.9957 0.0004
vn -0.0635 0.9718 -0.2272
vn 0.1780 0.9820 0.0636
vn 0.2098 0.9704 -0.1197
vn -0.1239 0.9921 0.0181
vn -0.1345 0.9703 -0.2010
vn 0.2065 0.9562 -0.2075
vn 0.2229 0.9299 -0.2925
vn -0.1470 0.9240 -0.3531
vn -0.0906 0.9201 -0.3811
vn 0.2384 0.9295 -0.2815
vn 0.0336 0.9301 -0.3659
vn 0.1503 0.8797 -0.4512
vn 0.2775 0.7896 -0.5474
vn 0.3029 0.7878 -0.5363
vn -0.0853 0.9009 -0.4256
vn -0.1347 0.7774 -0.6144
vn -0.0984 0.8182 -0.5664
vn -0.1618 0.7718 -0.6149
vn -0.1507 0.4881 -0.8597
vn -0.1804 0.5084 -0.8421
vn -0.0974 0.3752 -0.9218
vn -0.1831 0.3574 -0.9158
vn -0.1970 0.3525 -0.9148
vn 0.3326 0.5692 -0.7519
vn 0.3326 0.5696 -0.7516
vn 0.3078 0.4264 -0.8506
vn 0.3055 0.4197 -0.8547
vn 0.2760 0.3357 -0.9007
vn -0.1957 0.2954 -0.9351
vn -0.0897 -0.9268 -0.3647
vn -0.0876 -0.9229 -0.3750
vn -0.1222 -0.9628 -0.2409
vn -0.1208 -0.9619 -0.2452
vn -0.0699 -0.8858 -0.4588
vn 0.1459 -0.8874 -0.4372
vn 0.1401 -0.9368 -0.3205
vn 0.1419 -0.9252 -0.3520
vn 0.1259 -0.9729 -0.1940
vn 0.1285 -0.9689 -0.2116
vn -0.2250 -0.9741 0.0206
vn -0.1859 -0.9802 -0.0684
vn -0.2232 -0.9654 0.1349
vn -0.0112 -0.9920 0.1259
vn 0.0734 -0.9697 0.2329
vn 0.0972 -0.9953 -0.0016
vn -0.1844 -0.9805 -0.0681
vn -0.2327 -0.9660 0.1128
vn 0.1619 -0.9664 0.1996
vn 0.1330 -0.9909 -0.0186
vn -0.2406 -0.9300 0.2779
vn -0.2052 -0.9495 0.2372
vn 0.1909 -0.9254 0.3274
vn 0.1064 -0.9215 0.3736
vn -0.2727 -0.9300 0.2464
vn -0.0469 -0.9188 0.3919
vn -0.1015 -0.8624 0.4959
vn -0.2978 -0.7967 0.5259
vn -0.3455 -0.7985 0.4929
vn 0.0818 -0.9027 0.4224
vn 0.1033 -0.8226 0.5591
vn 0.1708 -0.7858 0.5944
vn 0.2198 -0.7757 0.5915
vn 0.1797 -0.4867 0.8549
vn 0.2275 -0.5016 0.8346
vn 0.0908 -0.3816 0.9198
vn 0.2063 -0.3569 0.9110
vn 0.2251 -0.3511 0.9089
vn -0.3739 -0.5656 0.7351
vn -0.3737 -0.5627 0.7373
vn -0.3372 -0.4172 0.8440
vn -0.3390 -0.4204 0.8416
vn -0.3011 -0.3542 0.8854
vn 0.2146 -0.3054 0.9277
vn 0.9775 -0.2040 0.0533
vn 0.7352 -0.2412 0.6335
vn 0.7062 -0.2503 0.6623
vn 0.9693 -0.2073 0.1324
vn -0.8981 -0.1675 0.4065
vn -0.9200 -0.1284 -0.3702
vn -0.9507 -0.1322 -0.2804
vn -0.8773 -0.1758 0.4466
vn -0.1097 -0.3349 0.9358
vn -0.1491 -0.3327 0.9311
vn 0.7272 -0.0746 0.6824
vn 0.8457 -0.1030 0.5236
vn 0.4871 -0.1221 0.8647
vn 0.4019 -0.0913 0.9111
vn 0.9388 -0.3444 -0.0115
vn 0.9397 -0.3408 0.0293
vn 0.5954 0.0943 0.7979
vn 0.9075 -0.0965 0.4087
vn 0.4605 0.0584 0.8857
vn 0.3456 0.1115 0.9317
vn 0.9093 -0.3984 -0.1203
vn 0.9107 -0.3969 -0.1143
vn 0.8604 0.0821 0.5029
vn 0.9755 -0.1074 0.1918
vn 0.7008 0.1377 0.7000
vn 0.6276 0.1925 0.7544
vn -0.9131 0.0805 0.3996
vn -0.9982 0.0351 0.0483
vn -0.7441 0.0355 0.6671
vn -0.6658 0.0554 0.7441
vn -0.8348 -0.2575 -0.4867
vn -0.8504 -0.2518 -0.4619
vn -0.7039 0.2292 0.6723
vn -0.8810 -0.2963 -0.3689
vn -0.8794 -0.2976 -0.3716
vn -0.6211 0.2658 0.7373
vn -0.9651 0.1462 0.2173
vn -0.9817 0.1091 0.1560
vn -0.7869 0.1680 0.5938
vn -0.6890 0.2432 0.6827
vn -0.8739 -0.4258 -0.2344
vn -0.8591 -0.4444 -0.2540
vn -0.9402 0.2971 0.1663
vn -0.9583 0.2515 0.1358
vn -0.8320 0.3628 0.4198
vn -0.8664 0.3071 0.3937
vn -0.8701 -0.4923 -0.0218
vn -0.8645 -0.5023 -0.0171
vn -0.8969 0.3424 0.2799
vn -0.9548 0.1206 -0.2718
vn 0.8750 -0.3648 0.3181
vn 0.8898 -0.3733 0.2626
vn 0.8887 -0.3726 0.2673
vn 0.9183 -0.3296 0.2191
vn 0.9174 -0.3326 0.2187
vn 0.9420 -0.2355 0.2389
vn 0.9415 -0.2387 0.2380
vn -0.8266 -0.5627 0.0126
vn 0.0094 0.8903 0.4552
vn 0.0937 0.8599 0.5019
vn 0.0878 0.8617 0.4998
vn -0.0297 0.9034 0.4277
vn -0.1260 0.9263 0.3550
vn 0.1771 0.9783 0.1076
vn 0.2495 0.9433 0.2189
vn 0.2730 0.9274 0.2558
vn 0.3105 0.8915 0.3300
vn 0.3111 0.8895 0.3345
vn -0.0402 0.6798 0.7323
vn 0.1540 0.6599 0.7353
vn 0.1224 0.7789 0.6151
vn 0.5593 0.7708 0.3052
vn 0.4296 0.8207 0.3767
vn 0.5863 0.7011 0.4058
vn 0.1765 0.7910 0.5858
vn 0.2633 0.6825 0.6818
vn 0.4039 0.8198 0.4060
vn 0.5526 0.6951 0.4598
vn 0.0572 0.5878 0.8070
vn 0.2576 0.5707 0.7797
vn 0.6373 0.6180 0.4603
vn 0.6800 0.6186 0.3935
vn 0.3016 0.5749 0.7606
vn 0.6729 0.6418 0.3680
vn 0.2756 0.5023 0.8196
vn 0.3385 0.4175 0.8433
vn 0.3424 0.4209 0.8400
vn 0.7441 0.6025 0.2885
vn 0.7756 0.4717 0.4194
vn 0.7957 0.5050 0.3344
vn 0.7468 0.4599 0.4804
vn 0.8586 0.2604 0.4417
vn 0.8379 0.2715 0.4734
vn 0.9088 0.1933 0.3698
vn 0.8815 0.1668 0.4417
vn 0.8777 0.1629 0.4507
vn 0.4092 0.2640 0.8734
vn 0.4088 0.2647 0.8734
vn 0.4799 0.1538 0.8637
vn 0.4861 0.1443 0.8619
vn 0.5289 0.0742 0.8454
vn 0.8884 0.1085 0.4460
vn -0.0009 -0.9098 -0.4150
vn 0.0230 -0.9231 -0.3839
vn -0.0645 -0.8691 -0.4905
vn -0.0687 -0.8662 -0.4949
vn 0.0880 -0.9513 -0.2955
vn -0.1002 -0.9844 -0.1447
vn -0.2302 -0.9418 -0.2449
vn -0.1967 -0.9556 -0.2193
vn -0.3078 -0.8997 -0.3094
vn -0.3025 -0.9033 -0.3043
vn 0.0570 -0.6776 -0.7332
vn -0.1031 -0.7756 -0.6227
vn -0.1403 -0.6590 -0.7390
vn -0.5637 -0.7741 -0.2881
vn -0.5927 -0.7033 -0.3926
vn -0.4423 -0.8218 -0.3592
vn -0.1584 -0.7872 -0.5960
vn -0.2536 -0.6805 -0.6875
vn -0.5619 -0.6917 -0.4537
vn -0.4198 -0.8188 -0.3917
vn -0.2404 -0.5718 -0.7844
vn -0.0362 -0.5913 -0.8056
vn -0.6418 -0.6149 -0.4583
vn -0.6833 -0.6226 -0.3815
vn -0.2945 -0.5745 -0.7637
vn -0.6746 -0.6512 -0.3477
vn -0.2084 -0.5131 -0.8327
vn -0.3211 -0.4099 -0.8537
vn -0.3342 -0.4142 -0.8466
vn -0.7437 -0.6131 -0.2665
vn -0.7964 -0.5055 -0.3320
vn -0.7770 -0.4670 -0.4220
vn -0.7541 -0.4479 -0.4804
vn -0.8657 -0.2531 -0.4318
vn -0.8429 -0.2633 -0.4693
vn -0.9230 -0.1943 -0.3321
vn -0.8890 -0.1639 -0.4277
vn -0.8835 -0.1607 -0.4401
vn -0.3941 -0.2517 -0.8840
vn -0.3961 -0.2480 -0.8841
vn -0.4611 -0.1344 -0.8771
vn -0.4579 -0.1399 -0.8779
vn -0.5027 -0.0572 -0.8626
vn -0.8969 -0.1018 -0.4304
vn -0.8298 -0.2638 0.4918
vn -0.9979 -0.0325 -0.0564
vn -0.9987 -0.0458 -0.0223
vn -0.7513 -0.3039 0.5858
vn 0.1468 0.1165 -0.9823
vn 0.7686 -0.0424 -0.6383
vn 0.8510 -0.0819 -0.5187
vn 0.1859 0.1123 -0.9761
vn -0.6326 0.1062 -0.7671
vn -0.6696 0.1019 -0.7357
vn -0.9354 -0.1212 0.3322
vn -0.9989 0.0404 0.0227
vn -0.9419 0.1108 -0.3172
vn -0.9694 0.0528 -0.2399
vn -0.7339 -0.4669 0.4935
vn -0.6690 -0.5023 0.5479
vn -0.9633 -0.0909 0.2524
vn -0.9949 0.0591 0.0817
vn -0.9273 0.2714 -0.2579
vn -0.9682 0.1875 -0.1655
vn -0.6309 -0.5341 0.5628
vn -0.5967 -0.5545 0.5801
vn -0.8873 -0.1542 0.4347
vn -0.9148 -0.0969 0.3922
vn -0.9698 0.2226 0.0997
vn -0.9751 0.1487 0.1646
vn 0.6217 0.2022 -0.7567
vn 0.2274 0.3594 -0.9050
vn -0.1788 0.3738 -0.9101
vn -0.0193 0.3307 -0.9435
vn 0.8438 -0.2004 -0.4979
vn 0.8640 -0.2314 -0.4473
vn -0.1368 0.5318 -0.8357
vn 0.7596 -0.2022 -0.6182
vn 0.7702 -0.2240 -0.5971
vn 0.0092 0.4676 -0.8839
vn 0.5410 0.1322 -0.8306
vn 0.0983 0.5030 -0.8587
vn -0.1090 0.4950 -0.8620
vn 0.0261 0.3980 -0.9170
vn 0.5819 -0.3007 -0.7556
vn 0.5822 -0.3090 -0.7521
vn 0.4034 0.4589 -0.7916
vn 0.3924 0.4807 -0.7842
vn 0.2590 0.5726 -0.7778
vn 0.2931 0.5042 -0.8123
vn 0.4715 -0.2297 -0.8514
vn 0.4728 -0.2313 -0.8503
vn 0.7265 0.2078 -0.6550
vn 0.3900 0.4620 -0.7965
vn -0.8155 -0.3226 0.4804
vn -0.8030 -0.3644 0.4716
vn -0.8031 -0.3638 0.4718
vn -0.8158 -0.3581 0.4541
vn -0.8142 -0.3610 0.4546
vn -0.8445 -0.2793 0.4570
vn -0.8441 -0.2820 0.4560
vn 0.4559 -0.2101 -0.8649
vn -0.4088 0.9086 -0.0851
vn -0.4790 0.8778 0.0001
vn -0.4800 0.8773 0.0015
vn -0.3899 0.9148 -0.1056
vn -0.2996 0.9333 -0.1978
vn -0.0369 0.9935 0.1077
vn -0.1474 0.9747 0.1678
vn -0.1962 0.9612 0.1938
vn -0.2870 0.9287 0.2347
vn -0.2995 0.9238 0.2386
vn -0.7277 0.6823 -0.0707
vn -0.7538 0.6498 0.0978
vn -0.6158 0.7867 0.0426
vn -0.4078 0.7969 0.4456
vn -0.3953 0.8481 0.3527
vn -0.4782 0.7188 0.5046
vn -0.6006 0.7944 0.0907
vn -0.7225 0.6672 0.1811
vn -0.3964 0.8550 0.3344
vn -0.4915 0.7201 0.4898
vn -0.8145 0.5780 0.0500
vn -0.8167 0.5414 0.1997
vn -0.5274 0.6202 0.5807
vn -0.4986 0.6194 0.6064
vn -0.8097 0.5407 0.2281
vn -0.5050 0.6477 0.5705
vn -0.8544 0.4645 0.2329
vn -0.8821 0.3891 0.2654
vn -0.8847 0.3804 0.2695
vn -0.4385 0.6064 0.6634
vn -0.5327 0.4615 0.7094
vn -0.4924 0.4892 0.7199
vn -0.5565 0.4655 0.6882
vn -0.5411 0.2801 0.7929
vn -0.5403 0.3001 0.7862
vn -0.5388 0.2297 0.8105
vn -0.5107 0.2025 0.8356
vn -0.5073 0.2081 0.8363
vn -0.9149 0.2399 0.3248
vn -0.9151 0.2341 0.3284
vn -0.9109 0.1316 0.3910
vn -0.9084 0.1113 0.4029
vn -0.8957 0.0394 0.4430
vn -0.5020 0.1342 0.8544
vn 0.3346 -0.9405 0.0599
vn 0.3142 -0.9468 0.0697
vn 0.4566 -0.8897 -0.0064
vn 0.4522 -0.8919 -0.0038
vn 0.2010 -0.9719 0.1222
vn 0.1038 -0.9945 0.0140
vn 0.2093 -0.9704 -0.1203
vn 0.1705 -0.9828 -0.0705
vn 0.2987 -0.9300 -0.2142
vn 0.2821 -0.9384 -0.1993
vn 0.7209 -0.6895 0.0698
vn 0.6153 -0.7867 -0.0503
vn 0.7470 -0.6563 -0.1061
vn 0.4093 -0.8006 -0.4376
vn 0.4870 -0.7195 -0.4952
vn 0.4056 -0.8451 -0.3484
vn 0.6026 -0.7913 -0.1031
vn 0.7140 -0.6716 -0.1977
vn 0.5091 -0.7146 -0.4797
vn 0.4120 -0.8482 -0.3329
vn 0.8100 -0.5505 -0.2022
vn 0.8077 -0.5877 -0.0480
vn 0.5339 -0.6234 -0.5713
vn 0.5022 -0.6228 -0.5999
vn 0.8018 -0.5492 -0.2356
vn 0.5067 -0.6505 -0.5658
vn 0.8551 -0.4726 -0.2130
vn 0.8829 -0.3913 -0.2597
vn 0.8853 -0.3804 -0.2676
vn 0.4418 -0.6085 -0.6592
vn 0.4983 -0.4947 -0.7120
vn 0.5344 -0.4707 -0.7021
vn 0.5540 -0.4729 -0.6851
vn 0.5312 -0.2873 -0.7970
vn 0.5355 -0.3060 -0.7871
vn 0.5039 -0.2390 -0.8300
vn 0.5006 -0.2032 -0.8415
vn 0.5009 -0.2080 -0.8401
vn 0.9210 -0.2269 -0.3167
vn 0.9206 -0.2318 -0.3144
vn 0.9183 -0.1034 -0.3821
vn 0.9202 -0.1219 -0.3720
vn 0.9069 -0.0297 -0.4203
vn 0.4929 -0.1329 -0.8599
vn -0.5284 -0.2947 -0.7962
vn 0.0221 -0.0114 -0.9997
vn 0.0077 -0.0190 -0.9998
vn -0.5712 -0.3161 -0.7575
vn 0.9698 0.1390 0.2004
vn 0.5807 -0.0735 0.8108
vn 0.5252 -0.0964 0.8455
vn 0.9693 0.1388 0.2029
vn 0.8005 0.1501 -0.5802
vn 0.7275 0.1431 -0.6710
vn -0.2945 -0.0566 -0.9540
vn -0.1057 0.0599 -0.9926
vn 0.2897 0.1675 -0.9423
vn 0.2359 0.1222 -0.9641
vn -0.5102 -0.4644 -0.7239
vn -0.5474 -0.4910 -0.6777
vn -0.2464 -0.0124 -0.9691
vn -0.1477 0.0791 -0.9859
vn 0.2446 0.3056 -0.9202
vn 0.1780 0.2413 -0.9540
vn -0.5628 -0.5294 -0.6348
vn -0.5784 -0.5476 -0.6046
vn -0.4313 -0.1341 -0.8922
vn -0.3761 -0.0613 -0.9245
vn -0.0497 0.2511 -0.9667
vn -0.1231 0.1640 -0.9788
vn 0.7592 0.2813 0.5869
vn 0.8030 0.3304 0.4961
vn 0.9006 0.4333 -0.0353
vn 0.9094 0.4155 0.0170
vn 0.4264 -0.2335 0.8739
vn 0.3749 -0.2676 0.8876
vn 0.8294 0.5581 -0.0246
vn 0.5801 -0.1976 0.7902
vn 0.5432 -0.2375 0.8053
vn 0.8488 0.5269 0.0434
vn 0.8061 0.1350 0.5762
vn 0.8652 0.4138 0.2833
vn 0.8698 0.4930 0.0195
vn 0.8926 0.4417 0.0902
vn 0.7121 -0.2709 0.6477
vn 0.7018 -0.2921 0.6498
vn 0.7581 0.4649 0.4573
vn 0.7453 0.5077 0.4321
vn 0.7468 0.5908 0.3054
vn 0.7516 0.5815 0.3115
vn 0.8115 -0.1459 0.5659
vn 0.8113 -0.1462 0.5660
vn 0.5866 0.2372 0.7744
vn 0.6899 0.3948 0.6068
vn -0.3748 -0.4327 -0.8200
vn -0.3865 -0.4773 -0.7892
vn -0.3856 -0.4737 -0.7918
vn -0.4140 -0.4635 -0.7834
vn -0.4121 -0.4695 -0.7808
vn -0.4345 -0.3345 -0.8363
vn -0.4339 -0.3450 -0.8323
vn 0.8235 -0.1202 0.5545
vn 0.0685 0.9835 0.1677
vn -0.0880 0.9830 0.1611
vn -0.0759 0.9838 0.1622
vn 0.1020 0.9807 0.1666
vn 0.2095 0.9643 0.1618
vn 0.2636 0.9149 0.3059
vn 0.1680 0.9253 0.3400
vn 0.1371 0.9266 0.3502
vn -0.0028 0.9280 0.3725
vn -0.0210 0.9275 0.3732
vn -0.4000 0.9153 -0.0483
vn -0.4957 0.8676 -0.0391
vn -0.3015 0.9501 0.0799
vn -0.3474 0.8836 0.3138
vn -0.2441 0.8982 0.3656
vn -0.4587 0.8213 0.3393
vn -0.2857 0.9521 0.1094
vn -0.4752 0.8793 0.0304
vn -0.2472 0.8898 0.3837
vn -0.4682 0.8018 0.3714
vn -0.5578 0.8146 -0.1591
vn -0.6254 0.7690 -0.1321
vn -0.6011 0.7293 0.3268
vn -0.5884 0.7472 0.3090
vn -0.6114 0.7841 -0.1069
vn -0.5462 0.7870 0.2868
vn -0.7644 0.6293 -0.1404
vn -0.7647 0.5862 -0.2674
vn -0.7356 0.6219 -0.2686
vn -0.5979 0.7489 0.2858
vn -0.7465 0.5926 0.3026
vn -0.6791 0.6678 0.3047
vn -0.7855 0.5531 0.2777
vn -0.9039 0.3591 0.2324
vn -0.9081 0.3480 0.2329
vn -0.9332 0.3051 0.1896
vn -0.9507 0.2459 0.1890
vn -0.9560 0.2295 0.1825
vn -0.8351 0.3963 -0.3814
vn -0.8319 0.4097 -0.3743
vn -0.8704 0.2210 -0.4399
vn -0.8727 0.2067 -0.4423
vn -0.8843 0.0831 -0.4595
vn -0.9716 0.1820 0.1510
vn -0.0587 -0.9873 -0.1474
vn -0.0806 -0.9862 -0.1449
vn 0.0807 -0.9847 -0.1546
vn 0.0866 -0.9842 -0.1545
vn -0.1924 -0.9726 -0.1307
vn -0.2715 -0.9044 -0.3291
vn -0.1450 -0.9180 -0.3691
vn -0.1729 -0.9164 -0.3609
vn 0.0132 -0.9220 -0.3870
vn -0.0087 -0.9220 -0.3870
vn 0.3981 -0.9163 0.0427
vn 0.2949 -0.9518 -0.0840
vn 0.4951 -0.8684 0.0271
vn 0.3444 -0.8797 -0.3279
vn 0.4538 -0.8182 -0.3531
vn 0.2333 -0.8951 -0.3799
vn 0.2821 -0.9528 -0.1127
vn 0.4750 -0.8789 -0.0431
vn 0.4597 -0.7977 -0.3903
vn 0.2354 -0.8861 -0.3992
vn 0.6306 -0.7678 0.1133
vn 0.5544 -0.8198 0.1434
vn 0.5933 -0.7284 -0.3427
vn 0.5839 -0.7458 -0.3206
vn 0.6183 -0.7816 0.0825
vn 0.5464 -0.7848 -0.2926
vn 0.7518 -0.6437 0.1430
vn 0.7815 -0.5773 0.2366
vn 0.7531 -0.6149 0.2341
vn 0.5928 -0.7489 -0.2961
vn 0.6792 -0.6631 -0.3146
vn 0.7438 -0.5924 -0.3095
vn 0.7834 -0.5539 -0.2819
vn 0.9069 -0.3578 -0.2224
vn 0.9115 -0.3473 -0.2203
vn 0.9339 -0.3108 -0.1767
vn 0.9502 -0.2608 -0.1704
vn 0.9540 -0.2504 -0.1646
vn 0.8564 -0.4004 0.3260
vn 0.8607 -0.3846 0.3335
vn 0.8900 -0.2302 0.3936
vn 0.8893 -0.2363 0.3916
vn 0.8966 -0.1290 0.4236
vn 0.9659 -0.2213 -0.1346
vn -0.2062 0.0494 -0.9773
vn 0.3064 0.1502 -0.9400
vn 0.3139 0.1493 -0.9376
vn -0.1999 0.0515 -0.9785
vn 0.7436 -0.3306 0.5811
vn 0.0536 -0.4356 0.8985
vn 0.0964 -0.4319 0.8967
vn 0.7622 -0.3295 0.5573
vn 0.9247 -0.1291 -0.3581
vn 0.9113 -0.1160 -0.3950
vn 0.3181 0.2433 -0.9163
vn 0.3058 0.2398 -0.9214
vn 0.7287 0.1856 -0.6592
vn 0.7537 0.2028 -0.6252
vn -0.0565 -0.2466 -0.9675
vn -0.0895 -0.2618 -0.9610
vn 0.4777 0.2141 -0.8520
vn 0.3819 0.1444 -0.9128
vn 0.7762 0.2945 -0.5576
vn 0.7945 0.3198 -0.5162
vn -0.0202 -0.3704 -0.9286
vn -0.0705 -0.4019 -0.9129
vn 0.3595 0.0586 -0.9313
vn 0.3149 0.0134 -0.9490
vn 0.6653 0.3286 -0.6704
vn 0.6628 0.3243 -0.6749
vn 0.5875 0.0274 0.8088
vn 0.4013 -0.0827 0.9122
vn 0.7825 0.1374 0.6073
vn 0.8092 0.1636 0.5643
vn -0.2182 -0.4519 0.8650
vn -0.1458 -0.4234 0.8941
vn 0.6802 0.3574 0.6400
vn -0.1667 -0.3801 0.9098
vn -0.1093 -0.3413 0.9336
vn 0.6920 0.3724 0.6184
vn 0.3878 0.2644 0.8830
vn 0.3421 0.2153 0.9147
vn 0.6016 0.3698 0.7081
vn 0.6211 0.3975 0.6755
vn -0.1320 -0.4395 0.8885
vn -0.1143 -0.4189 0.9008
vn 0.0937 0.5321 0.8415
vn 0.0265 0.3510 0.9360
vn 0.2219 0.5047 0.8343
vn 0.2227 0.5077 0.8322
vn -0.0482 -0.4221 0.9053
vn -0.0504 -0.4203 0.9060
vn 0.3238 0.2088 0.9228
vn 0.1360 0.0577 0.9890
vn 0.4111 -0.4235 -0.8073
vn 0.4187 -0.3268 -0.8473
vn 0.4183 -0.3335 -0.8448
vn 0.4306 -0.1820 -0.8840
vn 0.4301 -0.1848 -0.8837
vn 0.4029 -0.0990 -0.9099
vn 0.4056 -0.1016 -0.9084
vn -0.0306 -0.4360 0.8994
vn 0.1257 0.9538 0.2729
vn 0.2475 0.9258 0.2858
vn 0.2441 0.9268 0.2854
vn 0.1010 0.9574 0.2704
vn -0.0004 0.9660 0.2584
vn -0.0001 0.9994 0.0344
vn 0.1114 0.9935 0.0238
vn 0.1508 0.9884 0.0200
vn 0.2659 0.9639 0.0130
vn 0.2763 0.9610 0.0129
vn 0.4414 0.7821 0.4399
vn 0.5495 0.7502 0.3678
vn 0.4035 0.8505 0.3373
vn 0.5448 0.8381 -0.0276
vn 0.4511 0.8923 -0.0170
vn 0.6195 0.7821 -0.0677
vn 0.4118 0.8569 0.3099
vn 0.5588 0.7639 0.3227
vn 0.4470 0.8943 -0.0213
vn 0.6114 0.7864 -0.0879
vn 0.5902 0.6999 0.4023
vn 0.6458 0.6803 0.3466
vn 0.6778 0.7214 -0.1420
vn 0.6880 0.7114 -0.1436
vn 0.6416 0.6837 0.3478
vn 0.7026 0.7091 -0.0603
vn 0.7432 0.6175 0.2575
vn 0.7718 0.5251 0.3585
vn 0.7613 0.5275 0.3771
vn 0.6932 0.6945 -0.1928
vn 0.8036 0.5472 -0.2340
vn 0.7727 0.5912 -0.2312
vn 0.8119 0.5377 -0.2275
vn 0.9022 0.3267 -0.2818
vn 0.8914 0.3379 -0.3022
vn 0.9297 0.2778 -0.2418
vn 0.9135 0.2509 -0.3202
vn 0.9125 0.2398 -0.3313
vn 0.8629 0.3477 0.3668
vn 0.8625 0.3485 0.3670
vn 0.9106 0.2367 0.3388
vn 0.9139 0.2274 0.3363
vn 0.9392 0.1438 0.3119
vn 0.9248 0.1830 -0.3336
vn -0.1236 -0.9533 -0.2757
vn -0.0938 -0.9573 -0.2734
vn -0.2439 -0.9273 -0.2838
vn -0.2495 -0.9257 -0.2842
vn 0.0132 -0.9646 -0.2635
vn 0.0051 -0.9994 -0.0331
vn -0.1519 -0.9882 -0.0216
vn -0.1104 -0.9936 -0.0248
vn -0.2777 -0.9605 -0.0193
vn -0.2665 -0.9637 -0.0189
vn -0.4405 -0.7826 -0.4399
vn -0.4068 -0.8516 -0.3306
vn -0.5574 -0.7513 -0.3534
vn -0.5447 -0.8384 0.0210
vn -0.6258 -0.7784 0.0497
vn -0.4541 -0.8909 0.0050
vn -0.4148 -0.8589 -0.3004
vn -0.5692 -0.7659 -0.2991
vn -0.6222 -0.7805 0.0615
vn -0.4502 -0.8929 0.0063
vn -0.6695 -0.6736 -0.3132
vn -0.5902 -0.7032 -0.3965
vn -0.7039 -0.7030 0.1015
vn -0.7074 -0.6981 0.1109
vn -0.6723 -0.6765 -0.3006
vn -0.7024 -0.7100 0.0505
vn -0.7431 -0.6171 -0.2586
vn -0.7887 -0.5335 -0.3057
vn -0.7787 -0.5425 -0.3152
vn -0.7120 -0.6840 0.1588
vn -0.7852 -0.5934 0.1771
vn -0.8126 -0.5582 0.1680
vn -0.8179 -0.5531 0.1584
vn -0.9082 -0.3531 0.2246
vn -0.8980 -0.3691 0.2396
vn -0.9356 -0.2801 0.2147
vn -0.9224 -0.2680 0.2783
vn -0.9217 -0.2595 0.2884
vn -0.8672 -0.3873 -0.3129
vn -0.8687 -0.3840 -0.3129
vn -0.9197 -0.2604 -0.2940
vn -0.9172 -0.2671 -0.2956
vn -0.9461 -0.1750 -0.2725
vn -0.9318 -0.2076 0.2977
vn -0.1046 -0.2933 0.9503
vn -0.6706 -0.0777 0.7378
vn -0.6764 -0.0760 0.7326
vn -0.1066 -0.2927 0.9503
vn -0.5722 0.1211 -0.8111
vn 0.1536 -0.1068 -0.9823
vn 0.1595 -0.1090 -0.9812
vn -0.5864 0.1226 -0.8007
vn -0.9975 0.0649 -0.0288
vn -0.9977 0.0642 -0.0239
vn -0.4659 0.0160 0.8847
vn -0.4797 0.0254 0.8770
vn -0.8029 0.1598 0.5743
vn -0.8021 0.1583 0.5759
vn -0.0541 -0.4520 0.8904
vn -0.0523 -0.4529 0.8900
vn -0.5193 0.1017 0.8485
vn -0.4180 -0.0052 0.9084
vn -0.7527 0.2977 0.5872
vn -0.7519 0.2959 0.5892
vn 0.0395 -0.5123 0.8579
vn 0.0394 -0.5123 0.8579
vn -0.2924 -0.0202 0.9561
vn -0.2035 -0.1247 0.9711
vn -0.5239 0.2414 0.8168
vn -0.5315 0.2543 0.8080
vn -0.3006 0.3066 -0.9031
vn -0.2335 0.2711 -0.9338
vn -0.6978 0.3944 -0.5980
vn -0.7096 0.4025 -0.5783
vn 0.2582 -0.2634 -0.9295
vn 0.2749 -0.2747 -0.9214
vn -0.6403 0.5201 -0.5652
vn 0.1067 -0.2406 -0.9647
vn 0.1219 -0.2555 -0.9591
vn -0.6477 0.5284 -0.5488
vn -0.2971 0.2309 -0.9265
vn -0.4194 0.3730 -0.8276
vn -0.6335 0.4450 -0.6330
vn -0.6413 0.4584 -0.6153
vn -0.0521 -0.3508 -0.9350
vn -0.0492 -0.3572 -0.9327
vn -0.2659 0.5084 -0.8190
vn -0.2480 0.4212 -0.8724
vn -0.3948 0.5198 -0.7576
vn -0.3975 0.5620 -0.7254
vn -0.2116 -0.3551 -0.9106
vn -0.2110 -0.3546 -0.9109
vn -0.0810 0.3546 -0.9315
vn -0.0528 0.3310 -0.9422
vn -0.1845 -0.3686 0.9111
vn -0.1731 -0.3838 0.9071
vn -0.1721 -0.3851 0.9067
vn -0.1770 -0.3444 0.9220
vn -0.1782 -0.3405 0.9232
vn -0.1991 -0.2413 0.9498
vn -0.1992 -0.2404 0.9500
vn -0.2364 -0.3717 -0.8977
vn 0.3795 0.9225 0.0699
vn 0.2767 0.9605 -0.0287
vn 0.2753 0.9609 -0.0300
vn 0.3904 0.9169 0.0826
vn 0.4463 0.8823 0.1493
vn 0.4196 0.8828 0.2112
vn 0.3345 0.9190 0.2088
vn 0.2961 0.9324 0.2072
vn 0.1791 0.9668 0.1822
vn 0.1582 0.9718 0.1750
vn 0.0509 0.9761 -0.2112
vn -0.0477 0.9712 -0.2333
vn 0.1170 0.9813 -0.1529
vn -0.1074 0.9933 -0.0426
vn -0.0275 0.9957 0.0883
vn -0.2176 0.9760 0.0002
vn 0.1159 0.9821 -0.1486
vn -0.0385 0.9729 -0.2282
vn -0.0205 0.9922 0.1228
vn -0.2158 0.9737 0.0730
vn -0.1176 0.9602 -0.2533
vn -0.1799 0.9416 -0.2847
vn -0.3432 0.9381 0.0460
vn -0.3533 0.9355 -0.0057
vn -0.1634 0.9408 -0.2969
vn -0.3040 0.9456 -0.1157
vn -0.3438 0.9037 -0.2553
vn -0.3752 0.8309 -0.4109
vn -0.3615 0.8253 -0.4338
vn -0.3911 0.9202 -0.0191
vn -0.5744 0.8182 -0.0257
vn -0.5170 0.8552 -0.0362
vn -0.5805 0.8141 -0.0143
vn -0.8142 0.5750 -0.0803
vn -0.8043 0.5909 -0.0637
vn -0.8705 0.4770 -0.1214
vn -0.8819 0.4617 -0.0949
vn -0.8851 0.4561 -0.0929
vn -0.5445 0.6434 -0.5382
vn -0.5453 0.6423 -0.5386
vn -0.6525 0.5047 -0.5652
vn -0.6601 0.4945 -0.5655
vn -0.7197 0.4051 -0.5638
vn -0.9040 0.4099 -0.1217
vn -0.3806 -0.9244 -0.0251
vn -0.3915 -0.9197 -0.0310
vn -0.2719 -0.9614 0.0423
vn -0.2747 -0.9607 0.0405
vn -0.4664 -0.8815 -0.0731
vn -0.3799 -0.8842 -0.2720
vn -0.2682 -0.9353 -0.2310
vn -0.2980 -0.9234 -0.2421
vn -0.1509 -0.9721 -0.1794
vn -0.1658 -0.9683 -0.1866
vn -0.0491 -0.9741 0.2205
vn -0.1235 -0.9801 0.1557
vn 0.0445 -0.9677 0.2481
vn 0.1167 -0.9921 0.0456
vn 0.2261 -0.9741 -0.0107
vn 0.0264 -0.9953 -0.0936
vn -0.1232 -0.9804 0.1537
vn 0.0215 -0.9688 0.2469
vn 0.2213 -0.9701 -0.0994
vn 0.0217 -0.9910 -0.1321
vn 0.1576 -0.9410 0.2995
vn 0.1340 -0.9550 0.2646
vn 0.3351 -0.9374 -0.0942
vn 0.3519 -0.9359 -0.0178
vn 0.1186 -0.9400 0.3199
vn 0.3214 -0.9389 0.1231
vn 0.3843 -0.8937 0.2316
vn 0.3411 -0.8368 0.4282
vn 0.3079 -0.8307 0.4638
vn 0.3890 -0.9212 0.0133
vn 0.5130 -0.8581 0.0205
vn 0.5696 -0.8217 -0.0190
vn 0.5802 -0.8131 -0.0480
vn 0.8200 -0.5706 0.0449
vn 0.8142 -0.5805 0.0120
vn 0.8682 -0.4812 0.1211
vn 0.8837 -0.4639 0.0620
vn 0.8868 -0.4588 0.0556
vn 0.5119 -0.6378 0.5756
vn 0.5122 -0.6373 0.5757
vn 0.6319 -0.4977 0.5941
vn 0.6265 -0.5038 0.5948
vn 0.6878 -0.4311 0.5840
vn 0.8978 -0.4310 0.0905
vn 0.3464 -0.2015 -0.9162
vn 0.8328 -0.2354 -0.5011
vn 0.8520 -0.2444 -0.4629
vn 0.4251 -0.2048 -0.8817
vn 0.1199 -0.1679 0.9785
vn -0.6351 -0.1385 0.7599
vn -0.5551 -0.1415 0.8197
vn 0.1694 -0.1765 0.9696
vn 0.8606 -0.3255 0.3916
vn 0.8470 -0.3239 0.4215
vn 0.8713 -0.0555 -0.4876
vn 0.7477 -0.0877 -0.6583
vn 0.9731 -0.1056 -0.2046
vn 0.9911 -0.0743 -0.1101
vn 0.2776 -0.3295 -0.9024
vn 0.3209 -0.3257 -0.8894
vn 0.9382 0.0770 -0.3374
vn 0.6881 -0.0882 -0.7202
vn 0.9835 0.0461 -0.1749
vn 0.9940 0.0981 -0.0476
vn 0.1762 -0.3615 -0.9156
vn 0.1903 -0.3587 -0.9138
vn 0.7429 0.0454 -0.6679
vn 0.5403 -0.0873 -0.8370
vn 0.8805 0.1093 -0.4612
vn 0.9151 0.1611 -0.3697
vn 0.1164 0.0884 0.9893
vn -0.2730 0.0334 0.9614
vn 0.4102 0.0394 0.9112
vn 0.5166 0.0635 0.8539
vn -0.7160 -0.2379 0.6563
vn -0.6956 -0.2327 0.6798
vn 0.4307 0.1821 0.8840
vn -0.6057 -0.2817 0.7442
vn -0.6005 -0.2790 0.7494
vn 0.5352 0.2233 0.8147
vn 0.0248 0.1397 0.9899
vn -0.0774 0.0861 0.9933
vn 0.3534 0.1124 0.9287
vn 0.4898 0.1978 0.8491
vn -0.4818 -0.4361 0.7601
vn -0.4904 -0.4471 0.7481
vn -0.0584 0.3406 0.9384
vn -0.1460 0.2265 0.9630
vn 0.1518 0.3086 0.9390
vn 0.1587 0.3196 0.9342
vn -0.2652 -0.5305 0.8052
vn -0.2650 -0.5308 0.8050
vn -0.0171 0.2901 0.9568
vn -0.4901 0.1186 0.8636
vn 0.5450 -0.3679 -0.7534
vn 0.5037 -0.3667 -0.7822
vn 0.5034 -0.3667 -0.7824
vn 0.4751 -0.3167 -0.8210
vn 0.4754 -0.3156 -0.8212
vn 0.5038 -0.2228 -0.8346
vn 0.5031 -0.2247 -0.8345
vn -0.2141 -0.5981 0.7723
vn -0.1497 0.9404 -0.3054
vn -0.1670 0.9685 -0.1848
vn -0.1685 0.9702 -0.1744
vn -0.1490 0.9390 -0.3101
vn -0.1370 0.9102 -0.3907
vn -0.0169 0.9054 -0.4242
vn 0.0159 0.9322 -0.3616
vn 0.0375 0.9470 -0.3191
vn 0.0687 0.9715 -0.2267
vn 0.0756 0.9778 -0.1953
vn -0.2208 0.9736 0.0582
vn -0.1850 0.9730 0.1381
vn -0.1935 0.9809 -0.0182
vn -0.0002 0.9948 0.1017
vn 0.0881 0.9958 -0.0232
vn 0.0890 0.9828 0.1617
vn -0.1882 0.9821 -0.0117
vn -0.1866 0.9735 0.1322
vn 0.1164 0.9922 -0.0442
vn 0.1616 0.9788 0.1259
vn -0.1626 0.9660 0.2010
vn -0.1767 0.9424 0.2839
vn 0.1929 0.9437 0.2686
vn 0.1469 0.9381 0.3138
vn -0.2005 0.9399 0.2764
vn -0.0037 0.9566 0.2915
vn -0.0625 0.8921 0.4476
vn -0.2176 0.8137 0.5390
vn -0.2491 0.8049 0.5387
vn 0.1620 0.9106 0.3803
vn 0.2384 0.7978 0.5538
vn 0.2032 0.8389 0.5050
vn 0.2515 0.7936 0.5540
vn 0.2961 0.5314 0.7937
vn 0.3103 0.5480 0.7768
vn 0.2754 0.4281 0.8608
vn 0.3221 0.4204 0.8483
vn 0.3288 0.4160 0.8479
vn -0.2721 0.6021 0.7507
vn -0.2722 0.6001 0.7522
vn -0.2668 0.4638 0.8448
vn -0.2653 0.4528 0.8513
vn -0.2533 0.3721 0.8930
vn 0.3208 0.3761 0.8693
vn 0.1796 -0.9401 0.2897
vn 0.1796 -0.9400 0.2900
vn 0.1778 -0.9693 0.1701
vn 0.1775 -0.9679 0.1782
vn 0.1856 -0.9091 0.3729
vn -0.0345 -0.9025 0.4292
vn -0.0639 -0.9458 0.3184
vn -0.0550 -0.9340 0.3530
vn -0.0823 -0.9773 0.1954
vn -0.0801 -0.9717 0.2222
vn 0.2283 -0.9714 -0.0651
vn 0.2008 -0.9794 0.0201
vn 0.1985 -0.9697 -0.1425
vn -0.0002 -0.9938 -0.1114
vn -0.0989 -0.9812 -0.1660
vn -0.0924 -0.9953 0.0276
vn 0.1982 -0.9801 0.0136
vn 0.2098 -0.9695 -0.1267
vn -0.1872 -0.9748 -0.1213
vn -0.1248 -0.9910 0.0492
vn 0.1905 -0.9427 -0.2738
vn 0.1623 -0.9618 -0.2207
vn -0.2290 -0.9451 -0.2333
vn -0.1545 -0.9436 -0.2928
vn 0.2352 -0.9389 -0.2515
vn 0.0136 -0.9491 -0.3145
vn -0.0191 -0.8782 -0.4779
vn 0.2283 -0.8198 -0.5251
vn 0.2806 -0.8120 -0.5118
vn -0.1346 -0.9214 -0.3645
vn -0.1862 -0.8499 -0.4929
vn -0.2546 -0.8105 -0.5276
vn -0.2922 -0.8054 -0.5157
vn -0.3054 -0.5293 -0.7915
vn -0.3311 -0.5413 -0.7729
vn -0.2599 -0.4374 -0.8609
vn -0.3050 -0.4248 -0.8523
vn -0.3107 -0.4220 -0.8517
vn 0.2843 -0.5992 -0.7484
vn 0.2840 -0.5965 -0.7507
vn 0.2362 -0.4555 -0.8583
vn 0.2392 -0.4598 -0.8552
vn 0.1929 -0.3934 -0.8989
vn -0.2746 -0.4016 -0.8737
vn -0.9548 -0.1825 0.2344
vn -0.9207 -0.2505 -0.2992
vn -0.9082 -0.2651 -0.3239
vn -0.9684 -0.1840 0.1686
vn 0.7583 -0.1687 -0.6297
vn 0.9787 -0.1771 0.1040
vn 0.9847 -0.1744 0.0005
vn 0.7303 -0.1755 -0.6602
vn -0.2554 -0.3994 -0.8805
vn -0.1116 -0.3864 -0.9155
vn -0.8960 -0.0236 -0.4433
vn -0.9668 -0.0594 -0.2484
vn -0.7341 -0.0710 -0.6753
vn -0.6690 -0.0391 -0.7423
vn -0.9208 -0.3193 0.2241
vn -0.9407 -0.3069 0.1448
vn -0.7543 0.1035 -0.6483
vn -0.9696 -0.0869 -0.2289
vn -0.6612 0.0728 -0.7467
vn -0.5410 0.1371 -0.8298
vn -0.8911 -0.3686 0.2645
vn -0.9132 -0.3522 0.2052
vn -0.9215 0.0994 -0.3753
vn -0.9941 -0.1035 -0.0333
vn -0.8221 0.1325 -0.5537
vn -0.7638 0.1868 -0.6178
vn 0.8191 0.0774 -0.5684
vn 0.9797 -0.0098 -0.2000
vn 0.6919 0.0591 -0.7196
vn 0.5644 0.1010 -0.8193
vn 0.8725 -0.3140 0.3743
vn 0.9209 -0.2844 0.2666
vn 0.6698 0.1732 -0.7220
vn 0.9109 -0.3746 0.1733
vn 0.9307 -0.3463 0.1177
vn 0.5217 0.2515 -0.8152
vn 0.8079 0.0885 -0.5826
vn 0.9458 -0.1211 -0.3013
vn 0.6973 0.1748 -0.6952
vn 0.5768 0.2611 -0.7740
vn 0.8949 -0.4339 0.1046
vn 0.8843 -0.4501 0.1238
vn 0.8861 0.3355 -0.3198
vn 0.9309 0.2479 -0.2683
vn 0.7711 0.3420 -0.5370
vn 0.7860 0.3198 -0.5291
vn 0.8471 -0.5202 -0.1089
vn 0.8454 -0.5226 -0.1100
vn 0.8893 0.1693 -0.4247
vn 0.9880 -0.0849 0.1289
vn -0.9179 -0.3636 -0.1589
vn -0.9254 -0.3619 -0.1121
vn -0.9252 -0.3620 -0.1134
vn -0.9471 -0.3118 -0.0764
vn -0.9466 -0.3133 -0.0761
vn -0.9703 -0.2208 -0.0988
vn -0.9696 -0.2243 -0.0977
vn 0.7976 -0.5873 -0.1376
vn -0.2984 0.9284 0.2212
vn -0.1563 0.9630 0.2196
vn -0.1475 0.9646 0.2187
vn -0.3102 0.9249 0.2197
vn -0.3912 0.8964 0.2082
vn -0.3997 0.8963 0.1922
vn -0.3594 0.9241 0.1300
vn -0.3379 0.9361 0.0979
vn -0.2553 0.9666 0.0211
vn -0.2318 0.9727 0.0052
vn 0.1104 0.9883 0.1056
vn 0.1856 0.9792 0.0817
vn 0.0366 0.9848 0.1696
vn 0.1378 0.9904 0.0036
vn -0.0496 0.9965 -0.0671
vn 0.1394 0.9815 -0.1316
vn 0.0422 0.9825 0.1814
vn 0.1848 0.9756 0.1182
vn -0.0913 0.9912 -0.0958
vn 0.0561 0.9775 -0.2033
vn 0.2339 0.9723 0.0013
vn 0.3087 0.9509 0.0235
vn 0.1710 0.9433 -0.2846
vn 0.2406 0.9405 -0.2401
vn 0.3087 0.9489 0.0660
vn 0.3057 0.9481 -0.0878
vn 0.4012 0.8963 -0.1888
vn 0.5578 0.8289 -0.0426
vn 0.5632 0.8263 -0.0010
vn 0.3039 0.9192 -0.2504
vn 0.4146 0.8026 -0.4289
vn 0.3931 0.8480 -0.3555
vn 0.4125 0.7930 -0.4483
vn 0.6069 0.5338 -0.5888
vn 0.5962 0.5472 -0.5875
vn 0.6579 0.4335 -0.6159
vn 0.6572 0.4198 -0.6260
vn 0.6613 0.4116 -0.6271
vn 0.7809 0.6206 -0.0718
vn 0.7803 0.6213 -0.0716
vn 0.8850 0.4562 -0.0935
vn 0.8910 0.4442 -0.0937
vn 0.9427 0.3200 -0.0944
vn 0.6896 0.3668 -0.6245
vn 0.2529 -0.9314 -0.2616
vn 0.2569 -0.9299 -0.2633
vn 0.1335 -0.9655 -0.2235
vn 0.1400 -0.9642 -0.2252
vn 0.3299 -0.8973 -0.2934
vn 0.4284 -0.8976 -0.1041
vn 0.3366 -0.9401 -0.0540
vn 0.3614 -0.9300 -0.0673
vn 0.2250 -0.9744 -0.0006
vn 0.2442 -0.9697 -0.0091
vn -0.1220 -0.9867 -0.1076
vn -0.0341 -0.9839 -0.1755
vn -0.1963 -0.9758 -0.0969
vn -0.1524 -0.9883 -0.0002
vn -0.1430 -0.9800 0.1386
vn 0.0495 -0.9968 0.0630
vn -0.0393 -0.9805 -0.1926
vn -0.1864 -0.9704 -0.1539
vn -0.0445 -0.9750 0.2175
vn 0.0931 -0.9911 0.0949
vn -0.2927 -0.9543 -0.0601
vn -0.2576 -0.9662 0.0088
vn -0.1209 -0.9472 0.2969
vn -0.2152 -0.9480 0.2346
vn -0.2818 -0.9504 -0.1314
vn -0.3297 -0.9396 0.0922
vn -0.3837 -0.8922 0.2382
vn -0.5371 -0.8435 -0.0082
vn -0.5448 -0.8352 -0.0750
vn -0.2853 -0.9335 0.2172
vn -0.3700 -0.8684 0.3302
vn -0.3677 -0.8213 0.4362
vn -0.3550 -0.8034 0.4782
vn -0.5851 -0.5345 0.6099
vn -0.5644 -0.5431 0.6217
vn -0.6576 -0.4369 0.6137
vn -0.6381 -0.4189 0.6461
vn -0.6393 -0.4118 0.6495
vn -0.7884 -0.6151 0.0094
vn -0.7899 -0.6131 0.0102
vn -0.8992 -0.4355 0.0428
vn -0.8949 -0.4443 0.0424
vn -0.9457 -0.3217 0.0464
vn -0.6690 -0.3777 0.6402
vn 0.5147 -0.1820 0.8378
vn -0.0978 -0.1761 0.9795
vn -0.1503 -0.1877 0.9707
vn 0.4041 -0.1759 0.8976
vn -0.8113 -0.1509 -0.5648
vn -0.1636 -0.1864 -0.9687
vn -0.3116 -0.1765 -0.9337
vn -0.8455 -0.1634 -0.5083
vn -0.8630 -0.2922 0.4121
vn -0.8662 -0.2921 0.4055
vn -0.2323 0.0407 0.9718
vn 0.1146 -0.0376 0.9927
vn -0.4047 -0.0269 0.9140
vn -0.5334 0.0260 0.8455
vn 0.5425 -0.3180 0.7775
vn 0.4681 -0.3016 0.8306
vn -0.4018 0.1968 0.8943
vn 0.2292 -0.0783 0.9702
vn -0.4333 0.1115 0.8943
vn -0.5971 0.1994 0.7769
vn 0.5941 -0.3519 0.7233
vn 0.5560 -0.3375 0.7596
vn -0.0055 0.1202 0.9927
vn 0.3437 -0.0828 0.9354
vn -0.1772 0.1523 0.9723
vn -0.3250 0.2418 0.9143
vn -0.8716 0.1284 -0.4730
vn -0.4667 -0.0150 -0.8843
vn -0.9362 0.0872 -0.3406
vn -0.9796 0.1436 -0.1406
vn -0.0372 -0.2924 -0.9556
vn -0.1195 -0.2712 -0.9551
vn -0.9247 0.2181 -0.3119
vn -0.1942 -0.3084 -0.9312
vn -0.2373 -0.2887 -0.9275
vn -0.9474 0.3061 -0.0934
vn -0.8493 0.2312 -0.4747
vn -0.6132 -0.0101 -0.7898
vn -0.9233 0.1156 -0.3664
vn -0.9567 0.2650 -0.1207
vn -0.2978 -0.4668 -0.8327
vn -0.2872 -0.4766 -0.8308
vn -0.6780 0.3662 -0.6374
vn -0.6446 0.2200 -0.7322
vn -0.8032 0.3227 -0.5008
vn -0.8031 0.3505 -0.4818
vn -0.4689 -0.5485 -0.6923
vn -0.4688 -0.5476 -0.6931
vn -0.7824 0.3302 -0.5281
vn -0.1860 -0.0258 -0.9822
vn 0.2236 -0.3244 0.9191
vn 0.2608 -0.3216 0.9102
vn 0.2602 -0.3217 0.9104
vn 0.3008 -0.2712 0.9143
vn 0.3011 -0.2673 0.9154
vn 0.2990 -0.1808 0.9370
vn 0.2990 -0.1805 0.9370
vn -0.4780 -0.6050 -0.6368
vt 0.575076 0.115412
vt 0.534196 0.133570
vt 0.536850 0.094162
vt 0.573236 0.095580
vt 0.593012 0.097006
vt 0.575045 0.074550
vt 0.527835 0.052495
vt 0.501626 0.145959
vt 0.470953 0.156789
vt 0.444918 0.133219
vt 0.506801 0.119737
vt 0.503056 0.039768
vt 0.505370 0.069936
vt 0.446580 0.054011
vt 0.462877 0.025167
vt 0.503474 0.093120
vt 0.443644 0.092845
vt 0.446678 0.161025
vt 0.423259 0.164183
vt 0.395969 0.133454
vt 0.391225 0.092565
vt 0.389820 0.040531
vt 0.448228 0.023820
vt 0.415743 0.014764
vt 0.382962 0.161994
vt 0.343776 0.161118
vt 0.345266 0.092727
vt 0.394231 0.014391
vt 0.352605 0.042513
vt 0.356570 0.016931
vt 0.311747 0.039629
vt 0.305853 0.093145
vt 0.311689 0.017368
vt 0.256068 0.033877
vt 0.256576 0.093142
vt 0.299563 0.155340
vt 0.254850 0.142413
vt 0.198828 0.126251
vt 0.199208 0.091783
vt 0.197368 0.055759
vt 0.772404 0.421125
vt 0.770194 0.432072
vt 0.747591 0.433514
vt 0.750080 0.408098
vt 0.778870 0.431273
vt 0.773503 0.443527
vt 0.749332 0.460332
vt 0.706427 0.389604
vt 0.723624 0.409146
vt 0.655407 0.399558
vt 0.688891 0.388865
vt 0.711836 0.484491
vt 0.694507 0.494799
vt 0.657562 0.479571
vt 0.725584 0.460440
vt 0.720253 0.436637
vt 0.653576 0.438866
vt 0.599109 0.398994
vt 0.627607 0.379710
vt 0.636672 0.378637
vt 0.597426 0.439033
vt 0.593476 0.488686
vt 0.634383 0.505643
vt 0.619264 0.504651
vt 0.574572 0.386137
vt 0.553486 0.392273
vt 0.558263 0.440796
vt 0.575706 0.502374
vt 0.560468 0.496407
vt 0.560907 0.479867
vt 0.528599 0.479613
vt 0.531740 0.439329
vt 0.513156 0.485759
vt 0.491533 0.468169
vt 0.499551 0.434554
vt 0.526407 0.398812
vt 0.499733 0.405695
vt 0.467077 0.431392
vt 0.473052 0.417482
vt 0.468709 0.447300
vt 0.753202 0.398661
vt 0.779322 0.413982
vt 0.780604 0.449182
vt 0.753277 0.469298
vt 0.788953 0.430508
vt 0.728612 0.394828
vt 0.710132 0.381890
vt 0.688468 0.379471
vt 0.658493 0.382495
vt 0.638748 0.370972
vt 0.625088 0.372531
vt 0.597631 0.384826
vt 0.574956 0.377813
vt 0.731698 0.473689
vt 0.717552 0.489884
vt 0.695996 0.504779
vt 0.637429 0.514570
vt 0.617007 0.512913
vt 0.593639 0.502956
vt 0.576549 0.509593
vt 0.557597 0.504370
vt 0.526582 0.491048
vt 0.512103 0.493165
vt 0.486710 0.474000
vt 0.661841 0.499226
vt 0.467602 0.412218
vt 0.496968 0.398093
vt 0.524316 0.390596
vt 0.551477 0.383301
vt 0.461936 0.450657
vt 0.964486 0.311452
vt 0.919356 0.331498
vt 0.922286 0.287993
vt 0.962455 0.289559
vt 0.984286 0.291133
vt 0.964451 0.266342
vt 0.912333 0.241995
vt 0.883400 0.345175
vt 0.849538 0.357131
vt 0.820797 0.331111
vt 0.889113 0.316227
vt 0.884978 0.227944
vt 0.887533 0.261248
vt 0.822631 0.243669
vt 0.840622 0.211825
vt 0.885440 0.286844
vt 0.819390 0.286539
vt 0.822739 0.361808
vt 0.796885 0.365294
vt 0.766758 0.331370
vt 0.761522 0.286230
vt 0.759970 0.228786
vt 0.824450 0.210338
vt 0.788588 0.200341
vt 0.752400 0.362877
vt 0.709139 0.361911
vt 0.710784 0.286409
vt 0.764840 0.199929
vt 0.718887 0.230975
vt 0.723263 0.202733
vt 0.673780 0.227791
vt 0.667274 0.286870
vt 0.673717 0.203216
vt 0.612313 0.221440
vt 0.612874 0.286867
vt 0.660330 0.355532
vt 0.610969 0.341260
vt 0.549122 0.323418
vt 0.549541 0.285367
vt 0.547511 0.245598
vt 0.973996 0.077600
vt 0.971374 0.090592
vt 0.944548 0.092304
vt 0.947502 0.062138
vt 0.981671 0.089644
vt 0.975302 0.104188
vt 0.946614 0.124132
vt 0.895692 0.040189
vt 0.916102 0.063383
vt 0.835139 0.052003
vt 0.874880 0.039312
vt 0.902111 0.152806
vt 0.881544 0.165040
vt 0.837696 0.146966
vt 0.918429 0.124261
vt 0.912101 0.096011
vt 0.832965 0.098656
vt 0.768322 0.051334
vt 0.802144 0.028446
vt 0.812903 0.027173
vt 0.766324 0.098854
vt 0.761635 0.157784
vt 0.810187 0.177910
vt 0.792242 0.176733
vt 0.739199 0.036074
vt 0.714173 0.043356
vt 0.719843 0.100946
vt 0.740546 0.174031
vt 0.722460 0.166948
vt 0.722981 0.147318
vt 0.684636 0.147017
vt 0.688364 0.099206
vt 0.666307 0.154311
vt 0.640644 0.133434
vt 0.650161 0.093538
vt 0.682035 0.051118
vt 0.650377 0.059286
vt 0.611619 0.089785
vt 0.618710 0.073276
vt 0.613556 0.108666
vt 0.951207 0.050938
vt 0.982207 0.069122
vt 0.983729 0.110899
vt 0.951296 0.134774
vt 0.993639 0.088736
vt 0.922023 0.046389
vt 0.900090 0.031033
vt 0.874377 0.028163
vt 0.838801 0.031751
vt 0.815367 0.018075
vt 0.799154 0.019926
vt 0.766567 0.034519
vt 0.739655 0.026195
vt 0.925685 0.139986
vt 0.908895 0.159207
vt 0.883312 0.176885
vt 0.813802 0.188506
vt 0.789564 0.186539
vt 0.761829 0.174721
vt 0.741546 0.182598
vt 0.719052 0.176399
vt 0.682242 0.160588
vt 0.665058 0.163101
vt 0.634921 0.140355
vt 0.842775 0.170294
vt 0.612242 0.067028
vt 0.647095 0.050264
vt 0.679552 0.041366
vt 0.711789 0.032708
vt 0.605518 0.112649
s 1
usemtl Forest_Greens
f 1/1/1 2/2/2 26/3/3 25/4/4
f 1/1/1 25/4/4 5/5/5
f 5/5/6 25/4/7 3/6/8
f 25/4/7 26/3/9 4/7/10 3/6/8
f 7/8/11 8/9/11 9/10/12 6/11/13
f 15/12/14 14/13/15 31/14/16 16/15/14
f 29/16/17 6/11/13 9/10/12 30/17/18
f 14/13/15 29/16/19 30/17/20 31/14/16
f 6/11/13 29/16/17 26/3/3 2/2/2
f 4/7/10 26/3/9 29/16/19 14/13/15
f 9/10/12 10/18/21 11/19/21 12/20/22
f 27/21/23 19/22/24 31/14/16 30/17/20
f 30/17/18 9/10/12 12/20/22 27/21/25
f 17/23/26 31/14/16 19/22/24 18/24/26
f 13/25/27 33/26/28 12/20/22
f 27/21/25 12/20/22 33/26/28 28/27/29
f 20/28/30 19/22/24 34/29/31 21/30/32
f 28/27/33 34/29/31 19/22/24 27/21/23
f 22/31/34 21/30/32 34/29/31
f 34/29/31 28/27/33 37/32/35 22/31/34
f 23/33/36 22/31/34 24/34/37
f 39/35/38 24/34/37 22/31/34 37/32/35
f 33/26/28 32/36/39 37/32/40 28/27/29
f 32/36/39 40/37/41 39/35/42 37/32/40
f 40/37/41 35/38/43 38/39/43 39/35/42
f 38/39/44 36/40/44 24/34/37 39/35/38
f 41/41/45 65/42/46 66/43/47 42/44/48
f 41/41/45 45/45/49 65/42/46
f 45/45/50 43/46/51 65/42/52
f 65/42/52 43/46/51 44/47/53 66/43/54
f 47/48/55 46/49/56 49/50/57 48/51/55
f 55/52/58 56/53/58 71/54/59 54/55/60
f 69/56/61 70/57/62 49/50/57 46/49/56
f 54/55/60 71/54/59 70/57/63 69/56/64
f 46/49/56 42/44/48 66/43/47 69/56/61
f 44/47/53 54/55/60 69/56/64 66/43/54
f 49/50/57 52/58/65 51/59/66 50/60/66
f 67/61/67 70/57/63 71/54/59 59/62/68
f 70/57/62 67/61/69 52/58/65 49/50/57
f 57/63/70 58/64/70 59/62/68 71/54/59
f 53/65/71 52/58/65 73/66/72
f 67/61/69 68/67/73 73/66/72 52/58/65
f 60/68/74 61/69/75 74/70/76 59/62/68
f 68/67/77 67/61/67 59/62/68 74/70/76
f 62/71/78 74/70/76 61/69/75
f 74/70/76 62/71/78 77/72/79 68/67/77
f 63/73/80 64/74/81 62/71/78
f 79/75/82 77/72/79 62/71/78 64/74/81
f 73/66/72 68/67/73 77/72/83 72/76/84
f 72/76/84 77/72/83 79/75/85 80/77/86
f 80/77/86 79/75/85 78/78/87 75/79/87
f 78/78/88 79/75/82 64/74/81 76/80/88
f 2/81/89 1/82/90 41/41/91 42/44/92
f 3/83/93 4/84/94 44/47/95 43/46/96
f 5/85/97 3/83/93 43/46/96 45/45/98
f 1/82/90 5/85/97 45/45/98 41/41/91
f 6/86/99 2/81/89 42/44/92 46/49/100
f 7/87/101 6/86/99 46/49/100 47/48/102
f 8/88/103 7/87/101 47/48/102 48/51/104
f 9/89/105 8/88/103 48/51/104 49/50/106
f 10/90/107 9/89/105 49/50/106 50/60/108
f 11/91/109 10/90/107 50/60/108 51/59/110
f 12/92/111 11/91/109 51/59/110 52/58/112
f 13/93/113 12/92/111 52/58/112 53/65/114
f 4/84/94 14/94/115 54/55/116 44/47/95
f 14/94/115 15/95/117 55/52/118 54/55/116
f 15/95/117 16/96/119 56/53/120 55/52/118
f 17/97/121 18/98/122 58/64/123 57/63/124
f 18/98/122 19/99/125 59/62/126 58/64/123
f 19/99/125 20/100/127 60/68/128 59/62/126
f 20/100/127 21/101/129 61/69/130 60/68/128
f 21/101/129 22/102/131 62/71/132 61/69/130
f 22/102/131 23/103/133 63/73/134 62/71/132
f 23/103/133 24/104/135 64/74/136 63/73/134
f 16/96/119 31/105/137 71/54/138 56/53/120
f 35/106/139 40/107/140 80/77/141 75/79/139
f 40/107/140 32/108/142 72/76/143 80/77/141
f 32/108/142 33/109/144 73/66/145 72/76/143
f 24/104/135 36/110/146 76/80/146 64/74/136
f 33/109/144 13/93/113 53/65/114 73/66/145
f 31/105/137 17/97/121 57/63/124 71/54/138
f 81/111/147 82/112/148 106/113/149 105/114/150
f 81/111/147 105/114/150 85/115/151
f 85/115/152 105/114/153 83/116/154
f 105/114/153 106/113/155 84/117/156 83/116/154
f 87/118/157 88/119/157 89/120/158 86/121/159
f 95/122/160 94/123/161 111/124/162 96/125/160
f 109/126/163 86/121/159 89/120/158 110/127/164
f 94/123/161 109/126/165 110/127/166 111/124/162
f 86/121/159 109/126/163 106/113/149 82/112/148
f 84/117/156 106/113/155 109/126/165 94/123/161
f 89/120/158 90/128/167 91/129/167 92/130/168
f 107/131/169 99/132/170 111/124/162 110/127/166
f 110/127/164 89/120/158 92/130/168 107/131/171
f 97/133/172 111/124/162 99/132/170 98/134/172
f 93/135/173 113/136/174 92/130/168
f 107/131/171 92/130/168 113/136/174 108/137/175
f 100/138/176 99/132/170 114/139/177 101/140/178
f 108/137/179 114/139/177 99/132/170 107/131/169
f 102/141/180 101/140/178 114/139/177
f 114/139/177 108/137/179 117/142/181 102/141/180
f 103/143/182 102/141/180 104/144/183
f 119/145/184 104/144/183 102/141/180 117/142/181
f 113/136/174 112/146/185 117/142/186 108/137/175
f 112/146/185 120/147/187 119/145/188 117/142/186
f 120/147/187 115/148/189 118/149/189 119/145/188
f 118/149/190 116/150/190 104/144/183 119/145/184
f 121/151/191 145/152/192 146/153/193 122/154/194
f 121/151/191 125/155/195 145/152/192
f 125/155/196 123/156/197 145/152/198
f 145/152/198 123/156/197 124/157/199 146/153/200
f 127/158/201 126/159/202 129/160/203 128/161/201
f 135/162/204 136/163/204 151/164/205 134/165/206
f 149/166/207 150/167/208 129/160/203 126/159/202
f 134/165/206 151/164/205 150/167/209 149/166/210
f 126/159/202 122/154/194 146/153/193 149/166/207
f 124/157/199 134/165/206 149/166/210 146/153/200
f 129/160/203 132/168/211 131/169/212 130/170/212
f 147/171/213 150/167/209 151/164/205 139/172/214
f 150/167/208 147/171/215 132/168/211 129/160/203
f 137/173/216 138/174/216 139/172/214 151/164/205
f 133/175/217 132/168/211 153/176/218
f 147/171/215 148/177/219 153/176/218 132/168/211
f 140/178/220 141/179/221 154/180/222 139/172/214
f 148/177/223 147/171/213 139/172/214 154/180/222
f 142/181/224 154/180/222 141/179/221
f 154/180/222 142/181/224 157/182/225 148/177/223
f 143/183/226 144/184/227 142/181/224
f 159/185/228 157/182/225 142/181/224 144/184/227
f 153/176/218 148/177/219 157/182/229 152/186/230
f 152/186/230 157/182/229 159/185/231 160/187/232
f 160/187/232 159/185/231 158/188/233 155/189/233
f 158/188/234 159/185/228 144/184/227 156/190/234
f 82/191/235 81/192/236 121/151/237 122/154/238
f 83/193/239 84/194/240 124/157/241 123/156/242
f 85/195/243 83/193/239 123/156/242 125/155/244
f 81/192/236 85/195/243 125/155/244 121/151/237
f 86/196/245 82/191/235 122/154/238 126/159/246
f 87/197/247 86/196/245 126/159/246 127/158/248
f 88/198/249 87/197/247 127/158/248 128/161/250
f 89/199/251 88/198/249 128/161/250 129/160/252
f 90/200/253 89/199/251 129/160/252 130/170/254
f 91/201/255 90/200/253 130/170/254 131/169/256
f 92/202/257 91/201/255 131/169/256 132/168/258
f 93/203/259 92/202/257 132/168/258 133/175/260
f 84/194/240 94/204/261 134/165/262 124/157/241
f 94/204/261 95/205/263 135/162/264 134/165/262
f 95/205/263 96/206/265 136/163/266 135/162/264
f 97/207/267 98/208/268 138/174/269 137/173/270
f 98/208/268 99/209/271 139/172/272 138/174/269
f 99/209/271 100/210/273 140/178/274 139/172/272
f 100/210/273 101/211/275 141/179/276 140/178/274
f 101/211/275 102/212/277 142/181/278 141/179/276
f 102/212/277 103/213/279 143/183/280 142/181/278
f 103/213/279 104/214/281 144/184/282 143/183/280
f 96/206/265 111/215/283 151/164/284 136/163/266
f 115/216/285 120/217/286 160/187/287 155/189/285
f 120/217/286 112/218/288 152/186/289 160/187/287
f 112/218/288 113/219/290 153/176/291 152/186/289
f 104/214/281 116/220/292 156/190/292 144/184/282
f 113/219/290 93/203/259 133/175/260 153/176/291
f 111/215/283 97/207/267 137/173/270 151/164/284
f 161/111/293 162/112/294 186/113/295 185/114/296
f 161/111/293 185/114/296 165/115/297
f 165/115/298 185/114/299 163/116/300
f 185/114/299 186/113/301 164/117/302 163/116/300
f 167/118/303 168/119/303 169/120/304 166/121/305
f 175/122/306 174/123/307 191/124/308 176/125/306
f 189/126/309 166/121/305 169/120/304 190/127/310
f 174/123/307 189/126/311 190/127/312 191/124/308
f 166/121/305 189/126/309 186/113/295 162/112/294
f 164/117/302 186/113/301 189/126/311 174/123/307
f 169/120/304 170/128/313 171/129/313 172/130/314
f 187/131/315 179/132/316 191/124/308 190/127/312
f 190/127/310 169/120/304 172/130/314 187/131/317
f 177/133/318 191/124/308 179/132/316 178/134/318
f 173/135/319 193/136/320 172/130/314
f 187/131/317 172/130/314 193/136/320 188/137/321
f 180/138/322 179/132/316 194/139/323 181/140/324
f 188/137/325 194/139/323 179/132/316 187/131/315
f 182/141/326 181/140/324 194/139/323
f 194/139/323 188/137/325 197/142/327 182/141/326
f 183/143/328 182/141/326 184/144/329
f 199/145/330 184/144/329 182/141/326 197/142/327
f 193/136/320 192/146/331 197/142/332 188/137/321
f 192/146/331 200/147/333 199/145/334 197/142/332
f 200/147/333 195/148/335 198/149/335 199/145/334
f 198/149/336 196/150/336 184/144/329 199/145/330
f 201/151/337 225/152/338 226/153/339 202/154/340
f 201/151/337 205/155/341 225/152/338
f 205/155/342 203/156/343 225/152/344
f 225/152/344 203/156/343 204/157/345 226/153/346
f 207/158/347 206/159/348 209/160/349 208/161/347
f 215/162/350 216/163/350 231/164/351 214/165/352
f 229/166/353 230/167/354 209/160/349 206/159/348
f 214/165/352 231/164/351 230/167/355 229/166/356
f 206/159/348 202/154/340 226/153/339 229/166/353
f 204/157/345 214/165/352 229/166/356 226/153/346
f 209/160/349 212/168/357 211/169/358 210/170/358
f 227/171/359 230/167/355 231/164/351 219/172/360
f 230/167/354 227/171/361 212/168/357 209/160/349
f 217/173/362 218/174/362 219/172/360 231/164/351
f 213/175/363 212/168/357 233/176/364
f 227/171/361 228/177/365 233/176/364 212/168/357
f 220/178/366 221/179/367 234/180/368 219/172/360
f 228/177/369 227/171/359 219/172/360 234/180/368
f 222/181/370 234/180/368 221/179/367
f 234/180/368 222/181/370 237/182/371 228/177/369
f 223/183/372 224/184/373 222/181/370
f 239/185/374 237/182/371 222/181/370 224/184/373
f 233/176/364 228/177/365 237/182/375 232/186/376
f 232/186/376 237/182/375 239/185/377 240/187/378
f 240/187/378 239/185/377 238/188/379 235/189/379
f 238/188/380 239/185/374 224/184/373 236/190/380
f 162/191/381 161/192/382 201/151/383 202/154/384
f 163/193/385 164/194/386 204/157/387 203/156/388
f 165/195/389 163/193/385 203/156/388 205/155/390
f 161/192/382 165/195/389 205/155/390 201/151/383
f 166/196/391 162/191/381 202/154/384 206/159/392
f 167/197/393 166/196/391 206/159/392 207/158/394
f 168/198/395 167/197/393 207/158/394 208/161/396
f 169/199/397 168/198/395 208/161/396 209/160/398
f 170/200/399 169/199/397 209/160/398 210/170/400
f 171/201/401 170/200/399 210/170/400 211/169/402
f 172/202/403 171/201/401 211/169/402 212/168/404
f 173/203/405 172/202/403 212/168/404 213/175/406
f 164/194/386 174/204/407 214/165/408 204/157/387
f 174/204/407 175/205/409 215/162/410 214/165/408
f 175/205/409 176/206/411 216/163/412 215/162/410
f 177/207/413 178/208/414 218/174/415 217/173/416
f 178/208/414 179/209/417 219/172/418 218/174/415
f 179/209/417 180/210/419 220/178/420 219/172/418
f 180/210/419 181/211/421 221/179/422 220/178/420
f 181/211/421 182/212/423 222/181/424 221/179/422
f 182/212/423 183/213/425 223/183/426 222/181/424
f 183/213/425 184/214/427 224/184/428 223/183/426
f 176/206/411 191/215/429 231/164/430 216/163/412
f 195/216/431 200/217/432 240/187/433 235/189/431
f 200/217/432 192/218/434 232/186/435 240/187/433
f 192/218/434 193/219/436 233/176/437 232/186/435
f 184/214/427 196/220/438 236/190/438 224/184/428
f 193/219/436 173/203/405 213/175/406 233/176/437
f 191/215/429 177/207/413 217/173/416 231/164/430
f 241/111/439 242/112/440 266/113/441 265/114/442
f 241/111/439 265/114/442 245/115/443
f 245/115/444 265/114/445 243/116/446
f 265/114/445 266/113/447 244/117/448 243/116/446
f 247/118/449 248/119/449 249/120/450 246/121/451
f 255/122/452 254/123/453 271/124/454 256/125/452
f 269/126/455 246/121/451 249/120/450 270/127/456
f 254/123/453 269/126/457 270/127/458 271/124/454
f 246/121/451 269/126/455 266/113/441 242/112/440
f 244/117/448 266/113/447 269/126/457 254/123/453
f 249/120/450 250/128/459 251/129/459 252/130/460
f 267/131/461 259/132/462 271/124/454 270/127/458
f 270/127/456 249/120/450 252/130/460 267/131/463
f 257/133/464 271/124/454 259/132/462 258/134/464
f 253/135/465 273/136/466 252/130/460
f 267/131/463 252/130/460 273/136/466 268/137/467
f 260/138/468 259/132/462 274/139/469 261/140/470
f 268/137/471 274/139/469 259/132/462 267/131/461
f 262/141/472 261/140/470 274/139/469
f 274/139/469 268/137/471 277/142/473 262/141/472
f 263/143/474 262/141/472 264/144/475
f 279/145/476 264/144/475 262/141/472 277/142/473
f 273/136/466 272/146/477 277/142/478 268/137/467
f 272/146/477 280/147/479 279/145/480 277/142/478
f 280/147/479 275/148/481 278/149/481 279/145/480
f 278/149/482 276/150/482 264/144/475 279/145/476
f 281/151/483 305/152/484 306/153/485 282/154/486
f 281/151/483 285/155/487 305/152/484
f 285/155/488 283/156/489 305/152/490
f 305/152/490 283/156/489 284/157/491 306/153/492
f 287/158/493 286/159/494 289/160/495 288/161/493
f 295/162/496 296/163/496 311/164/497 294/165/498
f 309/166/499 310/167/500 289/160/495 286/159/494
f 294/165/498 311/164/497 310/167/501 309/166/502
f 286/159/494 282/154/486 306/153/485 309/166/499
f 284/157/491 294/165/498 309/166/502 306/153/492
f 289/160/495 292/168/503 291/169/504 290/170/504
f 307/171/505 310/167/501 311/164/497 299/172/506
f 310/167/500 307/171/507 292/168/503 289/160/495
f 297/173/508 298/174/508 299/172/506 311/164/497
f 293/175/509 292/168/503 313/176/510
f 307/171/507 308/177/511 313/176/510 292/168/503
f 300/178/512 301/179/513 314/180/514 299/172/506
f 308/177/515 307/171/505 299/172/506 314/180/514
f 302/181/516 314/180/514 301/179/513
f 314/180/514 302/181/516 317/182/517 308/177/515
f 303/183/518 304/184/519 302/181/516
f 319/185/520 317/182/517 302/181/516 304/184/519
f 313/176/510 308/177/511 317/182/521 312/186/522
f 312/186/522 317/182/521 319/185/523 320/187/524
f 320/187/524 319/185/523 318/188/525 315/189/525
f 318/188/526 319/185/520 304/184/519 316/190/526
f 242/191/527 241/192/528 281/151/529 282/154/530
f 243/193/531 244/194/532 284/157/533 283/156/534
f 245/195/535 243/193/531 283/156/534 285/155/536
f 241/192/528 245/195/535 285/155/536 281/151/529
f 246/196/537 242/191/527 282/154/530 286/159/538
f 247/197/539 246/196/537 286/159/538 287/158/540
f 248/198/541 247/197/539 287/158/540 288/161/542
f 249/199/543 248/198/541 288/161/542 289/160/544
f 250/200/545 249/199/543 289/160/544 290/170/546
f 251/201/547 250/200/545 290/170/546 291/169/548
f 252/202/549 251/201/547 291/169/548 292/168/550
f 253/203/551 252/202/549 292/168/550 293/175/552
f 244/194/532 254/204/553 294/165/554 284/157/533
f 254/204/553 255/205/555 295/162/556 294/165/554
f 255/205/555 256/206/557 296/163/558 295/162/556
f 257/207/559 258/208/560 298/174/561 297/173/562
f 258/208/560 259/209/563 299/172/564 298/174/561
f 259/209/563 260/210/565 300/178/566 299/172/564
f 260/210/565 261/211/567 301/179/568 300/178/566
f 261/211/567 262/212/569 302/181/570 301/179/568
f 262/212/569 263/213/571 303/183/572 302/181/570
f 263/213/571 264/214/573 304/184/574 303/183/572
f 256/206/557 271/215/575 311/164/576 296/163/558
f 275/216/577 280/217/578 320/187/579 315/189/577
f 280/217/578 272/218/580 312/186/581 320/187/579
f 272/218/580 273/219/582 313/176/583 312/186/581
f 264/214/573 276/220/584 316/190/584 304/184/574
f 273/219/582 253/203/551 293/175/552 313/176/583
f 271/215/575 257/207/559 297/173/562 311/164/576
f 321/111/585 322/112/586 346/113/587 345/114/588
f 321/111/585 345/114/588 325/115/589
f 325/115/590 345/114/591 323/116/592
f 345/114/591 346/113/593 324/117/594 323/116/592
f 327/118/595 328/119/595 329/120/596 326/121/597
f 335/122/598 334/123/599 351/124/600 336/125/598
f 349/126/601 326/121/597 329/120/596 350/127/602
f 334/123/599 349/126/603 350/127/604 351/124/600
f 326/121/597 349/126/601 346/113/587 322/112/586
f 324/117/594 346/113/593 349/126/603 334/123/599
f 329/120/596 330/128/605 331/129/605 332/130/606
f 347/131/607 339/132/608 351/124/600 350/127/604
f 350/127/602 329/120/596 332/130/606 347/131/609
f 337/133/610 351/124/600 339/132/608 338/134/610
f 333/135/611 353/136/612 332/130/606
f 347/131/609 332/130/606 353/136/612 348/137/613
f 340/138/614 339/132/608 354/139/615 341/140/616
f 348/137/617 354/139/615 339/132/608 347/131/607
f 342/141/618 341/140/616 354/139/615
f 354/139/615 348/137/617 357/142/619 342/141/618
f 343/143/620 342/141/618 344/144/621
f 359/145/622 344/144/621 342/141/618 357/142/619
f 353/136/612 352/146/623 357/142/624 348/137/613
f 352/146/623 360/147/625 359/145/626 357/142/624
f 360/147/625 355/148/627 358/149/627 359/145/626
f 358/149/628 356/150/628 344/144/621 359/145/622
f 361/151/629 385/152/630 386/153/631 362/154/632
f 361/151/629 365/155/633 385/152/630
f 365/155/634 363/156/635 385/152/636
f 385/152/636 363/156/635 364/157/637 386/153/638
f 367/158/639 366/159/640 369/160/641 368/161/639
f 375/162/642 376/163/642 391/164/643 374/165/644
f 389/166/645 390/167/646 369/160/641 366/159/640
f 374/165/644 391/164/643 390/167/647 389/166/648
f 366/159/640 362/154/632 386/153/631 389/166/645
f 364/157/637 374/165/644 389/166/648 386/153/638
f 369/160/641 372/168/649 371/169/650 370/170/650
f 387/171/651 390/167/647 391/164/643 379/172/652
f 390/167/646 387/171/653 372/168/649 369/160/641
f 377/173/654 378/174/654 379/172/652 391/164/643
f 373/175/655 372/168/649 393/176/656
f 387/171/653 388/177/657 393/176/656 372/168/649
f 380/178/658 381/179/659 394/180/660 379/172/652
f 388/177/661 387/171/651 379/172/652 394/180/660
f 382/181/662 394/180/660 381/179/659
f 394/180/660 382/181/662 397/182/663 388/177/661
f 383/183/664 384/184/665 382/181/662
f 399/185/666 397/182/663 382/181/662 384/184/665
f 393/176/656 388/177/657 397/182/667 392/186/668
f 392/186/668 397/182/667 399/185/669 400/187/670
f 400/187/670 399/185/669 398/188/671 395/189/671
f 398/188/672 399/185/666 384/184/665 396/190/672
f 322/191/673 321/192/674 361/151/675 362/154/676
f 323/193/677 324/194/678 364/157/679 363/156/680
f 325/195/681 323/193/677 363/156/680 365/155/682
f 321/192/674 325/195/681 365/155/682 361/151/675
f 326/196/683 322/191/673 362/154/676 366/159/684
f 327/197/685 326/196/683 366/159/684 367/158/686
f 328/198/687 327/197/685 367/158/686 368/161/688
f 329/199/689 328/198/687 368/161/688 369/160/690
f 330/200/691 329/199/689 369/160/690 370/170/692
f 331/201/693 330/200/691 370/170/692 371/169/694
f 332/202/695 331/201/693 371/169/694 372/168/696
f 333/203/697 332/202/695 372/168/696 373/175/698
f 324/194/678 334/204/699 374/165/700 364/157/679
f 334/204/699 335/205/701 375/162/702 374/165/700
f 335/205/701 336/206/703 376/163/704 375/162/702
f 337/207/705 338/208/706 378/174/707 377/173/708
f 338/208/706 339/209/709 379/172/710 378/174/707
f 339/209/709 340/210/711 380/178/712 379/172/710
f 340/210/711 341/211/713 381/179/714 380/178/712
f 341/211/713 342/212/715 382/181/716 381/179/714
f 342/212/715 343/213/717 383/183/718 382/181/716
f 343/213/717 344/214/719 384/184/720 383/183/718
f 336/206/703 351/215/721 391/164/722 376/163/704
f 355/216/723 360/217/724 400/187/725 395/189/723
f 360/217/724 352/218/726 392/186/727 400/187/725
f 352/218/726 353/219/728 393/176/729 392/186/727
f 344/214/719 356/220/730 396/190/730 384/184/720
f 353/219/728 333/203/697 373/175/698 393/176/729
f 351/215/721 337/207/705 377/173/708 391/164/722
f 401/1/731 402/2/732 426/3/733 425/4/734
f 401/1/731 425/4/734 405/5/735
f 405/5/736 425/4/737 403/6/738
f 425/4/737 426/3/739 404/7/740 403/6/738
f 407/8/741 408/9/741 409/10/742 406/11/743
f 415/12/744 414/13/745 431/14/746 416/15/744
f 429/16/747 406/11/743 409/10/742 430/17/748
f 414/13/745 429/16/749 430/17/750 431/14/746
f 406/11/743 429/16/747 426/3/733 402/2/732
f 404/7/740 426/3/739 429/16/749 414/13/745
f 409/10/742 410/18/751 411/19/751 412/20/752
f 427/21/753 419/22/754 431/14/746 430/17/750
f 430/17/748 409/10/742 412/20/752 427/21/755
f 417/23/756 431/14/746 419/22/754 418/24/756
f 413/25/757 433/26/758 412/20/752
f 427/21/755 412/20/752 433/26/758 428/27/759
f 420/28/760 419/22/754 434/29/761 421/30/762
f 428/27/763 434/29/761 419/22/754 427/21/753
f 422/31/764 421/30/762 434/29/761
f 434/29/761 428/27/763 437/32/765 422/31/764
f 423/33/766 422/31/764 424/34/767
f 439/35/768 424/34/767 422/31/764 437/32/765
f 433/26/758 432/36/769 437/32/770 428/27/759
f 432/36/769 440/37/771 439/35/772 437/32/770
f 440/37/771 435/38/773 438/39/773 439/35/772
f 438/39/774 436/40/774 424/34/767 439/35/768
f 441/41/775 465/42/776 466/43/777 442/44/778
f 441/41/775 445/45/779 465/42/776
f 445/45/780 443/46/781 465/42/782
f 465/42/782 443/46/781 444/47/783 466/43/784
f 447/48/785 446/49/786 449/50/787 448/51/785
f 455/52/788 456/53/788 471/54/789 454/55/790
f 469/56/791 470/57/792 449/50/787 446/49/786
f 454/55/790 471/54/789 470/57/793 469/56/794
f 446/49/786 442/44/778 466/43/777 469/56/791
f 444/47/783 454/55/790 469/56/794 466/43/784
f 449/50/787 452/58/795 451/59/796 450/60/796
f 467/61/797 470/57/793 471/54/789 459/62/798
f 470/57/792 467/61/799 452/58/795 449/50/787
f 457/63/800 458/64/800 459/62/798 471/54/789
f 453/65/801 452/58/795 473/66/802
f 467/61/799 468/67/803 473/66/802 452/58/795
f 460/68/804 461/69/805 474/70/806 459/62/798
f 468/67/807 467/61/797 459/62/798 474/70/806
f 462/71/808 474/70/806 461/69/805
f 474/70/806 462/71/808 477/72/809 468/67/807
f 463/73/810 464/74/811 462/71/808
f 479/75/812 477/72/809 462/71/808 464/74/811
f 473/66/802 468/67/803 477/72/813 472/76/814
f 472/76/814 477/72/813 479/75/815 480/77/816
f 480/77/816 479/75/815 478/78/817 475/79/817
f 478/78/818 479/75/812 464/74/811 476/80/818
f 402/81/819 401/82/820 441/41/821 442/44/822
f 403/83/823 404/84/824 444/47/825 443/46/826
f 405/85/827 403/83/823 443/46/826 445/45/828
f 401/82/820 405/85/827 445/45/828 441/41/821
f 406/86/829 402/81/819 442/44/822 446/49/830
f 407/87/831 406/86/829 446/49/830 447/48/832
f 408/88/833 407/87/831 447/48/832 448/51/834
f 409/89/835 408/88/833 448/51/834 449/50/836
f 410/90/837 409/89/835 449/50/836 450/60/838
f 411/91/839 410/90/837 450/60/838 451/59/840
f 412/92/841 411/91/839 451/59/840 452/58/842
f 413/93/843 412/92/841 452/58/842 453/65/844
f 404/84/824 414/94/845 454/55/846 444/47/825
f 414/94/845 415/95/847 455/52/848 454/55/846
f 415/95/847 416/96/849 456/53/850 455/52/848
f 417/97/851 418/98/852 458/64/853 457/63/854
f 418/98/852 419/99/855 459/62/856 458/64/853
f 419/99/855 420/100/857 460/68/858 459/62/856
f 420/100/857 421/101/859 461/69/860 460/68/858
f 421/101/859 422/102/861 462/71/862 461/69/860
f 422/102/861 423/103/863 463/73/864 462/71/862
f 423/103/863 424/104/865 464/74/866 463/73/864
f 416/96/849 431/105/867 471/54/868 456/53/850
f 435/106/869 440/107/870 480/77/871 475/79/869
f 440/107/870 432/108/872 472/76/873 480/77/871
f 432/108/872 433/109/874 473/66/875 472/76/873
f 424/104/865 436/110/876 476/80/876 464/74/866
f 433/109/874 413/93/843 453/65/844 473/66/875
f 431/105/867 417/97/851 457/63/854 471/54/868
f 481/1/877 482/2/878 506/3/879 505/4/880
f 481/1/877 505/4/880 485/5/881
f 485/5/882 505/4/883 483/6/884
f 505/4/883 506/3/885 484/7/886 483/6/884
f 487/8/887 488/9/887 489/10/888 486/11/889
f 495/12/890 494/13/891 511/14/892 496/15/890
f 509/16/893 486/11/889 489/10/888 510/17/894
f 494/13/891 509/16/895 510/17/896 511/14/892
f 486/11/889 509/16/893 506/3/879 482/2/878
f 484/7/886 506/3/885 509/16/895 494/13/891
f 489/10/888 490/18/897 491/19/897 492/20/898
f 507/21/899 499/22/900 511/14/892 510/17/896
f 510/17/894 489/10/888 492/20/898 507/21/901
f 497/23/902 511/14/892 499/22/900 498/24/902
f 493/25/903 513/26/904 492/20/898
f 507/21/901 492/20/898 513/26/904 508/27/905
f 500/28/906 499/22/900 514/29/907 501/30/908
f 508/27/909 514/29/907 499/22/900 507/21/899
f 502/31/910 501/30/908 514/29/907
f 514/29/907 508/27/909 517/32/911 502/31/910
f 503/33/912 502/31/910 504/34/913
f 519/35/914 504/34/913 502/31/910 517/32/911
f 513/26/904 512/36/915 517/32/916 508/27/905
f 512/36/915 520/37/917 519/35/918 517/32/916
f 520/37/917 515/38/919 518/39/919 519/35/918
f 518/39/920 516/40/920 504/34/913 519/35/914
f 521/41/921 545/42/922 546/43/923 522/44/924
f 521/41/921 525/45/925 545/42/922
f 525/45/926 523/46/927 545/42/928
f 545/42/928 523/46/927 524/47/929 546/43/930
f 527/48/931 526/49/932 529/50/933 528/51/931
f 535/52/934 536/53/934 551/54/935 534/55/936
f 549/56/937 550/57/938 529/50/933 526/49/932
f 534/55/936 551/54/935 550/57/939 549/56/940
f 526/49/932 522/44/924 546/43/923 549/56/937
f 524/47/929 534/55/936 549/56/940 546/43/930
f 529/50/933 532/58/941 531/59/942 530/60/942
f 547/61/943 550/57/939 551/54/935 539/62/944
f 550/57/938 547/61/945 532/58/941 529/50/933
f 537/63/946 538/64/946 539/62/944 551/54/935
f 533/65/947 532/58/941 553/66/948
f 547/61/945 548/67/949 553/66/948 532/58/941
f 540/68/950 541/69/951 554/70/952 539/62/944
f 548/67/953 547/61/943 539/62/944 554/70/952
f 542/71/954 554/70/952 541/69/951
f 554/70/952 542/71/954 557/72/955 548/67/953
f 543/73/956 544/74/957 542/71/954
f 559/75/958 557/72/955 542/71/954 544/74/957
f 553/66/948 548/67/949 557/72/959 552/76/960
f 552/76/960 557/72/959 559/75/961 560/77/962
f 560/77/962 559/75/961 558/78/963 555/79/963
f 558/78/964 559/75/958 544/74/957 556/80/964
f 482/81/965 481/82/966 521/41/967 522/44/968
f 483/83/969 484/84/970 524/47/971 523/46/972
f 485/85/973 483/83/969 523/46/972 525/45/974
f 481/82/966 485/85/973 525/45/974 521/41/967
f 486/86/975 482/81/965 522/44/968 526/49/976
f 487/87/977 486/86/975 526/49/976 527/48/978
f 488/88/979 487/87/977 527/48/978 528/51/980
f 489/89/981 488/88/979 528/51/980 529/50/982
f 490/90/983 489/89/981 529/50/982 530/60/984
f 491/91/985 490/90/983 530/60/984 531/59/986
f 492/92/987 491/91/985 531/59/986 532/58/988
f 493/93/989 492/92/987 532/58/988 533/65/990
f 484/84/970 494/94/991 534/55/992 524/47/971
f 494/94/991 495/95/993 535/52/994 534/55/992
f 495/95/993 496/96/995 536/53/996 535/52/994
f 497/97/997 498/98/998 538/64/999 537/63/1000
f 498/98/998 499/99/1001 539/62/1002 538/64/999
f 499/99/1001 500/100/1003 540/68/1004 539/62/1002
f 500/100/1003 501/101/1005 541/69/1006 540/68/1004
f 501/101/1005 502/102/1007 542/71/1008 541/69/1006
f 502/102/1007 503/103/1009 543/73/1010 542/71/1008
f 503/103/1009 504/104/1011 544/74/1012 543/73/1010
f 496/96/995 511/105/1013 551/54/1014 536/53/996
f 515/106/1015 520/107/1016 560/77/1017 555/79/1015
f 520/107/1016 512/108/1018 552/76/1019 560/77/1017
f 512/108/1018 513/109/1020 553/66/1021 552/76/1019
f 504/104/1011 516/110/1022 556/80/1022 544/74/1012
f 513/109/1020 493/93/989 533/65/990 553/66/1021
f 511/105/1013 497/97/997 537/63/1000 551/54/1014
f 561/1/1023 562/2/1024 586/3/1025 585/4/1026
f 561/1/1023 585/4/1026 565/5/1027
f 565/5/1028 585/4/1029 563/6/1030
f 585/4/1029 586/3/1031 564/7/1032 563/6/1030
f 567/8/1033 568/9/1033 569/10/1034 566/11/1035
f 575/12/1036 574/13/1037 591/14/1038 576/15/1036
f 589/16/1039 566/11/1035 569/10/1034 590/17/1040
f 574/13/1037 589/16/1041 590/17/1042 591/14/1038
f 566/11/1035 589/16/1039 586/3/1025 562/2/1024
f 564/7/1032 586/3/1031 589/16/1041 574/13/1037
f 569/10/1034 570/18/1043 571/19/1043 572/20/1044
f 587/21/1045 579/22/1046 591/14/1038 590/17/1042
f 590/17/1040 569/10/1034 572/20/1044 587/21/1047
f 577/23/1048 591/14/1038 579/22/1046 578/24/1048
f 573/25/1049 593/26/1050 572/20/1044
f 587/21/1047 572/20/1044 593/26/1050 588/27/1051
f 580/28/1052 579/22/1046 594/29/1053 581/30/1054
f 588/27/1055 594/29/1053 579/22/1046 587/21/1045
f 582/31/1056 581/30/1054 594/29/1053
f 594/29/1053 588/27/1055 597/32/1057 582/31/1056
f 583/33/1058 582/31/1056 584/34/1059
f 599/35/1060 584/34/1059 582/31/1056 597/32/1057
f 593/26/1050 592/36/1061 597/32/1062 588/27/1051
f 592/36/1061 600/37/1063 599/35/1064 597/32/1062
f 600/37/1063 595/38/1065 598/39/1065 599/35/1064
f 598/39/1066 596/40/1066 584/34/1059 599/35/1060
f 601/41/1067 625/42/1068 626/43/1069 602/44/1070
f 601/41/1067 605/45/1071 625/42/1068
f 605/45/1072 603/46/1073 625/42/1074
f 625/42/1074 603/46/1073 604/47/1075 626/43/1076
f 607/48/1077 606/49/1078 609/50/1079 608/51/1077
f 615/52/1080 616/53/1080 631/54/1081 614/55/1082
f 629/56/1083 630/57/1084 609/50/1079 606/49/1078
f 614/55/1082 631/54/1081 630/57/1085 629/56/1086
f 606/49/1078 602/44/1070 626/43/1069 629/56/1083
f 604/47/1075 614/55/1082 629/56/1086 626/43/1076
f 609/50/1079 612/58/1087 611/59/1088 610/60/1088
f 627/61/1089 630/57/1085 631/54/1081 619/62/1090
f 630/57/1084 627/61/1091 612/58/1087 609/50/1079
f 617/63/1092 618/64/1092 619/62/1090 631/54/1081
f 613/65/1093 612/58/1087 633/66/1094
f 627/61/1091 628/67/1095 633/66/1094 612/58/1087
f 620/68/1096 621/69/1097 634/70/1098 619/62/1090
f 628/67/1099 627/61/1089 619/62/1090 634/70/1098
f 622/71/1100 634/70/1098 621/69/1097
f 634/70/1098 622/71/1100 637/72/1101 628/67/1099
f 623/73/1102 624/74/1103 622/71/1100
f 639/75/1104 637/72/1101 622/71/1100 624/74/1103
f 633/66/1094 628/67/1095 637/72/1105 632/76/1106
f 632/76/1106 637/72/1105 639/75/1107 640/77/1108
f 640/77/1108 639/75/1107 638/78/1109 635/79/1109
f 638/78/1110 639/75/1104 624/74/1103 636/80/1110
f 562/81/1111 561/82/1112 601/41/1113 602/44/1114
f 563/83/1115 564/84/1116 604/47/1117 603/46/1118
f 565/85/1119 563/83/1115 603/46/1118 605/45/1120
f 561/82/1112 565/85/1119 605/45/1120 601/41/1113
f 566/86/1121 562/81/1111 602/44/1114 606/49/1122
f 567/87/1123 566/86/1121 606/49/1122 607/48/1124
f 568/88/1125 567/87/1123 607/48/1124 608/51/1126
f 569/89/1127 568/88/1125 608/51/1126 609/50/1128
f 570/90/1129 569/89/1127 609/50/1128 610/60/1130
f 571/91/1131 570/90/1129 610/60/1130 611/59/1132
f 572/92/1133 571/91/1131 611/59/1132 612/58/1134
f 573/93/1135 572/92/1133 612/58/1134 613/65/1136
f 564/84/1116 574/94/1137 614/55/1138 604/47/1117
f 574/94/1137 575/95/1139 615/52/1140 614/55/1138
f 575/95/1139 576/96/1141 616/53/1142 615/52/1140
f 577/97/1143 578/98/1144 618/64/1145 617/63/1146
f 578/98/1144 579/99/1147 619/62/1148 618/64/1145
f 579/99/1147 580/100/1149 620/68/1150 619/62/1148
f 580/100/1149 581/101/1151 621/69/1152 620/68/1150
f 581/101/1151 582/102/1153 622/71/1154 621/69/1152
f 582/102/1153 583/103/1155 623/73/1156 622/71/1154
f 583/103/1155 584/104/1157 624/74/1158 623/73/1156
f 576/96/1141 591/105/1159 631/54/1160 616/53/1142
f 595/106/1161 600/107/1162 640/77/1163 635/79/1161
f 600/107/1162 592/108/1164 632/76/1165 640/77/1163
f 592/108/1164 593/109/1166 633/66/1167 632/76/1165
f 584/104/1157 596/110/1168 636/80/1168 624/74/1158
f 593/109/1166 573/93/1135 613/65/1136 633/66/1167
f 591/105/1159 577/97/1143 617/63/1146 631/54/1160
