# Blender 4.4.3
# www.blender.org
mtllib Forest_Grass_01.mtl
o Forest_Grass_01
v -0.057479 0.000000 -0.040848
v -0.055688 0.221602 -0.057217
v -0.083303 0.245255 -0.079310
v -0.057847 0.113617 -0.055870
v -0.078120 0.216247 -0.072725
v -0.030755 0.118765 -0.029852
v -0.025753 0.000000 -0.008471
v -0.146788 0.214894 0.128372
v -0.128532 0.151614 0.102911
v -0.062537 0.096991 0.067650
v -0.106904 0.085850 0.078132
v -0.036944 0.000000 0.049473
v -0.101254 0.165124 0.096271
v -0.090248 0.000000 0.057752
v 0.089623 0.250194 0.094803
v 0.063424 0.223733 0.057352
v 0.079973 0.208648 0.083758
v 0.045135 0.114648 0.059337
v 0.012263 0.123003 0.014184
v 0.007637 0.000000 -0.008320
v 0.032420 0.000000 0.042067
v 0.035884 0.289726 0.019449
v 0.006761 0.290794 0.000177
v 0.038847 0.339994 0.015061
v -0.030854 0.175636 -0.008633
v 0.020727 0.179487 0.029302
v 0.003474 0.000000 0.036110
v -0.044774 0.000000 0.005844
v -0.100924 0.147357 -0.010925
v -0.063865 0.159553 0.023744
v -0.103786 0.250900 0.015736
v -0.138757 0.280588 0.002960
v -0.128322 0.242630 -0.002021
v -0.026226 0.000000 0.034382
v -0.065515 0.000000 -0.008782
v 0.056100 0.101241 -0.027686
v 0.114374 0.154892 0.020966
v 0.096210 0.164462 -0.002369
v 0.135433 0.188017 0.011696
v 0.077361 0.094720 0.016046
v 0.011603 0.000000 -0.049988
v 0.034286 0.000000 0.006949
v 0.080051 0.195464 -0.065408
v 0.090692 0.238009 -0.082451
v 0.056092 0.209266 -0.063020
v -0.027851 0.000000 -0.014601
v 0.024422 0.000000 -0.010420
v 0.047597 0.080055 -0.027759
v -0.006027 0.093106 -0.021569
v 0.171686 0.179076 0.075116
v 0.122349 0.095111 0.040376
v 0.096459 0.108103 0.066992
v 0.080161 0.000000 0.031058
v 0.030061 0.000000 0.048529
v 0.034737 0.087952 -0.102668
v 0.024095 0.142554 -0.171272
v 0.036794 0.000000 -0.064712
v 0.005179 0.087824 -0.125215
v 0.004328 0.000000 -0.082643
v 0.023523 0.090133 -0.070987
v 0.021732 0.000000 -0.043666
v 0.030136 0.170030 -0.115668
v -0.025218 0.089532 -0.062825
v -0.037503 0.000000 -0.033197
v 0.095054 0.000000 0.006815
v 0.063239 0.000000 0.006822
v 0.157096 0.094957 0.000258
v 0.101947 0.068116 0.000516
v 0.121287 0.051534 -0.000762
v 0.041884 0.149168 0.163745
v 0.037886 0.082737 0.094021
v 0.004751 0.079772 0.108479
v -0.015775 0.000000 0.074632
v 0.030859 0.000000 0.066053
v -0.045396 0.000000 0.054114
v -0.038062 0.052648 0.107706
v -0.029069 0.000000 0.087281
v -0.062229 0.053985 0.084383
v -0.075410 0.094535 0.131908
v -0.009088 0.083592 0.094553
v -0.042033 0.084793 0.075057
v -0.025378 0.151972 0.150031
v -0.000161 0.000000 0.050078
v -0.036720 0.000000 0.030718
v 0.005888 0.088169 0.070707
v 0.031918 0.090645 0.048056
v 0.039415 0.181833 0.104153
v 0.029716 0.000000 0.035427
v -0.002789 0.000000 0.060078
v -0.088773 0.075775 0.022912
v -0.051352 0.000000 0.019997
v -0.141690 0.111436 -0.000161
v -0.074281 0.000000 -0.001588
v -0.102136 0.059380 0.006744
v -0.070673 0.084715 -0.113020
v -0.038057 0.000000 -0.079283
v -0.122706 0.146828 -0.156586
v -0.099213 0.078440 -0.078476
v -0.073117 0.000000 -0.040197
v -0.103694 0.059837 -0.029846
v -0.165655 0.111436 -0.012580
v -0.106372 0.000000 -0.005744
v -0.121963 0.057267 -0.003175
v -0.073690 0.000000 -0.032315
v -0.033385 0.145110 -0.161829
v -0.009105 0.075531 -0.099983
v -0.049425 0.072701 -0.079616
v 0.004121 0.000000 -0.073290
v -0.047775 0.000000 -0.056330
v 0.049391 0.000000 -0.027510
v 0.106190 0.082129 -0.005917
v 0.133088 0.107794 -0.031533
v 0.107746 0.074017 -0.032343
v 0.050482 0.000000 0.013726
v 0.043605 0.000000 -0.070812
v 0.074919 0.000000 -0.033118
v 0.083480 0.050348 -0.049575
v 0.066629 0.050626 -0.076185
v 0.099693 0.100460 -0.081931
vn -0.6118 0.0527 0.7892
vn -0.6252 0.0407 0.7794
vn -0.5798 0.0805 0.8108
vn -0.6787 0.0609 0.7319
vn -0.6757 0.0574 0.7349
vn -0.7056 0.0937 0.7024
vn 0.3239 -0.2468 0.9133
vn 0.3212 -0.2451 0.9147
vn 0.3486 -0.2616 0.9000
vn 0.2550 -0.1970 0.9467
vn 0.2035 -0.1568 0.9664
vn 0.2464 -0.1903 0.9503
vn -0.8084 0.1084 0.5785
vn -0.8130 0.0983 0.5739
vn -0.8339 0.0475 0.5498
vn -0.8334 0.0467 0.5507
vn -0.8254 0.0675 0.5605
vn -0.8569 -0.0237 0.5150
vn -0.5461 0.1047 0.8311
vn -0.5657 0.1268 0.8148
vn -0.5612 0.1217 0.8187
vn -0.5692 0.1156 0.8141
vn -0.5705 0.1201 0.8125
vn -0.5639 0.0986 0.8199
vn -0.5115 -0.2486 0.8225
vn -0.5540 -0.2318 0.7996
vn -0.5619 -0.2285 0.7950
vn -0.6475 -0.1752 0.7417
vn -0.6469 -0.1756 0.7421
vn -0.6964 -0.1364 0.7045
vn -0.5498 0.5302 0.6454
vn -0.7002 0.4164 0.5799
vn -0.6680 0.4441 0.5971
vn -0.8129 0.3377 0.4745
vn -0.8272 0.3331 0.4525
vn -0.8602 0.3209 0.3963
vn 0.2231 0.2707 0.9365
vn 0.2226 0.2704 0.9367
vn 0.2646 0.3008 0.9162
vn 0.1165 0.1918 0.9745
vn 0.1057 0.1838 0.9773
vn 0.0348 0.1300 0.9909
vn -0.4393 0.4454 -0.7802
vn -0.4459 0.5532 -0.7037
vn -0.4390 0.4417 -0.7824
vn -0.4270 0.3425 -0.8369
vn 0.5002 -0.4677 -0.7287
vn 0.5114 -0.3550 -0.7826
vn 0.4886 -0.5375 -0.6873
vn 0.4576 -0.6598 -0.5961
vn -0.1545 -0.3543 -0.9223
vn -0.1505 -0.3896 -0.9086
vn -0.1614 -0.2867 -0.9443
vn -0.1397 -0.4745 -0.8691
vn -0.0410 -0.0255 -0.9988
vn -0.0412 -0.0263 -0.9988
vn -0.0269 0.0456 -0.9986
vn -0.0531 -0.0866 -0.9948
vn 0.2695 -0.3820 0.8840
vn 0.3091 -0.5380 0.7842
vn 0.3075 -0.5311 0.7896
vn 0.3403 -0.6905 0.6383
vn -0.6360 -0.5801 0.5089
vn -0.6508 -0.5612 0.5114
vn -0.7399 -0.4265 0.5203
vn -0.5006 -0.7222 0.4773
vn 0.4284 0.5505 -0.7165
vn 0.4333 0.5200 -0.7361
vn 0.4119 0.6313 -0.6571
vn 0.4423 0.4474 -0.7773
vn 0.6272 -0.2904 0.7227
vn 0.6274 -0.2860 0.7243
vn 0.6099 -0.4510 0.6516
vn 0.6260 -0.1379 0.7675
vn -0.5958 -0.3480 0.7238
vn -0.5724 -0.3312 0.7501
vn -0.5768 -0.3344 0.7453
vn -0.5497 -0.3150 0.7737
vn -0.6380 -0.4913 -0.5930
vn -0.5776 -0.5858 -0.5685
vn -0.5435 -0.6315 -0.5530
vn -0.4520 -0.7341 -0.5068
vn -0.6952 -0.2416 -0.6770
vn -0.6758 -0.4442 -0.5882
vn -0.6864 -0.3758 -0.6226
vn -0.6340 -0.5968 -0.4918
vn 0.3218 0.5322 0.7831
vn 0.2870 0.6904 0.6641
vn 0.3305 0.4751 0.8155
vn 0.3453 0.3308 0.8783
vn -0.7765 0.5881 -0.2262
vn -0.7981 0.5856 -0.1421
vn -0.7986 0.5854 -0.1399
vn -0.8108 0.5805 -0.0752
vn 0.7475 -0.3552 -0.5614
vn 0.7369 -0.4340 -0.5183
vn 0.7377 -0.4292 -0.5210
vn 0.7153 -0.5274 -0.4585
vt 0.114551 0.811360
vt 0.144737 0.811360
vt 0.129757 0.975223
vt 0.153039 0.544243
vt 0.105751 0.544243
vt 0.102956 0.021427
vt 0.155665 0.021427
vt 0.083506 0.420769
vt 0.053177 0.758430
vt 0.027153 0.420846
vt 0.088829 0.022710
vt 0.021934 0.022710
s 1
usemtl Forest_Greens
f 5/1/1 2/2/2 3/3/3
f 6/4/4 4/5/5 1/6/6 7/7/6
f 6/4/4 2/2/2 5/1/1 4/5/5
f 9/1/7 13/2/8 8/3/9
f 11/5/10 14/6/11 12/7/11 10/4/12
f 11/5/10 10/4/12 13/2/8 9/1/7
f 16/1/13 17/2/14 15/3/15
f 19/5/16 18/4/17 17/2/14 16/1/13
f 18/4/17 19/5/16 20/6/18 21/7/18
f 24/3/19 23/1/20 22/2/21
f 23/1/20 25/5/22 26/4/23 22/2/21
f 26/4/23 25/5/22 28/6/24 27/7/24
f 32/3/25 33/1/26 31/2/27
f 31/2/27 33/1/26 29/5/28 30/4/29
f 30/4/29 29/5/28 35/6/30 34/7/30
f 39/3/31 38/1/32 37/2/33
f 40/4/34 37/2/33 38/1/32 36/5/35
f 40/4/34 36/5/35 41/6/36 42/7/36
f 45/1/37 43/2/38 44/3/39
f 48/4/40 49/5/41 46/6/42 47/7/42
f 43/2/38 45/1/37 49/5/41 48/4/40
f 52/8/43 50/9/44 51/10/45
f 54/11/46 52/8/43 51/10/45 53/12/46
f 55/10/47 57/12/48 59/11/48 58/8/49
f 58/8/49 56/9/50 55/10/47
f 63/8/51 60/10/52 61/12/53 64/11/53
f 63/8/51 62/9/54 60/10/52
f 69/10/55 68/8/56 67/9/57
f 65/12/58 66/11/58 68/8/56 69/10/55
f 74/11/59 71/8/60 72/10/61 73/12/59
f 70/9/62 72/10/61 71/8/60
f 76/8/63 78/10/64 75/12/65 77/11/65
f 78/10/64 76/8/63 79/9/66
f 80/10/67 81/8/68 82/9/69
f 81/8/68 80/10/67 83/12/70 84/11/70
f 85/10/71 86/8/72 87/9/73
f 86/8/72 85/10/71 89/12/74 88/11/74
f 93/12/75 91/11/75 90/8/76 94/10/77
f 92/9/78 94/10/77 90/8/76
f 96/12/79 99/11/79 98/8/80 95/10/81
f 97/9/82 95/10/81 98/8/80
f 102/11/83 103/8/84 100/10/85 104/12/83
f 103/8/84 101/9/86 100/10/85
f 106/8/87 105/9/88 107/10/89
f 106/8/87 107/10/89 109/12/90 108/11/90
f 112/9/91 113/10/92 111/8/93
f 111/8/93 113/10/92 110/12/94 114/11/94
f 116/12/95 115/11/95 118/8/96 117/10/97
f 117/10/97 118/8/96 119/9/98
