# Blender 4.4.3
# www.blender.org
mtllib Forest_Grass_02.mtl
o Forest_Grass_02
v -0.076738 0.000021 -0.048903
v -0.040052 0.220860 -0.069663
v -0.055164 0.249809 -0.092288
v -0.073310 0.113761 -0.066037
v -0.063521 0.218846 -0.084533
v -0.039054 0.118891 -0.040054
v -0.036073 0.000021 -0.016303
v -0.112286 0.221624 0.104502
v -0.108196 0.153962 0.081603
v -0.056570 0.096991 0.057310
v -0.102911 0.085850 0.063760
v -0.042797 0.000021 0.044237
v -0.072173 0.167056 0.078347
v -0.109353 0.000021 0.055730
v 0.100435 0.249834 0.085294
v 0.088769 0.223478 0.066699
v 0.106440 0.208407 0.092773
v 0.107294 0.114648 0.097370
v 0.064084 0.123003 0.047845
v 0.045652 0.000021 0.041403
v 0.101755 0.000021 0.091706
v 0.018566 0.278967 0.015819
v -0.014299 0.280545 -0.005506
v 0.004338 0.323857 0.005603
v -0.042233 0.175636 -0.014565
v 0.018132 0.179487 0.027575
v -0.001505 0.000021 0.035890
v -0.057822 0.000021 0.002471
v -0.099263 0.146450 -0.020414
v -0.063350 0.156922 0.017128
v -0.089917 0.249071 0.025188
v -0.117412 0.281996 0.025244
v -0.118374 0.245503 0.003320
v -0.033768 0.000021 0.027874
v -0.080153 0.000021 -0.020626
v 0.042515 0.099071 -0.021970
v 0.073230 0.155711 0.017478
v 0.053905 0.159350 -0.022592
v 0.075419 0.186273 -0.003478
v 0.061887 0.093976 0.029193
v 0.026899 0.000021 -0.017006
v 0.045186 0.000021 0.033475
v 0.054984 0.209192 -0.067141
v 0.042351 0.263588 -0.085009
v 0.026760 0.219935 -0.063636
v -0.018815 0.000021 -0.024786
v 0.041387 0.000021 -0.021463
v 0.047399 0.080055 -0.038775
v -0.014064 0.093106 -0.030139
v 0.111217 0.182712 0.063231
v 0.110527 0.097888 0.035979
v 0.085495 0.109501 0.067272
v 0.104887 0.000021 0.029578
v 0.064326 0.000021 0.057908
v 0.047717 0.000021 -0.102903
v 0.025879 0.090133 -0.081089
v 0.023551 0.000021 -0.067524
v 0.017392 0.170030 -0.097416
v -0.030824 0.089532 -0.069658
v -0.044238 0.000021 -0.046289
v 0.105020 0.000021 0.005756
v 0.072157 0.000021 0.021603
v 0.101822 0.094957 -0.009167
v 0.081921 0.068116 0.007921
v 0.100939 0.051534 -0.002985
v 0.018102 0.149168 0.094909
v 0.041262 0.082737 0.089376
v 0.002312 0.079772 0.101136
v -0.006128 0.000021 0.099888
v 0.047232 0.000021 0.088704
v -0.057156 0.000021 0.055906
v -0.044564 0.053879 0.102728
v -0.037870 0.000021 0.092838
v -0.063005 0.057411 0.071343
v -0.062036 0.110212 0.112944
v -0.013563 0.083357 0.088103
v -0.051862 0.084572 0.066322
v -0.032560 0.150814 0.114882
v -0.002389 0.000021 0.051996
v -0.044859 0.000021 0.030527
v 0.010814 0.092493 0.066913
v 0.043882 0.094457 0.044454
v 0.037104 0.201235 0.087262
v 0.038662 0.000021 0.034920
v 0.000912 0.000021 0.062845
v -0.089180 0.076090 0.034117
v -0.063109 0.000021 0.033969
v -0.119035 0.112000 0.023414
v -0.088898 0.000021 0.009809
v -0.100775 0.062194 0.015865
v -0.074339 0.089435 -0.109916
v -0.075272 0.000021 -0.106397
v -0.109265 0.168912 -0.107195
v -0.110610 0.080854 -0.078101
v -0.104182 0.000021 -0.077717
v -0.084004 0.061817 -0.047509
v -0.103413 0.119607 -0.042184
v -0.100623 0.000021 -0.033816
v -0.106724 0.058361 -0.027581
v -0.076697 0.000021 -0.054729
v -0.044198 0.145110 -0.110791
v -0.015472 0.075531 -0.106323
v -0.065414 0.072701 -0.085695
v -0.003867 0.000021 -0.089876
v -0.063036 0.000021 -0.068909
v 0.094399 0.000021 -0.071280
v 0.098022 0.053222 -0.083237
v 0.071519 0.053550 -0.107402
v 0.101848 0.108253 -0.107986
v 0.059349 0.000021 -0.058768
v 0.087383 0.082129 -0.029386
v 0.104119 0.107794 -0.056058
v 0.088430 0.074017 -0.060102
v 0.061605 0.000021 -0.011387
v 0.033234 0.088735 -0.107391
v 0.016085 0.149530 -0.115365
v 0.042901 0.000021 -0.082291
v 0.000157 0.088612 -0.107488
v 0.001841 0.000021 -0.093808
vn -0.5567 0.2685 0.7862
vn -0.5622 0.2557 0.7865
vn -0.5244 0.3373 0.7818
vn -0.5999 0.1717 0.7814
vn -0.6002 0.1711 0.7813
vn -0.6160 0.1375 0.7757
vn 0.1881 -0.2675 0.9450
vn 0.1886 -0.2701 0.9442
vn 0.1947 -0.3038 0.9326
vn 0.1741 -0.1656 0.9707
vn 0.1663 -0.1065 0.9803
vn 0.1753 -0.1751 0.9688
vn -0.8025 0.0146 0.5965
vn -0.7909 0.0270 0.6113
vn -0.8332 -0.0210 0.5525
vn -0.7378 0.0413 0.6738
vn -0.7373 0.0412 0.6743
vn -0.7070 0.0353 0.7063
vn -0.5436 0.0187 0.8391
vn -0.5552 0.0615 0.8295
vn -0.5548 0.0602 0.8298
vn -0.5511 0.1027 0.8281
vn -0.5527 0.1007 0.8273
vn -0.5427 0.1133 0.8323
vn -0.5151 -0.4314 0.7407
vn -0.5800 -0.3377 0.7413
vn -0.5801 -0.3375 0.7413
vn -0.6761 -0.1714 0.7166
vn -0.6697 -0.1839 0.7195
vn -0.7142 -0.0905 0.6941
vn -0.8288 0.3556 0.4320
vn -0.8725 0.2623 0.4123
vn -0.8728 0.2616 0.4121
vn -0.9090 0.1874 0.3723
vn -0.9072 0.1897 0.3754
vn -0.9211 0.1710 0.3498
vn 0.2156 0.2768 0.9364
vn 0.2069 0.2558 0.9443
vn 0.2467 0.3537 0.9023
vn 0.1158 0.1601 0.9803
vn 0.1206 0.1628 0.9793
vn 0.0568 0.1261 0.9904
vn -0.6912 0.1827 -0.6992
vn -0.7214 0.2172 -0.6576
vn -0.6786 0.1689 -0.7148
vn -0.6521 0.1409 -0.7449
vn -0.2283 -0.1892 -0.9550
vn -0.2200 -0.1952 -0.9558
vn -0.2491 -0.1741 -0.9527
vn -0.1908 -0.2160 -0.9576
vn -0.5123 -0.1280 -0.8492
vn -0.5303 -0.1200 -0.8393
vn -0.5622 -0.1053 -0.8203
vn -0.4885 -0.1383 -0.8615
vn 0.2417 -0.0151 0.9702
vn 0.2626 0.0010 0.9649
vn 0.2610 -0.0002 0.9653
vn 0.2875 0.0205 0.9575
vn -0.8472 -0.2691 0.4581
vn -0.8500 -0.2573 0.4596
vn -0.8616 -0.2031 0.4653
vn -0.8276 -0.3380 0.4482
vn 0.4471 0.4150 -0.7924
vn 0.4453 0.4106 -0.7957
vn 0.4552 0.4363 -0.7761
vn 0.4386 0.3935 -0.8080
vn 0.5679 -0.1867 0.8016
vn 0.5676 -0.1884 0.8014
vn 0.5507 -0.2803 0.7863
vn 0.5784 -0.1057 0.8089
vn -0.6944 -0.2214 0.6846
vn -0.6727 -0.2897 0.6808
vn -0.6816 -0.2633 0.6827
vn -0.6534 -0.3419 0.6754
vn -0.6770 -0.0387 -0.7350
vn -0.6519 -0.1225 -0.7483
vn -0.6452 -0.1425 -0.7506
vn -0.6071 -0.2409 -0.7572
vn -0.6591 0.0107 -0.7519
vn -0.6524 -0.0600 -0.7555
vn -0.6523 -0.0614 -0.7555
vn -0.6398 -0.1454 -0.7547
vn 0.3509 0.2237 0.9093
vn 0.3633 0.2083 0.9081
vn 0.3499 0.2249 0.9094
vn 0.3408 0.2362 0.9100
vn 0.5833 -0.2681 -0.7667
vn 0.6021 -0.3037 -0.7384
vn 0.6039 -0.3072 -0.7355
vn 0.6274 -0.3553 -0.6929
vn -0.8908 0.4310 -0.1442
vn -0.9253 0.3724 -0.0711
vn -0.9255 0.3721 -0.0707
vn -0.9440 0.3293 -0.0196
vn 0.0872 -0.1706 -0.9815
vn 0.1519 -0.2019 -0.9676
vn 0.0842 -0.1692 -0.9820
vn 0.0034 -0.1291 -0.9916
vt 0.114551 0.811360
vt 0.144737 0.811360
vt 0.129757 0.975223
vt 0.153039 0.544243
vt 0.105751 0.544243
vt 0.102956 0.021427
vt 0.155665 0.021427
vt 0.083506 0.420769
vt 0.053177 0.758430
vt 0.027153 0.420846
vt 0.088829 0.022710
vt 0.021934 0.022710
s 1
usemtl Forest_Greens
f 5/1/1 2/2/2 3/3/3
f 6/4/4 4/5/5 1/6/6 7/7/6
f 6/4/4 2/2/2 5/1/1 4/5/5
f 9/1/7 13/2/8 8/3/9
f 11/5/10 14/6/11 12/7/11 10/4/12
f 11/5/10 10/4/12 13/2/8 9/1/7
f 16/1/13 17/2/14 15/3/15
f 19/5/16 18/4/17 17/2/14 16/1/13
f 18/4/17 19/5/16 20/6/18 21/7/18
f 24/3/19 23/1/20 22/2/21
f 23/1/20 25/5/22 26/4/23 22/2/21
f 26/4/23 25/5/22 28/6/24 27/7/24
f 32/3/25 33/1/26 31/2/27
f 31/2/27 33/1/26 29/5/28 30/4/29
f 30/4/29 29/5/28 35/6/30 34/7/30
f 39/3/31 38/1/32 37/2/33
f 40/4/34 37/2/33 38/1/32 36/5/35
f 40/4/34 36/5/35 41/6/36 42/7/36
f 45/1/37 43/2/38 44/3/39
f 48/4/40 49/5/41 46/6/42 47/7/42
f 43/2/38 45/1/37 49/5/41 48/4/40
f 52/8/43 50/9/44 51/10/45
f 54/11/46 52/8/43 51/10/45 53/12/46
f 59/8/47 56/10/48 57/12/49 60/11/49
f 59/8/47 58/9/50 56/10/48
f 65/10/51 64/8/52 63/9/53
f 61/12/54 62/11/54 64/8/52 65/10/51
f 70/11/55 67/8/56 68/10/57 69/12/55
f 66/9/58 68/10/57 67/8/56
f 72/8/59 74/10/60 71/12/61 73/11/61
f 74/10/60 72/8/59 75/9/62
f 76/10/63 77/8/64 78/9/65
f 77/8/64 76/10/63 79/12/66 80/11/66
f 81/10/67 82/8/68 83/9/69
f 82/8/68 81/10/67 85/12/70 84/11/70
f 89/12/71 87/11/71 86/8/72 90/10/73
f 88/9/74 90/10/73 86/8/72
f 92/12/75 95/11/75 94/8/76 91/10/77
f 93/9/78 91/10/77 94/8/76
f 98/11/79 99/8/80 96/10/81 100/12/79
f 99/8/80 97/9/82 96/10/81
f 102/8/83 101/9/84 103/10/85
f 102/8/83 103/10/85 105/12/86 104/11/86
f 106/12/87 55/11/87 108/8/88 107/10/89
f 107/10/89 108/8/88 109/9/90
f 112/9/91 113/10/92 111/8/93
f 111/8/93 113/10/92 110/12/94 114/11/94
f 115/10/95 117/12/96 119/11/96 118/8/97
f 118/8/97 116/9/98 115/10/95
